#N canvas 715 209 621 609 10;
#X obj 153 43 bng 15 250 50 0 empty empty empty 17 7 0 10 -262144 -1
-1;
#X obj 160 461 osc~;
#X obj 227 187 bng 15 250 50 0 empty empty empty 17 7 0 10 -262144
-1 -1;
#X obj 153 74 openpanel;
#X msg 185 131 read \$1;
#X obj 153 100 t b s;
#X obj 153 161 cyclone/seq;
#X obj 159 573 dac~;
#X msg 227 207 0;
#X text 246 186 Final do sequenciamento.;
#X text 172 43 Abre arquivo MIDI.;
#X obj 153 241 cyclone/midiparse;
#X obj 180 507 hsl 128 15 0 1 0 0 empty empty volume -2 -8 0 10 -262144
-1 -1 6100 1;
#X obj 159 538 *~;
#X msg 90 122 stop;
#N canvas 187 298 450 300 faixamidi 1;
#X floatatom 129 4 5 0 0 0 - - -;
#X obj 129 -22 mtof;
#X obj 129 -139 unpack;
#X obj 129 -86 stripnote;
#X floatatom 129 -49 5 0 0 0 - - -;
#X text 169 -50 Número MIDI;
#X text 170 2 Hertz;
#X floatatom 129 -117 5 0 0 0 - - -;
#X floatatom 189 -117 5 0 0 0 - - -;
#X text 86 -118 pitch;
#X text 229 -119 velocity;
#X obj 129 -168 inlet;
#X obj 129 28 outlet;
#X connect 0 0 12 0;
#X connect 1 0 0 0;
#X connect 2 0 7 0;
#X connect 2 1 8 0;
#X connect 3 0 4 0;
#X connect 4 0 1 0;
#X connect 7 0 3 0;
#X connect 8 0 3 1;
#X connect 11 0 2 0;
#X restore 183 306 pd faixamidi;
#N canvas 185 299 450 300 faixamidi 0;
#X floatatom 129 4 5 0 0 0 - - -;
#X obj 129 -22 mtof;
#X obj 129 -139 unpack;
#X obj 129 -86 stripnote;
#X floatatom 129 -49 5 0 0 0 - - -;
#X text 169 -50 Número MIDI;
#X text 170 2 Hertz;
#X floatatom 129 -117 5 0 0 0 - - -;
#X floatatom 189 -117 5 0 0 0 - - -;
#X text 86 -118 pitch;
#X text 229 -119 velocity;
#X obj 129 -168 inlet;
#X obj 129 28 outlet;
#N canvas 185 299 450 300 faixamidi 0;
#X floatatom 129 4 5 0 0 0 - - -;
#X obj 129 -22 mtof;
#X obj 129 -139 unpack;
#X obj 129 -86 stripnote;
#X floatatom 129 -49 5 0 0 0 - - -;
#X text 169 -50 Número MIDI;
#X text 170 2 Hertz;
#X floatatom 129 -117 5 0 0 0 - - -;
#X floatatom 189 -117 5 0 0 0 - - -;
#X text 86 -118 pitch;
#X text 229 -119 velocity;
#X obj 129 -168 inlet;
#X obj 129 28 outlet;
#N canvas 185 299 450 300 faixamidi 0;
#X floatatom 129 4 5 0 0 0 - - -;
#X obj 129 -22 mtof;
#X obj 129 -139 unpack;
#X obj 129 -86 stripnote;
#X floatatom 129 -49 5 0 0 0 - - -;
#X text 169 -50 Número MIDI;
#X text 170 2 Hertz;
#X floatatom 129 -117 5 0 0 0 - - -;
#X floatatom 189 -117 5 0 0 0 - - -;
#X text 86 -118 pitch;
#X text 229 -119 velocity;
#X obj 129 -168 inlet;
#X obj 129 28 outlet;
#X connect 0 0 12 0;
#X connect 1 0 0 0;
#X connect 2 0 7 0;
#X connect 2 1 8 0;
#X connect 3 0 4 0;
#X connect 4 0 1 0;
#X connect 7 0 3 0;
#X connect 8 0 3 1;
#X connect 11 0 2 0;
#X restore 439 385 pd faixamidi;
#X connect 0 0 12 0;
#X connect 1 0 0 0;
#X connect 2 0 7 0;
#X connect 2 1 8 0;
#X connect 3 0 4 0;
#X connect 4 0 1 0;
#X connect 7 0 3 0;
#X connect 8 0 3 1;
#X connect 11 0 2 0;
#X restore 429 375 pd faixamidi;
#X connect 0 0 12 0;
#X connect 1 0 0 0;
#X connect 2 0 7 0;
#X connect 2 1 8 0;
#X connect 3 0 4 0;
#X connect 4 0 1 0;
#X connect 7 0 3 0;
#X connect 8 0 3 1;
#X connect 11 0 2 0;
#X restore 99 306 pd faixamidi;
#N canvas 185 299 450 300 faixamidi 1;
#X floatatom 129 4 5 0 0 0 - - -;
#X obj 129 -22 mtof;
#X obj 129 -139 unpack;
#X obj 129 -86 stripnote;
#X floatatom 129 -49 5 0 0 0 - - -;
#X text 169 -50 Número MIDI;
#X text 170 2 Hertz;
#X floatatom 129 -117 5 0 0 0 - - -;
#X floatatom 189 -117 5 0 0 0 - - -;
#X text 86 -118 pitch;
#X text 229 -119 velocity;
#X obj 129 -168 inlet;
#X obj 129 28 outlet;
#X connect 0 0 12 0;
#X connect 1 0 0 0;
#X connect 2 0 7 0;
#X connect 2 1 8 0;
#X connect 3 0 4 0;
#X connect 4 0 1 0;
#X connect 7 0 3 0;
#X connect 8 0 3 1;
#X connect 11 0 2 0;
#X restore 297 309 pd faixamidi;
#N canvas 185 299 450 300 faixamidi 0;
#X floatatom 129 4 5 0 0 0 - - -;
#X obj 129 -22 mtof;
#X obj 129 -139 unpack;
#X obj 129 -86 stripnote;
#X floatatom 129 -49 5 0 0 0 - - -;
#X text 169 -50 Número MIDI;
#X text 170 2 Hertz;
#X floatatom 129 -117 5 0 0 0 - - -;
#X floatatom 189 -117 5 0 0 0 - - -;
#X text 86 -118 pitch;
#X text 229 -119 velocity;
#X obj 129 -168 inlet;
#X obj 129 28 outlet;
#N canvas 185 299 450 300 faixamidi 0;
#X floatatom 129 4 5 0 0 0 - - -;
#X obj 129 -22 mtof;
#X obj 129 -139 unpack;
#X obj 129 -86 stripnote;
#X floatatom 129 -49 5 0 0 0 - - -;
#X text 169 -50 Número MIDI;
#X text 170 2 Hertz;
#X floatatom 129 -117 5 0 0 0 - - -;
#X floatatom 189 -117 5 0 0 0 - - -;
#X text 86 -118 pitch;
#X text 229 -119 velocity;
#X obj 129 -168 inlet;
#X obj 129 28 outlet;
#N canvas 185 299 450 300 faixamidi 0;
#X floatatom 129 4 5 0 0 0 - - -;
#X obj 129 -22 mtof;
#X obj 129 -139 unpack;
#X obj 129 -86 stripnote;
#X floatatom 129 -49 5 0 0 0 - - -;
#X text 169 -50 Número MIDI;
#X text 170 2 Hertz;
#X floatatom 129 -117 5 0 0 0 - - -;
#X floatatom 189 -117 5 0 0 0 - - -;
#X text 86 -118 pitch;
#X text 229 -119 velocity;
#X obj 129 -168 inlet;
#X obj 129 28 outlet;
#N canvas 185 299 450 300 faixamidi 0;
#X floatatom 129 4 5 0 0 0 - - -;
#X obj 129 -22 mtof;
#X obj 129 -139 unpack;
#X obj 129 -86 stripnote;
#X floatatom 129 -49 5 0 0 0 - - -;
#X text 169 -50 Número MIDI;
#X text 170 2 Hertz;
#X floatatom 129 -117 5 0 0 0 - - -;
#X floatatom 189 -117 5 0 0 0 - - -;
#X text 86 -118 pitch;
#X text 229 -119 velocity;
#X obj 129 -168 inlet;
#X obj 129 28 outlet;
#X connect 0 0 12 0;
#X connect 1 0 0 0;
#X connect 2 0 7 0;
#X connect 2 1 8 0;
#X connect 3 0 4 0;
#X connect 4 0 1 0;
#X connect 7 0 3 0;
#X connect 8 0 3 1;
#X connect 11 0 2 0;
#X restore 489 435 pd faixamidi;
#X connect 0 0 12 0;
#X connect 1 0 0 0;
#X connect 2 0 7 0;
#X connect 2 1 8 0;
#X connect 3 0 4 0;
#X connect 4 0 1 0;
#X connect 7 0 3 0;
#X connect 8 0 3 1;
#X connect 11 0 2 0;
#X restore 479 425 pd faixamidi;
#X connect 0 0 12 0;
#X connect 1 0 0 0;
#X connect 2 0 7 0;
#X connect 2 1 8 0;
#X connect 3 0 4 0;
#X connect 4 0 1 0;
#X connect 7 0 3 0;
#X connect 8 0 3 1;
#X connect 11 0 2 0;
#X restore 469 415 pd faixamidi;
#X connect 0 0 12 0;
#X connect 1 0 0 0;
#X connect 2 0 7 0;
#X connect 2 1 8 0;
#X connect 3 0 4 0;
#X connect 4 0 1 0;
#X connect 7 0 3 0;
#X connect 8 0 3 1;
#X connect 11 0 2 0;
#X restore 212 357 pd faixamidi;
#N canvas 183 300 450 300 faixamidi 1;
#X floatatom 129 4 5 0 0 0 - - -;
#X obj 129 -22 mtof;
#X obj 129 -139 unpack;
#X obj 129 -86 stripnote;
#X floatatom 129 -49 5 0 0 0 - - -;
#X text 169 -50 Número MIDI;
#X text 170 2 Hertz;
#X floatatom 129 -117 5 0 0 0 - - -;
#X floatatom 189 -117 5 0 0 0 - - -;
#X text 86 -118 pitch;
#X text 229 -119 velocity;
#X obj 129 -168 inlet;
#X obj 129 28 outlet;
#X connect 0 0 12 0;
#X connect 1 0 0 0;
#X connect 2 0 7 0;
#X connect 2 1 8 0;
#X connect 3 0 4 0;
#X connect 4 0 1 0;
#X connect 7 0 3 0;
#X connect 8 0 3 1;
#X connect 11 0 2 0;
#X restore 305 355 pd faixamidi;
#N canvas 181 301 450 300 faixamidi 1;
#X floatatom 129 4 5 0 0 0 - - -;
#X obj 129 -22 mtof;
#X obj 129 -139 unpack;
#X obj 129 -86 stripnote;
#X floatatom 129 -49 5 0 0 0 - - -;
#X text 169 -50 Número MIDI;
#X text 170 2 Hertz;
#X floatatom 129 -117 5 0 0 0 - - -;
#X floatatom 189 -117 5 0 0 0 - - -;
#X text 86 -118 pitch;
#X text 229 -119 velocity;
#X obj 129 -168 inlet;
#X obj 129 28 outlet;
#X connect 0 0 12 0;
#X connect 1 0 0 0;
#X connect 2 0 7 0;
#X connect 2 1 8 0;
#X connect 3 0 4 0;
#X connect 4 0 1 0;
#X connect 7 0 3 0;
#X connect 8 0 3 1;
#X connect 11 0 2 0;
#X restore 396 327 pd faixamidi;
#X obj 129 370 +;
#X obj 198 414 +;
#X obj 228 438 +;
#X connect 0 0 3 0;
#X connect 1 0 13 0;
#X connect 2 0 8 0;
#X connect 3 0 5 0;
#X connect 4 0 6 0;
#X connect 5 0 6 0;
#X connect 5 1 4 0;
#X connect 6 0 11 0;
#X connect 6 1 2 0;
#X connect 8 0 1 0;
#X connect 11 0 16 0;
#X connect 11 1 15 0;
#X connect 11 2 17 0;
#X connect 11 3 18 0;
#X connect 11 4 19 0;
#X connect 11 5 20 0;
#X connect 12 0 13 1;
#X connect 13 0 7 0;
#X connect 13 0 7 1;
#X connect 14 0 6 0;
#X connect 14 0 2 0;
#X connect 15 0 21 1;
#X connect 16 0 21 0;
#X connect 17 0 23 1;
#X connect 18 0 22 1;
#X connect 21 0 22 0;
#X connect 22 0 23 0;
#X connect 23 0 1 0;
