#N canvas 56 129 1279 687 10;
#X obj 101 101 cnv 15 498 398 empty empty Efeitos 5 12 0 14 -232576
-45076 0;
#X obj 28 122 inlet~;
#N canvas 15 319 1144 639 post_processing 0;
#X obj 116 68 inlet~;
#X obj 158 104 r volume;
#X obj 120 133 *~;
#X msg 542 141 \; onda const 0;
#X obj 542 103 r end;
#X obj 345 126 expr pow(2 \, $f1) * 64;
#X obj 240 101 loadbang;
#X msg 240 133 0;
#X obj 345 98 r b_size;
#X obj 240 164 s b_init;
#X msg 403 203 \; onda resize \$1;
#X floatatom 403 164 5 0 0 0 - - -, f 5;
#X obj 345 203 block~;
#X msg 345 163 set \$1;
#X obj 33 418 bang~;
#X obj 33 447 tabwrite~ onda;
#X obj 136 439 outlet~;
#X obj 199 280 inlet;
#X obj 199 302 unpack;
#X floatatom 232 327 5 0 0 0 - - -, f 5;
#X obj 137 409 *~;
#X obj 256 349 != 0;
#X obj 232 380 spigot;
#X connect 0 0 2 0;
#X connect 1 0 2 1;
#X connect 2 0 15 0;
#X connect 2 0 20 0;
#X connect 4 0 3 0;
#X connect 5 0 11 0;
#X connect 5 0 13 0;
#X connect 6 0 7 0;
#X connect 7 0 9 0;
#X connect 8 0 5 0;
#X connect 11 0 10 0;
#X connect 13 0 12 0;
#X connect 14 0 15 0;
#X connect 17 0 18 0;
#X connect 18 1 19 0;
#X connect 19 0 21 0;
#X connect 19 0 22 0;
#X connect 20 0 16 0;
#X connect 21 0 22 1;
#X connect 22 0 20 1;
#X restore 475 513 pd post_processing;
#X obj 474 554 dac~;
#X obj 598 65 inlet;
#N canvas 4 59 1905 985 toggle_fx 0;
#X obj 101 101 tgl 15 0 empty fx_tog1 empty 17 7 0 10 -257472 -45076
-262144 0 1;
#X obj 117 101 tgl 15 0 empty fx_tog2 empty 17 7 0 10 -257472 -45076
-262144 0 1;
#X obj 133 101 tgl 15 0 empty fx_tog3 empty 17 7 0 10 -257472 -45076
-262144 0 1;
#X obj 149 101 tgl 15 0 empty fx_tog4 empty 17 7 0 10 -257472 -45076
-262144 0 1;
#X obj 103 103 cnv 11 11 11 empty fx1 empty 20 12 0 12 -257472 -262144
0;
#X obj 119 103 cnv 11 11 11 empty fx2 empty 20 12 0 12 -257472 -262144
0;
#X obj 135 103 cnv 11 11 11 empty fx3 empty 20 12 0 12 -257472 -262144
0;
#X obj 151 103 cnv 11 11 11 empty fx4 empty 20 12 0 12 -257472 -262144
0;
#X obj 443 214 sel 1;
#X obj 750 51 loadbang;
#X obj 346 209 sel 0;
#X floatatom 417 154 5 0 0 0 - - -, f 5;
#X obj 143 218 sel 1;
#X obj 55 218 sel 0;
#X floatatom 101 184 5 0 0 0 - - -, f 5;
#X obj 198 491 sel 1;
#X obj 110 491 sel 0;
#X floatatom 156 457 5 0 0 0 - - -, f 5;
#X obj 520 439 sel 1;
#X obj 432 439 sel 0;
#X floatatom 478 405 5 0 0 0 - - -, f 5;
#X msg 432 460 \; fx4 color 39;
#X obj 26 181 s fir_gate;
#X obj 393 406 s fx4_gate;
#X msg 52 240 \; fx1 color 39 \; fir_b color 39;
#X msg 50 282 \; fx1 color 19 \; fir_b color 19;
#X msg 432 515 \; fx4 color 19;
#X obj 301 161 s phaser_gate;
#X msg 345 242 \; fx2 color 39 \; phaser_b color 39;
#X msg 345 298 \; fx2 color 19 \; phaser_b color 19;
#X msg 248 97 0;
#X obj 204 72 loadbang;
#X msg 110 513 \; fx3 color 39 \; wah_b color 39;
#X msg 108 570 \; fx3 color 19 \; wah_b color 19;
#X msg 750 80 \; fx_tog1 color 39 \; fx_tog2 color 39 \; fx_tog3 color
39 \; fx_tog4 color 39 \; fx1 color 39 \; fx2 color 39 \; fx3 color
39 \; fx4 color 39 \; fir_b color 39 \; phaser_b color 39 \; wah_b
color 39;
#X obj 72 455 s wah_gate;
#X connect 0 0 14 0;
#X connect 1 0 11 0;
#X connect 2 0 17 0;
#X connect 3 0 20 0;
#X connect 8 0 29 0;
#X connect 9 0 34 0;
#X connect 10 0 28 0;
#X connect 11 0 10 0;
#X connect 11 0 8 0;
#X connect 11 0 27 0;
#X connect 12 0 25 0;
#X connect 13 0 24 0;
#X connect 14 0 13 0;
#X connect 14 0 12 0;
#X connect 14 0 22 0;
#X connect 15 0 33 0;
#X connect 16 0 32 0;
#X connect 17 0 16 0;
#X connect 17 0 15 0;
#X connect 17 0 35 0;
#X connect 18 0 26 0;
#X connect 19 0 21 0;
#X connect 20 0 19 0;
#X connect 20 0 18 0;
#X connect 30 0 14 0;
#X connect 30 0 11 0;
#X connect 30 0 17 0;
#X connect 30 0 20 0;
#X connect 31 0 30 0;
#X coords 0 -1 1 1 65 17 2 100 100;
#X restore 168 104 pd toggle_fx;
#N canvas 482 285 874 495 fir 0;
#X obj 254 31 inlet~;
#X obj 439 22 inlet;
#X obj 256 289 outlet~;
#X obj 255 142 *~;
#X obj 526 10 r fir_gate;
#X obj 334 97 == 0;
#X obj 394 45 *~;
#N canvas 567 335 1151 599 sub_fir 0;
#X obj 571 42 inlet~;
#X obj 748 37 inlet;
#X obj 550 352 outlet~;
#X obj 748 309 outlet;
#X obj 101 101 cnv 15 348 138 empty fir_b empty 2 12 0 14 -257472 -262144
0;
#X obj 98 253 openpanel;
#X obj 118 133 cnv 15 150 100 empty empty empty 20 12 0 14 -262144
-66577 0;
#N canvas 4 62 450 250 (subpatch) 0;
#X array fir_array 256 float 0;
#X coords 0 1 255 -1 150 100 1 0 0;
#X restore 118 133 graph;
#X obj 189 112 bng 15 250 50 0 empty empty empty 17 7 0 10 -204800
-1 -1;
#X text 210 111 Abrir;
#X obj 285 104 hsl 150 15 0 1 0 0 empty empty empty -2 -8 0 10 -204800
-258113 -1 0 1;
#X text 284 104 dry;
#X text 414 103 wet;
#X obj 572 249 *~;
#X obj 282 40 expr 1 - $f1;
#X obj 535 249 *~;
#X obj 547 283 +~;
#X obj 181 45 loadbang;
#X msg 179 71 0;
#X obj 572 164 iemlib/FIR~ fir_array 256;
#X msg 98 283 read -resize \$1 fir_array;
#X obj 70 345 soundfiler;
#X obj 192 348 loadbang;
#X text 180 -11 dry-wet compõe o sinal com a porcentagem dry para
o sinal original e a porcentagem wet para o sinal com o efeito (dry
= 1 - wet);
#X msg 72 413 read -resize filters/lp1.wav fir_array;
#X obj 286 134 cnv 15 150 100 empty empty empty 20 12 0 14 -262144
-66577 0;
#N canvas 4 62 450 250 (subpatch) 0;
#X array fir_response 256 float 0;
#X coords 0 1 255 -1 150 100 1 0 0;
#X restore 286 134 graph;
#X obj 377 321 rfft~;
#X obj 404 372 *~;
#X obj 364 372 *~;
#X obj 379 413 +~;
#X obj 379 492 tabwrite~ fir_response;
#X obj 395 259 *~ 256;
#X obj 382 282 tabread~ fir_array;
#X msg 532 446 normalize;
#X obj 532 489 s fir_response;
#X obj 379 444 sqrt~;
#X obj 532 416 bang~;
#X obj 473 373 bng 15 250 50 0 empty empty empty 17 7 0 10 -262144
-1 -1;
#X obj 286 262 phasor~ 0.3;
#X connect 0 0 15 0;
#X connect 0 0 19 0;
#X connect 1 0 3 0;
#X connect 5 0 20 0;
#X connect 8 0 5 0;
#X connect 10 0 13 1;
#X connect 10 0 14 0;
#X connect 13 0 16 1;
#X connect 14 0 15 1;
#X connect 15 0 16 0;
#X connect 16 0 2 0;
#X connect 17 0 18 0;
#X connect 18 0 10 0;
#X connect 19 0 13 0;
#X connect 20 0 21 0;
#X connect 20 0 38 0;
#X connect 22 0 24 0;
#X connect 24 0 21 0;
#X connect 24 0 38 0;
#X connect 27 0 29 1;
#X connect 27 0 29 0;
#X connect 27 1 28 0;
#X connect 27 1 28 1;
#X connect 28 0 30 1;
#X connect 29 0 30 0;
#X connect 30 0 36 0;
#X connect 32 0 33 0;
#X connect 33 0 27 0;
#X connect 34 0 35 0;
#X connect 36 0 31 0;
#X connect 37 0 34 0;
#X connect 38 0 31 0;
#X connect 39 0 32 0;
#X coords 0 -1 1 1 350 140 1 100 100;
#X restore 400 100 pd sub_fir;
#X obj 560 73 spigot;
#X text 622 20 Se o efeito não está selecionado \, manda o sinal
sem alteração (análogo em todos os efeitos);
#X connect 0 0 3 0;
#X connect 0 0 6 0;
#X connect 1 0 8 0;
#X connect 3 0 2 0;
#X connect 4 0 6 1;
#X connect 4 0 5 0;
#X connect 4 0 8 1;
#X connect 5 0 3 1;
#X connect 6 0 7 0;
#X connect 7 0 2 0;
#X connect 8 0 7 1;
#X coords 0 -1 1 1 350 140 2 400 100;
#X restore 110 159 pd fir;
#N canvas 73 162 1135 679 phaser 0;
#X obj 88 121 inlet~;
#X obj 397 129 inlet;
#X obj 90 379 outlet~;
#X obj 89 232 *~;
#X obj 108 189 == 0;
#X obj 226 156 *~;
#N canvas 110 172 1023 533 sub_phaser 0;
#X obj 540 486 outlet~;
#X obj 101 141 cnv 15 78 158 empty phaser_b empty 2 12 0 14 -257472
-45076 0;
#X obj 492 383 *~;
#X obj 359 348 expr 1 - $f1;
#X obj 455 383 *~;
#X obj 467 417 +~;
#X obj 181 45 loadbang;
#X obj 524 115 rpole~;
#X obj 524 90 rzero_rev~;
#X obj 524 164 rpole~;
#X obj 524 139 rzero_rev~;
#X obj 524 212 rpole~;
#X obj 524 187 rzero_rev~;
#X obj 524 261 rpole~;
#X obj 524 236 rzero_rev~;
#X obj 501 291 +~;
#X obj 679 239 expr~ 1 - 0.03 - 0.6*abs($v1-0.5)*abs($v1-0.5);
#X obj 495 40 inlet~;
#X obj 678 173 *~;
#X obj 139 252 flatgui/knob 32 32 0 127 0 0 empty empty empty 0 -8
0 8 2.88592e+07 0 2.88832e+07 928 1;
#X text 138 144 Ampl.;
#X text 137 227 Freq.;
#X obj 141 170 flatgui/knob 32 32 0 127 0 0 empty empty empty 0 -8
0 8 2.88592e+07 0 2.88832e+07 0 1;
#X obj 220 150 / 127;
#X obj 220 172 nbx 5 14 -1e+37 1e+37 0 0 empty empty empty 0 -8 0 10
-262144 -1 -1 0 256;
#X msg 179 71 0;
#X obj 224 256 / 127;
#X obj 220 207 s sub_ampl;
#X obj 224 314 s sub_freq;
#X obj 373 136 loadbang;
#X msg 341 168 38;
#X obj 693 142 r sub_ampl;
#X obj 359 295 r dry-wet_phaser;
#X obj 679 105 phasor~ 0.3;
#X obj 224 279 * 20;
#X obj 679 72 r sub_freq;
#X text 634 15 Compõe o sinal que controla os parâmetros do phaser
com a frequência e amplitude selecionadas;
#X obj 108 154 vsl 15 128 0 1 0 0 dry-wet_phaser empty empty 0 -9 0
10 -204800 -258113 -1 0 1;
#X text 110 266 d;
#X text 111 153 w;
#X connect 2 0 5 1;
#X connect 3 0 4 1;
#X connect 4 0 5 0;
#X connect 5 0 0 0;
#X connect 6 0 25 0;
#X connect 7 0 10 0;
#X connect 8 0 7 0;
#X connect 9 0 12 0;
#X connect 10 0 9 0;
#X connect 11 0 14 0;
#X connect 12 0 11 0;
#X connect 13 0 15 1;
#X connect 14 0 13 0;
#X connect 15 0 2 0;
#X connect 16 0 8 1;
#X connect 16 0 7 1;
#X connect 16 0 10 1;
#X connect 16 0 9 1;
#X connect 16 0 12 1;
#X connect 16 0 11 1;
#X connect 16 0 14 1;
#X connect 16 0 13 1;
#X connect 17 0 8 0;
#X connect 17 0 15 0;
#X connect 17 0 4 0;
#X connect 18 0 16 0;
#X connect 19 0 26 0;
#X connect 22 0 23 0;
#X connect 23 0 24 0;
#X connect 24 0 27 0;
#X connect 25 0 37 0;
#X connect 26 0 34 0;
#X connect 29 0 30 0;
#X connect 30 0 19 0;
#X connect 31 0 18 1;
#X connect 32 0 3 0;
#X connect 32 0 2 1;
#X connect 33 0 18 0;
#X connect 34 0 28 0;
#X connect 35 0 33 0;
#X coords 0 -1 1 1 80 160 2 100 140;
#X restore 200 200 pd sub_phaser;
#X obj 188 100 r phaser_gate;
#X connect 0 0 3 0;
#X connect 0 0 5 0;
#X connect 3 0 2 0;
#X connect 4 0 3 1;
#X connect 5 0 6 0;
#X connect 6 0 2 0;
#X connect 7 0 5 1;
#X connect 7 0 4 0;
#X coords 0 -1 1 1 80 160 2 200 200;
#X restore 488 136 pd phaser;
#N canvas 130 134 907 617 (subpatch) 0;
#X obj 1 1 cnv 15 208 138 empty wah_b empty 20 12 0 14 -257472 -262144
0;
#X obj 96 503 vcf~;
#X floatatom 142 487 5 0 0 0 - - -, f 5;
#X obj 142 351 vsl 15 128 0 20 0 0 empty empty empty 0 -9 0 10 -262144
-1 -1 3366 1;
#X obj 276 3 +~ 1;
#X obj 277 24 *~ 0.5;
#X obj 275 -18 osc~ 2;
#X obj 69 38 hsl 128 15 700 6000 0 0 empty empty empty -2 -8 0 10 -262144
-1 -1 0 1;
#X obj 69 68 hsl 128 15 0 700 0 0 empty empty empty -2 -8 0 10 -262144
-1 -1 0 1;
#X floatatom 383 318 6 0 0 0 - - -, f 6;
#X floatatom 399 232 6 0 0 0 - - -, f 6;
#X obj 365 215 -;
#X obj 316 247 bang;
#X obj 108 311 +~ 200;
#X obj 109 229 *~ 1500;
#X text 273 85 <-- LFO (Low-Frequency Oscillator;
#X text 546 198 <-- Maximum of the freq. range;
#X text 519 296 <-- Minimum of the freq. range;
#X text 167 437 <-- "Q";
#X text 136 507 <-- Voltage-Controlled band-pass filter;
#X obj 69 105 hsl 128 15 0.5 4 0 0 empty empty empty -2 -8 0 10 -262144
-1 -1 0 1;
#X obj 305 216 loadbang;
#X msg 193 332 5.3;
#X obj 516 98 env~;
#X text 136 549 Implementation inspired in auto-wah implementation
from Pierre Massat \, GuitarExtended \, 2012.s, f 94;
#X obj 15 87 tgl 15 0 empty empty empty 17 7 0 10 -262144 -1 -1 0 1
;
#X obj 15 122 tgl 15 0 empty empty empty 17 7 0 10 -262144 -1 -1 0
1;
#X text 37 87 usar envelope de amp.;
#X text 37 121 usar LFO;
#X msg 7 174 0;
#X msg 51 174 1;
#X msg 51 199 0;
#X obj 7 149 sel 1;
#X obj 51 149 sel 1;
#X obj 209 92 zexy/multiplex~;
#X obj 516 156 sig~;
#X obj 97 7 hsl 100 15 0 1 0 0 dry-wet_wah empty empty -2 -8 0 10 -204800
-258113 -1 0 1;
#X text 174 6 wet;
#X text 95 6 dry;
#X obj 325 6 loadbang;
#X msg 325 31 0;
#X obj 5 230 expr 1 - $f1;
#X obj 96 526 *~;
#X obj 69 526 *~;
#X obj 78 550 +~;
#X text 0 105 LFO freq.;
#X text 8 22 max f. range;
#X text 9 52 min f. range;
#X obj 483 46 r~ wah_in;
#X obj 672 12 inlet~;
#X obj 681 116 *~;
#X obj 689 90 == 0;
#X obj 742 35 r wah_gate;
#X obj 730 84 *~;
#X obj 737 125 s~ wah_in;
#X obj 737 158 r~ wah_out;
#X obj 744 221 outlet~;
#X obj 77 571 s~ wah_out;
#X connect 1 0 42 0;
#X connect 3 0 2 0;
#X connect 3 0 1 2;
#X connect 4 0 5 0;
#X connect 5 0 34 1;
#X connect 6 0 4 0;
#X connect 7 0 11 0;
#X connect 8 0 9 0;
#X connect 8 0 11 1;
#X connect 8 0 12 0;
#X connect 8 0 13 1;
#X connect 11 0 10 0;
#X connect 11 0 14 1;
#X connect 12 0 11 0;
#X connect 13 0 1 1;
#X connect 14 0 13 0;
#X connect 20 0 6 0;
#X connect 21 0 22 0;
#X connect 22 0 3 0;
#X connect 23 0 35 0;
#X connect 25 0 32 0;
#X connect 26 0 33 0;
#X connect 29 0 26 0;
#X connect 29 0 34 0;
#X connect 30 0 34 0;
#X connect 31 0 25 0;
#X connect 32 0 29 0;
#X connect 33 0 30 0;
#X connect 33 0 31 0;
#X connect 34 0 14 0;
#X connect 35 0 34 0;
#X connect 36 0 41 0;
#X connect 36 0 42 1;
#X connect 39 0 40 0;
#X connect 40 0 36 0;
#X connect 41 0 43 1;
#X connect 42 0 44 1;
#X connect 43 0 44 0;
#X connect 44 0 57 0;
#X connect 48 0 1 0;
#X connect 48 0 23 0;
#X connect 48 0 43 0;
#X connect 49 0 50 0;
#X connect 49 0 53 0;
#X connect 50 0 56 0;
#X connect 51 0 50 1;
#X connect 52 0 51 0;
#X connect 52 0 53 1;
#X connect 53 0 54 0;
#X connect 55 0 56 0;
#X coords 0 1 100 -1 210 140 2 0 0;
#X restore 113 334 graph;
#X text 166 80 Seletor de técnica (admite multiplicidade);
#X text 602 514 Plota sinal final levando em conta o volume;
#X text 109 142 FIR;
#X text 490 117 Phaser;
#X text 116 315 Wah-wah;
#X connect 1 0 6 0;
#X connect 2 0 3 0;
#X connect 2 0 3 1;
#X connect 4 0 2 1;
#X connect 6 0 7 0;
#X connect 7 0 8 0;
#X connect 8 0 2 0;
#X coords 0 -1 1 1 500 400 2 100 100;
