#N canvas 55 109 1279 687 10;
#X obj 101 101 cnv 15 498 398 empty empty Efeitos 5 12 0 14 -232576
-45076 0;
#X obj 28 122 inlet~;
#N canvas 42 193 1144 639 post_processing 0;
#X obj 116 68 inlet~;
#X obj 158 104 r volume;
#X obj 120 133 *~;
#X msg 542 141 \; onda const 0;
#X obj 542 103 r end;
#X obj 345 126 expr pow(2 \, $f1) * 64;
#X obj 240 101 loadbang;
#X msg 240 133 0;
#X obj 345 98 r b_size;
#X obj 240 164 s b_init;
#X msg 403 203 \; onda resize \$1;
#X floatatom 403 164 5 0 0 0 - - -, f 5;
#X obj 345 203 block~;
#X msg 345 163 set \$1;
#X obj 33 418 bang~;
#X obj 33 447 tabwrite~ onda;
#X obj 136 439 outlet~;
#X obj 161 268 inlet;
#X obj 161 290 unpack;
#X floatatom 192 323 5 0 0 0 - - -, f 5;
#X obj 137 409 *~;
#X obj 279 325 != 0;
#X obj 192 359 spigot;
#X connect 0 0 2 0;
#X connect 1 0 2 1;
#X connect 2 0 15 0;
#X connect 2 0 20 0;
#X connect 4 0 3 0;
#X connect 5 0 11 0;
#X connect 5 0 13 0;
#X connect 6 0 7 0;
#X connect 7 0 9 0;
#X connect 8 0 5 0;
#X connect 11 0 10 0;
#X connect 13 0 12 0;
#X connect 14 0 15 0;
#X connect 17 0 18 0;
#X connect 18 1 19 0;
#X connect 19 0 21 1;
#X connect 19 0 22 0;
#X connect 20 0 16 0;
#X connect 21 0 22 1;
#X connect 22 0 20 0;
#X restore 475 513 pd post_processing;
#X obj 474 554 dac~;
#X obj 598 65 inlet;
#N canvas 0 94 1920 986 toggle_fx 0;
#X obj 101 101 tgl 15 0 empty fx_tog1 empty 17 7 0 10 -257472 -45076
-262144 0 1;
#X obj 117 101 tgl 15 0 empty fx_tog2 empty 17 7 0 10 -257472 -45076
-262144 0 1;
#X obj 133 101 tgl 15 0 empty fx_tog3 empty 17 7 0 10 -257472 -45076
-262144 0 1;
#X obj 149 101 tgl 15 0 empty fx_tog4 empty 17 7 0 10 -257472 -45076
-262144 0 1;
#X obj 103 103 cnv 11 11 11 empty fx1 empty 20 12 0 12 -257472 -262144
0;
#X obj 119 103 cnv 11 11 11 empty fx2 empty 20 12 0 12 -257472 -262144
0;
#X obj 135 103 cnv 11 11 11 empty fx3 empty 20 12 0 12 -257472 -262144
0;
#X obj 151 103 cnv 11 11 11 empty fx4 empty 20 12 0 12 -257472 -262144
0;
#X obj 443 214 sel 1;
#X obj 750 51 loadbang;
#X obj 346 209 sel 0;
#X floatatom 417 154 5 0 0 0 - - -, f 5;
#X obj 143 218 sel 1;
#X obj 55 218 sel 0;
#X floatatom 101 184 5 0 0 0 - - -, f 5;
#X obj 198 491 sel 1;
#X obj 110 491 sel 0;
#X floatatom 156 457 5 0 0 0 - - -, f 5;
#X obj 520 439 sel 1;
#X obj 432 439 sel 0;
#X floatatom 478 405 5 0 0 0 - - -, f 5;
#X msg 432 460 \; fx4 color 39;
#X obj 26 181 s fir_gate;
#X obj 72 455 s fx3_gate;
#X obj 393 406 s fx4_gate;
#X msg 52 240 \; fx1 color 39 \; fir_b color 39;
#X msg 50 282 \; fx1 color 19 \; fir_b color 19;
#X msg 432 515 \; fx4 color 19;
#X obj 301 161 s phaser_gate;
#X msg 345 242 \; fx2 color 39 \; phaser_b color 39;
#X msg 345 298 \; fx2 color 19 \; phaser_b color 19;
#X msg 248 97 0;
#X obj 204 72 loadbang;
#X msg 110 513 \; fx3 color 39 \; wah_b color 39;
#X msg 108 570 \; fx3 color 19 \; wah_b color 19;
#X msg 750 80 \; fx_tog1 color 39 \; fx_tog2 color 39 \; fx_tog3 color
39 \; fx_tog4 color 39 \; fx1 color 39 \; fx2 color 39 \; fx3 color
39 \; fx4 color 39 \; fir_b color 39 \; phaser_b color 39 \; wah_b
color 39;
#X connect 0 0 14 0;
#X connect 1 0 11 0;
#X connect 2 0 17 0;
#X connect 3 0 20 0;
#X connect 8 0 30 0;
#X connect 9 0 35 0;
#X connect 10 0 29 0;
#X connect 11 0 10 0;
#X connect 11 0 8 0;
#X connect 11 0 28 0;
#X connect 12 0 26 0;
#X connect 13 0 25 0;
#X connect 14 0 13 0;
#X connect 14 0 12 0;
#X connect 14 0 22 0;
#X connect 15 0 34 0;
#X connect 16 0 33 0;
#X connect 17 0 16 0;
#X connect 17 0 15 0;
#X connect 17 0 23 0;
#X connect 18 0 27 0;
#X connect 19 0 21 0;
#X connect 20 0 19 0;
#X connect 20 0 18 0;
#X connect 31 0 14 0;
#X connect 31 0 11 0;
#X connect 31 0 17 0;
#X connect 31 0 20 0;
#X connect 32 0 31 0;
#X coords 0 -1 1 1 65 17 2 100 100;
#X restore 168 104 pd toggle_fx;
#N canvas 489 249 874 495 fir 0;
#X obj 254 31 inlet~;
#X obj 439 22 inlet;
#X obj 256 289 outlet~;
#X obj 255 142 *~;
#X obj 526 10 r fir_gate;
#X obj 334 97 == 0;
#X obj 394 45 *~;
#N canvas 407 269 700 426 sub_fir 0;
#X obj 421 42 inlet~;
#X obj 598 37 inlet;
#X obj 470 352 outlet~;
#X obj 598 309 outlet;
#X obj 101 101 cnv 15 198 138 empty fir_b empty 2 12 0 14 -257472 -262144
0;
#X obj 98 253 openpanel;
#X obj 106 133 cnv 15 130 100 empty empty empty 20 12 0 14 -262144
-66577 0;
#N canvas 1 54 450 250 (subpatch) 0;
#X array fir_array 64 float 1;
#A 0 0 -0.12 -0.12 -0.12 -0.12 0.1 0.1 0.1 0.12 0.199998 0.259996 0.399993
0.419992 0.479991 0.599988 0.599988 0.599988 0.599988 0.599988 0.599988
0.599988 0.599988 0.599988 0.599988 0.599988 0.599988 0.51999 0.439992
0.369993 0.299995 0.229997 2.5034e-06 -0.31999 -0.31999 -0.31999 -0.259991
-0.139994 0.239997 0.399993 0.299995 0.299995 0.1 0.1 0.1 0.1 0.12
0.159999 0.159999 2.5034e-06 2.5034e-06 2.5034e-06 2.5034e-06 2.5034e-06
2.5034e-06 0.0800005 0.060001 0.060001 0.060001 0.060001 -0.12 -0.12
-0.12 -0.12 -0.12;
#X coords 0 1 63 -1 130 100 1 0 0;
#X restore 106 133 graph;
#X obj 241 187 bng 15 250 50 0 empty empty empty 17 7 0 10 -204800
-1 -1;
#X text 239 170 Abrir;
#X text 239 201 Salvar;
#X obj 241 218 bng 15 250 50 0 empty empty empty 17 7 0 10 -204786
-1 -1;
#X msg 98 298 \; fir_array read \$1;
#X msg 236 296 \; fir_array write \$1;
#X obj 236 258 savepanel;
#X obj 190 109 hsl 100 15 0 1 0 0 empty empty empty -2 -8 0 10 -204800
-258113 -1 0 1;
#X text 191 108 dry;
#X text 267 108 wet;
#X obj 422 249 *~;
#X obj 282 40 expr 1 - $f1;
#X obj 385 249 *~;
#X obj 397 283 +~;
#X obj 181 45 loadbang;
#X msg 179 71 0;
#X obj 422 164 iemlib/FIR~ fir_array 64;
#X connect 0 0 20 0;
#X connect 0 0 24 0;
#X connect 1 0 3 0;
#X connect 5 0 12 0;
#X connect 8 0 5 0;
#X connect 11 0 14 0;
#X connect 14 0 13 0;
#X connect 15 0 18 1;
#X connect 15 0 19 0;
#X connect 18 0 21 1;
#X connect 19 0 20 1;
#X connect 20 0 21 0;
#X connect 21 0 2 0;
#X connect 22 0 23 0;
#X connect 23 0 15 0;
#X connect 24 0 18 0;
#X coords 0 -1 1 1 200 137 1 100 100;
#X restore 400 100 pd sub_fir;
#X obj 560 73 spigot;
#X connect 0 0 3 0;
#X connect 0 0 6 0;
#X connect 1 0 8 0;
#X connect 3 0 2 0;
#X connect 4 0 6 1;
#X connect 4 0 5 0;
#X connect 4 0 8 1;
#X connect 5 0 3 1;
#X connect 6 0 7 0;
#X connect 7 0 2 0;
#X connect 8 0 7 1;
#X coords 0 -1 1 1 200 140 2 400 100;
#X restore 120 138 pd fir;
#N canvas 61 89 1135 679 phaser 0;
#X obj 88 121 inlet~;
#X obj 397 129 inlet;
#X obj 90 379 outlet~;
#X obj 89 232 *~;
#X obj 108 189 == 0;
#X obj 226 156 *~;
#N canvas 111 152 1023 533 sub_phaser 0;
#X obj 540 486 outlet~;
#X obj 101 101 cnv 15 198 78 empty phaser_b empty 2 12 0 14 -257472
-262144 0;
#X obj 112 109 hsl 180 15 0 1 0 0 dry-wet_phaser empty empty -2 -8
0 10 -204800 -258113 -1 0 1;
#X text 111 109 dry;
#X text 267 109 wet;
#X obj 492 383 *~;
#X obj 359 348 expr 1 - $f1;
#X obj 455 383 *~;
#X obj 467 417 +~;
#X obj 181 45 loadbang;
#X obj 524 115 rpole~;
#X obj 524 90 rzero_rev~;
#X obj 524 164 rpole~;
#X obj 524 139 rzero_rev~;
#X obj 524 212 rpole~;
#X obj 524 187 rzero_rev~;
#X obj 524 261 rpole~;
#X obj 524 236 rzero_rev~;
#X obj 501 291 +~;
#X obj 679 239 expr~ 1 - 0.03 - 0.6*abs($v1-0.5)*abs($v1-0.5);
#X obj 495 40 inlet~;
#X obj 678 173 *~;
#X obj 257 139 flatgui/knob 32 32 0 127 0 0 empty empty empty 0 -8
0 8 3.05439e+07 0 3.05381e+07 928 1;
#X text 107 133 Ampl.;
#X text 213 132 Freq.;
#X obj 163 138 flatgui/knob 32 32 0 127 0 0 empty empty empty 0 -8
0 8 3.05439e+07 0 3.05381e+07 0 1;
#X obj 163 213 / 127;
#X obj 163 235 nbx 5 14 -1e+37 1e+37 0 0 empty empty empty 0 -8 0 10
-262144 -1 -1 0 256;
#X msg 179 71 0;
#X obj 256 212 / 127;
#X obj 163 270 s sub_ampl;
#X obj 256 270 s sub_freq;
#X obj 373 136 loadbang;
#X msg 341 168 38;
#X obj 693 142 r sub_ampl;
#X obj 359 295 r dry-wet_phaser;
#X obj 679 105 phasor~ 0.3;
#X obj 256 235 * 20;
#X obj 679 72 r sub_freq;
#X connect 5 0 8 1;
#X connect 6 0 7 1;
#X connect 7 0 8 0;
#X connect 8 0 0 0;
#X connect 9 0 28 0;
#X connect 10 0 13 0;
#X connect 11 0 10 0;
#X connect 12 0 15 0;
#X connect 13 0 12 0;
#X connect 14 0 17 0;
#X connect 15 0 14 0;
#X connect 16 0 18 1;
#X connect 17 0 16 0;
#X connect 18 0 5 0;
#X connect 19 0 11 1;
#X connect 19 0 10 1;
#X connect 19 0 13 1;
#X connect 19 0 12 1;
#X connect 19 0 15 1;
#X connect 19 0 14 1;
#X connect 19 0 17 1;
#X connect 19 0 16 1;
#X connect 20 0 11 0;
#X connect 20 0 18 0;
#X connect 20 0 7 0;
#X connect 21 0 19 0;
#X connect 22 0 29 0;
#X connect 25 0 26 0;
#X connect 26 0 27 0;
#X connect 27 0 30 0;
#X connect 28 0 2 0;
#X connect 29 0 37 0;
#X connect 32 0 33 0;
#X connect 33 0 22 0;
#X connect 34 0 21 1;
#X connect 35 0 6 0;
#X connect 35 0 5 1;
#X connect 36 0 21 0;
#X connect 37 0 31 0;
#X connect 38 0 36 0;
#X coords 0 -1 1 1 200 80 2 100 100;
#X restore 200 200 pd sub_phaser;
#X obj 188 100 r phaser_gate;
#X connect 0 0 3 0;
#X connect 0 0 5 0;
#X connect 3 0 2 0;
#X connect 4 0 3 1;
#X connect 5 0 6 0;
#X connect 6 0 2 0;
#X connect 7 0 5 1;
#X connect 7 0 4 0;
#X coords 0 -1 1 1 200 80 2 200 200;
#X restore 348 155 pd phaser;
#X text 360 130 Phaser;
#N canvas 453 141 907 617 (subpatch) 0;
#X obj 1 1 cnv 15 198 138 empty wah_b empty 20 12 0 14 -257472 -262144
0;
#X obj 96 503 vcf~;
#X floatatom 142 487 5 0 0 0 - - -, f 5;
#X obj 142 351 vsl 15 128 0 20 0 0 empty empty empty 0 -9 0 10 -262144
-1 -1 3366 1;
#X obj 218 102 +~ 1;
#X obj 219 123 *~ 0.5;
#X obj 217 81 osc~ 2;
#X obj 412 197 hsl 128 15 700 6000 0 0 empty empty empty -2 -8 0 10
-262144 -1 -1 0 1;
#X obj 385 296 hsl 128 15 0 700 0 0 empty empty empty -2 -8 0 10 -262144
-1 -1 0 1;
#X floatatom 382 315 6 0 0 0 - - -, f 6;
#X floatatom 398 229 6 0 0 0 - - -, f 6;
#X obj 364 212 -;
#X obj 315 244 bang;
#X obj 108 311 +~ 200;
#X obj 109 229 *~ 1500;
#X text 272 82 <-- LFO (Low-Frequency Oscillator;
#X text 545 195 <-- Maximum of the freq. range;
#X text 518 293 <-- Minimum of the freq. range;
#X text 167 437 <-- "Q";
#X text 135 504 <-- Voltage-Controlled band-pass filter;
#X obj 220 52 hsl 128 15 0.5 4 0 0 empty empty empty -2 -8 0 10 -262144
-1 -1 0 1;
#X obj 247 315 loadbang;
#X msg 193 332 5.3;
#X obj 95 4 inlet~;
#X obj 565 21 env~;
#X text 135 546 Implementation inspired in auto-wah implementation
from Pierre Massat \, GuitarExtended \, 2012.s, f 94;
#X obj 15 70 tgl 15 0 empty empty empty 17 7 0 10 -262144 -1 -1 0 1
;
#X obj 15 97 tgl 15 0 empty empty empty 17 7 0 10 -262144 -1 -1 0 1
;
#X text 37 70 usar envelope de amp.;
#X text 37 96 usar LFO;
#X msg 7 174 0;
#X msg 51 174 1;
#X msg 51 199 0;
#X obj 7 149 sel 1;
#X obj 51 149 sel 1;
#X obj 151 191 zexy/multiplex~;
#X obj 565 79 sig~;
#X obj 46 28 hsl 100 15 0 1 0 0 empty empty empty -2 -8 0 10 -204800
-258113 -1 0 1;
#X text 123 27 wet;
#X text 44 27 dry;
#X obj 6 6 loadbang;
#X msg 6 28 0;
#X obj 5 230 expr 1 - $f1;
#X obj 78 572 outlet~;
#X obj 96 526 *~;
#X obj 69 526 *~;
#X obj 78 550 +~;
#X obj 800 114 inlet;
#X obj 800 386 outlet;
#X connect 1 0 44 0;
#X connect 3 0 2 0;
#X connect 3 0 1 2;
#X connect 4 0 5 0;
#X connect 5 0 35 1;
#X connect 6 0 4 0;
#X connect 7 0 11 0;
#X connect 8 0 9 0;
#X connect 8 0 11 1;
#X connect 8 0 12 0;
#X connect 8 0 13 1;
#X connect 11 0 10 0;
#X connect 11 0 14 1;
#X connect 12 0 11 0;
#X connect 13 0 1 1;
#X connect 14 0 13 0;
#X connect 20 0 6 0;
#X connect 21 0 22 0;
#X connect 22 0 3 0;
#X connect 23 0 1 0;
#X connect 23 0 24 0;
#X connect 23 0 45 0;
#X connect 24 0 36 0;
#X connect 26 0 33 0;
#X connect 27 0 34 0;
#X connect 30 0 27 0;
#X connect 30 0 35 0;
#X connect 31 0 35 0;
#X connect 32 0 26 0;
#X connect 33 0 30 0;
#X connect 34 0 31 0;
#X connect 34 0 32 0;
#X connect 35 0 14 0;
#X connect 36 0 35 0;
#X connect 37 0 42 0;
#X connect 37 0 44 1;
#X connect 40 0 41 0;
#X connect 41 0 37 0;
#X connect 42 0 45 1;
#X connect 44 0 46 1;
#X connect 45 0 46 0;
#X connect 46 0 43 0;
#X connect 47 0 48 0;
#X coords 0 1 100 -1 200 140 2 0 0;
#X restore 117 322 graph;
#X connect 1 0 6 0;
#X connect 2 0 3 0;
#X connect 2 0 3 1;
#X connect 4 0 2 1;
#X connect 6 0 7 0;
#X connect 7 0 2 0;
#X coords 0 -1 1 1 500 400 2 100 100;
