#N canvas 18 239 1520 801 10;
#X obj 101 101 cnv 15 498 198 empty envelopamento Envelopamento 5 12
0 14 -261228 -86277 0;
#N canvas 250 290 1389 657 env_selector 0;
#X obj 100 101 hradio 15 1 0 2 empty empty empty 0 -8 0 10 -261234
-258113 -1 0;
#X floatatom 659 477 5 0 0 0 - - -, f 5;
#X obj 190 33 inlet~;
#X obj 190 499 outlet~;
#X obj 354 93 cyclone/peakamp~;
#X obj 397 44 bang~;
#N canvas 347 279 868 605 select_env 0;
#X obj 196 406 bng 15 250 50 0 empty empty empty 17 7 0 10 -262144
-1 -1;
#X obj 393 406 bng 15 250 50 0 empty empty empty 17 7 0 10 -262144
-1 -1;
#X obj 579 402 bng 15 250 50 0 empty empty empty 17 7 0 10 -262144
-1 -1;
#X obj 725 402 bng 15 250 50 0 empty empty empty 17 7 0 10 -262144
-1 -1;
#X obj 377 238 inlet;
#X obj 367 494 outlet;
#X obj 698 498 outlet;
#X msg 367 429 0;
#X msg 698 425 0;
#X obj 152 330 loadbang;
#X obj 377 310 s eb1;
#X obj 417 309 s eb2;
#X obj 377 276 route 0;
#X obj 579 366 r eb2;
#X obj 728 369 r eb1;
#X obj 392 373 r eb2;
#X obj 196 370 r eb1;
#X msg 196 451 \; adsr_b color 13;
#X msg 325 429 1;
#X msg 657 426 1;
#X msg 393 451 \; adsr_b color -1.67628e+07;
#X msg 579 450 \; random_b color 13;
#X msg 727 445 \; random_b color -1.67628e+07;
#X connect 0 0 17 0;
#X connect 0 0 18 0;
#X connect 1 0 20 0;
#X connect 1 0 7 0;
#X connect 2 0 21 0;
#X connect 2 0 19 0;
#X connect 3 0 22 0;
#X connect 3 0 8 0;
#X connect 4 0 12 0;
#X connect 7 0 5 0;
#X connect 8 0 6 0;
#X connect 9 0 0 0;
#X connect 12 0 10 0;
#X connect 12 1 11 0;
#X connect 13 0 2 0;
#X connect 14 0 3 0;
#X connect 15 0 1 0;
#X connect 16 0 0 0;
#X connect 18 0 5 0;
#X connect 19 0 6 0;
#X restore 287 353 pd select_env;
#X floatatom 287 471 5 0 0 0 - - -, f 5;
#X obj 100 35 loadbang;
#X msg 100 63 0;
#X obj 190 462 *~;
#X obj 512 475 *~;
#X obj 512 497 outlet~;
#X text 224 329 troca cores e controla trocas de técnicas;
#X obj 362 132 s peak;
#X connect 0 0 6 0;
#X connect 2 0 4 0;
#X connect 2 0 10 0;
#X connect 2 0 11 0;
#X connect 4 0 14 0;
#X connect 5 0 4 0;
#X connect 6 0 7 0;
#X connect 6 0 10 1;
#X connect 6 1 1 0;
#X connect 6 1 11 1;
#X connect 8 0 9 0;
#X connect 9 0 0 0;
#X connect 10 0 3 0;
#X connect 11 0 12 0;
#X coords 0 -1 1 1 30 17 2 100 100;
#X restore 215 105 pd env_selector;
#N canvas 748 269 1063 771 adsr 0;
#X obj 101 101 cnv 15 258 148 empty adsr_b empty 20 12 0 14 -258699
-262144 0;
#X obj 140 380 r trigger;
#X obj 189 484 r graphit;
#X obj 152 624 outlet~;
#X obj 105 127 cnv 15 120 90 empty empty empty 20 12 0 14 -262144 -66577
0;
#N canvas 7 81 450 300 (subpatch) 0;
#X array forma_adsr 44100 float 0;
#X coords 0 1.02 44099 0 120 90 1 0 0;
#X restore 105 127 graph;
#X obj 593 342 r note_on;
#X obj 151 572 *~;
#X obj 574 405 bng 15 250 50 0 empty empty empty 17 7 0 10 -262144
-1 -1;
#X floatatom 157 411 5 0 0 0 - - -, f 5;
#X obj 283 -11 loadbang;
#N canvas 6 59 804 985 sub_adsr 0;
#X obj 105 111 inlet;
#X obj 435 151 inlet;
#X text 101 86 trigger;
#X obj 105 139 sel 0;
#X obj 244 155 t b;
#X obj 166 264 f \$1;
#X obj 166 289 pack 0 \$2;
#X obj 492 151 inlet;
#X obj 438 281 del \$2;
#X obj 458 429 line~;
#X obj 462 304 f \$4;
#X obj 501 379 pack 0 \$3;
#X obj 554 151 inlet;
#X obj 616 151 inlet;
#X obj 689 150 inlet;
#X msg 105 170 stop;
#X obj 612 306 pack 0 \$5;
#X text 435 129 level;
#X obj 501 355 * \$1;
#X obj 458 454 outlet~;
#X text 102 378 and pack with;
#X text 103 398 attack time;
#X text 31 126 if zero;
#X text 32 143 release;
#X text 12 160 and cancel;
#X text 43 177 decay;
#X text 284 272 on attack \, set a;
#X text 278 305 recall sustain value;
#X text 315 378 pack with decay time;
#X text 605 332 on release ramp;
#X text 606 349 back to zero;
#X obj 462 329 * 0.01;
#X text 47 567 Objects such as "f" and "pack" can be given dollar sign
arguments to initialize their contents from adsr's creation arguments.
Inlets are supplied to change them on the fly.;
#X text 13 2 ADSR ENVELOPE;
#X text 488 129 attack;
#X text 555 128 decay;
#X text 609 129 sustain;
#X text 686 129 release;
#X text 202 71 attack;
#X obj 204 92 moses;
#X obj 194 122 t b b;
#X msg 128 290 0;
#X text 20 273 optionally;
#X text 10 291 bash to zero;
#X text 25 246 ATTACK:;
#X text 49 477 When you send this patch a positive trigger it schedules
a line~ to do an attack and decay \, and if zero \, it starts the release
ramp.;
#X text 495 629 Updated for Pd version 0.37;
#X text 255 89 test for negative trigger;
#X text 253 113 if so \, zero;
#X text 254 129 the output;
#X text 278 165 in any case;
#X text 303 355 multiply by peak level;
#X text 280 286 delay for sustain;
#X text 276 328 convert from percent;
#X text 155 340 ... then;
#X text 103 359 recall peak level;
#X text 439 113 peak;
#X text 281 149 ... do this;
#X text 47 529 Negative triggers cause the output to jump to zero and
then attack (instead of attacking from the current location).;
#X text 208 1 Arguments: level \, attack time \, decay time \, sustain
level \, release time. A \, D \, and R are in msec and S is in percent.
This patch is used as an abstraction in various examples.;
#X obj 476 193 * 1000;
#X obj 557 193 * 1000;
#X obj 672 195 * 1000;
#X connect 0 0 3 0;
#X connect 1 0 5 1;
#X connect 1 0 18 1;
#X connect 3 0 15 0;
#X connect 3 0 16 0;
#X connect 3 1 39 0;
#X connect 4 0 5 0;
#X connect 4 0 8 0;
#X connect 5 0 6 0;
#X connect 6 0 9 0;
#X connect 7 0 60 0;
#X connect 8 0 10 0;
#X connect 9 0 19 0;
#X connect 10 0 31 0;
#X connect 11 0 9 0;
#X connect 12 0 61 0;
#X connect 13 0 10 1;
#X connect 14 0 62 0;
#X connect 15 0 8 0;
#X connect 16 0 9 0;
#X connect 18 0 11 0;
#X connect 31 0 18 0;
#X connect 39 0 40 0;
#X connect 39 1 4 0;
#X connect 40 0 4 0;
#X connect 40 1 41 0;
#X connect 41 0 9 0;
#X connect 60 0 8 1;
#X connect 60 0 6 1;
#X connect 61 0 11 1;
#X connect 62 0 16 1;
#X restore 151 459 pd sub_adsr;
#X obj 718 350 r note_off;
#X obj 718 406 bng 15 250 50 0 empty empty empty 17 7 0 10 -262144
-1 -1;
#X obj 266 117 vsl 15 110 0 1 0 0 decay empty D 0 -9 0 10 -203904 -1
-1 1090 1;
#X obj 246 233 nbx 3 14 0 4 0 0 empty empty empty 0 -8 0 10 -262144
-1 -1 0.1 256;
#X obj 371 382 r sustain;
#X obj 232 117 vsl 15 110 0 1 0 0 att empty A 0 -9 0 10 -203904 -1
-1 1090 1;
#X obj 338 117 vsl 15 110 0 1 0 0 release empty R 0 -9 0 10 -203904
-1 -1 2180 1;
#X obj 301 117 vsl 15 110 0 100 0 0 sustain empty S_% 0 -9 0 10 -204786
-1 -1 9810 1;
#X obj 322 233 nbx 3 14 0 4 0 0 empty empty empty 0 -8 0 10 -262144
-1 -1 0.2 256;
#X obj 208 233 nbx 3 14 0 4 0 0 empty empty empty 0 -8 0 10 -262144
-1 -1 0.1 256;
#X obj 284 233 nbx 3 14 0 100 0 0 empty empty empty 0 -8 0 10 -262144
-1 -1 90 256;
#X obj 262 381 r att;
#X obj 309 381 r decay;
#X obj 448 383 r release;
#X msg 232 42 0.1;
#X obj 211 380 r peak;
#X obj 51 333 inlet~;
#X msg 301 42 90;
#X msg 266 42 0.1;
#X msg 338 42 0.2;
#X msg 610 397 \; trigger 1 \; graphit bang;
#X msg 749 388 \; trigger 0 graphit bang;
#X obj 167 509 tabwrite~ forma_adsr;
#X connect 1 0 11 0;
#X connect 1 0 9 0;
#X connect 2 0 34 0;
#X connect 6 0 8 0;
#X connect 6 0 32 0;
#X connect 7 0 3 0;
#X connect 10 0 29 0;
#X connect 10 0 30 0;
#X connect 10 0 26 0;
#X connect 10 0 31 0;
#X connect 11 0 7 0;
#X connect 11 0 34 0;
#X connect 12 0 13 0;
#X connect 12 0 33 0;
#X connect 14 0 15 0;
#X connect 16 0 11 4;
#X connect 17 0 21 0;
#X connect 18 0 20 0;
#X connect 19 0 22 0;
#X connect 23 0 11 2;
#X connect 24 0 11 3;
#X connect 25 0 11 5;
#X connect 26 0 17 0;
#X connect 27 0 11 1;
#X connect 28 0 7 1;
#X connect 29 0 19 0;
#X connect 30 0 14 0;
#X connect 31 0 18 0;
#X coords 0 -1 1 1 260 150 1 100 100;
#X restore 115 143 pd adsr;
#X obj 242 45 inlet~;
#X obj 163 341 outlet~;
#X obj 331 315 loadbang;
#X msg 339 346 \; envelopamento color -1.67628e+07;
#X obj 639 50 inlet;
#X obj 639 116 unpack;
#X obj 728 333 s note_on;
#X obj 639 247 pack;
#X obj 639 331 outlet;
#X obj 728 299 bng 15 250 50 0 empty empty empty 17 7 0 10 -262144
-1 -1;
#X obj 759 206 != 0;
#X obj 707 276 spigot;
#X floatatom 779 157 5 0 0 0 - - -, f 5;
#X obj 774 280 spigot;
#X obj 807 309 bng 15 250 50 0 empty empty empty 17 7 0 10 -262144
-1 -1;
#X obj 807 338 s note_off;
#X obj 807 206 == 0;
#X msg 773 243 0;
#X floatatom 817 238 5 0 0 0 - - -, f 5;
#X obj 950 57 inlet;
#X text 212 79 Seletor de técnica;
#X text 854 301 Computa eventos de note_on e note_off;
#X msg 314 405 \; forma_adsr const 0;
#N canvas 754 269 1063 771 random_env 0;
#X obj 664 46 r note_on;
#X obj 645 109 bng 15 250 50 0 empty empty empty 17 7 0 10 -262144
-1 -1;
#X obj 283 -11 loadbang;
#X obj 789 54 r note_off;
#X obj 789 110 bng 15 250 50 0 empty empty empty 17 7 0 10 -262144
-1 -1;
#X msg 112 42 0.1;
#X msg 156 42 0.2;
#X msg 681 101 \; trigger_r 1;
#X msg 820 92 \; trigger_r 0;
#X obj 101 101 cnv 15 178 148 empty random_b empty 20 12 0 14 -261228
-262144 0;
#X obj 114 116 vsl 15 110 0 1 0 0 empty empty A 0 -9 0 10 -203904 -1
-1 200 1;
#X obj 153 116 vsl 15 110 0 1 0 0 empty empty R 0 -9 0 10 -203904 -1
-1 300 1;
#X obj 103 233 nbx 3 14 0 4 0 0 empty empty empty 0 -8 0 10 -262144
-1 -1 0.0183486 256;
#X obj 144 233 nbx 3 14 0 4 0 0 empty empty empty 0 -8 0 10 -262144
-1 -1 0.0275229 256;
#X obj 642 428 metro;
#X obj 202 116 vsl 15 110 1 1000 0 0 empty empty Min 0 -9 0 10 -204800
-1 -1 500 1;
#X obj 246 116 vsl 15 110 1 1000 0 0 empty empty Max 0 -9 0 10 -204800
-1 -1 4500 1;
#X obj 185 233 nbx 4 14 1 1000 0 0 empty empty empty 0 -8 0 10 -262144
-1 -1 46.8257 256;
#X obj 234 233 nbx 4 14 1 1000 0 0 empty empty empty 0 -8 0 10 -262144
-1 -1 413.431 256;
#X msg 224 36 100;
#X obj 676 298 random;
#X obj 687 266 -;
#X floatatom 676 338 5 0 0 0 - - -, f 5;
#X obj 676 362 +;
#X obj 191 262 s min;
#X obj 245 265 s max;
#X obj 473 183 r min;
#X obj 706 206 r max;
#X floatatom 673 394 5 0 0 0 - - -, f 5;
#X obj 456 336 bng 15 250 50 0 empty empty empty 17 7 0 10 -262144
-1 -1;
#X obj 644 464 random 100;
#X obj 633 498 / 100;
#X floatatom 741 297 5 0 0 0 - - -, f 5;
#X floatatom 536 546 5 0 0 0 - - -, f 5;
#X obj 560 403 r start;
#X obj 561 361 r end;
#X msg 561 383 0;
#X obj 141 471 r graphit;
#X obj 104 646 outlet~;
#X obj 103 559 *~;
#X floatatom 109 398 5 0 0 0 - - -, f 5;
#N canvas 7 59 804 985 sub_adsr 0;
#X obj 105 111 inlet;
#X obj 435 151 inlet;
#X text 101 86 trigger;
#X obj 105 139 sel 0;
#X obj 244 155 t b;
#X obj 166 264 f \$1;
#X obj 166 289 pack 0 \$2;
#X obj 492 151 inlet;
#X obj 438 281 del \$2;
#X obj 458 429 line~;
#X obj 462 304 f \$4;
#X obj 501 379 pack 0 \$3;
#X obj 554 151 inlet;
#X obj 616 151 inlet;
#X obj 689 150 inlet;
#X msg 105 170 stop;
#X obj 612 306 pack 0 \$5;
#X text 435 129 level;
#X obj 501 355 * \$1;
#X obj 458 454 outlet~;
#X text 102 378 and pack with;
#X text 103 398 attack time;
#X text 31 126 if zero;
#X text 32 143 release;
#X text 12 160 and cancel;
#X text 43 177 decay;
#X text 284 272 on attack \, set a;
#X text 278 305 recall sustain value;
#X text 315 378 pack with decay time;
#X text 605 332 on release ramp;
#X text 606 349 back to zero;
#X obj 462 329 * 0.01;
#X text 47 567 Objects such as "f" and "pack" can be given dollar sign
arguments to initialize their contents from adsr's creation arguments.
Inlets are supplied to change them on the fly.;
#X text 13 2 ADSR ENVELOPE;
#X text 488 129 attack;
#X text 555 128 decay;
#X text 609 129 sustain;
#X text 686 129 release;
#X text 202 71 attack;
#X obj 204 92 moses;
#X obj 194 122 t b b;
#X msg 128 290 0;
#X text 20 273 optionally;
#X text 10 291 bash to zero;
#X text 25 246 ATTACK:;
#X text 49 477 When you send this patch a positive trigger it schedules
a line~ to do an attack and decay \, and if zero \, it starts the release
ramp.;
#X text 495 629 Updated for Pd version 0.37;
#X text 255 89 test for negative trigger;
#X text 253 113 if so \, zero;
#X text 254 129 the output;
#X text 278 165 in any case;
#X text 303 355 multiply by peak level;
#X text 280 286 delay for sustain;
#X text 276 328 convert from percent;
#X text 155 340 ... then;
#X text 103 359 recall peak level;
#X text 439 113 peak;
#X text 281 149 ... do this;
#X text 47 529 Negative triggers cause the output to jump to zero and
then attack (instead of attacking from the current location).;
#X text 208 1 Arguments: level \, attack time \, decay time \, sustain
level \, release time. A \, D \, and R are in msec and S is in percent.
This patch is used as an abstraction in various examples.;
#X obj 476 193 * 1000;
#X obj 557 193 * 1000;
#X obj 672 195 * 1000;
#X connect 0 0 3 0;
#X connect 1 0 5 1;
#X connect 1 0 18 1;
#X connect 3 0 15 0;
#X connect 3 0 16 0;
#X connect 3 1 39 0;
#X connect 4 0 5 0;
#X connect 4 0 8 0;
#X connect 5 0 6 0;
#X connect 6 0 9 0;
#X connect 7 0 60 0;
#X connect 8 0 10 0;
#X connect 9 0 19 0;
#X connect 10 0 31 0;
#X connect 11 0 9 0;
#X connect 12 0 61 0;
#X connect 13 0 10 1;
#X connect 14 0 62 0;
#X connect 15 0 8 0;
#X connect 16 0 9 0;
#X connect 18 0 11 0;
#X connect 31 0 18 0;
#X connect 39 0 40 0;
#X connect 39 1 4 0;
#X connect 40 0 4 0;
#X connect 40 1 41 0;
#X connect 41 0 9 0;
#X connect 60 0 8 1;
#X connect 60 0 6 1;
#X connect 61 0 11 1;
#X connect 62 0 16 1;
#X restore 103 446 pd sub_adsr;
#X obj 167 368 r peak;
#X obj 3 320 inlet~;
#X obj 119 496 tabwrite~ forma_adsr;
#X obj 92 367 r trigger_r;
#X floatatom 204 337 5 0 0 0 - - -, f 5;
#X floatatom 367 335 5 0 0 0 - - -, f 5;
#X obj 103 603 *~;
#X msg 269 328 0.1;
#X msg 316 336 100;
#X connect 0 0 1 0;
#X connect 0 0 7 0;
#X connect 2 0 5 0;
#X connect 2 0 6 0;
#X connect 2 0 49 0;
#X connect 2 0 19 0;
#X connect 2 0 50 0;
#X connect 3 0 4 0;
#X connect 3 0 8 0;
#X connect 5 0 10 0;
#X connect 6 0 11 0;
#X connect 10 0 12 0;
#X connect 10 0 46 0;
#X connect 11 0 13 0;
#X connect 11 0 47 0;
#X connect 14 0 30 0;
#X connect 15 0 17 0;
#X connect 15 0 24 0;
#X connect 16 0 18 0;
#X connect 16 0 25 0;
#X connect 19 0 16 0;
#X connect 19 0 15 0;
#X connect 20 0 22 0;
#X connect 21 0 20 1;
#X connect 21 0 32 0;
#X connect 22 0 23 0;
#X connect 23 0 28 0;
#X connect 26 0 21 1;
#X connect 26 0 23 1;
#X connect 27 0 21 0;
#X connect 28 0 14 1;
#X connect 29 0 20 0;
#X connect 30 0 31 0;
#X connect 31 0 33 0;
#X connect 31 0 29 0;
#X connect 33 0 48 1;
#X connect 34 0 14 0;
#X connect 35 0 36 0;
#X connect 36 0 14 0;
#X connect 37 0 44 0;
#X connect 39 0 48 0;
#X connect 41 0 39 0;
#X connect 41 0 44 0;
#X connect 42 0 41 1;
#X connect 43 0 39 1;
#X connect 45 0 41 0;
#X connect 45 0 40 0;
#X connect 46 0 41 2;
#X connect 47 0 41 5;
#X connect 48 0 38 0;
#X connect 49 0 41 3;
#X connect 50 0 41 4;
#X coords 0 -1 1 1 180 150 1 100 100;
#X restore 393 144 pd random_env;
#X text 118 124 ADSR;
#X text 392 125 Aleatório;
#X connect 1 0 2 0;
#X connect 1 1 26 0;
#X connect 2 0 4 0;
#X connect 3 0 1 0;
#X connect 5 0 6 0;
#X connect 5 0 25 0;
#X connect 7 0 8 0;
#X connect 8 0 10 0;
#X connect 8 1 10 1;
#X connect 8 1 15 0;
#X connect 8 1 14 0;
#X connect 8 1 16 0;
#X connect 10 0 11 0;
#X connect 12 0 9 0;
#X connect 13 0 14 1;
#X connect 14 0 12 0;
#X connect 15 0 13 0;
#X connect 15 0 19 0;
#X connect 16 0 17 0;
#X connect 17 0 18 0;
#X connect 19 0 16 1;
#X connect 19 0 21 0;
#X connect 20 0 14 1;
#X connect 20 0 16 1;
#X connect 26 0 4 0;
#X coords 0 -1 1 1 500 200 1 100 100;
