#N canvas 285 77 621 609 10;
#X obj 153 43 bng 15 250 50 0 empty empty empty 17 7 0 10 -262144 -1
-1;
#X floatatom 153 414 5 0 0 0 - - -, f 5;
#X obj 153 388 mtof;
#X obj 153 440 osc~;
#X obj 153 271 unpack;
#X obj 153 326 stripnote;
#X floatatom 153 361 5 0 0 0 - - -, f 5;
#X obj 227 187 bng 15 250 50 0 empty empty empty 17 7 0 10 -262144
-1 -1;
#X obj 153 74 openpanel;
#X msg 185 131 read \$1;
#X obj 153 100 t b s;
#X obj 153 161 cyclone/seq;
#X obj 152 552 dac~;
#X msg 227 207 0;
#X text 246 186 Final do sequenciamento.;
#X text 172 43 Abre arquivo MIDI.;
#X obj 153 241 cyclone/midiparse;
#X obj 173 486 hsl 128 15 0 1 0 0 empty empty volume -2 -8 0 10 -262144
-1 -1 4900 1;
#X obj 152 517 *~;
#X text 193 360 Número MIDI;
#X text 194 412 Hertz;
#X floatatom 153 293 5 0 0 0 - - -, f 5;
#X floatatom 213 293 5 0 0 0 - - -, f 5;
#X text 110 292 pitch;
#X text 253 291 velocity;
#X msg 90 122 stop;
#X connect 0 0 8 0;
#X connect 1 0 3 0;
#X connect 2 0 1 0;
#X connect 3 0 18 0;
#X connect 4 0 21 0;
#X connect 4 1 22 0;
#X connect 5 0 6 0;
#X connect 6 0 2 0;
#X connect 7 0 13 0;
#X connect 8 0 10 0;
#X connect 9 0 11 0;
#X connect 10 0 11 0;
#X connect 10 1 9 0;
#X connect 11 0 16 0;
#X connect 11 1 7 0;
#X connect 13 0 3 0;
#X connect 16 0 4 0;
#X connect 17 0 18 1;
#X connect 18 0 12 0;
#X connect 18 0 12 1;
#X connect 21 0 5 0;
#X connect 22 0 5 1;
#X connect 25 0 11 0;
#X connect 25 0 7 0;
