#N canvas 1 63 1905 978 10;
#N canvas 621 219 944 686 sintese 0;
#X obj 100 100 cnv 15 500 400 empty empty Síntese 5 12 0 14 -262130
-66577 0;
#N canvas 688 139 735 792 VCO 0;
#X obj 101 101 cnv 15 98 78 empty vco_b empty 20 12 0 14 -262131 -262144
0;
#X obj 103 102 vradio 15 1 0 5 vco_select empty empty 0 -8 0 10 -262130
-260097 -1 0;
#X text 138 131 Dentada;
#X text 134 146 Quadrada;
#X text 144 161 Pulso;
#X text 138 100 Senoide;
#X text 125 115 Triangular;
#X obj 280 103 inlet;
#X obj 230 346 phasor~ 0;
#X obj 280 148 unpack;
#X obj 103 43 loadbang;
#X msg 103 69 0;
#N canvas 1 65 1905 986 triangle 0;
#X obj 299 149 inlet;
#X floatatom 299 211 5 0 0 0 - - -, f 5;
#X obj 347 275 * -1;
#X obj 229 326 phasor~;
#X msg 418 284 0;
#X obj 228 350 *~ 2;
#X obj 228 375 -~ 1;
#X obj 227 399 clip~ 0 1;
#X obj 347 326 phasor~;
#X obj 346 350 *~ 2;
#X obj 346 375 -~ 1;
#X obj 345 399 clip~ 0 1;
#X obj 297 441 +~;
#X obj 298 480 outlet~;
#X connect 0 0 1 0;
#X connect 1 0 2 0;
#X connect 1 0 3 0;
#X connect 2 0 8 0;
#X connect 3 0 5 0;
#X connect 4 0 3 1;
#X connect 4 0 8 1;
#X connect 5 0 6 0;
#X connect 6 0 7 0;
#X connect 7 0 12 0;
#X connect 8 0 9 0;
#X connect 9 0 10 0;
#X connect 10 0 11 0;
#X connect 11 0 12 1;
#X connect 12 0 13 0;
#X restore 152 345 pd triangle;
#N canvas 895 154 794 637 square 0;
#X obj 141 26 inlet;
#X floatatom 141 61 5 0 0 0 - - -, f 5;
#X obj 177 108 * -1;
#X obj 104 190 phasor~;
#X obj 177 190 phasor~;
#X obj 136 237 +~;
#X obj 137 269 -~ 1;
#X msg 202 147 0;
#X msg 243 148 0.5;
#X obj 230 108 loadbang;
#X obj 137 306 outlet~;
#X connect 0 0 1 0;
#X connect 1 0 2 0;
#X connect 1 0 3 0;
#X connect 2 0 4 0;
#X connect 3 0 5 0;
#X connect 4 0 5 1;
#X connect 5 0 6 0;
#X connect 6 0 10 0;
#X connect 7 0 3 1;
#X connect 8 0 4 1;
#X connect 9 0 8 0;
#X connect 9 0 7 0;
#X restore 306 345 pd square;
#N canvas 933 380 450 300 pulse 0;
#X obj 134 57 inlet;
#X obj 134 86 phasor~;
#X obj 135 115 -~ 0.99;
#X obj 135 179 *~ 100;
#X obj 135 147 clip~ 0 1;
#X obj 136 209 outlet~;
#X connect 0 0 1 0;
#X connect 1 0 2 0;
#X connect 2 0 4 0;
#X connect 3 0 5 0;
#X connect 4 0 3 0;
#X restore 378 345 pd pulse;
#X obj 98 346 osc~ 0;
#N canvas 183 234 1051 722 multiplexer 0;
#X obj 327 402 outlet~;
#X obj 139 157 inlet~;
#X obj 165 208 r vco_select;
#X obj 165 245 == 0;
#X obj 138 300 *~;
#X obj 303 161 inlet~;
#X obj 329 212 r vco_select;
#X obj 302 304 *~;
#X obj 448 159 inlet~;
#X obj 474 210 r vco_select;
#X obj 447 302 *~;
#X obj 590 163 inlet~;
#X obj 616 214 r vco_select;
#X obj 589 306 *~;
#X obj 728 156 inlet~;
#X obj 754 207 r vco_select;
#X obj 727 299 *~;
#X obj 329 249 == 1;
#X obj 474 247 == 2;
#X obj 616 251 == 3;
#X obj 754 244 == 4;
#X floatatom 204 315 5 0 0 0 - - -, f 5;
#X connect 1 0 4 0;
#X connect 2 0 3 0;
#X connect 3 0 4 1;
#X connect 3 0 21 0;
#X connect 4 0 0 0;
#X connect 5 0 7 0;
#X connect 6 0 17 0;
#X connect 7 0 0 0;
#X connect 8 0 10 0;
#X connect 9 0 18 0;
#X connect 10 0 0 0;
#X connect 11 0 13 0;
#X connect 12 0 19 0;
#X connect 13 0 0 0;
#X connect 14 0 16 0;
#X connect 15 0 20 0;
#X connect 16 0 0 0;
#X connect 17 0 7 1;
#X connect 18 0 10 1;
#X connect 19 0 13 1;
#X connect 20 0 16 1;
#X restore 220 413 pd multiplexer;
#X obj 220 519 outlet~;
#X msg 475 232 0;
#X obj 348 192 s vco_vel;
#X obj 221 477 *~;
#X obj 236 452 r vco_vel;
#X obj 475 193 r end;
#X obj 205 244 zexy/demultiplex 1 2 3 4 5;
#X floatatom 378 147 5 0 0 0 - - -, f 5;
#X connect 1 0 23 1;
#X connect 7 0 9 0;
#X connect 7 0 24 0;
#X connect 8 0 16 2;
#X connect 9 0 23 0;
#X connect 9 1 19 0;
#X connect 10 0 11 0;
#X connect 11 0 1 0;
#X connect 12 0 16 1;
#X connect 13 0 16 3;
#X connect 14 0 16 4;
#X connect 15 0 16 0;
#X connect 16 0 20 0;
#X connect 18 0 15 0;
#X connect 18 0 12 0;
#X connect 18 0 8 0;
#X connect 18 0 13 0;
#X connect 18 0 14 0;
#X connect 20 0 17 0;
#X connect 21 0 20 1;
#X connect 22 0 18 0;
#X connect 23 0 15 0;
#X connect 23 1 12 0;
#X connect 23 2 8 0;
#X connect 23 3 13 0;
#X connect 23 4 14 0;
#X coords 0 -1 1 1 100 80 2 100 100;
#X restore 133 130 pd VCO;
#N canvas 905 158 889 893 synth_selector 0;
#X obj 100 101 hradio 15 1 0 4 empty empty empty 0 -8 0 10 -262130
-260097 -1 1;
#X obj 266 111 inlet;
#X obj 266 154 unpack;
#X obj 377 223 s vel;
#X obj 333 155 s freq_ampl;
#N canvas 1 65 1905 986 select_synth 0;
#X obj 377 276 route 0 1 2;
#X obj 196 406 bng 15 250 50 0 empty empty empty 17 7 0 10 -262144
-1 -1;
#X obj 323 406 bng 15 250 50 0 empty empty empty 17 7 0 10 -262144
-1 -1;
#X msg 323 450 \; vco_b color 5;
#X obj 377 310 s sb1;
#X obj 414 310 s sb2;
#X obj 451 310 s sb3;
#X obj 488 310 s sb4;
#X obj 196 370 r sb1;
#X obj 283 370 r sb2;
#X obj 323 370 r sb3;
#X obj 364 370 r sb4;
#X obj 445 402 bng 15 250 50 0 empty empty empty 17 7 0 10 -262144
-1 -1;
#X obj 565 402 bng 15 250 50 0 empty empty empty 17 7 0 10 -262144
-1 -1;
#X obj 565 366 r sb3;
#X obj 606 366 r sb4;
#X obj 689 404 bng 15 250 50 0 empty empty empty 17 7 0 10 -262144
-1 -1;
#X obj 809 404 bng 15 250 50 0 empty empty empty 17 7 0 10 -262144
-1 -1;
#X obj 769 368 r sb2;
#X obj 850 368 r sb4;
#X obj 934 404 bng 15 250 50 0 empty empty empty 17 7 0 10 -262144
-1 -1;
#X obj 1054 404 bng 15 250 50 0 empty empty empty 17 7 0 10 -262144
-1 -1;
#X obj 1054 368 r sb3;
#X obj 1095 368 r sb4;
#X obj 377 238 inlet;
#X obj 445 366 r sb2;
#X obj 525 366 r sb1;
#X obj 689 368 r sb3;
#X obj 809 368 r sb1;
#X obj 934 368 r sb4;
#X obj 1014 368 r sb1;
#X msg 689 449 \; 3_b color 104;
#X msg 809 448 \; 3_b color 5;
#X msg 934 449 \; 4_b color 104;
#X msg 1054 448 \; 4_b color 5;
#X msg 196 451 \; vco_b color 104;
#X obj 297 494 outlet;
#X obj 1026 503 outlet;
#X obj 538 498 outlet;
#X obj 782 502 outlet;
#X msg 297 429 0;
#X msg 538 425 0;
#X obj 543 70 loadbang;
#X msg 782 426 0;
#X msg 1026 429 0;
#X msg 445 447 \; fourier_b color 104;
#X msg 565 446 \; fourier_b color 5;
#X msg 719 428 1;
#X msg 970 427 1;
#X msg 229 429 1;
#X msg 483 422 1;
#X connect 0 0 4 0;
#X connect 0 1 5 0;
#X connect 0 2 6 0;
#X connect 0 3 7 0;
#X connect 1 0 35 0;
#X connect 1 0 49 0;
#X connect 2 0 3 0;
#X connect 2 0 40 0;
#X connect 8 0 1 0;
#X connect 9 0 2 0;
#X connect 10 0 2 0;
#X connect 11 0 2 0;
#X connect 12 0 45 0;
#X connect 12 0 50 0;
#X connect 13 0 46 0;
#X connect 13 0 41 0;
#X connect 14 0 13 0;
#X connect 15 0 13 0;
#X connect 16 0 31 0;
#X connect 16 0 47 0;
#X connect 17 0 32 0;
#X connect 17 0 43 0;
#X connect 18 0 17 0;
#X connect 19 0 17 0;
#X connect 20 0 33 0;
#X connect 20 0 48 0;
#X connect 21 0 34 0;
#X connect 21 0 44 0;
#X connect 22 0 21 0;
#X connect 23 0 21 0;
#X connect 24 0 0 0;
#X connect 25 0 12 0;
#X connect 26 0 13 0;
#X connect 27 0 16 0;
#X connect 28 0 17 0;
#X connect 29 0 20 0;
#X connect 30 0 21 0;
#X connect 40 0 36 0;
#X connect 41 0 38 0;
#X connect 42 0 1 0;
#X connect 42 0 43 0;
#X connect 42 0 44 0;
#X connect 42 0 13 0;
#X connect 43 0 39 0;
#X connect 44 0 37 0;
#X connect 47 0 39 0;
#X connect 48 0 37 0;
#X connect 49 0 36 0;
#X connect 50 0 38 0;
#X restore 114 198 pd select_synth;
#N canvas 69 149 773 599 sel 0;
#X obj 111 30 inlet;
#X obj 226 31 inlet;
#X obj 148 281 r vel;
#X obj 127 318 pack;
#X obj 127 359 outlet;
#X obj 212 209 spigot;
#X obj 127 156 == 0;
#X obj 108 206 spigot;
#X floatatom 127 242 5 0 0 0 - - -, f 5;
#X connect 0 0 5 1;
#X connect 0 0 6 0;
#X connect 0 0 7 0;
#X connect 1 0 5 0;
#X connect 2 0 3 1;
#X connect 3 0 4 0;
#X connect 5 0 8 0;
#X connect 6 0 7 1;
#X connect 7 0 8 0;
#X connect 8 0 3 0;
#X restore 72 272 pd sel;
#N canvas 67 150 773 599 sel 0;
#X obj 111 30 inlet;
#X obj 226 31 inlet;
#X obj 148 281 r vel;
#X obj 127 318 pack;
#X obj 127 359 outlet;
#X obj 212 209 spigot;
#X obj 127 156 == 0;
#X obj 108 206 spigot;
#X floatatom 127 242 5 0 0 0 - - -, f 5;
#X connect 0 0 5 1;
#X connect 0 0 6 0;
#X connect 0 0 7 0;
#X connect 1 0 5 0;
#X connect 2 0 3 1;
#X connect 3 0 4 0;
#X connect 5 0 8 0;
#X connect 6 0 7 1;
#X connect 7 0 8 0;
#X connect 8 0 3 0;
#X restore 181 344 pd sel;
#N canvas 67 150 773 599 sel 0;
#X obj 111 30 inlet;
#X obj 226 31 inlet;
#X obj 148 281 r vel;
#X obj 127 318 pack;
#X obj 127 359 outlet;
#X obj 212 209 spigot;
#X obj 127 156 == 0;
#X obj 108 206 spigot;
#X floatatom 127 242 5 0 0 0 - - -, f 5;
#X connect 0 0 5 1;
#X connect 0 0 6 0;
#X connect 0 0 7 0;
#X connect 1 0 5 0;
#X connect 2 0 3 1;
#X connect 3 0 4 0;
#X connect 5 0 8 0;
#X connect 6 0 7 1;
#X connect 7 0 8 0;
#X connect 8 0 3 0;
#X restore 238 369 pd sel;
#N canvas 65 151 773 599 sel 0;
#X obj 111 30 inlet;
#X obj 226 31 inlet;
#X obj 148 281 r vel;
#X obj 127 318 pack;
#X obj 127 359 outlet;
#X obj 212 209 spigot;
#X obj 127 156 == 0;
#X obj 108 206 spigot;
#X floatatom 127 242 5 0 0 0 - - -, f 5;
#X connect 0 0 5 1;
#X connect 0 0 6 0;
#X connect 0 0 7 0;
#X connect 1 0 5 0;
#X connect 2 0 3 1;
#X connect 3 0 4 0;
#X connect 5 0 8 0;
#X connect 6 0 7 1;
#X connect 7 0 8 0;
#X connect 8 0 3 0;
#X restore 124 307 pd sel;
#X obj 72 316 outlet;
#X obj 238 408 outlet;
#X obj 181 381 outlet;
#X obj 124 346 outlet;
#X connect 0 0 5 0;
#X connect 1 0 2 0;
#X connect 1 0 4 0;
#X connect 2 0 6 1;
#X connect 2 0 9 1;
#X connect 2 0 7 1;
#X connect 2 0 8 1;
#X connect 2 1 3 0;
#X connect 5 0 6 0;
#X connect 5 1 9 0;
#X connect 5 2 7 0;
#X connect 5 3 8 0;
#X connect 6 0 10 0;
#X connect 7 0 12 0;
#X connect 8 0 11 0;
#X connect 9 0 13 0;
#X coords 0 -1 1 1 60 17 2 100 100;
#X restore 175 104 pd synth_selector;
#X text 105 132 VCO;
#N canvas 829 207 926 725 fourier 0;
#N canvas 572 319 1142 584 oscbank 0;
#X obj 463 48 loadbang;
#X obj 463 103 metro 30;
#X obj 463 129 s poll-table;
#N canvas 1 57 986 553 parcial 0;
#X obj 365 419 osc~;
#X obj 431 204 r poll-table;
#X obj 466 344 + 50;
#X obj 466 370 dbtorms;
#X msg 415 346 0;
#X obj 415 399 pack 0 30;
#X obj 415 429 line~;
#X obj 365 478 throw~ sum-bus;
#X obj 365 449 *~;
#X obj 415 237 f;
#X obj 374 175 ftom;
#X obj 416 263 -;
#X obj 458 262 r whammybar;
#X obj 415 291 tabread4 spectrum-tab;
#X obj 415 318 moses 1;
#X text 364 60 Adaptado da abstração spectrum-partial do Pure Data
;
#X obj 365 94 r fourier_freq;
#X obj 296 94 inlet;
#X floatatom 265 147 5 0 0 0 - - -, f 5;
#X obj 365 149 *;
#X connect 0 0 8 0;
#X connect 1 0 9 0;
#X connect 2 0 3 0;
#X connect 3 0 5 0;
#X connect 4 0 5 0;
#X connect 5 0 6 0;
#X connect 6 0 8 1;
#X connect 8 0 7 0;
#X connect 9 0 11 0;
#X connect 10 0 9 1;
#X connect 11 0 13 0;
#X connect 12 0 11 1;
#X connect 13 0 14 0;
#X connect 14 0 4 0;
#X connect 14 1 2 0;
#X connect 16 0 19 0;
#X connect 17 0 18 0;
#X connect 17 0 19 1;
#X connect 19 0 10 0;
#X connect 19 0 0 0;
#X restore 106 71 pd parcial;
#X msg 106 49 1;
#X obj 146 49 r load;
#N canvas 1 56 986 553 parcial 0;
#X obj 365 419 osc~;
#X obj 431 204 r poll-table;
#X obj 466 344 + 50;
#X obj 466 370 dbtorms;
#X msg 415 346 0;
#X obj 415 399 pack 0 30;
#X obj 415 429 line~;
#X obj 365 478 throw~ sum-bus;
#X obj 365 449 *~;
#X obj 415 237 f;
#X obj 374 175 ftom;
#X obj 416 263 -;
#X obj 458 262 r whammybar;
#X obj 415 291 tabread4 spectrum-tab;
#X obj 415 318 moses 1;
#X text 364 60 Adaptado da abstração spectrum-partial do Pure Data
;
#X obj 365 94 r fourier_freq;
#X obj 296 94 inlet;
#X floatatom 265 147 5 0 0 0 - - -, f 5;
#X obj 365 149 *;
#X connect 0 0 8 0;
#X connect 1 0 9 0;
#X connect 2 0 3 0;
#X connect 3 0 5 0;
#X connect 4 0 5 0;
#X connect 5 0 6 0;
#X connect 6 0 8 1;
#X connect 8 0 7 0;
#X connect 9 0 11 0;
#X connect 10 0 9 1;
#X connect 11 0 13 0;
#X connect 12 0 11 1;
#X connect 13 0 14 0;
#X connect 14 0 4 0;
#X connect 14 1 2 0;
#X connect 16 0 19 0;
#X connect 17 0 18 0;
#X connect 17 0 19 1;
#X connect 19 0 10 0;
#X connect 19 0 0 0;
#X restore 106 115 pd parcial;
#X obj 146 93 r load;
#N canvas 1 56 986 553 parcial 0;
#X obj 365 419 osc~;
#X obj 431 204 r poll-table;
#X obj 466 344 + 50;
#X obj 466 370 dbtorms;
#X msg 415 346 0;
#X obj 415 399 pack 0 30;
#X obj 415 429 line~;
#X obj 365 478 throw~ sum-bus;
#X obj 365 449 *~;
#X obj 415 237 f;
#X obj 374 175 ftom;
#X obj 416 263 -;
#X obj 458 262 r whammybar;
#X obj 415 291 tabread4 spectrum-tab;
#X obj 415 318 moses 1;
#X text 364 60 Adaptado da abstração spectrum-partial do Pure Data
;
#X obj 365 94 r fourier_freq;
#X obj 296 94 inlet;
#X floatatom 265 147 5 0 0 0 - - -, f 5;
#X obj 365 149 *;
#X connect 0 0 8 0;
#X connect 1 0 9 0;
#X connect 2 0 3 0;
#X connect 3 0 5 0;
#X connect 4 0 5 0;
#X connect 5 0 6 0;
#X connect 6 0 8 1;
#X connect 8 0 7 0;
#X connect 9 0 11 0;
#X connect 10 0 9 1;
#X connect 11 0 13 0;
#X connect 12 0 11 1;
#X connect 13 0 14 0;
#X connect 14 0 4 0;
#X connect 14 1 2 0;
#X connect 16 0 19 0;
#X connect 17 0 18 0;
#X connect 17 0 19 1;
#X connect 19 0 10 0;
#X connect 19 0 0 0;
#X restore 106 160 pd parcial;
#X obj 146 138 r load;
#N canvas 1 56 986 553 parcial 0;
#X obj 365 419 osc~;
#X obj 431 204 r poll-table;
#X obj 466 344 + 50;
#X obj 466 370 dbtorms;
#X msg 415 346 0;
#X obj 415 399 pack 0 30;
#X obj 415 429 line~;
#X obj 365 478 throw~ sum-bus;
#X obj 365 449 *~;
#X obj 415 237 f;
#X obj 374 175 ftom;
#X obj 416 263 -;
#X obj 458 262 r whammybar;
#X obj 415 291 tabread4 spectrum-tab;
#X obj 415 318 moses 1;
#X text 364 60 Adaptado da abstração spectrum-partial do Pure Data
;
#X obj 365 94 r fourier_freq;
#X obj 296 94 inlet;
#X floatatom 265 147 5 0 0 0 - - -, f 5;
#X obj 365 149 *;
#X connect 0 0 8 0;
#X connect 1 0 9 0;
#X connect 2 0 3 0;
#X connect 3 0 5 0;
#X connect 4 0 5 0;
#X connect 5 0 6 0;
#X connect 6 0 8 1;
#X connect 8 0 7 0;
#X connect 9 0 11 0;
#X connect 10 0 9 1;
#X connect 11 0 13 0;
#X connect 12 0 11 1;
#X connect 13 0 14 0;
#X connect 14 0 4 0;
#X connect 14 1 2 0;
#X connect 16 0 19 0;
#X connect 17 0 18 0;
#X connect 17 0 19 1;
#X connect 19 0 10 0;
#X connect 19 0 0 0;
#X restore 106 204 pd parcial;
#X obj 146 182 r load;
#N canvas 1 56 986 553 parcial 0;
#X obj 365 419 osc~;
#X obj 431 204 r poll-table;
#X obj 466 344 + 50;
#X obj 466 370 dbtorms;
#X msg 415 346 0;
#X obj 415 399 pack 0 30;
#X obj 415 429 line~;
#X obj 365 478 throw~ sum-bus;
#X obj 365 449 *~;
#X obj 415 237 f;
#X obj 374 175 ftom;
#X obj 416 263 -;
#X obj 458 262 r whammybar;
#X obj 415 291 tabread4 spectrum-tab;
#X obj 415 318 moses 1;
#X text 364 60 Adaptado da abstração spectrum-partial do Pure Data
;
#X obj 365 94 r fourier_freq;
#X obj 296 94 inlet;
#X floatatom 265 147 5 0 0 0 - - -, f 5;
#X obj 365 149 *;
#X connect 0 0 8 0;
#X connect 1 0 9 0;
#X connect 2 0 3 0;
#X connect 3 0 5 0;
#X connect 4 0 5 0;
#X connect 5 0 6 0;
#X connect 6 0 8 1;
#X connect 8 0 7 0;
#X connect 9 0 11 0;
#X connect 10 0 9 1;
#X connect 11 0 13 0;
#X connect 12 0 11 1;
#X connect 13 0 14 0;
#X connect 14 0 4 0;
#X connect 14 1 2 0;
#X connect 16 0 19 0;
#X connect 17 0 18 0;
#X connect 17 0 19 1;
#X connect 19 0 10 0;
#X connect 19 0 0 0;
#X restore 106 248 pd parcial;
#X obj 146 226 r load;
#N canvas 1 56 986 553 parcial 0;
#X obj 365 419 osc~;
#X obj 431 204 r poll-table;
#X obj 466 344 + 50;
#X obj 466 370 dbtorms;
#X msg 415 346 0;
#X obj 415 399 pack 0 30;
#X obj 415 429 line~;
#X obj 365 478 throw~ sum-bus;
#X obj 365 449 *~;
#X obj 415 237 f;
#X obj 374 175 ftom;
#X obj 416 263 -;
#X obj 458 262 r whammybar;
#X obj 415 291 tabread4 spectrum-tab;
#X obj 415 318 moses 1;
#X text 364 60 Adaptado da abstração spectrum-partial do Pure Data
;
#X obj 365 94 r fourier_freq;
#X obj 296 94 inlet;
#X floatatom 265 147 5 0 0 0 - - -, f 5;
#X obj 365 149 *;
#X connect 0 0 8 0;
#X connect 1 0 9 0;
#X connect 2 0 3 0;
#X connect 3 0 5 0;
#X connect 4 0 5 0;
#X connect 5 0 6 0;
#X connect 6 0 8 1;
#X connect 8 0 7 0;
#X connect 9 0 11 0;
#X connect 10 0 9 1;
#X connect 11 0 13 0;
#X connect 12 0 11 1;
#X connect 13 0 14 0;
#X connect 14 0 4 0;
#X connect 14 1 2 0;
#X connect 16 0 19 0;
#X connect 17 0 18 0;
#X connect 17 0 19 1;
#X connect 19 0 10 0;
#X connect 19 0 0 0;
#X restore 106 291 pd parcial;
#X obj 146 269 r load;
#N canvas 1 56 986 553 parcial 0;
#X obj 365 419 osc~;
#X obj 431 204 r poll-table;
#X obj 466 344 + 50;
#X obj 466 370 dbtorms;
#X msg 415 346 0;
#X obj 415 399 pack 0 30;
#X obj 415 429 line~;
#X obj 365 478 throw~ sum-bus;
#X obj 365 449 *~;
#X obj 415 237 f;
#X obj 374 175 ftom;
#X obj 416 263 -;
#X obj 458 262 r whammybar;
#X obj 415 291 tabread4 spectrum-tab;
#X obj 415 318 moses 1;
#X text 364 60 Adaptado da abstração spectrum-partial do Pure Data
;
#X obj 365 94 r fourier_freq;
#X obj 296 94 inlet;
#X floatatom 265 147 5 0 0 0 - - -, f 5;
#X obj 365 149 *;
#X connect 0 0 8 0;
#X connect 1 0 9 0;
#X connect 2 0 3 0;
#X connect 3 0 5 0;
#X connect 4 0 5 0;
#X connect 5 0 6 0;
#X connect 6 0 8 1;
#X connect 8 0 7 0;
#X connect 9 0 11 0;
#X connect 10 0 9 1;
#X connect 11 0 13 0;
#X connect 12 0 11 1;
#X connect 13 0 14 0;
#X connect 14 0 4 0;
#X connect 14 1 2 0;
#X connect 16 0 19 0;
#X connect 17 0 18 0;
#X connect 17 0 19 1;
#X connect 19 0 10 0;
#X connect 19 0 0 0;
#X restore 106 335 pd parcial;
#X obj 146 313 r load;
#N canvas 1 56 986 553 parcial 0;
#X obj 365 419 osc~;
#X obj 431 204 r poll-table;
#X obj 466 344 + 50;
#X obj 466 370 dbtorms;
#X msg 415 346 0;
#X obj 415 399 pack 0 30;
#X obj 415 429 line~;
#X obj 365 478 throw~ sum-bus;
#X obj 365 449 *~;
#X obj 415 237 f;
#X obj 374 175 ftom;
#X obj 416 263 -;
#X obj 458 262 r whammybar;
#X obj 415 291 tabread4 spectrum-tab;
#X obj 415 318 moses 1;
#X text 364 60 Adaptado da abstração spectrum-partial do Pure Data
;
#X obj 365 94 r fourier_freq;
#X obj 296 94 inlet;
#X floatatom 265 147 5 0 0 0 - - -, f 5;
#X obj 365 149 *;
#X connect 0 0 8 0;
#X connect 1 0 9 0;
#X connect 2 0 3 0;
#X connect 3 0 5 0;
#X connect 4 0 5 0;
#X connect 5 0 6 0;
#X connect 6 0 8 1;
#X connect 8 0 7 0;
#X connect 9 0 11 0;
#X connect 10 0 9 1;
#X connect 11 0 13 0;
#X connect 12 0 11 1;
#X connect 13 0 14 0;
#X connect 14 0 4 0;
#X connect 14 1 2 0;
#X connect 16 0 19 0;
#X connect 17 0 18 0;
#X connect 17 0 19 1;
#X connect 19 0 10 0;
#X connect 19 0 0 0;
#X restore 106 380 pd parcial;
#X obj 146 358 r load;
#N canvas 1 56 986 553 parcial 0;
#X obj 365 419 osc~;
#X obj 431 204 r poll-table;
#X obj 466 344 + 50;
#X obj 466 370 dbtorms;
#X msg 415 346 0;
#X obj 415 399 pack 0 30;
#X obj 415 429 line~;
#X obj 365 478 throw~ sum-bus;
#X obj 365 449 *~;
#X obj 415 237 f;
#X obj 374 175 ftom;
#X obj 416 263 -;
#X obj 458 262 r whammybar;
#X obj 415 291 tabread4 spectrum-tab;
#X obj 415 318 moses 1;
#X text 364 60 Adaptado da abstração spectrum-partial do Pure Data
;
#X obj 365 94 r fourier_freq;
#X obj 296 94 inlet;
#X floatatom 265 147 5 0 0 0 - - -, f 5;
#X obj 365 149 *;
#X connect 0 0 8 0;
#X connect 1 0 9 0;
#X connect 2 0 3 0;
#X connect 3 0 5 0;
#X connect 4 0 5 0;
#X connect 5 0 6 0;
#X connect 6 0 8 1;
#X connect 8 0 7 0;
#X connect 9 0 11 0;
#X connect 10 0 9 1;
#X connect 11 0 13 0;
#X connect 12 0 11 1;
#X connect 13 0 14 0;
#X connect 14 0 4 0;
#X connect 14 1 2 0;
#X connect 16 0 19 0;
#X connect 17 0 18 0;
#X connect 17 0 19 1;
#X connect 19 0 10 0;
#X connect 19 0 0 0;
#X restore 106 424 pd parcial;
#X obj 146 402 r load;
#N canvas 1 56 986 553 parcial 0;
#X obj 365 419 osc~;
#X obj 431 204 r poll-table;
#X obj 466 344 + 50;
#X obj 466 370 dbtorms;
#X msg 415 346 0;
#X obj 415 399 pack 0 30;
#X obj 415 429 line~;
#X obj 365 478 throw~ sum-bus;
#X obj 365 449 *~;
#X obj 415 237 f;
#X obj 374 175 ftom;
#X obj 416 263 -;
#X obj 458 262 r whammybar;
#X obj 415 291 tabread4 spectrum-tab;
#X obj 415 318 moses 1;
#X text 364 60 Adaptado da abstração spectrum-partial do Pure Data
;
#X obj 365 94 r fourier_freq;
#X obj 296 94 inlet;
#X floatatom 265 147 5 0 0 0 - - -, f 5;
#X obj 365 149 *;
#X connect 0 0 8 0;
#X connect 1 0 9 0;
#X connect 2 0 3 0;
#X connect 3 0 5 0;
#X connect 4 0 5 0;
#X connect 5 0 6 0;
#X connect 6 0 8 1;
#X connect 8 0 7 0;
#X connect 9 0 11 0;
#X connect 10 0 9 1;
#X connect 11 0 13 0;
#X connect 12 0 11 1;
#X connect 13 0 14 0;
#X connect 14 0 4 0;
#X connect 14 1 2 0;
#X connect 16 0 19 0;
#X connect 17 0 18 0;
#X connect 17 0 19 1;
#X connect 19 0 10 0;
#X connect 19 0 0 0;
#X restore 106 468 pd parcial;
#X obj 146 446 r load;
#N canvas 1 56 986 553 parcial 0;
#X obj 365 419 osc~;
#X obj 431 204 r poll-table;
#X obj 466 344 + 50;
#X obj 466 370 dbtorms;
#X msg 415 346 0;
#X obj 415 399 pack 0 30;
#X obj 415 429 line~;
#X obj 365 478 throw~ sum-bus;
#X obj 365 449 *~;
#X obj 415 237 f;
#X obj 374 175 ftom;
#X obj 416 263 -;
#X obj 458 262 r whammybar;
#X obj 415 291 tabread4 spectrum-tab;
#X obj 415 318 moses 1;
#X text 364 60 Adaptado da abstração spectrum-partial do Pure Data
;
#X obj 365 94 r fourier_freq;
#X obj 296 94 inlet;
#X floatatom 265 147 5 0 0 0 - - -, f 5;
#X obj 365 149 *;
#X connect 0 0 8 0;
#X connect 1 0 9 0;
#X connect 2 0 3 0;
#X connect 3 0 5 0;
#X connect 4 0 5 0;
#X connect 5 0 6 0;
#X connect 6 0 8 1;
#X connect 8 0 7 0;
#X connect 9 0 11 0;
#X connect 10 0 9 1;
#X connect 11 0 13 0;
#X connect 12 0 11 1;
#X connect 13 0 14 0;
#X connect 14 0 4 0;
#X connect 14 1 2 0;
#X connect 16 0 19 0;
#X connect 17 0 18 0;
#X connect 17 0 19 1;
#X connect 19 0 10 0;
#X connect 19 0 0 0;
#X restore 225 71 pd parcial;
#X obj 265 49 r load;
#N canvas 1 57 986 553 parcial 0;
#X obj 365 419 osc~;
#X obj 431 204 r poll-table;
#X obj 466 344 + 50;
#X obj 466 370 dbtorms;
#X msg 415 346 0;
#X obj 415 399 pack 0 30;
#X obj 415 429 line~;
#X obj 365 478 throw~ sum-bus;
#X obj 365 449 *~;
#X obj 415 237 f;
#X obj 374 175 ftom;
#X obj 416 263 -;
#X obj 458 262 r whammybar;
#X obj 415 291 tabread4 spectrum-tab;
#X obj 415 318 moses 1;
#X text 364 60 Adaptado da abstração spectrum-partial do Pure Data
;
#X obj 365 94 r fourier_freq;
#X obj 296 94 inlet;
#X floatatom 265 147 5 0 0 0 - - -, f 5;
#X obj 365 149 *;
#X connect 0 0 8 0;
#X connect 1 0 9 0;
#X connect 2 0 3 0;
#X connect 3 0 5 0;
#X connect 4 0 5 0;
#X connect 5 0 6 0;
#X connect 6 0 8 1;
#X connect 8 0 7 0;
#X connect 9 0 11 0;
#X connect 10 0 9 1;
#X connect 11 0 13 0;
#X connect 12 0 11 1;
#X connect 13 0 14 0;
#X connect 14 0 4 0;
#X connect 14 1 2 0;
#X connect 16 0 19 0;
#X connect 17 0 18 0;
#X connect 17 0 19 1;
#X connect 19 0 10 0;
#X connect 19 0 0 0;
#X restore 225 115 pd parcial;
#X obj 265 93 r load;
#N canvas 1 56 986 553 parcial 0;
#X obj 365 419 osc~;
#X obj 431 204 r poll-table;
#X obj 466 344 + 50;
#X obj 466 370 dbtorms;
#X msg 415 346 0;
#X obj 415 399 pack 0 30;
#X obj 415 429 line~;
#X obj 365 478 throw~ sum-bus;
#X obj 365 449 *~;
#X obj 415 237 f;
#X obj 374 175 ftom;
#X obj 416 263 -;
#X obj 458 262 r whammybar;
#X obj 415 291 tabread4 spectrum-tab;
#X obj 415 318 moses 1;
#X text 364 60 Adaptado da abstração spectrum-partial do Pure Data
;
#X obj 365 94 r fourier_freq;
#X obj 296 94 inlet;
#X floatatom 265 147 5 0 0 0 - - -, f 5;
#X obj 365 149 *;
#X connect 0 0 8 0;
#X connect 1 0 9 0;
#X connect 2 0 3 0;
#X connect 3 0 5 0;
#X connect 4 0 5 0;
#X connect 5 0 6 0;
#X connect 6 0 8 1;
#X connect 8 0 7 0;
#X connect 9 0 11 0;
#X connect 10 0 9 1;
#X connect 11 0 13 0;
#X connect 12 0 11 1;
#X connect 13 0 14 0;
#X connect 14 0 4 0;
#X connect 14 1 2 0;
#X connect 16 0 19 0;
#X connect 17 0 18 0;
#X connect 17 0 19 1;
#X connect 19 0 10 0;
#X connect 19 0 0 0;
#X restore 225 160 pd parcial;
#X obj 265 138 r load;
#N canvas 1 56 986 553 parcial 0;
#X obj 365 419 osc~;
#X obj 431 204 r poll-table;
#X obj 466 344 + 50;
#X obj 466 370 dbtorms;
#X msg 415 346 0;
#X obj 415 399 pack 0 30;
#X obj 415 429 line~;
#X obj 365 478 throw~ sum-bus;
#X obj 365 449 *~;
#X obj 415 237 f;
#X obj 374 175 ftom;
#X obj 416 263 -;
#X obj 458 262 r whammybar;
#X obj 415 291 tabread4 spectrum-tab;
#X obj 415 318 moses 1;
#X text 364 60 Adaptado da abstração spectrum-partial do Pure Data
;
#X obj 365 94 r fourier_freq;
#X obj 296 94 inlet;
#X floatatom 265 147 5 0 0 0 - - -, f 5;
#X obj 365 149 *;
#X connect 0 0 8 0;
#X connect 1 0 9 0;
#X connect 2 0 3 0;
#X connect 3 0 5 0;
#X connect 4 0 5 0;
#X connect 5 0 6 0;
#X connect 6 0 8 1;
#X connect 8 0 7 0;
#X connect 9 0 11 0;
#X connect 10 0 9 1;
#X connect 11 0 13 0;
#X connect 12 0 11 1;
#X connect 13 0 14 0;
#X connect 14 0 4 0;
#X connect 14 1 2 0;
#X connect 16 0 19 0;
#X connect 17 0 18 0;
#X connect 17 0 19 1;
#X connect 19 0 10 0;
#X connect 19 0 0 0;
#X restore 225 204 pd parcial;
#X obj 265 182 r load;
#N canvas 1 56 986 553 parcial 0;
#X obj 365 419 osc~;
#X obj 431 204 r poll-table;
#X obj 466 344 + 50;
#X obj 466 370 dbtorms;
#X msg 415 346 0;
#X obj 415 399 pack 0 30;
#X obj 415 429 line~;
#X obj 365 478 throw~ sum-bus;
#X obj 365 449 *~;
#X obj 415 237 f;
#X obj 374 175 ftom;
#X obj 416 263 -;
#X obj 458 262 r whammybar;
#X obj 415 291 tabread4 spectrum-tab;
#X obj 415 318 moses 1;
#X text 364 60 Adaptado da abstração spectrum-partial do Pure Data
;
#X obj 365 94 r fourier_freq;
#X obj 296 94 inlet;
#X floatatom 265 147 5 0 0 0 - - -, f 5;
#X obj 365 149 *;
#X connect 0 0 8 0;
#X connect 1 0 9 0;
#X connect 2 0 3 0;
#X connect 3 0 5 0;
#X connect 4 0 5 0;
#X connect 5 0 6 0;
#X connect 6 0 8 1;
#X connect 8 0 7 0;
#X connect 9 0 11 0;
#X connect 10 0 9 1;
#X connect 11 0 13 0;
#X connect 12 0 11 1;
#X connect 13 0 14 0;
#X connect 14 0 4 0;
#X connect 14 1 2 0;
#X connect 16 0 19 0;
#X connect 17 0 18 0;
#X connect 17 0 19 1;
#X connect 19 0 10 0;
#X connect 19 0 0 0;
#X restore 225 248 pd parcial;
#X obj 265 226 r load;
#N canvas 1 56 986 553 parcial 0;
#X obj 365 419 osc~;
#X obj 431 204 r poll-table;
#X obj 466 344 + 50;
#X obj 466 370 dbtorms;
#X msg 415 346 0;
#X obj 415 399 pack 0 30;
#X obj 415 429 line~;
#X obj 365 478 throw~ sum-bus;
#X obj 365 449 *~;
#X obj 415 237 f;
#X obj 374 175 ftom;
#X obj 416 263 -;
#X obj 458 262 r whammybar;
#X obj 415 291 tabread4 spectrum-tab;
#X obj 415 318 moses 1;
#X text 364 60 Adaptado da abstração spectrum-partial do Pure Data
;
#X obj 365 94 r fourier_freq;
#X obj 296 94 inlet;
#X floatatom 265 147 5 0 0 0 - - -, f 5;
#X obj 365 149 *;
#X connect 0 0 8 0;
#X connect 1 0 9 0;
#X connect 2 0 3 0;
#X connect 3 0 5 0;
#X connect 4 0 5 0;
#X connect 5 0 6 0;
#X connect 6 0 8 1;
#X connect 8 0 7 0;
#X connect 9 0 11 0;
#X connect 10 0 9 1;
#X connect 11 0 13 0;
#X connect 12 0 11 1;
#X connect 13 0 14 0;
#X connect 14 0 4 0;
#X connect 14 1 2 0;
#X connect 16 0 19 0;
#X connect 17 0 18 0;
#X connect 17 0 19 1;
#X connect 19 0 10 0;
#X connect 19 0 0 0;
#X restore 225 291 pd parcial;
#X obj 265 269 r load;
#N canvas 1 56 986 553 parcial 0;
#X obj 365 419 osc~;
#X obj 431 204 r poll-table;
#X obj 466 344 + 50;
#X obj 466 370 dbtorms;
#X msg 415 346 0;
#X obj 415 399 pack 0 30;
#X obj 415 429 line~;
#X obj 365 478 throw~ sum-bus;
#X obj 365 449 *~;
#X obj 415 237 f;
#X obj 374 175 ftom;
#X obj 416 263 -;
#X obj 458 262 r whammybar;
#X obj 415 291 tabread4 spectrum-tab;
#X obj 415 318 moses 1;
#X text 364 60 Adaptado da abstração spectrum-partial do Pure Data
;
#X obj 365 94 r fourier_freq;
#X obj 296 94 inlet;
#X floatatom 265 147 5 0 0 0 - - -, f 5;
#X obj 365 149 *;
#X connect 0 0 8 0;
#X connect 1 0 9 0;
#X connect 2 0 3 0;
#X connect 3 0 5 0;
#X connect 4 0 5 0;
#X connect 5 0 6 0;
#X connect 6 0 8 1;
#X connect 8 0 7 0;
#X connect 9 0 11 0;
#X connect 10 0 9 1;
#X connect 11 0 13 0;
#X connect 12 0 11 1;
#X connect 13 0 14 0;
#X connect 14 0 4 0;
#X connect 14 1 2 0;
#X connect 16 0 19 0;
#X connect 17 0 18 0;
#X connect 17 0 19 1;
#X connect 19 0 10 0;
#X connect 19 0 0 0;
#X restore 225 335 pd parcial;
#X obj 265 313 r load;
#N canvas 1 56 986 553 parcial 0;
#X obj 365 419 osc~;
#X obj 431 204 r poll-table;
#X obj 466 344 + 50;
#X obj 466 370 dbtorms;
#X msg 415 346 0;
#X obj 415 399 pack 0 30;
#X obj 415 429 line~;
#X obj 365 478 throw~ sum-bus;
#X obj 365 449 *~;
#X obj 415 237 f;
#X obj 374 175 ftom;
#X obj 416 263 -;
#X obj 458 262 r whammybar;
#X obj 415 291 tabread4 spectrum-tab;
#X obj 415 318 moses 1;
#X text 364 60 Adaptado da abstração spectrum-partial do Pure Data
;
#X obj 365 94 r fourier_freq;
#X obj 296 94 inlet;
#X floatatom 265 147 5 0 0 0 - - -, f 5;
#X obj 365 149 *;
#X connect 0 0 8 0;
#X connect 1 0 9 0;
#X connect 2 0 3 0;
#X connect 3 0 5 0;
#X connect 4 0 5 0;
#X connect 5 0 6 0;
#X connect 6 0 8 1;
#X connect 8 0 7 0;
#X connect 9 0 11 0;
#X connect 10 0 9 1;
#X connect 11 0 13 0;
#X connect 12 0 11 1;
#X connect 13 0 14 0;
#X connect 14 0 4 0;
#X connect 14 1 2 0;
#X connect 16 0 19 0;
#X connect 17 0 18 0;
#X connect 17 0 19 1;
#X connect 19 0 10 0;
#X connect 19 0 0 0;
#X restore 225 380 pd parcial;
#X obj 265 358 r load;
#N canvas 1 56 986 553 parcial 0;
#X obj 365 419 osc~;
#X obj 431 204 r poll-table;
#X obj 466 344 + 50;
#X obj 466 370 dbtorms;
#X msg 415 346 0;
#X obj 415 399 pack 0 30;
#X obj 415 429 line~;
#X obj 365 478 throw~ sum-bus;
#X obj 365 449 *~;
#X obj 415 237 f;
#X obj 374 175 ftom;
#X obj 416 263 -;
#X obj 458 262 r whammybar;
#X obj 415 291 tabread4 spectrum-tab;
#X obj 415 318 moses 1;
#X text 364 60 Adaptado da abstração spectrum-partial do Pure Data
;
#X obj 365 94 r fourier_freq;
#X obj 296 94 inlet;
#X floatatom 265 147 5 0 0 0 - - -, f 5;
#X obj 365 149 *;
#X connect 0 0 8 0;
#X connect 1 0 9 0;
#X connect 2 0 3 0;
#X connect 3 0 5 0;
#X connect 4 0 5 0;
#X connect 5 0 6 0;
#X connect 6 0 8 1;
#X connect 8 0 7 0;
#X connect 9 0 11 0;
#X connect 10 0 9 1;
#X connect 11 0 13 0;
#X connect 12 0 11 1;
#X connect 13 0 14 0;
#X connect 14 0 4 0;
#X connect 14 1 2 0;
#X connect 16 0 19 0;
#X connect 17 0 18 0;
#X connect 17 0 19 1;
#X connect 19 0 10 0;
#X connect 19 0 0 0;
#X restore 225 424 pd parcial;
#X obj 265 402 r load;
#N canvas 1 56 986 553 parcial 0;
#X obj 365 419 osc~;
#X obj 431 204 r poll-table;
#X obj 466 344 + 50;
#X obj 466 370 dbtorms;
#X msg 415 346 0;
#X obj 415 399 pack 0 30;
#X obj 415 429 line~;
#X obj 365 478 throw~ sum-bus;
#X obj 365 449 *~;
#X obj 415 237 f;
#X obj 374 175 ftom;
#X obj 416 263 -;
#X obj 458 262 r whammybar;
#X obj 415 291 tabread4 spectrum-tab;
#X obj 415 318 moses 1;
#X text 364 60 Adaptado da abstração spectrum-partial do Pure Data
;
#X obj 365 94 r fourier_freq;
#X obj 296 94 inlet;
#X floatatom 265 147 5 0 0 0 - - -, f 5;
#X obj 365 149 *;
#X connect 0 0 8 0;
#X connect 1 0 9 0;
#X connect 2 0 3 0;
#X connect 3 0 5 0;
#X connect 4 0 5 0;
#X connect 5 0 6 0;
#X connect 6 0 8 1;
#X connect 8 0 7 0;
#X connect 9 0 11 0;
#X connect 10 0 9 1;
#X connect 11 0 13 0;
#X connect 12 0 11 1;
#X connect 13 0 14 0;
#X connect 14 0 4 0;
#X connect 14 1 2 0;
#X connect 16 0 19 0;
#X connect 17 0 18 0;
#X connect 17 0 19 1;
#X connect 19 0 10 0;
#X connect 19 0 0 0;
#X restore 225 468 pd parcial;
#X obj 265 446 r load;
#N canvas 1 56 986 553 parcial 0;
#X obj 365 419 osc~;
#X obj 431 204 r poll-table;
#X obj 466 344 + 50;
#X obj 466 370 dbtorms;
#X msg 415 346 0;
#X obj 415 399 pack 0 30;
#X obj 415 429 line~;
#X obj 365 478 throw~ sum-bus;
#X obj 365 449 *~;
#X obj 415 237 f;
#X obj 374 175 ftom;
#X obj 416 263 -;
#X obj 458 262 r whammybar;
#X obj 415 291 tabread4 spectrum-tab;
#X obj 415 318 moses 1;
#X text 364 60 Adaptado da abstração spectrum-partial do Pure Data
;
#X obj 365 94 r fourier_freq;
#X obj 296 94 inlet;
#X floatatom 265 147 5 0 0 0 - - -, f 5;
#X obj 365 149 *;
#X connect 0 0 8 0;
#X connect 1 0 9 0;
#X connect 2 0 3 0;
#X connect 3 0 5 0;
#X connect 4 0 5 0;
#X connect 5 0 6 0;
#X connect 6 0 8 1;
#X connect 8 0 7 0;
#X connect 9 0 11 0;
#X connect 10 0 9 1;
#X connect 11 0 13 0;
#X connect 12 0 11 1;
#X connect 13 0 14 0;
#X connect 14 0 4 0;
#X connect 14 1 2 0;
#X connect 16 0 19 0;
#X connect 17 0 18 0;
#X connect 17 0 19 1;
#X connect 19 0 10 0;
#X connect 19 0 0 0;
#X restore 335 71 pd parcial;
#X obj 375 49 r load;
#N canvas 1 56 986 553 parcial 0;
#X obj 365 419 osc~;
#X obj 431 204 r poll-table;
#X obj 466 344 + 50;
#X obj 466 370 dbtorms;
#X msg 415 346 0;
#X obj 415 399 pack 0 30;
#X obj 415 429 line~;
#X obj 365 478 throw~ sum-bus;
#X obj 365 449 *~;
#X obj 415 237 f;
#X obj 374 175 ftom;
#X obj 416 263 -;
#X obj 458 262 r whammybar;
#X obj 415 291 tabread4 spectrum-tab;
#X obj 415 318 moses 1;
#X text 364 60 Adaptado da abstração spectrum-partial do Pure Data
;
#X obj 365 94 r fourier_freq;
#X obj 296 94 inlet;
#X floatatom 265 147 5 0 0 0 - - -, f 5;
#X obj 365 149 *;
#X connect 0 0 8 0;
#X connect 1 0 9 0;
#X connect 2 0 3 0;
#X connect 3 0 5 0;
#X connect 4 0 5 0;
#X connect 5 0 6 0;
#X connect 6 0 8 1;
#X connect 8 0 7 0;
#X connect 9 0 11 0;
#X connect 10 0 9 1;
#X connect 11 0 13 0;
#X connect 12 0 11 1;
#X connect 13 0 14 0;
#X connect 14 0 4 0;
#X connect 14 1 2 0;
#X connect 16 0 19 0;
#X connect 17 0 18 0;
#X connect 17 0 19 1;
#X connect 19 0 10 0;
#X connect 19 0 0 0;
#X restore 335 115 pd parcial;
#X obj 375 93 r load;
#N canvas 1 56 986 553 parcial 0;
#X obj 365 419 osc~;
#X obj 431 204 r poll-table;
#X obj 466 344 + 50;
#X obj 466 370 dbtorms;
#X msg 415 346 0;
#X obj 415 399 pack 0 30;
#X obj 415 429 line~;
#X obj 365 478 throw~ sum-bus;
#X obj 365 449 *~;
#X obj 415 237 f;
#X obj 374 175 ftom;
#X obj 416 263 -;
#X obj 458 262 r whammybar;
#X obj 415 291 tabread4 spectrum-tab;
#X obj 415 318 moses 1;
#X text 364 60 Adaptado da abstração spectrum-partial do Pure Data
;
#X obj 365 94 r fourier_freq;
#X obj 296 94 inlet;
#X floatatom 265 147 5 0 0 0 - - -, f 5;
#X obj 365 149 *;
#X connect 0 0 8 0;
#X connect 1 0 9 0;
#X connect 2 0 3 0;
#X connect 3 0 5 0;
#X connect 4 0 5 0;
#X connect 5 0 6 0;
#X connect 6 0 8 1;
#X connect 8 0 7 0;
#X connect 9 0 11 0;
#X connect 10 0 9 1;
#X connect 11 0 13 0;
#X connect 12 0 11 1;
#X connect 13 0 14 0;
#X connect 14 0 4 0;
#X connect 14 1 2 0;
#X connect 16 0 19 0;
#X connect 17 0 18 0;
#X connect 17 0 19 1;
#X connect 19 0 10 0;
#X connect 19 0 0 0;
#X restore 335 160 pd parcial;
#X obj 375 138 r load;
#N canvas 1 56 986 553 parcial 0;
#X obj 365 419 osc~;
#X obj 431 204 r poll-table;
#X obj 466 344 + 50;
#X obj 466 370 dbtorms;
#X msg 415 346 0;
#X obj 415 399 pack 0 30;
#X obj 415 429 line~;
#X obj 365 478 throw~ sum-bus;
#X obj 365 449 *~;
#X obj 415 237 f;
#X obj 374 175 ftom;
#X obj 416 263 -;
#X obj 458 262 r whammybar;
#X obj 415 291 tabread4 spectrum-tab;
#X obj 415 318 moses 1;
#X text 364 60 Adaptado da abstração spectrum-partial do Pure Data
;
#X obj 365 94 r fourier_freq;
#X obj 296 94 inlet;
#X floatatom 265 147 5 0 0 0 - - -, f 5;
#X obj 365 149 *;
#X connect 0 0 8 0;
#X connect 1 0 9 0;
#X connect 2 0 3 0;
#X connect 3 0 5 0;
#X connect 4 0 5 0;
#X connect 5 0 6 0;
#X connect 6 0 8 1;
#X connect 8 0 7 0;
#X connect 9 0 11 0;
#X connect 10 0 9 1;
#X connect 11 0 13 0;
#X connect 12 0 11 1;
#X connect 13 0 14 0;
#X connect 14 0 4 0;
#X connect 14 1 2 0;
#X connect 16 0 19 0;
#X connect 17 0 18 0;
#X connect 17 0 19 1;
#X connect 19 0 10 0;
#X connect 19 0 0 0;
#X restore 335 204 pd parcial;
#X obj 375 182 r load;
#N canvas 1 56 986 553 parcial 0;
#X obj 365 419 osc~;
#X obj 431 204 r poll-table;
#X obj 466 344 + 50;
#X obj 466 370 dbtorms;
#X msg 415 346 0;
#X obj 415 399 pack 0 30;
#X obj 415 429 line~;
#X obj 365 478 throw~ sum-bus;
#X obj 365 449 *~;
#X obj 415 237 f;
#X obj 374 175 ftom;
#X obj 416 263 -;
#X obj 458 262 r whammybar;
#X obj 415 291 tabread4 spectrum-tab;
#X obj 415 318 moses 1;
#X text 364 60 Adaptado da abstração spectrum-partial do Pure Data
;
#X obj 365 94 r fourier_freq;
#X obj 296 94 inlet;
#X floatatom 265 147 5 0 0 0 - - -, f 5;
#X obj 365 149 *;
#X connect 0 0 8 0;
#X connect 1 0 9 0;
#X connect 2 0 3 0;
#X connect 3 0 5 0;
#X connect 4 0 5 0;
#X connect 5 0 6 0;
#X connect 6 0 8 1;
#X connect 8 0 7 0;
#X connect 9 0 11 0;
#X connect 10 0 9 1;
#X connect 11 0 13 0;
#X connect 12 0 11 1;
#X connect 13 0 14 0;
#X connect 14 0 4 0;
#X connect 14 1 2 0;
#X connect 16 0 19 0;
#X connect 17 0 18 0;
#X connect 17 0 19 1;
#X connect 19 0 10 0;
#X connect 19 0 0 0;
#X restore 335 248 pd parcial;
#X obj 375 226 r load;
#N canvas 1 56 986 553 parcial 0;
#X obj 365 419 osc~;
#X obj 431 204 r poll-table;
#X obj 466 344 + 50;
#X obj 466 370 dbtorms;
#X msg 415 346 0;
#X obj 415 399 pack 0 30;
#X obj 415 429 line~;
#X obj 365 478 throw~ sum-bus;
#X obj 365 449 *~;
#X obj 415 237 f;
#X obj 374 175 ftom;
#X obj 416 263 -;
#X obj 458 262 r whammybar;
#X obj 415 291 tabread4 spectrum-tab;
#X obj 415 318 moses 1;
#X text 364 60 Adaptado da abstração spectrum-partial do Pure Data
;
#X obj 365 94 r fourier_freq;
#X obj 296 94 inlet;
#X floatatom 265 147 5 0 0 0 - - -, f 5;
#X obj 365 149 *;
#X connect 0 0 8 0;
#X connect 1 0 9 0;
#X connect 2 0 3 0;
#X connect 3 0 5 0;
#X connect 4 0 5 0;
#X connect 5 0 6 0;
#X connect 6 0 8 1;
#X connect 8 0 7 0;
#X connect 9 0 11 0;
#X connect 10 0 9 1;
#X connect 11 0 13 0;
#X connect 12 0 11 1;
#X connect 13 0 14 0;
#X connect 14 0 4 0;
#X connect 14 1 2 0;
#X connect 16 0 19 0;
#X connect 17 0 18 0;
#X connect 17 0 19 1;
#X connect 19 0 10 0;
#X connect 19 0 0 0;
#X restore 335 291 pd parcial;
#X obj 375 269 r load;
#N canvas 1 56 986 553 parcial 0;
#X obj 365 419 osc~;
#X obj 431 204 r poll-table;
#X obj 466 344 + 50;
#X obj 466 370 dbtorms;
#X msg 415 346 0;
#X obj 415 399 pack 0 30;
#X obj 415 429 line~;
#X obj 365 478 throw~ sum-bus;
#X obj 365 449 *~;
#X obj 415 237 f;
#X obj 374 175 ftom;
#X obj 416 263 -;
#X obj 458 262 r whammybar;
#X obj 415 291 tabread4 spectrum-tab;
#X obj 415 318 moses 1;
#X text 364 60 Adaptado da abstração spectrum-partial do Pure Data
;
#X obj 365 94 r fourier_freq;
#X obj 296 94 inlet;
#X floatatom 265 147 5 0 0 0 - - -, f 5;
#X obj 365 149 *;
#X connect 0 0 8 0;
#X connect 1 0 9 0;
#X connect 2 0 3 0;
#X connect 3 0 5 0;
#X connect 4 0 5 0;
#X connect 5 0 6 0;
#X connect 6 0 8 1;
#X connect 8 0 7 0;
#X connect 9 0 11 0;
#X connect 10 0 9 1;
#X connect 11 0 13 0;
#X connect 12 0 11 1;
#X connect 13 0 14 0;
#X connect 14 0 4 0;
#X connect 14 1 2 0;
#X connect 16 0 19 0;
#X connect 17 0 18 0;
#X connect 17 0 19 1;
#X connect 19 0 10 0;
#X connect 19 0 0 0;
#X restore 335 335 pd parcial;
#X obj 375 313 r load;
#N canvas 1 56 986 553 parcial 0;
#X obj 365 419 osc~;
#X obj 431 204 r poll-table;
#X obj 466 344 + 50;
#X obj 466 370 dbtorms;
#X msg 415 346 0;
#X obj 415 399 pack 0 30;
#X obj 415 429 line~;
#X obj 365 478 throw~ sum-bus;
#X obj 365 449 *~;
#X obj 415 237 f;
#X obj 374 175 ftom;
#X obj 416 263 -;
#X obj 458 262 r whammybar;
#X obj 415 291 tabread4 spectrum-tab;
#X obj 415 318 moses 1;
#X text 364 60 Adaptado da abstração spectrum-partial do Pure Data
;
#X obj 365 94 r fourier_freq;
#X obj 296 94 inlet;
#X floatatom 265 147 5 0 0 0 - - -, f 5;
#X obj 365 149 *;
#X connect 0 0 8 0;
#X connect 1 0 9 0;
#X connect 2 0 3 0;
#X connect 3 0 5 0;
#X connect 4 0 5 0;
#X connect 5 0 6 0;
#X connect 6 0 8 1;
#X connect 8 0 7 0;
#X connect 9 0 11 0;
#X connect 10 0 9 1;
#X connect 11 0 13 0;
#X connect 12 0 11 1;
#X connect 13 0 14 0;
#X connect 14 0 4 0;
#X connect 14 1 2 0;
#X connect 16 0 19 0;
#X connect 17 0 18 0;
#X connect 17 0 19 1;
#X connect 19 0 10 0;
#X connect 19 0 0 0;
#X restore 335 380 pd parcial;
#X obj 375 358 r load;
#N canvas 1 56 986 553 parcial 0;
#X obj 365 419 osc~;
#X obj 431 204 r poll-table;
#X obj 466 344 + 50;
#X obj 466 370 dbtorms;
#X msg 415 346 0;
#X obj 415 399 pack 0 30;
#X obj 415 429 line~;
#X obj 365 478 throw~ sum-bus;
#X obj 365 449 *~;
#X obj 415 237 f;
#X obj 374 175 ftom;
#X obj 416 263 -;
#X obj 458 262 r whammybar;
#X obj 415 291 tabread4 spectrum-tab;
#X obj 415 318 moses 1;
#X text 364 60 Adaptado da abstração spectrum-partial do Pure Data
;
#X obj 365 94 r fourier_freq;
#X obj 296 94 inlet;
#X floatatom 265 147 5 0 0 0 - - -, f 5;
#X obj 365 149 *;
#X connect 0 0 8 0;
#X connect 1 0 9 0;
#X connect 2 0 3 0;
#X connect 3 0 5 0;
#X connect 4 0 5 0;
#X connect 5 0 6 0;
#X connect 6 0 8 1;
#X connect 8 0 7 0;
#X connect 9 0 11 0;
#X connect 10 0 9 1;
#X connect 11 0 13 0;
#X connect 12 0 11 1;
#X connect 13 0 14 0;
#X connect 14 0 4 0;
#X connect 14 1 2 0;
#X connect 16 0 19 0;
#X connect 17 0 18 0;
#X connect 17 0 19 1;
#X connect 19 0 10 0;
#X connect 19 0 0 0;
#X restore 335 424 pd parcial;
#X obj 375 402 r load;
#N canvas 1 56 986 553 parcial 0;
#X obj 365 419 osc~;
#X obj 431 204 r poll-table;
#X obj 466 344 + 50;
#X obj 466 370 dbtorms;
#X msg 415 346 0;
#X obj 415 399 pack 0 30;
#X obj 415 429 line~;
#X obj 365 478 throw~ sum-bus;
#X obj 365 449 *~;
#X obj 415 237 f;
#X obj 374 175 ftom;
#X obj 416 263 -;
#X obj 458 262 r whammybar;
#X obj 415 291 tabread4 spectrum-tab;
#X obj 415 318 moses 1;
#X text 364 60 Adaptado da abstração spectrum-partial do Pure Data
;
#X obj 365 94 r fourier_freq;
#X obj 296 94 inlet;
#X floatatom 265 147 5 0 0 0 - - -, f 5;
#X obj 365 149 *;
#X connect 0 0 8 0;
#X connect 1 0 9 0;
#X connect 2 0 3 0;
#X connect 3 0 5 0;
#X connect 4 0 5 0;
#X connect 5 0 6 0;
#X connect 6 0 8 1;
#X connect 8 0 7 0;
#X connect 9 0 11 0;
#X connect 10 0 9 1;
#X connect 11 0 13 0;
#X connect 12 0 11 1;
#X connect 13 0 14 0;
#X connect 14 0 4 0;
#X connect 14 1 2 0;
#X connect 16 0 19 0;
#X connect 17 0 18 0;
#X connect 17 0 19 1;
#X connect 19 0 10 0;
#X connect 19 0 0 0;
#X restore 335 468 pd parcial;
#X obj 375 446 r load;
#X msg 106 93 2;
#X msg 106 138 3;
#X msg 106 182 4;
#X msg 106 226 5;
#X msg 106 269 6;
#X msg 106 313 7;
#X msg 106 358 8;
#X msg 106 402 9;
#X msg 106 446 10;
#X msg 225 49 11;
#X msg 225 93 12;
#X msg 225 138 13;
#X msg 225 182 14;
#X msg 225 226 15;
#X msg 225 269 16;
#X msg 225 313 17;
#X msg 225 358 18;
#X msg 223 400 19;
#X msg 225 446 20;
#X msg 335 49 21;
#X msg 335 93 22;
#X msg 335 138 23;
#X msg 335 182 24;
#X msg 335 226 25;
#X msg 335 268 26;
#X msg 335 313 27;
#X msg 335 358 28;
#X msg 335 402 29;
#X msg 335 446 30;
#X obj 482 76 s load;
#X connect 0 0 1 0;
#X connect 0 0 93 0;
#X connect 1 0 2 0;
#X connect 4 0 3 0;
#X connect 5 0 4 0;
#X connect 7 0 64 0;
#X connect 9 0 65 0;
#X connect 11 0 66 0;
#X connect 13 0 67 0;
#X connect 15 0 68 0;
#X connect 17 0 69 0;
#X connect 19 0 70 0;
#X connect 21 0 71 0;
#X connect 23 0 72 0;
#X connect 25 0 73 0;
#X connect 27 0 74 0;
#X connect 29 0 75 0;
#X connect 31 0 76 0;
#X connect 33 0 77 0;
#X connect 35 0 78 0;
#X connect 37 0 79 0;
#X connect 39 0 80 0;
#X connect 41 0 81 0;
#X connect 43 0 82 0;
#X connect 45 0 83 0;
#X connect 47 0 84 0;
#X connect 49 0 85 0;
#X connect 51 0 86 0;
#X connect 53 0 87 0;
#X connect 55 0 88 0;
#X connect 57 0 89 0;
#X connect 59 0 90 0;
#X connect 61 0 91 0;
#X connect 63 0 92 0;
#X connect 64 0 6 0;
#X connect 65 0 8 0;
#X connect 66 0 10 0;
#X connect 67 0 12 0;
#X connect 68 0 14 0;
#X connect 69 0 16 0;
#X connect 70 0 18 0;
#X connect 71 0 20 0;
#X connect 72 0 22 0;
#X connect 73 0 24 0;
#X connect 74 0 26 0;
#X connect 75 0 28 0;
#X connect 76 0 30 0;
#X connect 77 0 32 0;
#X connect 78 0 34 0;
#X connect 79 0 36 0;
#X connect 80 0 38 0;
#X connect 81 0 40 0;
#X connect 82 0 42 0;
#X connect 83 0 44 0;
#X connect 84 0 46 0;
#X connect 85 0 48 0;
#X connect 86 0 50 0;
#X connect 87 0 52 0;
#X connect 88 0 54 0;
#X connect 89 0 56 0;
#X connect 90 0 58 0;
#X connect 91 0 60 0;
#X connect 92 0 62 0;
#X restore 99 335 pd oscbank;
#X obj 101 405 catch~ sum-bus;
#X obj 524 382 s whammybar;
#X msg 410 239 \; spectrum-tab const 0;
#X text 476 218 CLEAR;
#X obj 100 536 outlet~;
#X obj 434 45 inlet;
#X text 116 563 SÍNTESE DE FOURIER;
#X text 107 594 Método de síntese adaptado do exemplo do Pure Data
3.audio.examples/D08.table.spectrum.pd;
#X msg 524 347 0;
#X obj 524 312 loadbang;
#X obj 101 101 cnv 15 268 168 empty fourier_b empty 20 12 0 14 -260818
-66577 0;
#X obj 113 119 cnv 15 220 120 empty empty empty 20 12 0 14 -262144
-66577 0;
#N canvas 1 58 450 300 (subpatch) 0;
#X array spectrum-tab 127 float 1;
#A 0 27.5 27.5 27.5 27.5 27.5 25 30.4166 31.6665 32.0832 32.9165 32.9165
33.1248 33.3332 34.1665 34.3748 34.5831 34.9998 35.8331 36.2498 36.4581
36.6664 37.0831 37.4997 38.333 38.5414 38.7497 39.583 40.4163 40.4163
40.4163 40.833 40.833 40.833 40.833 40.833 40.833 40.833 40.833 40.833
31.2499 30.8332 30.2082 29.5833 29.1666 28.7499 28.5416 28.3333 27.5
27.5 27.5 27.0833 26.875 26.6667 26.6667 26.6667 26.6667 26.6667 34.1665
33.3332 39.1664 39.9997 40.833 40.833 40.833 40.833 40.833 40.833 40.833
40.833 40.833 40.833 40.833 40.833 40.833 40.833 40.833 40.833 40.833
40.833 40.833 40.6247 40.4163 40.4163 40.4163 40.4163 39.583 38.7497
37.9164 30.4166 30.4166 30.4166 30.4166 30.4166 30.4166 30.4166 30.4166
30.4166 30.4166 30.4166 30.4166 30.4166 30.4166 30.4166 30.4166 30.4166
30.4166 30.4166 30.4166 30.4166 30.4166 30.4166 30.4166 30.4166 30.4166
30.4166 30.4166 30.1388 29.861 29.5833 29.3055 29.0277 28.7499 28.7499
28.7499 28.7499 28.7499 28.7499;
#X coords 0 50 126 0 220 120 1 0 0;
#X restore 113 119 graph;
#X obj 337 224 bng 15 250 50 0 empty empty empty 17 7 0 10 -204786
-1 -1;
#X text 334 208 Limpa;
#X obj 372 405 loadbang;
#X msg 372 439 \; spectrum-tab xlabel -5 0 12 24 36 48 60 72 84 96
108 120;
#X obj 434 152 s fourier_freq;
#X obj 100 502 *~;
#X text 536 152 <-- Recebe freq. em vez de número midi;
#X obj 434 77 unpack;
#X obj 481 106 s fourier_vel;
#X obj 132 476 r fourier_vel;
#X floatatom 393 118 5 0 0 0 - - -, f 5;
#X connect 1 0 19 0;
#X connect 6 0 21 0;
#X connect 9 0 2 0;
#X connect 10 0 9 0;
#X connect 10 0 17 0;
#X connect 14 0 3 0;
#X connect 16 0 17 0;
#X connect 19 0 5 0;
#X connect 21 0 18 0;
#X connect 21 0 24 0;
#X connect 21 1 22 0;
#X connect 23 0 19 1;
#X coords 0 593 1 592 270 170 2 100 100;
#X restore 308 132 pd fourier;
#X obj 345 535 outlet~;
#X text 255 134 Fourier;
#X obj 175 49 inlet;
#X connect 1 0 5 0;
#X connect 2 0 1 0;
#X connect 2 1 4 0;
#X connect 4 0 5 0;
#X connect 7 0 2 0;
#X coords 0 -1 1 1 500 400 2 100 100;
#X restore 179 291 pd sintese;
#N canvas 1 54 1905 997 controle 0;
#X obj 100 100 cnv 15 500 200 empty empty Controle 5 12 0 14 -204800
-66577 0;
#N canvas 830 309 576 646 Abre_MIDI 0;
#X obj 82 2 bng 15 250 50 0 empty empty empty 17 7 0 10 -4034 -1 -1
;
#X obj 290 278 bng 15 250 50 0 empty empty empty 17 7 0 10 -262144
-1 -1;
#X obj 216 87 openpanel;
#X msg 248 223 read \$1;
#X obj 216 253 cyclone/seq;
#X text 309 277 Final do sequenciamento.;
#X obj 216 333 cyclone/midiparse;
#X msg 82 191 stop;
#X obj 216 429 outlet;
#X obj 301 254 s end;
#X obj 82 22 bng 15 250 50 0 empty empty empty 17 7 0 10 -258113 -1
-1;
#X text 99 19 Stop;
#X obj 216 192 t b s b;
#X msg 289 177 \; pd dsp 1;
#X msg 351 327 \; pd dsp 0;
#X obj 216 17 t b b;
#X connect 0 0 15 0;
#X connect 1 0 14 0;
#X connect 2 0 12 0;
#X connect 3 0 4 0;
#X connect 4 0 6 0;
#X connect 4 1 1 0;
#X connect 4 1 9 0;
#X connect 6 0 8 0;
#X connect 7 0 4 0;
#X connect 7 0 1 0;
#X connect 7 0 9 0;
#X connect 10 0 7 0;
#X connect 12 0 4 0;
#X connect 12 1 3 0;
#X connect 12 2 13 0;
#X connect 15 0 2 0;
#X connect 15 1 7 0;
#X coords 0 -1 1 1 50 40 1 80 0;
#X restore 113 210 pd Abre_MIDI;
#N canvas 342 288 788 447 Ouve_MIDI 0;
#X obj 47 196 notein;
#X obj 47 326 outlet;
#X obj 47 298 spigot;
#X obj 102 102 tgl 15 0 empty empty empty 17 7 0 10 -101120 -1 -1 0
1;
#X obj 47 268 pack;
#X obj 225 250 spigot;
#X obj 258 215 == 0;
#X obj 229 289 bng 15 250 50 0 empty empty empty 17 7 0 10 -262144
-1 -1;
#X floatatom 102 224 5 0 0 0 - - -, f 5;
#X obj 229 323 s end;
#X msg 220 155 \; pd dsp 1;
#X msg 294 304 \; pd dsp 0;
#X obj 101 138 t b b b b;
#X connect 0 0 4 0;
#X connect 0 1 4 1;
#X connect 2 0 1 0;
#X connect 3 0 12 0;
#X connect 4 0 2 0;
#X connect 5 0 7 0;
#X connect 6 0 5 1;
#X connect 7 0 9 0;
#X connect 7 0 11 0;
#X connect 8 0 2 1;
#X connect 12 0 8 0;
#X connect 12 1 5 0;
#X connect 12 1 6 0;
#X connect 12 2 10 0;
#X connect 12 3 9 0;
#X coords 0 -1 1 1 19 19 1 100 100;
#X restore 237 218 pd Ouve_MIDI;
#N canvas 1103 435 450 300 volume_slider 0;
#X obj 105 102 hsl 191 15 0.01 1 0 0 volume v_slider empty -2 -8 0
10 -204786 -1 -1 9404 1;
#X msg 117 159 \; v_slider 0.5;
#X obj 53 159 loadbang;
#X text 105 102 Volume;
#X connect 2 0 1 0;
#X coords 0 -1 1 1 200 19 1 100 100;
#X restore 113 171 pd volume_slider;
#X text 559 181 64;
#X text 559 227 512;
#X text 560 242 1024;
#X text 560 257 2048;
#X obj 542 182 vradio 15 1 0 6 b_size b_init empty 0 -8 0 10 -262144
-1 -1 0;
#X obj 330 132 cnv 15 200 140 empty empty empty 20 12 0 14 -262144
-66577 0;
#X text 559 212 256;
#X text 559 197 128;
#N canvas 1 74 450 300 (subpatch) 0;
#X array onda 64 float 1;
#A 0 0 0 0 0 0 0 0 0 0 0 0 0 0 0 0 0 0 0 0 0 0 0 0 0 0 0 0 0 0 0 0
0 0 0 0 0 0 0 0 0 0 0 0 0 0 0 0 0 0 0 0 0 0 0 0 0 0 0 0 0 0 0 0 0;
#X coords 0 1 63 -1 200 140 1 0 0;
#X restore 330 132 graph;
#X text 539 138 Tamanho de bloco, f 9;
#X obj 304 489 outlet;
#X obj 358 455 r end;
#X obj 358 488 outlet;
#X obj 304 314 unpack;
#X obj 337 350 / 127;
#X obj 304 385 pack;
#X obj 290 349 mtof;
#X obj 247 491 s freq;
#X connect 1 0 17 0;
#X connect 2 0 17 0;
#X connect 15 0 16 0;
#X connect 17 0 20 0;
#X connect 17 1 18 0;
#X connect 18 0 19 1;
#X connect 19 0 14 0;
#X connect 20 0 19 0;
#X connect 20 0 21 0;
#X coords 0 -1 1 1 500 200 2 100 100;
#X restore 100 31 pd controle;
#N canvas 140 285 892 453 envelopamento 0;
#X obj 100 100 cnv 15 500 200 empty envelopamento Envelopamento 5 12
0 14 -261228 -66577 0;
#N canvas 248 233 1389 657 env_selector 0;
#X obj 100 101 hradio 15 1 0 2 empty empty empty 0 -8 0 10 -261234
-258113 -1 0;
#X floatatom 659 477 5 0 0 0 - - -, f 5;
#X obj 287 501 outlet;
#X obj 659 503 outlet;
#X obj 190 33 inlet~;
#X obj 190 499 outlet~;
#X obj 399 112 cyclone/peakamp~;
#X obj 442 63 bang~;
#X obj 567 114 r freq;
#N canvas 347 266 868 605 select_env 0;
#X obj 196 406 bng 15 250 50 0 empty empty empty 17 7 0 10 -262144
-1 -1;
#X obj 393 406 bng 15 250 50 0 empty empty empty 17 7 0 10 -262144
-1 -1;
#X obj 579 402 bng 15 250 50 0 empty empty empty 17 7 0 10 -262144
-1 -1;
#X obj 725 402 bng 15 250 50 0 empty empty empty 17 7 0 10 -262144
-1 -1;
#X obj 377 238 inlet;
#X obj 367 494 outlet;
#X obj 698 498 outlet;
#X msg 367 429 0;
#X msg 698 425 0;
#X obj 152 330 loadbang;
#X obj 377 310 s eb1;
#X obj 417 309 s eb2;
#X obj 377 276 route 0;
#X obj 579 366 r eb2;
#X obj 728 369 r eb1;
#X obj 392 373 r eb2;
#X obj 196 370 r eb1;
#X msg 579 450 \; 2_b color 13;
#X msg 725 446 \; 2_b color 4;
#X msg 196 451 \; adsr_b color 13;
#X msg 325 429 1;
#X msg 657 426 1;
#X obj 215 119 cnv 15 100 60 empty teste empty 20 12 0 14 -651 -66577
0;
#X msg 393 451 \; adsr_b color -1.67628e+07;
#X connect 0 0 19 0;
#X connect 0 0 20 0;
#X connect 1 0 23 0;
#X connect 1 0 7 0;
#X connect 2 0 17 0;
#X connect 2 0 21 0;
#X connect 3 0 18 0;
#X connect 3 0 8 0;
#X connect 4 0 12 0;
#X connect 7 0 5 0;
#X connect 8 0 6 0;
#X connect 9 0 0 0;
#X connect 12 0 10 0;
#X connect 12 1 11 0;
#X connect 13 0 2 0;
#X connect 14 0 3 0;
#X connect 15 0 1 0;
#X connect 16 0 0 0;
#X connect 20 0 5 0;
#X connect 21 0 6 0;
#X restore 287 353 pd select_env;
#X obj 542 352 zexy/demultiplex 1 2;
#X floatatom 287 471 5 0 0 0 - - -, f 5;
#X obj 542 202 pack;
#X obj 100 35 loadbang;
#X msg 100 63 0;
#X floatatom 870 174 5 0 0 0 - - -, f 5;
#X obj 852 209 spigot;
#X obj 853 249 bng 15 250 50 0 empty empty empty 17 7 0 10 -262144
-1 -1;
#X obj 814 52 r vel;
#X floatatom 814 98 5 0 0 0 - - -, f 5;
#X floatatom 793 177 5 0 0 0 - - -, f 5;
#X obj 793 210 spigot;
#X obj 784 245 bng 15 250 50 0 empty empty empty 17 7 0 10 -262144
-1 -1;
#X obj 784 319 s note_on;
#X obj 853 319 s note_off;
#X obj 190 462 *~;
#X obj 512 475 *~;
#X obj 512 497 outlet~;
#X obj 793 141 > 0;
#X obj 869 147 <= 0;
#X connect 0 0 9 0;
#X connect 1 0 3 0;
#X connect 4 0 6 0;
#X connect 4 0 25 0;
#X connect 4 0 26 0;
#X connect 6 0 12 0;
#X connect 7 0 6 0;
#X connect 8 0 12 1;
#X connect 9 0 11 0;
#X connect 9 0 25 1;
#X connect 9 0 26 1;
#X connect 9 1 1 0;
#X connect 10 0 2 0;
#X connect 10 1 1 0;
#X connect 11 0 2 0;
#X connect 12 0 10 0;
#X connect 13 0 14 0;
#X connect 14 0 0 0;
#X connect 15 0 16 1;
#X connect 15 0 16 0;
#X connect 16 0 17 0;
#X connect 17 0 24 0;
#X connect 18 0 19 0;
#X connect 19 0 28 0;
#X connect 19 0 29 0;
#X connect 20 0 21 1;
#X connect 20 0 21 0;
#X connect 21 0 22 0;
#X connect 22 0 23 0;
#X connect 25 0 5 0;
#X connect 26 0 27 0;
#X connect 28 0 20 0;
#X connect 29 0 15 0;
#X coords 0 -1 1 1 30 17 2 100 100;
#X restore 215 105 pd env_selector;
#N canvas 798 85 1063 771 adsr 0;
#X obj 101 101 cnv 15 258 148 empty adsr_b empty 20 12 0 14 -258699
-66577 0;
#X obj 171 265 r trigger;
#X obj 220 369 r graphit;
#X msg 652 226 bang;
#X text 696 227 <-- attack and delayed release;
#X obj 663 250 del 500;
#X text 767 333 <-- attack only;
#X msg 652 314 \; pd dsp 1 \; trigger 1 \; graphit bang;
#X text 768 410 <-- release only;
#X msg 651 384 \; pd dsp 1 \; trigger 0 \; graphit bang;
#X msg 663 275 \; trigger 0;
#X obj 183 509 outlet~;
#X obj 105 127 cnv 15 120 90 empty empty empty 20 12 0 14 -262144 -66577
0;
#N canvas 1 56 450 300 (subpatch) 0;
#X array adsr-format 44100 float 0;
#X coords 0 1.02 44100 -1.02 120 90 1 0 0;
#X restore 105 127 graph;
#X obj 615 128 r note_on;
#X obj 182 457 *~;
#X obj 554 421 bng 15 250 50 0 empty empty empty 17 7 0 10 -262144
-1 -1;
#X floatatom 188 296 5 0 0 0 - - -, f 5;
#X obj 106 263 inlet~;
#X obj 283 -11 loadbang;
#N canvas 1 54 804 997 sub_adsr 0;
#X obj 105 111 inlet;
#X obj 435 151 inlet;
#X text 101 86 trigger;
#X obj 105 139 sel 0;
#X obj 244 155 t b;
#X obj 166 264 f \$1;
#X obj 166 289 pack 0 \$2;
#X obj 492 151 inlet;
#X obj 438 281 del \$2;
#X obj 458 429 line~;
#X obj 462 304 f \$4;
#X obj 501 379 pack 0 \$3;
#X obj 554 151 inlet;
#X obj 616 151 inlet;
#X obj 689 150 inlet;
#X msg 105 170 stop;
#X obj 612 306 pack 0 \$5;
#X text 435 129 level;
#X obj 501 355 * \$1;
#X obj 458 454 outlet~;
#X text 102 378 and pack with;
#X text 103 398 attack time;
#X text 31 126 if zero;
#X text 32 143 release;
#X text 12 160 and cancel;
#X text 43 177 decay;
#X text 284 272 on attack \, set a;
#X text 278 305 recall sustain value;
#X text 315 378 pack with decay time;
#X text 605 332 on release ramp;
#X text 606 349 back to zero;
#X obj 462 329 * 0.01;
#X text 47 567 Objects such as "f" and "pack" can be given dollar sign
arguments to initialize their contents from adsr's creation arguments.
Inlets are supplied to change them on the fly.;
#X text 13 2 ADSR ENVELOPE;
#X text 488 129 attack;
#X text 555 128 decay;
#X text 609 129 sustain;
#X text 686 129 release;
#X text 202 71 attack;
#X obj 204 92 moses;
#X obj 194 122 t b b;
#X msg 128 290 0;
#X text 20 273 optionally;
#X text 10 291 bash to zero;
#X text 25 246 ATTACK:;
#X text 49 477 When you send this patch a positive trigger it schedules
a line~ to do an attack and decay \, and if zero \, it starts the release
ramp.;
#X text 495 629 Updated for Pd version 0.37;
#X text 255 89 test for negative trigger;
#X text 253 113 if so \, zero;
#X text 254 129 the output;
#X text 278 165 in any case;
#X text 303 355 multiply by peak level;
#X text 280 286 delay for sustain;
#X text 276 328 convert from percent;
#X text 155 340 ... then;
#X text 103 359 recall peak level;
#X text 439 113 peak;
#X text 281 149 ... do this;
#X text 47 529 Negative triggers cause the output to jump to zero and
then attack (instead of attacking from the current location).;
#X text 208 1 Arguments: level \, attack time \, decay time \, sustain
level \, release time. A \, D \, and R are in msec and S is in percent.
This patch is used as an abstraction in various examples.;
#X obj 476 193 * 1000;
#X obj 557 193 * 1000;
#X obj 672 195 * 1000;
#X connect 0 0 3 0;
#X connect 1 0 5 1;
#X connect 1 0 18 1;
#X connect 3 0 15 0;
#X connect 3 0 16 0;
#X connect 3 1 39 0;
#X connect 4 0 5 0;
#X connect 4 0 8 0;
#X connect 5 0 6 0;
#X connect 6 0 9 0;
#X connect 7 0 60 0;
#X connect 8 0 10 0;
#X connect 9 0 19 0;
#X connect 10 0 31 0;
#X connect 11 0 9 0;
#X connect 12 0 61 0;
#X connect 13 0 10 1;
#X connect 14 0 62 0;
#X connect 15 0 8 0;
#X connect 16 0 9 0;
#X connect 18 0 11 0;
#X connect 31 0 18 0;
#X connect 39 0 40 0;
#X connect 39 1 4 0;
#X connect 40 0 4 0;
#X connect 40 1 41 0;
#X connect 41 0 9 0;
#X connect 60 0 8 1;
#X connect 60 0 6 1;
#X connect 61 0 11 1;
#X connect 62 0 16 1;
#X restore 182 344 pd sub_adsr;
#X obj 575 387 r note_off;
#X obj 580 422 bng 15 250 50 0 empty empty empty 17 7 0 10 -262144
-1 -1;
#X obj 198 394 tabwrite~ adsr-format;
#X obj 266 117 vsl 15 110 0 1 0 0 decay empty D 0 -9 0 10 -203904 -1
-1 4580 1;
#X obj 246 233 nbx 3 14 0 4 0 0 empty empty empty 0 -8 0 10 -262144
-1 -1 0.420183 256;
#X msg 301 42 50;
#X obj 402 267 r sustain;
#X obj 232 117 vsl 15 110 0 1 0 0 att empty A 0 -9 0 10 -203904 -1
-1 2290 1;
#X obj 338 117 vsl 15 110 0 1 0 0 release empty R 0 -9 0 10 -203904
-1 -1 1270 1;
#X obj 301 117 vsl 15 110 0 100 0 0 sustain empty S_% 0 -9 0 10 -204786
-1 -1 8150 1;
#X obj 322 233 nbx 3 14 0 4 0 0 empty empty empty 0 -8 0 10 -262144
-1 -1 0.116514 256;
#X obj 208 233 nbx 3 14 0 4 0 0 empty empty empty 0 -8 0 10 -262144
-1 -1 0.210092 256;
#X obj 284 233 nbx 3 14 0 100 0 0 empty empty empty 0 -8 0 10 -262144
-1 -1 74.7706 256;
#X obj 293 266 r att;
#X obj 340 266 r decay;
#X obj 479 268 r release;
#X msg 232 42 0.1;
#X msg 266 42 0.2;
#X msg 338 42 0.3;
#X obj 416 -4 inlet;
#X obj 416 43 unpack;
#X obj 416 80 s peak;
#X obj 242 265 r peak;
#X connect 1 0 20 0;
#X connect 1 0 17 0;
#X connect 2 0 23 0;
#X connect 3 0 7 0;
#X connect 3 0 5 0;
#X connect 5 0 10 0;
#X connect 14 0 16 0;
#X connect 14 0 7 0;
#X connect 15 0 11 0;
#X connect 18 0 15 1;
#X connect 19 0 26 0;
#X connect 19 0 38 0;
#X connect 19 0 37 0;
#X connect 19 0 39 0;
#X connect 20 0 15 0;
#X connect 20 0 23 0;
#X connect 21 0 9 0;
#X connect 21 0 22 0;
#X connect 24 0 25 0;
#X connect 26 0 30 0;
#X connect 27 0 20 4;
#X connect 28 0 32 0;
#X connect 29 0 31 0;
#X connect 30 0 33 0;
#X connect 34 0 20 2;
#X connect 35 0 20 3;
#X connect 36 0 20 5;
#X connect 37 0 28 0;
#X connect 38 0 24 0;
#X connect 39 0 29 0;
#X connect 40 0 41 0;
#X connect 41 0 42 0;
#X connect 43 0 20 1;
#X coords 0 -1 1 1 260 150 1 100 100;
#X restore 110 135 pd adsr;
#X obj 242 45 inlet~;
#X obj 163 341 outlet~;
#X obj 331 315 loadbang;
#X msg 339 346 \; envelopamento color -1.67628e+07;
#X connect 1 0 2 0;
#X connect 1 1 2 1;
#X connect 2 0 4 0;
#X connect 3 0 1 0;
#X connect 5 0 6 0;
#X coords 0 -1 1 1 500 200 2 100 100;
#X restore 962 195 pd envelopamento;
#N canvas 628 217 1062 585 efeitos 0;
#X obj 100 100 cnv 15 500 200 empty empty Efeitos 5 12 0 14 -232576
-66577 0;
#X obj 306 63 inlet~;
#N canvas 1 55 450 300 post_processing 0;
#X obj 116 68 inlet~;
#X obj 158 104 r volume;
#X obj 120 133 *~;
#X msg 542 141 \; onda const 0;
#X obj 542 103 r end;
#X obj 345 126 expr pow(2 \, $f1) * 64;
#X obj 240 101 loadbang;
#X msg 240 133 0;
#X obj 345 98 r b_size;
#X obj 240 164 s b_init;
#X msg 403 203 \; onda resize \$1;
#X floatatom 403 164 5 0 0 0 - - -, f 5;
#X obj 345 203 block~;
#X msg 345 163 set \$1;
#X obj -4 142 bang~;
#X obj -4 171 tabwrite~ onda;
#X obj 118 235 outlet~;
#X connect 0 0 2 0;
#X connect 1 0 2 1;
#X connect 2 0 15 0;
#X connect 2 0 16 0;
#X connect 4 0 3 0;
#X connect 5 0 11 0;
#X connect 5 0 13 0;
#X connect 6 0 7 0;
#X connect 7 0 9 0;
#X connect 8 0 5 0;
#X connect 11 0 10 0;
#X connect 13 0 12 0;
#X connect 14 0 15 0;
#X restore 306 316 pd post_processing;
#X obj 304 366 dac~;
#X connect 1 0 2 0;
#X connect 2 0 3 0;
#X connect 2 0 3 1;
#X coords 0 -1 1 1 500 200 1 100 100;
#X restore 986 457 pd efeitos;
#X connect 0 0 2 0;
#X connect 1 0 0 0;
#X connect 2 0 3 0;
#X coords 0 978 1 977 100 120 0;
