#N canvas -47 60 850 865 10;
#X obj 256 61 cnv 15 540 200 empty empty Controle 20 12 0 14 -204800
-66577 0;
#X obj 224 263 cnv 15 600 150 empty empty Síntese 20 12 0 14 -262130
-66577 0;
#N canvas 830 309 576 646 Abre_MIDI 0;
#X obj 82 2 bng 15 250 50 0 empty empty empty 17 7 0 10 -4034 -1 -1
;
#X obj 290 278 bng 15 250 50 0 empty empty empty 17 7 0 10 -262144
-1 -1;
#X obj 216 87 openpanel;
#X msg 248 223 read \$1;
#X obj 216 253 cyclone/seq;
#X text 309 277 Final do sequenciamento.;
#X obj 216 333 cyclone/midiparse;
#X msg 82 191 stop;
#X obj 216 429 outlet;
#X obj 301 254 s end;
#X obj 82 22 bng 15 250 50 0 empty empty empty 17 7 0 10 -258113 -1
-1;
#X text 99 19 Stop;
#X obj 216 192 t b s b;
#X msg 289 177 \; pd dsp 1;
#X msg 351 327 \; pd dsp 0;
#X obj 216 17 t b b;
#X connect 0 0 15 0;
#X connect 1 0 14 0;
#X connect 2 0 12 0;
#X connect 3 0 4 0;
#X connect 4 0 6 0;
#X connect 4 1 1 0;
#X connect 4 1 9 0;
#X connect 6 0 8 0;
#X connect 7 0 4 0;
#X connect 7 0 1 0;
#X connect 7 0 9 0;
#X connect 10 0 7 0;
#X connect 12 0 4 0;
#X connect 12 1 3 0;
#X connect 12 2 13 0;
#X connect 15 0 2 0;
#X connect 15 1 7 0;
#X coords 0 -1 1 1 50 40 1 80 0;
#X restore 287 173 pd Abre_MIDI;
#N canvas 342 288 788 447 Ouve_MIDI 0;
#X obj 47 196 notein;
#X obj 47 326 outlet;
#X obj 47 298 spigot;
#X obj 102 102 tgl 15 0 empty empty empty 17 7 0 10 -101120 -1 -1 0
1;
#X obj 47 268 pack;
#X obj 225 250 spigot;
#X obj 258 215 == 0;
#X obj 229 289 bng 15 250 50 0 empty empty empty 17 7 0 10 -262144
-1 -1;
#X floatatom 102 224 5 0 0 0 - - -, f 5;
#X obj 229 323 s end;
#X msg 220 155 \; pd dsp 1;
#X msg 294 304 \; pd dsp 0;
#X obj 101 138 t b b b b;
#X connect 0 0 4 0;
#X connect 0 1 4 1;
#X connect 2 0 1 0;
#X connect 3 0 12 0;
#X connect 4 0 2 0;
#X connect 5 0 7 0;
#X connect 6 0 5 1;
#X connect 7 0 9 0;
#X connect 7 0 11 0;
#X connect 8 0 2 1;
#X connect 12 0 8 0;
#X connect 12 1 5 0;
#X connect 12 1 6 0;
#X connect 12 2 10 0;
#X connect 12 3 9 0;
#X coords 0 -1 1 1 19 19 1 100 100;
#X restore 411 181 pd Ouve_MIDI;
#N canvas 877 365 839 546 ctrl_to_synth 0;
#X obj 100 100 cnv 15 19 19 empty empty empty 20 12 0 14 -233017 -66577
0;
#X obj 178 101 inlet;
#X obj 178 332 outlet;
#X obj 232 298 r end;
#X obj 232 331 outlet;
#X obj 178 157 unpack;
#X obj 211 193 / 127;
#X obj 178 228 pack;
#X obj 164 192 mtof;
#X obj 121 334 s freq;
#X connect 1 0 5 0;
#X connect 3 0 4 0;
#X connect 5 0 8 0;
#X connect 5 1 6 0;
#X connect 6 0 7 1;
#X connect 7 0 2 0;
#X connect 8 0 7 0;
#X connect 8 0 9 0;
#X coords 0 -1 1 1 19 19 2 100 100;
#X restore 508 249 pd ctrl_to_synth;
#X obj 224 414 cnv 15 600 250 empty empty Envelopamento 20 12 0 14
-261234 -66577 0;
#X obj 223 615 cnv 15 600 150 empty empty Efeitos 20 12 0 14 -232576
-66577 0;
#N canvas 1103 435 450 300 volume_slider 0;
#X obj 105 102 hsl 191 15 0.01 1 0 0 volume v_slider empty -2 -8 0
10 -204786 -1 -1 16304 1;
#X msg 117 159 \; v_slider 0.5;
#X obj 53 159 loadbang;
#X text 105 102 Volume;
#X connect 2 0 1 0;
#X coords 0 -1 1 1 200 19 1 100 100;
#X restore 287 134 pd volume_slider;
#N canvas 199 152 735 792 VCO 0;
#X obj 101 101 cnv 15 98 78 empty vco_b empty 20 12 0 14 -260818 -262144
0;
#X obj 103 102 vradio 15 1 0 5 vco_select empty empty 0 -8 0 10 -262130
-260097 -1 0;
#X text 138 131 Dentada;
#X text 134 146 Quadrada;
#X text 144 161 Pulso;
#X text 138 100 Senoide;
#X text 125 115 Triangular;
#X obj 280 103 inlet;
#X obj 230 346 phasor~ 0;
#X obj 280 148 unpack;
#X obj 103 43 loadbang;
#X msg 103 69 0;
#N canvas 1 65 1905 986 triangle 0;
#X obj 299 149 inlet;
#X floatatom 299 211 5 0 0 0 - - -, f 5;
#X obj 347 275 * -1;
#X obj 229 326 phasor~;
#X msg 418 284 0;
#X obj 228 350 *~ 2;
#X obj 228 375 -~ 1;
#X obj 227 399 clip~ 0 1;
#X obj 347 326 phasor~;
#X obj 346 350 *~ 2;
#X obj 346 375 -~ 1;
#X obj 345 399 clip~ 0 1;
#X obj 297 441 +~;
#X obj 298 480 outlet~;
#X connect 0 0 1 0;
#X connect 1 0 2 0;
#X connect 1 0 3 0;
#X connect 2 0 8 0;
#X connect 3 0 5 0;
#X connect 4 0 3 1;
#X connect 4 0 8 1;
#X connect 5 0 6 0;
#X connect 6 0 7 0;
#X connect 7 0 12 0;
#X connect 8 0 9 0;
#X connect 9 0 10 0;
#X connect 10 0 11 0;
#X connect 11 0 12 1;
#X connect 12 0 13 0;
#X restore 152 345 pd triangle;
#N canvas 895 154 794 637 square 0;
#X obj 141 26 inlet;
#X floatatom 141 61 5 0 0 0 - - -, f 5;
#X obj 177 108 * -1;
#X obj 104 190 phasor~;
#X obj 177 190 phasor~;
#X obj 136 237 +~;
#X obj 137 269 -~ 1;
#X msg 202 147 0;
#X msg 243 148 0.5;
#X obj 230 108 loadbang;
#X obj 137 306 outlet~;
#X connect 0 0 1 0;
#X connect 1 0 2 0;
#X connect 1 0 3 0;
#X connect 2 0 4 0;
#X connect 3 0 5 0;
#X connect 4 0 5 1;
#X connect 5 0 6 0;
#X connect 6 0 10 0;
#X connect 7 0 3 1;
#X connect 8 0 4 1;
#X connect 9 0 8 0;
#X connect 9 0 7 0;
#X restore 306 345 pd square;
#N canvas 933 380 450 300 pulse 0;
#X obj 134 57 inlet;
#X obj 134 86 phasor~;
#X obj 135 115 -~ 0.99;
#X obj 135 179 *~ 100;
#X obj 135 147 clip~ 0 1;
#X obj 136 209 outlet~;
#X connect 0 0 1 0;
#X connect 1 0 2 0;
#X connect 2 0 4 0;
#X connect 3 0 5 0;
#X connect 4 0 3 0;
#X restore 378 345 pd pulse;
#X obj 98 346 osc~ 0;
#N canvas 185 233 1051 722 multiplexer 0;
#X obj 327 402 outlet~;
#X obj 139 157 inlet~;
#X obj 165 208 r vco_select;
#X obj 165 245 == 0;
#X obj 138 300 *~;
#X obj 303 161 inlet~;
#X obj 329 212 r vco_select;
#X obj 302 304 *~;
#X obj 448 159 inlet~;
#X obj 474 210 r vco_select;
#X obj 447 302 *~;
#X obj 590 163 inlet~;
#X obj 616 214 r vco_select;
#X obj 589 306 *~;
#X obj 728 156 inlet~;
#X obj 754 207 r vco_select;
#X obj 727 299 *~;
#X obj 329 249 == 1;
#X obj 474 247 == 2;
#X obj 616 251 == 3;
#X obj 754 244 == 4;
#X floatatom 204 315 5 0 0 0 - - -, f 5;
#X connect 1 0 4 0;
#X connect 2 0 3 0;
#X connect 3 0 4 1;
#X connect 3 0 21 0;
#X connect 4 0 0 0;
#X connect 5 0 7 0;
#X connect 6 0 17 0;
#X connect 7 0 0 0;
#X connect 8 0 10 0;
#X connect 9 0 18 0;
#X connect 10 0 0 0;
#X connect 11 0 13 0;
#X connect 12 0 19 0;
#X connect 13 0 0 0;
#X connect 14 0 16 0;
#X connect 15 0 20 0;
#X connect 16 0 0 0;
#X connect 17 0 7 1;
#X connect 18 0 10 1;
#X connect 19 0 13 1;
#X connect 20 0 16 1;
#X restore 220 413 pd multiplexer;
#X obj 220 519 outlet~;
#X msg 475 232 0;
#X obj 348 192 s vco_vel;
#X obj 221 477 *~;
#X obj 236 452 r vco_vel;
#X obj 475 193 r end;
#X obj 205 244 zexy/demultiplex 1 2 3 4 5;
#X connect 1 0 23 1;
#X connect 7 0 9 0;
#X connect 8 0 16 2;
#X connect 9 0 23 0;
#X connect 9 1 19 0;
#X connect 10 0 11 0;
#X connect 11 0 1 0;
#X connect 12 0 16 1;
#X connect 13 0 16 3;
#X connect 14 0 16 4;
#X connect 15 0 16 0;
#X connect 16 0 20 0;
#X connect 18 0 15 0;
#X connect 18 0 12 0;
#X connect 18 0 8 0;
#X connect 18 0 13 0;
#X connect 18 0 14 0;
#X connect 20 0 17 0;
#X connect 21 0 20 1;
#X connect 22 0 18 0;
#X connect 23 0 15 0;
#X connect 23 1 12 0;
#X connect 23 2 8 0;
#X connect 23 3 13 0;
#X connect 23 4 14 0;
#X coords 0 -1 1 1 100 80 2 100 100;
#X restore 275 300 pd VCO;
#N canvas 919 158 889 893 synth_selector 0;
#X obj 100 101 hradio 15 1 0 4 empty empty empty 0 -8 0 10 -262130
-260097 -1 0;
#N canvas 1 65 1905 986 select_synth 0;
#X obj 377 276 route 0 1 2;
#X obj 196 406 bng 15 250 50 0 empty empty empty 17 7 0 10 -262144
-1 -1;
#X obj 323 406 bng 15 250 50 0 empty empty empty 17 7 0 10 -262144
-1 -1;
#X msg 323 450 \; vco_b color 5;
#X obj 377 310 s sb1;
#X obj 414 310 s sb2;
#X obj 451 310 s sb3;
#X obj 488 310 s sb4;
#X obj 196 370 r sb1;
#X obj 283 370 r sb2;
#X obj 323 370 r sb3;
#X obj 364 370 r sb4;
#X obj 445 402 bng 15 250 50 0 empty empty empty 17 7 0 10 -262144
-1 -1;
#X obj 565 402 bng 15 250 50 0 empty empty empty 17 7 0 10 -262144
-1 -1;
#X obj 565 366 r sb3;
#X obj 606 366 r sb4;
#X obj 689 404 bng 15 250 50 0 empty empty empty 17 7 0 10 -262144
-1 -1;
#X obj 809 404 bng 15 250 50 0 empty empty empty 17 7 0 10 -262144
-1 -1;
#X obj 769 368 r sb2;
#X obj 850 368 r sb4;
#X obj 934 404 bng 15 250 50 0 empty empty empty 17 7 0 10 -262144
-1 -1;
#X obj 1054 404 bng 15 250 50 0 empty empty empty 17 7 0 10 -262144
-1 -1;
#X obj 1054 368 r sb3;
#X obj 1095 368 r sb4;
#X obj 377 238 inlet;
#X obj 445 366 r sb2;
#X obj 525 366 r sb1;
#X obj 689 368 r sb3;
#X obj 809 368 r sb1;
#X obj 934 368 r sb4;
#X obj 1014 368 r sb1;
#X msg 445 447 \; 2_b color 104;
#X msg 565 446 \; 2_b color 5;
#X msg 689 449 \; 3_b color 104;
#X msg 809 448 \; 3_b color 5;
#X msg 934 449 \; 4_b color 104;
#X msg 1054 448 \; 4_b color 5;
#X msg 196 451 \; vco_b color 104;
#X obj 297 494 outlet;
#X obj 1026 503 outlet;
#X obj 538 498 outlet;
#X obj 782 502 outlet;
#X msg 297 429 0;
#X msg 538 425 0;
#X obj 152 330 loadbang;
#X msg 782 426 0;
#X msg 1026 429 0;
#X connect 0 0 4 0;
#X connect 0 1 5 0;
#X connect 0 2 6 0;
#X connect 0 3 7 0;
#X connect 1 0 37 0;
#X connect 2 0 3 0;
#X connect 2 0 42 0;
#X connect 8 0 1 0;
#X connect 9 0 2 0;
#X connect 10 0 2 0;
#X connect 11 0 2 0;
#X connect 12 0 31 0;
#X connect 13 0 32 0;
#X connect 13 0 43 0;
#X connect 14 0 13 0;
#X connect 15 0 13 0;
#X connect 16 0 33 0;
#X connect 17 0 34 0;
#X connect 17 0 45 0;
#X connect 18 0 17 0;
#X connect 19 0 17 0;
#X connect 20 0 35 0;
#X connect 21 0 36 0;
#X connect 21 0 46 0;
#X connect 22 0 21 0;
#X connect 23 0 21 0;
#X connect 24 0 0 0;
#X connect 25 0 12 0;
#X connect 26 0 13 0;
#X connect 27 0 16 0;
#X connect 28 0 17 0;
#X connect 29 0 20 0;
#X connect 30 0 21 0;
#X connect 42 0 38 0;
#X connect 43 0 40 0;
#X connect 44 0 1 0;
#X connect 45 0 41 0;
#X connect 46 0 39 0;
#X restore 99 241 pd select_synth;
#X obj 291 135 inlet;
#X obj 291 178 unpack;
#X floatatom 99 369 5 0 0 0 - - -, f 5;
#X floatatom 217 369 5 0 0 0 - - -, f 5;
#X floatatom 331 370 5 0 0 0 - - -, f 5;
#X floatatom 426 371 5 0 0 0 - - -, f 5;
#X obj 402 247 s vel;
#X obj 120 412 r vel;
#X obj 99 449 pack;
#X obj 238 412 r vel;
#X obj 217 449 pack;
#X obj 352 412 r vel;
#X obj 331 448 pack;
#X obj 447 413 r vel;
#X obj 426 450 pack;
#X obj 99 490 outlet;
#X obj 217 489 outlet;
#X obj 331 489 outlet;
#X obj 426 491 outlet;
#X obj 358 179 s freq_ampl;
#X obj 223 246 zexy/demultiplex 1 2 3 4;
#X connect 0 0 1 0;
#X connect 0 0 22 1;
#X connect 1 0 4 0;
#X connect 1 1 5 0;
#X connect 1 2 6 0;
#X connect 1 3 7 0;
#X connect 2 0 3 0;
#X connect 2 0 21 0;
#X connect 3 0 22 0;
#X connect 3 1 8 0;
#X connect 4 0 10 0;
#X connect 5 0 12 0;
#X connect 6 0 14 0;
#X connect 7 0 16 0;
#X connect 9 0 10 1;
#X connect 10 0 17 0;
#X connect 11 0 12 1;
#X connect 12 0 18 0;
#X connect 13 0 14 1;
#X connect 14 0 19 0;
#X connect 15 0 16 1;
#X connect 16 0 20 0;
#X connect 22 0 4 0;
#X connect 22 1 5 0;
#X connect 22 2 6 0;
#X connect 22 3 7 0;
#X coords 0 -1 1 1 60 17 2 100 100;
#X restore 489 263 pd synth_selector;
#N canvas 507 347 450 300 env_fx 0;
#X obj 178 99 inlet~;
#X obj 178 239 outlet~;
#X connect 0 0 1 0;
#X coords 0 -1 1 1 19 19 2 100 100;
#X restore 507 615 pd env_fx;
#N canvas 203 293 807 483 toca 0;
#X obj 212 74 inlet~;
#X obj 251 141 r volume;
#X obj 213 170 *~;
#X msg 636 119 \; onda const 0;
#X obj 636 81 r end;
#X obj 214 345 outlet~;
#X obj 439 104 expr pow(2 \, $f1) * 64;
#X obj 334 79 loadbang;
#X msg 334 111 0;
#X obj 439 76 r b_size;
#X obj 334 142 s b_init;
#X msg 497 181 \; onda resize \$1;
#X floatatom 497 142 5 0 0 0 - - -, f 5;
#X obj 439 181 block~;
#X msg 439 141 set \$1;
#X obj 284 276 bang~;
#X obj 284 346 tabwrite~ onda;
#X connect 0 0 2 0;
#X connect 1 0 2 1;
#X connect 2 0 5 0;
#X connect 2 0 16 0;
#X connect 4 0 3 0;
#X connect 6 0 12 0;
#X connect 6 0 14 0;
#X connect 7 0 8 0;
#X connect 8 0 10 0;
#X connect 9 0 6 0;
#X connect 12 0 11 0;
#X connect 14 0 13 0;
#X connect 15 0 16 0;
#X coords 0 -1 1 1 19 19 2 100 100;
#X restore 506 708 pd toca;
#X text 747 141 64;
#X text 747 187 512;
#X text 748 202 1024;
#X text 748 217 2048;
#X obj 730 142 vradio 15 1 0 6 b_size b_init empty 0 -8 0 10 -262144
-1 -1 4;
#X obj 512 93 cnv 15 200 140 empty empty empty 20 12 0 14 -262144 -66577
0;
#X text 747 172 256;
#X text 747 157 128;
#X text 241 300 VCO;
#N canvas 1 68 1389 657 env_selector 1;
#X obj 100 101 hradio 15 1 0 2 empty empty empty 0 -8 0 10 -261234
-258113 -1 0;
#X floatatom 999 517 5 0 0 0 - - -, f 5;
#X obj 627 541 outlet;
#X obj 999 543 outlet;
#X obj 530 73 inlet~;
#X obj 530 539 outlet~;
#X obj 739 152 cyclone/peakamp~;
#X obj 782 103 bang~;
#X obj 907 154 r freq;
#N canvas 441 396 868 605 select_env 0;
#X obj 196 406 bng 15 250 50 0 empty empty empty 17 7 0 10 -262144
-1 -1;
#X obj 393 406 bng 15 250 50 0 empty empty empty 17 7 0 10 -262144
-1 -1;
#X obj 579 402 bng 15 250 50 0 empty empty empty 17 7 0 10 -262144
-1 -1;
#X obj 725 402 bng 15 250 50 0 empty empty empty 17 7 0 10 -262144
-1 -1;
#X obj 377 238 inlet;
#X obj 367 494 outlet;
#X obj 698 498 outlet;
#X msg 367 429 0;
#X msg 698 425 0;
#X obj 152 330 loadbang;
#X obj 377 310 s eb1;
#X obj 417 309 s eb2;
#X obj 377 276 route 0;
#X obj 579 366 r eb2;
#X obj 728 369 r eb1;
#X obj 392 373 r eb2;
#X obj 196 370 r eb1;
#X msg 579 450 \; 2_b color 13;
#X msg 725 446 \; 2_b color 4;
#X msg 196 451 \; adsr_b color 13;
#X msg 325 429 1;
#X msg 657 426 1;
#X obj 215 119 cnv 15 100 60 empty teste empty 20 12 0 14 -261234 -66577
0;
#X msg 393 450 \; adsr_b color -1.67628e+007;
#X connect 0 0 19 0;
#X connect 0 0 20 0;
#X connect 1 0 23 0;
#X connect 1 0 7 0;
#X connect 2 0 17 0;
#X connect 2 0 21 0;
#X connect 3 0 18 0;
#X connect 3 0 8 0;
#X connect 4 0 12 0;
#X connect 7 0 5 0;
#X connect 8 0 6 0;
#X connect 9 0 0 0;
#X connect 12 0 10 0;
#X connect 12 1 11 0;
#X connect 13 0 2 0;
#X connect 14 0 3 0;
#X connect 15 0 1 0;
#X connect 16 0 0 0;
#X connect 20 0 5 0;
#X connect 21 0 6 0;
#X restore 627 393 pd select_env;
#X obj 882 392 zexy/demultiplex 1 2;
#X floatatom 627 511 5 0 0 0 - - -, f 5;
#X obj 882 242 pack;
#X obj 100 35 loadbang;
#X msg 100 63 0;
#X floatatom 216 363 5 0 0 0 - - -, f 5;
#X obj 198 398 spigot;
#X obj 199 438 bng 15 250 50 0 empty empty empty 17 7 0 10 -262144
-1 -1;
#X obj 160 241 r vel;
#X floatatom 160 287 5 0 0 0 - - -, f 5;
#X floatatom 139 366 5 0 0 0 - - -, f 5;
#X obj 139 399 spigot;
#X obj 130 434 bng 15 250 50 0 empty empty empty 17 7 0 10 -262144
-1 -1;
#X obj 130 508 s note_on;
#X obj 199 508 s note_off;
#X obj 530 502 *~;
#X obj 852 515 *~;
#X obj 852 537 outlet~;
#X obj 139 330 > 0;
#X obj 215 336 <= 0;
#X connect 0 0 9 0;
#X connect 1 0 3 0;
#X connect 4 0 6 0;
#X connect 4 0 25 0;
#X connect 4 0 26 0;
#X connect 6 0 12 0;
#X connect 7 0 6 0;
#X connect 8 0 12 1;
#X connect 9 0 11 0;
#X connect 9 0 25 1;
#X connect 9 0 26 1;
#X connect 9 1 1 0;
#X connect 10 0 2 0;
#X connect 10 1 1 0;
#X connect 11 0 2 0;
#X connect 12 0 10 0;
#X connect 13 0 14 0;
#X connect 14 0 0 0;
#X connect 15 0 16 1;
#X connect 15 0 16 0;
#X connect 16 0 17 0;
#X connect 17 0 24 0;
#X connect 18 0 19 0;
#X connect 19 0 28 0;
#X connect 19 0 29 0;
#X connect 20 0 21 1;
#X connect 20 0 21 0;
#X connect 21 0 22 0;
#X connect 22 0 23 0;
#X connect 25 0 5 0;
#X connect 26 0 27 0;
#X connect 28 0 20 0;
#X connect 29 0 15 0;
#X coords 0 -1 1 1 30 17 2 100 100;
#X restore 505 407 pd env_selector;
#N canvas 820 82 1063 771 adsr 0;
#X obj 101 101 cnv 15 258 148 empty adsr_b empty 20 12 0 14 -258699
-66577 0;
#X obj 171 265 r trigger;
#X obj 220 369 r graphit;
#X msg 652 226 bang;
#X text 696 227 <-- attack and delayed release;
#X obj 663 250 del 500;
#X text 767 333 <-- attack only;
#X msg 652 314 \; pd dsp 1 \; trigger 1 \; graphit bang;
#X text 768 410 <-- release only;
#X msg 651 384 \; pd dsp 1 \; trigger 0 \; graphit bang;
#X msg 663 275 \; trigger 0;
#X obj 183 509 outlet~;
#X obj 105 127 cnv 15 120 90 empty empty empty 20 12 0 14 -262144 -66577
0;
#N canvas 1 56 450 300 (subpatch) 0;
#X array adsr-format 44100 float 0;
#X coords 0 1.02 44100 -1.02 120 90 1 0 0;
#X restore 105 127 graph;
#X obj 615 128 r note_on;
#X obj 182 457 *~;
#X obj 554 421 bng 15 250 50 0 empty empty empty 17 7 0 10 -262144
-1 -1;
#X floatatom 188 296 5 0 0 0 - - -, f 5;
#X obj 106 263 inlet~;
#X obj 283 -11 loadbang;
#N canvas 1 54 804 997 sub_adsr 1;
#X obj 105 111 inlet;
#X obj 435 151 inlet;
#X text 101 86 trigger;
#X obj 105 139 sel 0;
#X obj 244 155 t b;
#X obj 166 264 f \$1;
#X obj 166 289 pack 0 \$2;
#X obj 492 151 inlet;
#X obj 438 281 del \$2;
#X obj 458 429 line~;
#X obj 462 304 f \$4;
#X obj 501 379 pack 0 \$3;
#X obj 554 151 inlet;
#X obj 616 151 inlet;
#X obj 689 150 inlet;
#X msg 105 170 stop;
#X obj 612 306 pack 0 \$5;
#X text 435 129 level;
#X obj 501 355 * \$1;
#X obj 458 454 outlet~;
#X text 102 378 and pack with;
#X text 103 398 attack time;
#X text 31 126 if zero;
#X text 32 143 release;
#X text 12 160 and cancel;
#X text 43 177 decay;
#X text 284 272 on attack \, set a;
#X text 278 305 recall sustain value;
#X text 315 378 pack with decay time;
#X text 605 332 on release ramp;
#X text 606 349 back to zero;
#X obj 462 329 * 0.01;
#X text 47 567 Objects such as "f" and "pack" can be given dollar sign
arguments to initialize their contents from adsr's creation arguments.
Inlets are supplied to change them on the fly.;
#X text 13 2 ADSR ENVELOPE;
#X text 488 129 attack;
#X text 555 128 decay;
#X text 609 129 sustain;
#X text 686 129 release;
#X text 202 71 attack;
#X obj 204 92 moses;
#X obj 194 122 t b b;
#X msg 128 290 0;
#X text 20 273 optionally;
#X text 10 291 bash to zero;
#X text 25 246 ATTACK:;
#X text 49 477 When you send this patch a positive trigger it schedules
a line~ to do an attack and decay \, and if zero \, it starts the release
ramp.;
#X text 495 629 Updated for Pd version 0.37;
#X text 255 89 test for negative trigger;
#X text 253 113 if so \, zero;
#X text 254 129 the output;
#X text 278 165 in any case;
#X text 303 355 multiply by peak level;
#X text 280 286 delay for sustain;
#X text 276 328 convert from percent;
#X text 155 340 ... then;
#X text 103 359 recall peak level;
#X text 439 113 peak;
#X text 281 149 ... do this;
#X text 47 529 Negative triggers cause the output to jump to zero and
then attack (instead of attacking from the current location).;
#X text 208 1 Arguments: level \, attack time \, decay time \, sustain
level \, release time. A \, D \, and R are in msec and S is in percent.
This patch is used as an abstraction in various examples.;
#X obj 476 193 * 1000;
#X obj 557 193 * 1000;
#X obj 672 195 * 1000;
#X connect 0 0 3 0;
#X connect 1 0 5 1;
#X connect 1 0 18 1;
#X connect 3 0 15 0;
#X connect 3 0 16 0;
#X connect 3 1 39 0;
#X connect 4 0 5 0;
#X connect 4 0 8 0;
#X connect 5 0 6 0;
#X connect 6 0 9 0;
#X connect 7 0 60 0;
#X connect 8 0 10 0;
#X connect 9 0 19 0;
#X connect 10 0 31 0;
#X connect 11 0 9 0;
#X connect 12 0 61 0;
#X connect 13 0 10 1;
#X connect 14 0 62 0;
#X connect 15 0 8 0;
#X connect 16 0 9 0;
#X connect 18 0 11 0;
#X connect 31 0 18 0;
#X connect 39 0 40 0;
#X connect 39 1 4 0;
#X connect 40 0 4 0;
#X connect 40 1 41 0;
#X connect 41 0 9 0;
#X connect 60 0 8 1;
#X connect 60 0 6 1;
#X connect 61 0 11 1;
#X connect 62 0 16 1;
#X restore 182 344 pd sub_adsr;
#X obj 575 387 r note_off;
#X obj 580 422 bng 15 250 50 0 empty empty empty 17 7 0 10 -262144
-1 -1;
#X obj 198 394 tabwrite~ adsr-format;
#X obj 266 117 vsl 15 110 0 1 0 0 decay empty D 0 -9 0 10 -261234 -1
-1 1400 1;
#X obj 246 233 nbx 3 14 0 4 0 0 empty empty empty 0 -8 0 10 -262144
-1 -1 0.12844 256;
#X msg 301 42 50;
#X obj 402 267 r sustain;
#X obj 232 117 vsl 15 110 0 1 0 0 att empty A 0 -9 0 10 -261234 -1
-1 1090 1;
#X obj 338 117 vsl 15 110 0 1 0 0 release empty R 0 -9 0 10 -261234
-1 -1 2370 1;
#X obj 301 117 vsl 15 110 0 100 0 0 sustain empty S_% 0 -9 0 10 -204786
-1 -1 10900 1;
#X obj 322 233 nbx 3 14 0 4 0 0 empty empty empty 0 -8 0 10 -262144
-1 -1 0.217431 256;
#X obj 208 233 nbx 3 14 0 4 0 0 empty empty empty 0 -8 0 10 -262144
-1 -1 0.1 256;
#X obj 284 233 nbx 3 14 0 100 0 0 empty empty empty 0 -8 0 10 -262144
-1 -1 100 256;
#X obj 293 266 r att;
#X obj 340 266 r decay;
#X obj 479 268 r release;
#X msg 232 42 0.1;
#X msg 266 42 0.2;
#X msg 338 42 0.3;
#X obj 411 -9 inlet;
#X obj 411 38 unpack;
#X obj 411 75 s peak;
#X obj 242 265 r peak;
#X connect 1 0 20 0;
#X connect 1 0 17 0;
#X connect 2 0 23 0;
#X connect 3 0 7 0;
#X connect 3 0 5 0;
#X connect 5 0 10 0;
#X connect 14 0 16 0;
#X connect 14 0 7 0;
#X connect 15 0 11 0;
#X connect 18 0 15 1;
#X connect 19 0 26 0;
#X connect 19 0 38 0;
#X connect 19 0 37 0;
#X connect 19 0 39 0;
#X connect 20 0 15 0;
#X connect 20 0 23 0;
#X connect 21 0 9 0;
#X connect 21 0 22 0;
#X connect 24 0 25 0;
#X connect 26 0 30 0;
#X connect 27 0 20 4;
#X connect 28 0 32 0;
#X connect 29 0 31 0;
#X connect 30 0 33 0;
#X connect 34 0 20 2;
#X connect 35 0 20 3;
#X connect 36 0 20 5;
#X connect 37 0 28 0;
#X connect 38 0 24 0;
#X connect 39 0 29 0;
#X connect 40 0 41 0;
#X connect 41 0 42 0;
#X connect 43 0 20 1;
#X coords 0 -1 1 1 260 150 1 100 100;
#X restore 244 444 pd adsr;
#N canvas 1 72 450 300 (subpatch) 0;
#X array onda 1024 float 1;
#A 0 0 0 0 0 0 0 0 0 0 0 0 0 0 0 0 0 0 0 0 0 0 0 0 0 0 0 0 0 0 0 0
0 0 0 0 0 0 0 0 0 0 0 0 0 0 0 0 0 0 0 0 0 0 0 0 0 0 0 0 0 0 0 0 0 0
0 0 0 0 0 0 0 0 0 0 0 0 0 0 0 0 0 0 0 0 0 0 0 0 0 0 0 0 0 0 0 0 0 0
0 0 0 0 0 0 0 0 0 0 0 0 0 0 0 0 0 0 0 0 0 0 0 0 0 0 0 0 0 0 0 0 0 0
0 0 0 0 0 0 0 0 0 0 0 0 0 0 0 0 0 0 0 0 0 0 0 0 0 0 0 0 0 0 0 0 0 0
0 0 0 0 0 0 0 0 0 0 0 0 0 0 0 0 0 0 0 0 0 0 0 0 0 0 0 0 0 0 0 0 0 0
0 0 0 0 0 0 0 0 0 0 0 0 0 0 0 0 0 0 0 0 0 0 0 0 0 0 0 0 0 0 0 0 0 0
0 0 0 0 0 0 0 0 0 0 0 0 0 0 0 0 0 0 0 0 0 0 0 0 0 0 0 0 0 0 0 0 0 0
0 0 0 0 0 0 0 0 0 0 0 0 0 0 0 0 0 0 0 0 0 0 0 0 0 0 0 0 0 0 0 0 0 0
0 0 0 0 0 0 0 0 0 0 0 0 0 0 0 0 0 0 0 0 0 0 0 0 0 0 0 0 0 0 0 0 0 0
0 0 0 0 0 0 0 0 0 0 0 0 0 0 0 0 0 0 0 0 0 0 0 0 0 0 0 0 0 0 0 0 0 0
0 0 0 0 0 0 0 0 0 0 0 0 0 0 0 0 0 0 0 0 0 0 0 0 0 0 0 0 0 0 0 0 0 0
0 0 0 0 0 0 0 0 0 0 0 0 0 0 0 0 0 0 0 0 0 0 0 0 0 0 0 0 0 0 0 0 0 0
0 0 0 0 0 0 0 0 0 0 0 0 0 0 0 0 0 0 0 0 0 0 0 0 0 0 0 0 0 0 0 0 0 0
0 0 0 0 0 0 0 0 0 0 0 0 0 0 0 0 0 0 0 0 0 0 0 0 0 0 0 0 0 0 0 0 0 0
0 0 0 0 0 0 0 0 0 0 0 0 0 0 0 0 0 0 0 0 0 0 0 0 0 0 0 0 0 0 0 0 0 0
0 0 0 0 0 0 0 0 0 0 0 0 0 0 0 0 0 0 0 0 0 0 0 0 0 0 0 0 0 0 0 0 0 0
0 0 0 0 0 0 0 0 0 0 0 0 0 0 0 0 0 0 0 0 0 0 0 0 0 0 0 0 0 0 0 0 0 0
0 0 0 0 0 0 0 0 0 0 0 0 0 0 0 0 0 0 0 0 0 0 0 0 0 0 0 0 0 0 0 0 0 0
0 0 0 0 0 0 0 0 0 0 0 0 0 0 0 0 0 0 0 0 0 0 0 0 0 0 0 0 0 0 0 0 0 0
0 0 0 0 0 0 0 0 0 0 0 0 0 0 0 0 0 0 0 0 0 0 0 0 0 0 0 0 0 0 0 0 0 0
0 0 0 0 0 0 0 0 0 0 0 0 0 0 0 0 0 0 0 0 0 0 0 0 0 0 0 0 0 0 0 0 0 0
0 0 0 0 0 0 0 0 0 0 0 0 0 0 0 0 0 0 0 0 0 0 0 0 0 0 0 0 0 0 0 0 0 0
0 0 0 0 0 0 0 0 0 0 0 0 0 0 0 0 0 0 0 0 0 0 0 0 0 0 0 0 0 0 0 0 0 0
0 0 0 0 0 0 0 0 0 0 0 0 0 0 0 0 0 0 0 0 0 0 0 0 0 0 0 0 0 0 0 0 0 0
0 0 0 0 0 0 0 0 0 0 0 0 0 0 0 0 0 0 0 0 0 0 0 0 0 0 0 0 0 0 0 0 0 0
0 0 0 0 0 0 0 0 0 0 0 0 0 0 0 0 0 0 0 0 0 0 0 0 0 0 0 0 0 0 0 0 0 0
0 0 0 0 0 0 0 0 0 0 0 0 0 0 0 0 0 0 0 0 0 0 0 0 0 0 0 0 0 0 0 0 0 0
0 0 0 0 0 0 0 0 0 0 0 0 0 0 0 0 0 0 0 0 0 0 0 0 0 0 0 0 0 0 0 0 0 0
0 0 0 0 0 0 0 0 0 0 0 0 0 0 0 0 0;
#A 1000 0 0 0 0 0 0 0 0 0 0 0 0 0 0 0 0 0 0 0 0 0 0 0 0;
#X coords 0 1 1023 -1 200 140 1 0 0;
#X restore 512 93 graph;
#X obj 506 760 dac~;
#X text 728 98 Tamanho de bloco, f 9;
#X text 266 444 ADSR;
#X connect 2 0 4 0;
#X connect 3 0 4 0;
#X connect 4 0 9 0;
#X connect 8 0 21 0;
#X connect 9 0 8 0;
#X connect 10 0 11 0;
#X connect 11 0 24 0;
#X connect 11 0 24 1;
#X connect 21 0 22 0;
#X connect 22 0 10 0;
#X coords 0 865 1 864 100 120 0;
