#N canvas 1 58 1307 865 10;
#X obj 402 111 cnv 15 210 150 empty empty Controle 20 12 0 14 -204800
-66577 0;
#X obj 182 310 cnv 15 600 150 empty empty Síntese 20 12 0 14 -262130
-66577 0;
#X obj 857 195 init;
#X obj 857 225 s volume_slider;
#X msg 857 153 0.5;
#N canvas 1307 183 576 646 Abre_MIDI 0;
#X obj 82 2 bng 15 250 50 0 empty empty empty 17 7 0 10 -4034 -1 -1
;
#X floatatom 82 373 5 0 0 0 - - -;
#X obj 82 347 mtof;
#X obj 82 230 unpack;
#X obj 82 285 stripnote;
#X floatatom 82 320 5 0 0 0 - - -;
#X obj 156 146 bng 15 250 50 0 empty empty empty 17 7 0 10 -262144
-1 -1;
#X obj 82 33 openpanel;
#X msg 114 90 read \$1;
#X obj 82 59 t b s;
#X obj 82 120 cyclone/seq;
#X msg 156 166 0;
#X text 175 145 Final do sequenciamento.;
#X obj 82 200 cyclone/midiparse;
#X text 122 319 Número MIDI;
#X text 123 371 Hertz;
#X floatatom 82 252 5 0 0 0 - - -;
#X floatatom 142 252 5 0 0 0 - - -;
#X text 39 251 pitch;
#X text 182 250 velocity;
#X msg 19 81 stop;
#X obj 82 399 outlet;
#X connect 0 0 7 0;
#X connect 1 0 21 0;
#X connect 2 0 1 0;
#X connect 3 0 16 0;
#X connect 3 1 17 0;
#X connect 4 0 5 0;
#X connect 5 0 2 0;
#X connect 6 0 11 0;
#X connect 7 0 9 0;
#X connect 8 0 10 0;
#X connect 9 0 10 0;
#X connect 9 1 8 0;
#X connect 10 0 13 0;
#X connect 10 1 6 0;
#X connect 13 0 3 0;
#X connect 16 0 4 0;
#X connect 17 0 4 1;
#X connect 20 0 10 0;
#X connect 20 0 6 0;
#X coords 0 -1 1 1 19 19 1 80 0;
#X restore 427 216 pd Abre_MIDI;
#N canvas 370 224 788 447 Ouve_MIDI 0;
#X obj 128 103 notein;
#X floatatom 128 253 5 0 0 0 - - -;
#X obj 128 227 mtof;
#X obj 128 165 stripnote;
#X floatatom 128 200 5 0 0 0 - - -;
#X text 168 199 Número MIDI;
#X text 169 251 Hertz;
#X floatatom 128 132 5 0 0 0 - - -;
#X floatatom 188 132 5 0 0 0 - - -;
#X text 85 131 pitch;
#X text 228 130 velocity;
#X obj 128 313 outlet;
#X obj 128 285 spigot;
#X obj 102 102 tgl 15 0 empty empty empty 17 7 0 10 -101120 -1 -1 0
1;
#X connect 0 0 7 0;
#X connect 0 1 8 0;
#X connect 1 0 12 0;
#X connect 2 0 1 0;
#X connect 3 0 4 0;
#X connect 4 0 2 0;
#X connect 7 0 3 0;
#X connect 8 0 3 1;
#X connect 12 0 11 0;
#X connect 13 0 12 1;
#X coords 0 -1 1 1 19 19 1 100 100;
#X restore 515 216 pd Ouve_MIDI;
#N canvas 717 215 450 300 ctrl_to_synth 0;
#X obj 100 100 cnv 15 19 19 empty empty empty 20 12 0 14 -233017 -66577
0;
#X obj 198 103 inlet;
#X obj 263 104 inlet;
#X obj 198 166 spigot;
#X obj 231 134 == 0;
#X obj 279 251 outlet;
#X obj 248 200 +;
#X obj 314 200 r volume;
#X obj 279 226 pack;
#X connect 1 0 3 0;
#X connect 2 0 4 0;
#X connect 2 0 6 1;
#X connect 3 0 6 0;
#X connect 4 0 3 1;
#X connect 6 0 8 0;
#X connect 7 0 8 1;
#X connect 8 0 5 0;
#X coords 0 -1 1 1 19 19 2 100 100;
#X restore 503 253 pd ctrl_to_synth;
#X obj 431 175 hsl 160 15 0.01 1 0 0 volume volume_slider empty -2
-8 0 10 -262144 -1 -1 7870 1;
#X connect 2 0 3 0;
#X connect 4 0 2 0;
#X connect 5 0 7 0;
#X connect 6 0 7 1;
#X coords 0 865 1 864 85 60 0;
