#N canvas 207 132 1307 865 10;
#X obj 407 141 cnv 15 210 150 empty empty Controle 20 12 0 14 -204800
-66577 0;
#X obj 224 263 cnv 15 600 150 empty empty Síntese 20 12 0 14 -262130
-66577 0;
#N canvas 764 303 576 646 Abre_MIDI 0;
#X obj 82 2 bng 15 250 50 0 empty empty empty 17 7 0 10 -4034 -1 -1
;
#X obj 249 129 bng 15 250 50 0 empty empty empty 17 7 0 10 -262144
-1 -1;
#X obj 175 17 openpanel;
#X msg 207 74 read \$1;
#X obj 175 43 t b s;
#X obj 175 104 cyclone/seq;
#X text 268 128 Final do sequenciamento.;
#X obj 175 184 cyclone/midiparse;
#X msg 82 112 stop;
#X obj 175 280 outlet;
#X obj 260 105 s end;
#X obj 82 22 bng 15 250 50 0 empty empty empty 17 7 0 10 -258113 -1
-1;
#X text 99 19 Stop;
#X connect 0 0 2 0;
#X connect 2 0 4 0;
#X connect 3 0 5 0;
#X connect 4 0 5 0;
#X connect 4 1 3 0;
#X connect 5 0 7 0;
#X connect 5 1 1 0;
#X connect 5 1 10 0;
#X connect 7 0 9 0;
#X connect 8 0 5 0;
#X connect 8 0 1 0;
#X connect 8 0 10 0;
#X connect 11 0 8 0;
#X coords 0 -1 1 1 50 40 1 80 0;
#X restore 432 199 pd Abre_MIDI;
#N canvas 354 282 788 447 Ouve_MIDI 0;
#X obj 47 196 notein;
#X obj 47 326 outlet;
#X obj 47 298 spigot;
#X obj 102 102 tgl 15 0 empty empty empty 17 7 0 10 -101120 -1 -1 0
1;
#X obj 47 268 pack;
#X obj 185 255 spigot;
#X obj 218 220 == 0;
#X obj 189 294 bng 15 250 50 0 empty empty empty 17 7 0 10 -262144
-1 -1;
#X floatatom 102 224 5 0 0 0 - - -;
#X obj 189 328 s end;
#X connect 0 0 4 0;
#X connect 0 1 4 1;
#X connect 2 0 1 0;
#X connect 3 0 6 0;
#X connect 3 0 5 0;
#X connect 3 0 8 0;
#X connect 4 0 2 0;
#X connect 5 0 7 0;
#X connect 6 0 5 1;
#X connect 7 0 9 0;
#X connect 8 0 2 1;
#X coords 0 -1 1 1 19 19 1 100 100;
#X restore 519 212 pd Ouve_MIDI;
#N canvas 546 217 839 546 ctrl_to_synth 0;
#X obj 100 100 cnv 15 19 19 empty empty empty 20 12 0 14 -233017 -66577
0;
#X obj 178 101 inlet;
#X obj 178 332 outlet;
#X obj 232 298 r end;
#X obj 232 331 outlet;
#X obj 178 157 unpack;
#X obj 211 193 / 127;
#X obj 178 228 pack;
#X obj 164 192 mtof;
#X connect 1 0 5 0;
#X connect 3 0 4 0;
#X connect 5 0 8 0;
#X connect 5 1 6 0;
#X connect 6 0 7 1;
#X connect 7 0 2 0;
#X connect 8 0 7 0;
#X coords 0 -1 1 1 19 19 2 100 100;
#X restore 505 245 pd ctrl_to_synth;
#X obj 224 414 cnv 15 600 150 empty empty Envelopamento 20 12 0 14
-261682 -66577 0;
#X obj 224 564 cnv 15 600 150 empty empty Efeitos 20 12 0 14 -232576
-66577 0;
#N canvas 1109 432 450 300 volume_slider 0;
#X obj 105 102 hsl 155 15 0.01 1 0 0 volume v_slider empty -2 -8 0
10 -204786 -1 -1 11822 1;
#X msg 117 159 \; v_slider 0.5;
#X obj 53 159 loadbang;
#X text 113 100 Volume;
#X connect 2 0 1 0;
#X coords 0 -1 1 1 164 19 1 100 100;
#X restore 433 171 pd volume_slider;
#N canvas 951 217 735 792 VCO 0;
#X obj 101 101 cnv 15 98 78 empty vco_b empty 20 12 0 14 -260818 -262144
0;
#X obj 103 102 vradio 15 1 0 5 vco_select empty empty 0 -8 0 10 -262130
-260097 -1 3;
#X text 138 131 Dentada;
#X text 134 146 Quadrada;
#X text 144 161 Pulso;
#X text 138 99 Senoide;
#X text 130 115 Triangular;
#X obj 280 103 inlet;
#X obj 222 246 demux 1 2 3 4 5;
#X obj 230 346 phasor~ 0;
#X obj 280 148 unpack;
#X obj 103 43 loadbang;
#X msg 103 69 0;
#N canvas 0 94 1920 986 triangle 0;
#X obj 299 149 inlet;
#X floatatom 299 211 5 0 0 0 - - -;
#X obj 347 275 * -1;
#X obj 229 326 phasor~;
#X msg 418 284 0;
#X obj 228 350 *~ 2;
#X obj 228 375 -~ 1;
#X obj 227 399 clip~ 0 1;
#X obj 347 326 phasor~;
#X obj 346 350 *~ 2;
#X obj 346 375 -~ 1;
#X obj 345 399 clip~ 0 1;
#X obj 297 441 +~;
#X obj 298 480 outlet~;
#X connect 0 0 1 0;
#X connect 1 0 2 0;
#X connect 1 0 3 0;
#X connect 2 0 8 0;
#X connect 3 0 5 0;
#X connect 4 0 3 1;
#X connect 4 0 8 1;
#X connect 5 0 6 0;
#X connect 6 0 7 0;
#X connect 7 0 12 0;
#X connect 8 0 9 0;
#X connect 9 0 10 0;
#X connect 10 0 11 0;
#X connect 11 0 12 1;
#X connect 12 0 13 0;
#X restore 152 345 pd triangle;
#N canvas 897 153 794 637 square 0;
#X obj 141 26 inlet;
#X floatatom 141 61 5 0 0 0 - - -;
#X obj 177 108 * -1;
#X obj 104 190 phasor~;
#X obj 177 190 phasor~;
#X obj 136 237 +~;
#X obj 137 269 -~ 1;
#X msg 202 147 0;
#X msg 243 148 0.5;
#X obj 230 108 loadbang;
#X obj 137 306 outlet~;
#X connect 0 0 1 0;
#X connect 1 0 2 0;
#X connect 1 0 3 0;
#X connect 2 0 4 0;
#X connect 3 0 5 0;
#X connect 4 0 5 1;
#X connect 5 0 6 0;
#X connect 6 0 10 0;
#X connect 7 0 3 1;
#X connect 8 0 4 1;
#X connect 9 0 8 0;
#X connect 9 0 7 0;
#X restore 306 345 pd square;
#N canvas 935 379 450 300 pulse 0;
#X obj 134 57 inlet;
#X obj 134 86 phasor~;
#X obj 135 115 -~ 0.99;
#X obj 135 179 *~ 100;
#X obj 135 147 clip~ 0 1;
#X obj 136 209 outlet~;
#X connect 0 0 1 0;
#X connect 1 0 2 0;
#X connect 2 0 4 0;
#X connect 3 0 5 0;
#X connect 4 0 3 0;
#X restore 378 345 pd pulse;
#N canvas 0 0 450 300 (subpatch) 0;
#X array array1 100 float 3;
#A 0 0 0 0 0 0 0 0 0 0 0 0 0 0 0 0 0 0 0 0 0 0 0 0 0 0 0 0 0 0 0 0
0 0 0 0 0 0 0 0 0 0 0 0 0 0 0 0 0 0 0 0 0 0 0 0 0 0 0 0 0 0 0 0 0 0
0 0 0 0 0 0 0 0 0 0 0 0 0 0 0 0 0 0 0 0 0 0 0 0 0 0 0 0 0 0 0 0 0 0
0;
#X coords 0 1 99 -1 200 140 1;
#X restore 451 280 graph;
#X floatatom 298 192 5 0 0 0 - - -;
#X obj 98 346 osc~ 0;
#N canvas 195 228 1051 722 multiplexer 0;
#X obj 617 492 spigot~;
#X obj 656 426 r vco_select;
#X obj 759 494 spigot~;
#X obj 798 428 r vco_select;
#X obj 897 498 spigot~;
#X obj 936 432 r vco_select;
#X obj 1029 497 spigot~;
#X obj 1068 431 r vco_select;
#X obj 1160 498 spigot~;
#X obj 1199 432 r vco_select;
#X obj 897 625 outlet~;
#X obj 617 378 inlet~;
#X obj 759 380 inlet~;
#X obj 897 384 inlet~;
#X obj 1029 383 inlet~;
#X obj 1160 384 inlet~;
#X obj 449 427 r vco_select;
#X floatatom 437 465 5 0 0 0 - - -;
#X obj 656 453 == 0;
#X obj 798 455 == 1;
#X obj 936 459 == 2;
#X obj 1068 458 == 3;
#X obj 1199 459 == 4;
#X connect 0 1 10 0;
#X connect 1 0 18 0;
#X connect 2 1 10 0;
#X connect 3 0 19 0;
#X connect 4 1 10 0;
#X connect 5 0 20 0;
#X connect 6 1 10 0;
#X connect 7 0 21 0;
#X connect 8 1 10 0;
#X connect 9 0 22 0;
#X connect 11 0 0 0;
#X connect 12 0 2 0;
#X connect 13 0 4 0;
#X connect 14 0 6 0;
#X connect 15 0 8 0;
#X connect 16 0 17 0;
#X connect 18 0 0 1;
#X connect 19 0 2 1;
#X connect 20 0 4 1;
#X connect 21 0 6 1;
#X connect 22 0 8 1;
#X restore 220 413 pd multiplexer;
#X obj 220 469 outlet~;
#X connect 1 0 8 1;
#X connect 7 0 10 0;
#X connect 8 0 18 0;
#X connect 8 1 13 0;
#X connect 8 2 9 0;
#X connect 8 3 14 0;
#X connect 8 4 15 0;
#X connect 9 0 19 2;
#X connect 10 0 8 0;
#X connect 10 0 17 0;
#X connect 11 0 12 0;
#X connect 12 0 1 0;
#X connect 13 0 19 1;
#X connect 14 0 19 3;
#X connect 15 0 19 4;
#X connect 18 0 19 0;
#X connect 19 0 20 0;
#X coords 0 -1 1 1 100 80 2 100 100;
#X restore 264 304 pd VCO;
#N canvas 935 187 889 893 synth_selector 0;
#X obj 100 101 hradio 15 1 0 4 empty empty empty 0 -8 0 10 -262130
-260097 -1 0;
#X obj 259 243 demux 1 2 3 4;
#N canvas 0 94 1920 986 select_synth 0;
#X obj 377 276 route 0 1 2;
#X obj 196 406 bng 15 250 50 0 empty empty empty 17 7 0 10 -262144
-1 -1;
#X obj 323 406 bng 15 250 50 0 empty empty empty 17 7 0 10 -262144
-1 -1;
#X msg 323 450 \; vco_b color 5;
#X obj 377 310 s sb1;
#X obj 414 310 s sb2;
#X obj 451 310 s sb3;
#X obj 488 310 s sb4;
#X obj 196 370 r sb1;
#X obj 283 370 r sb2;
#X obj 323 370 r sb3;
#X obj 364 370 r sb4;
#X obj 445 402 bng 15 250 50 0 empty empty empty 17 7 0 10 -262144
-1 -1;
#X obj 565 402 bng 15 250 50 0 empty empty empty 17 7 0 10 -262144
-1 -1;
#X obj 565 366 r sb3;
#X obj 606 366 r sb4;
#X obj 689 404 bng 15 250 50 0 empty empty empty 17 7 0 10 -262144
-1 -1;
#X obj 809 404 bng 15 250 50 0 empty empty empty 17 7 0 10 -262144
-1 -1;
#X obj 769 368 r sb2;
#X obj 850 368 r sb4;
#X obj 934 404 bng 15 250 50 0 empty empty empty 17 7 0 10 -262144
-1 -1;
#X obj 1054 404 bng 15 250 50 0 empty empty empty 17 7 0 10 -262144
-1 -1;
#X obj 1054 368 r sb3;
#X obj 1095 368 r sb4;
#X obj 377 238 inlet;
#X obj 445 366 r sb2;
#X obj 525 366 r sb1;
#X obj 689 368 r sb3;
#X obj 809 368 r sb1;
#X obj 934 368 r sb4;
#X obj 1014 368 r sb1;
#X msg 445 447 \; 2_b color 104;
#X msg 565 446 \; 2_b color 5;
#X msg 689 449 \; 3_b color 104;
#X msg 809 448 \; 3_b color 5;
#X msg 934 449 \; 4_b color 104;
#X msg 1054 448 \; 4_b color 5;
#X msg 196 451 \; vco_b color 104;
#X obj 297 494 outlet;
#X obj 1026 503 outlet;
#X obj 538 498 outlet;
#X obj 782 502 outlet;
#X msg 297 429 0;
#X msg 538 425 0;
#X obj 152 330 loadbang;
#X msg 782 426 0;
#X msg 1026 429 0;
#X connect 0 0 4 0;
#X connect 0 1 5 0;
#X connect 0 2 6 0;
#X connect 0 3 7 0;
#X connect 1 0 37 0;
#X connect 2 0 3 0;
#X connect 2 0 42 0;
#X connect 8 0 1 0;
#X connect 9 0 2 0;
#X connect 10 0 2 0;
#X connect 11 0 2 0;
#X connect 12 0 31 0;
#X connect 13 0 32 0;
#X connect 13 0 43 0;
#X connect 14 0 13 0;
#X connect 15 0 13 0;
#X connect 16 0 33 0;
#X connect 17 0 34 0;
#X connect 17 0 45 0;
#X connect 18 0 17 0;
#X connect 19 0 17 0;
#X connect 20 0 35 0;
#X connect 21 0 36 0;
#X connect 21 0 46 0;
#X connect 22 0 21 0;
#X connect 23 0 21 0;
#X connect 24 0 0 0;
#X connect 25 0 12 0;
#X connect 26 0 13 0;
#X connect 27 0 16 0;
#X connect 28 0 17 0;
#X connect 29 0 20 0;
#X connect 30 0 21 0;
#X connect 42 0 38 0;
#X connect 43 0 40 0;
#X connect 44 0 1 0;
#X connect 45 0 41 0;
#X connect 46 0 39 0;
#X restore 99 241 pd select_synth;
#X obj 291 135 inlet;
#X obj 291 178 unpack;
#X floatatom 99 369 5 0 0 0 - - -;
#X floatatom 217 369 5 0 0 0 - - -;
#X floatatom 331 370 5 0 0 0 - - -;
#X floatatom 426 371 5 0 0 0 - - -;
#X obj 362 245 s vel;
#X obj 120 412 r vel;
#X obj 99 449 pack;
#X obj 238 412 r vel;
#X obj 217 449 pack;
#X obj 352 412 r vel;
#X obj 331 448 pack;
#X obj 447 413 r vel;
#X obj 426 450 pack;
#X obj 99 490 outlet;
#X obj 217 489 outlet;
#X obj 331 489 outlet;
#X obj 426 491 outlet;
#X connect 0 0 1 1;
#X connect 0 0 2 0;
#X connect 1 0 5 0;
#X connect 1 1 6 0;
#X connect 1 2 7 0;
#X connect 1 3 8 0;
#X connect 2 0 5 0;
#X connect 2 1 6 0;
#X connect 2 2 7 0;
#X connect 2 3 8 0;
#X connect 3 0 4 0;
#X connect 4 0 1 0;
#X connect 4 1 9 0;
#X connect 5 0 11 0;
#X connect 6 0 13 0;
#X connect 7 0 15 0;
#X connect 8 0 17 0;
#X connect 10 0 11 1;
#X connect 11 0 18 0;
#X connect 12 0 13 1;
#X connect 13 0 19 0;
#X connect 14 0 15 1;
#X connect 15 0 20 0;
#X connect 16 0 17 1;
#X connect 17 0 21 0;
#X coords 0 -1 1 1 60 17 2 100 100;
#X restore 482 270 pd synth_selector;
#N canvas 1078 342 450 300 synth_env 0;
#X obj 220 80 inlet~;
#X obj 221 168 s~ sig;
#X connect 0 0 1 0;
#X coords 0 -1 1 1 19 19 2 100 100;
#X restore 494 408 pd synth_env;
#X obj 935 288 r~ sig;
#X obj 936 493 dac~;
#X obj 939 438 *~;
#X obj 977 409 r volume;
#X obj 884 329 r end;
#X msg 895 381 0;
#X connect 2 0 4 0;
#X connect 3 0 4 0;
#X connect 4 0 9 0;
#X connect 8 0 10 0;
#X connect 9 0 8 0;
#X connect 11 0 13 0;
#X connect 13 0 12 0;
#X connect 13 0 12 1;
#X connect 14 0 13 1;
#X connect 15 0 16 0;
#X connect 16 0 13 0;
#X coords 0 865 1 864 85 60 0;
