#N canvas 1 55 1280 635 10;
#X obj 153 67 controle;
#X obj 153 332 sintese;
#X obj 786 84 envelopamento;
#X obj 786 343 efeitos;
#X obj 153 272 s ctl_synth;
#X obj 152 743 s~ synth_env_sig;
#X obj 399 742 s synth_env_pair;
#X obj 786 58 r~ synth_env_sig;
#X obj 1032 58 r synth_env_pair;
#X obj 786 289 s~ env_fx_sig;
#X obj 1279 289 s env_fx_pair;
#X obj 786 320 r~ env_fx_sig;
#X obj 1279 320 r env_fx_pair;
#X obj 646 743 s synth_env_bang;
#X obj 646 272 s ctl_synth_bang;
#X obj 646 308 r ctl_synth_bang;
#X obj 1279 59 r synth_env_bang;
#X obj 153 306 r ctl_synth;
#X connect 0 0 4 0;
#X connect 0 1 14 0;
#X connect 1 0 5 0;
#X connect 1 1 6 0;
#X connect 1 2 13 0;
#X connect 2 0 9 0;
#X connect 2 1 10 0;
#X connect 7 0 2 0;
#X connect 8 0 2 1;
#X connect 11 0 3 0;
#X connect 12 0 3 1;
#X connect 15 0 1 1;
#X connect 16 0 2 2;
#X connect 17 0 1 0;
