#N canvas 0 164 1307 865 10;
#X obj 408 145 cnv 15 210 150 empty empty Controle 20 12 0 14 -204800
-66577 0;
#X obj 224 263 cnv 15 600 150 empty empty Síntese 20 12 0 14 -262130
-66577 0;
#N canvas 616 311 576 646 Abre_MIDI 0;
#X obj 82 2 bng 15 250 50 0 empty empty empty 17 7 0 10 -4034 -1 -1
;
#X obj 249 129 bng 15 250 50 0 empty empty empty 17 7 0 10 -262144
-1 -1;
#X obj 175 17 openpanel;
#X msg 207 74 read \$1;
#X obj 175 43 t b s;
#X obj 175 104 cyclone/seq;
#X msg 249 149 0;
#X text 268 128 Final do sequenciamento.;
#X obj 175 184 cyclone/midiparse;
#X msg 82 112 stop;
#X obj 175 245 outlet;
#X obj 260 105 s end;
#X obj 82 22 bng 15 250 50 0 empty empty empty 17 7 0 10 -258113 -1
-1;
#X text 99 19 Stop;
#X connect 0 0 2 0;
#X connect 1 0 6 0;
#X connect 2 0 4 0;
#X connect 3 0 5 0;
#X connect 4 0 5 0;
#X connect 4 1 3 0;
#X connect 5 0 8 0;
#X connect 5 1 1 0;
#X connect 5 1 11 0;
#X connect 8 0 10 0;
#X connect 9 0 5 0;
#X connect 9 0 1 0;
#X connect 12 0 9 0;
#X coords 0 -1 1 1 50 40 1 80 0;
#X restore 433 204 pd Abre_MIDI;
#N canvas 358 280 788 447 Ouve_MIDI 0;
#X obj 47 196 notein;
#X obj 47 326 outlet;
#X obj 47 298 spigot;
#X obj 102 102 tgl 15 0 empty empty empty 17 7 0 10 -101120 -1 -1 0
1;
#X obj 47 268 pack;
#X obj 185 255 spigot;
#X obj 218 220 == 0;
#X obj 189 294 bng 15 250 50 0 empty empty empty 17 7 0 10 -262144
-1 -1;
#X floatatom 102 224 5 0 0 0 - - -;
#X obj 189 328 s end;
#X connect 0 0 4 0;
#X connect 0 1 4 1;
#X connect 2 0 1 0;
#X connect 3 0 6 0;
#X connect 3 0 5 0;
#X connect 3 0 8 0;
#X connect 4 0 2 0;
#X connect 5 0 7 0;
#X connect 6 0 5 1;
#X connect 7 0 9 0;
#X connect 8 0 2 1;
#X coords 0 -1 1 1 19 19 1 100 100;
#X restore 520 216 pd Ouve_MIDI;
#N canvas 552 214 839 546 ctrl_to_synth 0;
#X obj 100 100 cnv 15 19 19 empty empty empty 20 12 0 14 -233017 -66577
0;
#X obj 178 101 inlet;
#X obj 178 332 outlet;
#X obj 232 298 r end;
#X obj 232 331 outlet;
#X obj 178 157 unpack;
#X obj 211 193 / 127;
#X obj 178 228 pack;
#X obj 164 192 mtof;
#X connect 1 0 5 0;
#X connect 3 0 4 0;
#X connect 5 0 8 0;
#X connect 5 1 6 0;
#X connect 6 0 7 1;
#X connect 7 0 2 0;
#X connect 8 0 7 0;
#X coords 0 -1 1 1 19 19 2 100 100;
#X restore 503 253 pd ctrl_to_synth;
#X obj 224 414 cnv 15 600 150 empty empty Envelopamento 20 12 0 14
-261682 -66577 0;
#X obj 224 564 cnv 15 600 150 empty empty Efeitos 20 12 0 14 -232576
-66577 0;
#N canvas 1115 404 450 300 volume_slider 0;
#X obj 105 102 hsl 155 15 0 1 0 0 volume v_slider empty -2 -8 0 10
-204786 -1 -1 7700 1;
#X msg 117 159 \; v_slider 0.5;
#X obj 53 159 loadbang;
#X text 113 100 Volume;
#X connect 2 0 1 0;
#X coords 0 -1 1 1 164 19 1 100 100;
#X restore 434 175 pd volume_slider;
#N canvas 561 373 599 391 VCO 0;
#X obj 102 102 vradio 15 1 0 5 empty empty empty 0 -8 0 10 -262144
-1 -1 0;
#X text 137 131 Dentada;
#X text 133 146 Quadrada;
#X text 143 161 Pulso;
#X text 137 99 Senoide;
#X text 129 115 Triangular;
#X coords 0 -1 1 1 100 80 2 100 100;
#X restore 264 304 pd VCO;
#X connect 2 0 4 0;
#X connect 3 0 4 0;
#X coords 0 865 1 864 85 60 0;
