#N canvas 409 123 1381 735 10;
#N canvas 560 190 944 686 sintese 0;
#X obj 100 100 cnv 15 500 400 empty empty Síntese 5 12 0 14 -262130
-66577 0;
#N canvas 666 237 736 792 VCO 0;
#X obj 101 101 cnv 15 98 168 empty vco_b empty 20 12 0 14 -262131 -262144
0;
#X obj 103 102 vradio 15 1 0 5 vco_select empty empty 0 -8 0 10 -262130
-260097 -1 0;
#X text 138 131 Dentada;
#X text 134 146 Quadrada;
#X text 144 161 Pulso;
#X text 138 100 Senoide;
#X text 125 115 Triangular;
#X obj 392 71 inlet;
#X obj 377 325 phasor~ 0;
#X obj 392 116 unpack;
#X obj 103 43 loadbang;
#X msg 103 69 0;
#N canvas 1 65 1905 986 triangle 0;
#X obj 299 149 inlet;
#X floatatom 299 211 5 0 0 0 - - -, f 5;
#X obj 347 275 * -1;
#X obj 229 326 phasor~;
#X msg 418 284 0;
#X obj 228 350 *~ 2;
#X obj 228 375 -~ 1;
#X obj 227 399 clip~ 0 1;
#X obj 347 326 phasor~;
#X obj 346 350 *~ 2;
#X obj 346 375 -~ 1;
#X obj 345 399 clip~ 0 1;
#X obj 297 441 +~;
#X obj 298 480 outlet~;
#X connect 0 0 1 0;
#X connect 1 0 2 0;
#X connect 1 0 3 0;
#X connect 2 0 8 0;
#X connect 3 0 5 0;
#X connect 4 0 3 1;
#X connect 4 0 8 1;
#X connect 5 0 6 0;
#X connect 6 0 7 0;
#X connect 7 0 12 0;
#X connect 8 0 9 0;
#X connect 9 0 10 0;
#X connect 10 0 11 0;
#X connect 11 0 12 1;
#X connect 12 0 13 0;
#X restore 299 324 pd triangle;
#N canvas 895 154 794 637 square 0;
#X obj 141 26 inlet;
#X floatatom 141 61 5 0 0 0 - - -, f 5;
#X obj 177 108 * -1;
#X obj 104 190 phasor~;
#X obj 177 190 phasor~;
#X obj 136 237 +~;
#X obj 137 269 -~ 1;
#X msg 202 147 0;
#X msg 243 148 0.5;
#X obj 230 108 loadbang;
#X obj 137 306 outlet~;
#X connect 0 0 1 0;
#X connect 1 0 2 0;
#X connect 1 0 3 0;
#X connect 2 0 4 0;
#X connect 3 0 5 0;
#X connect 4 0 5 1;
#X connect 5 0 6 0;
#X connect 6 0 10 0;
#X connect 7 0 3 1;
#X connect 8 0 4 1;
#X connect 9 0 8 0;
#X connect 9 0 7 0;
#X restore 453 324 pd square;
#N canvas 933 380 450 300 pulse 0;
#X obj 134 57 inlet;
#X obj 134 86 phasor~;
#X obj 135 115 -~ 0.99;
#X obj 135 179 *~ 100;
#X obj 135 147 clip~ 0 1;
#X obj 136 209 outlet~;
#X connect 0 0 1 0;
#X connect 1 0 2 0;
#X connect 2 0 4 0;
#X connect 3 0 5 0;
#X connect 4 0 3 0;
#X restore 525 324 pd pulse;
#X obj 245 325 osc~ 0;
#N canvas 183 234 1051 722 multiplexer 0;
#X obj 327 402 outlet~;
#X obj 139 157 inlet~;
#X obj 165 208 r vco_select;
#X obj 165 245 == 0;
#X obj 138 300 *~;
#X obj 303 161 inlet~;
#X obj 329 212 r vco_select;
#X obj 302 304 *~;
#X obj 448 159 inlet~;
#X obj 474 210 r vco_select;
#X obj 447 302 *~;
#X obj 590 163 inlet~;
#X obj 616 214 r vco_select;
#X obj 589 306 *~;
#X obj 728 156 inlet~;
#X obj 754 207 r vco_select;
#X obj 727 299 *~;
#X obj 329 249 == 1;
#X obj 474 247 == 2;
#X obj 616 251 == 3;
#X obj 754 244 == 4;
#X floatatom 204 315 5 0 0 0 - - -, f 5;
#X connect 1 0 4 0;
#X connect 2 0 3 0;
#X connect 3 0 4 1;
#X connect 3 0 21 0;
#X connect 4 0 0 0;
#X connect 5 0 7 0;
#X connect 6 0 17 0;
#X connect 7 0 0 0;
#X connect 8 0 10 0;
#X connect 9 0 18 0;
#X connect 10 0 0 0;
#X connect 11 0 13 0;
#X connect 12 0 19 0;
#X connect 13 0 0 0;
#X connect 14 0 16 0;
#X connect 15 0 20 0;
#X connect 16 0 0 0;
#X connect 17 0 7 1;
#X connect 18 0 10 1;
#X connect 19 0 13 1;
#X connect 20 0 16 1;
#X restore 367 392 pd multiplexer;
#X obj 367 498 outlet~;
#X msg 620 224 0;
#X obj 495 171 s vco_vel;
#X obj 368 456 *~;
#X obj 383 431 r vco_vel;
#X obj 620 185 r end;
#X obj 352 223 zexy/demultiplex 1 2 3 4 5;
#X floatatom 490 115 5 0 0 0 - - -, f 5;
#N canvas 995 246 820 656 escreve_forma 0;
#X obj 246 273 bng 15 250 50 0 empty empty empty 17 7 0 10 -262144
-1 -1;
#X obj 284 305 bng 15 250 50 0 empty empty empty 17 7 0 10 -262144
-1 -1;
#X obj 322 333 bng 15 250 50 0 empty empty empty 17 7 0 10 -262144
-1 -1;
#X obj 360 363 bng 15 250 50 0 empty empty empty 17 7 0 10 -262144
-1 -1;
#X obj 400 393 bng 15 250 50 0 empty empty empty 17 7 0 10 -262144
-1 -1;
#X obj 246 91 inlet;
#X obj 246 161 zexy/demultiplex 1 2 3 4 5;
#X obj 246 115 t b f;
#X msg 181 391 \; forma_vco read sin.txt;
#X msg 209 439 \; forma_vco read triangle.txt;
#X msg 273 542 \; forma_vco read square.txt;
#X msg 232 489 \; forma_vco read sawtooth.txt;
#X msg 302 586 \; forma_vco read pulse.txt;
#X connect 0 0 8 0;
#X connect 1 0 9 0;
#X connect 2 0 11 0;
#X connect 3 0 10 0;
#X connect 4 0 12 0;
#X connect 5 0 7 0;
#X connect 6 0 0 0;
#X connect 6 1 1 0;
#X connect 6 2 2 0;
#X connect 6 3 3 0;
#X connect 6 4 4 0;
#X connect 7 0 6 0;
#X connect 7 1 6 1;
#X restore 103 328 pd escreve_forma;
#X obj 109 196 cnv 15 80 60 empty empty empty 20 12 0 14 -262144 -66577
0;
#N canvas 0 122 450 250 (subpatch) 0;
#X array forma_vco 64 float 1;
#A 0 -0.995784 -0.9987 -0.981363 -0.94414 -0.887801 -0.813443 -0.722619
-0.617146 -0.499164 -0.371076 -0.235455 -0.09507 0.0472432 0.188598
0.326135 0.457055 0.578717 0.688658 0.784627 0.864714 0.927263 0.971024
0.995122 0.999027 0.982711 0.946469 0.891046 0.817584 0.727526 0.622742
0.505335 0.377683 0.242385 0.102167 -0.0401172 -0.18159 -0.31938 -0.450704
-0.572886 -0.683462 -0.780197 -0.861101 -0.924574 -0.969298 -0.99438
-0.99933 -0.983996 -0.948744 -0.894259 -0.821647 -0.732401 -0.628291
-0.51146 -0.384265 -0.249278 -0.109244 0.0330068 0.174587 0.312633
0.444336 0.567044 0.678252 0.775717 0.857475;
#X coords 0 1 63 -1 80 60 1 0 0;
#X restore 109 196 graph;
#X connect 1 0 23 1;
#X connect 1 0 25 0;
#X connect 7 0 9 0;
#X connect 7 0 24 0;
#X connect 8 0 16 2;
#X connect 9 0 23 0;
#X connect 9 1 19 0;
#X connect 10 0 11 0;
#X connect 11 0 1 0;
#X connect 12 0 16 1;
#X connect 13 0 16 3;
#X connect 14 0 16 4;
#X connect 15 0 16 0;
#X connect 16 0 20 0;
#X connect 18 0 15 0;
#X connect 18 0 12 0;
#X connect 18 0 8 0;
#X connect 18 0 13 0;
#X connect 18 0 14 0;
#X connect 20 0 17 0;
#X connect 21 0 20 1;
#X connect 22 0 18 0;
#X connect 23 0 15 0;
#X connect 23 1 12 0;
#X connect 23 2 8 0;
#X connect 23 3 13 0;
#X connect 23 4 14 0;
#X coords 0 -1 1 1 100 170 2 100 100;
#X restore 122 140 pd VCO;
#N canvas 703 123 889 806 synth_selector 0;
#X obj 100 101 hradio 15 1 0 4 empty empty empty 0 -8 0 10 -262130
-260097 -1 2;
#X obj 266 111 inlet;
#X obj 266 154 unpack;
#X obj 377 223 s vel;
#X obj 333 155 s freq_ampl;
#N canvas 1 123 1600 806 select_synth 0;
#X obj 377 276 route 0 1 2;
#X obj 196 406 bng 15 250 50 0 empty empty empty 17 7 0 10 -262144
-1 -1;
#X obj 323 406 bng 15 250 50 0 empty empty empty 17 7 0 10 -262144
-1 -1;
#X msg 323 450 \; vco_b color 5;
#X obj 377 310 s sb1;
#X obj 414 310 s sb2;
#X obj 451 310 s sb3;
#X obj 488 310 s sb4;
#X obj 196 370 r sb1;
#X obj 283 370 r sb2;
#X obj 323 370 r sb3;
#X obj 364 370 r sb4;
#X obj 445 402 bng 15 250 50 0 empty empty empty 17 7 0 10 -262144
-1 -1;
#X obj 565 402 bng 15 250 50 0 empty empty empty 17 7 0 10 -262144
-1 -1;
#X obj 565 366 r sb3;
#X obj 606 366 r sb4;
#X obj 689 404 bng 15 250 50 0 empty empty empty 17 7 0 10 -262144
-1 -1;
#X obj 809 404 bng 15 250 50 0 empty empty empty 17 7 0 10 -262144
-1 -1;
#X obj 769 368 r sb2;
#X obj 850 368 r sb4;
#X obj 934 404 bng 15 250 50 0 empty empty empty 17 7 0 10 -262144
-1 -1;
#X obj 1054 404 bng 15 250 50 0 empty empty empty 17 7 0 10 -262144
-1 -1;
#X obj 1054 368 r sb3;
#X obj 1095 368 r sb4;
#X obj 377 238 inlet;
#X obj 445 366 r sb2;
#X obj 525 366 r sb1;
#X obj 689 368 r sb3;
#X obj 809 368 r sb1;
#X obj 934 368 r sb4;
#X obj 1014 368 r sb1;
#X msg 934 449 \; 4_b color 104;
#X msg 1054 448 \; 4_b color 5;
#X msg 196 451 \; vco_b color 104;
#X obj 297 494 outlet;
#X obj 1026 503 outlet;
#X obj 538 498 outlet;
#X obj 782 502 outlet;
#X msg 297 429 0;
#X msg 538 425 0;
#X obj 543 70 loadbang;
#X msg 782 426 0;
#X msg 1026 429 0;
#X msg 445 447 \; fourier_b color 104;
#X msg 565 446 \; fourier_b color 5;
#X msg 719 428 1;
#X msg 970 427 1;
#X msg 229 429 1;
#X msg 483 422 1;
#X msg 689 449 \; cheb_b color 104;
#X msg 809 448 \; cheb_b color 5;
#X connect 0 0 4 0;
#X connect 0 1 5 0;
#X connect 0 2 6 0;
#X connect 0 3 7 0;
#X connect 1 0 33 0;
#X connect 1 0 47 0;
#X connect 2 0 3 0;
#X connect 2 0 38 0;
#X connect 8 0 1 0;
#X connect 9 0 2 0;
#X connect 10 0 2 0;
#X connect 11 0 2 0;
#X connect 12 0 43 0;
#X connect 12 0 48 0;
#X connect 13 0 44 0;
#X connect 13 0 39 0;
#X connect 14 0 13 0;
#X connect 15 0 13 0;
#X connect 16 0 49 0;
#X connect 16 0 45 0;
#X connect 17 0 50 0;
#X connect 17 0 41 0;
#X connect 18 0 17 0;
#X connect 19 0 17 0;
#X connect 20 0 31 0;
#X connect 20 0 46 0;
#X connect 21 0 32 0;
#X connect 21 0 42 0;
#X connect 22 0 21 0;
#X connect 23 0 21 0;
#X connect 24 0 0 0;
#X connect 25 0 12 0;
#X connect 26 0 13 0;
#X connect 27 0 16 0;
#X connect 28 0 17 0;
#X connect 29 0 20 0;
#X connect 30 0 21 0;
#X connect 38 0 34 0;
#X connect 39 0 36 0;
#X connect 40 0 1 0;
#X connect 40 0 13 0;
#X connect 40 0 17 0;
#X connect 40 0 21 0;
#X connect 41 0 37 0;
#X connect 42 0 35 0;
#X connect 45 0 37 0;
#X connect 46 0 35 0;
#X connect 47 0 34 0;
#X connect 48 0 36 0;
#X restore 114 198 pd select_synth;
#N canvas 69 149 773 599 sel 0;
#X obj 111 30 inlet;
#X obj 226 31 inlet;
#X obj 148 281 r vel;
#X obj 127 318 pack;
#X obj 127 359 outlet;
#X obj 212 209 spigot;
#X obj 127 156 == 0;
#X obj 108 206 spigot;
#X floatatom 127 242 5 0 0 0 - - -, f 5;
#X connect 0 0 5 1;
#X connect 0 0 6 0;
#X connect 0 0 7 0;
#X connect 1 0 5 0;
#X connect 2 0 3 1;
#X connect 3 0 4 0;
#X connect 5 0 8 0;
#X connect 6 0 7 1;
#X connect 7 0 8 0;
#X connect 8 0 3 0;
#X restore 72 272 pd sel;
#N canvas 67 150 773 599 sel 0;
#X obj 111 30 inlet;
#X obj 226 31 inlet;
#X obj 148 281 r vel;
#X obj 127 318 pack;
#X obj 127 359 outlet;
#X obj 212 209 spigot;
#X obj 127 156 == 0;
#X obj 108 206 spigot;
#X floatatom 127 242 5 0 0 0 - - -, f 5;
#X connect 0 0 5 1;
#X connect 0 0 6 0;
#X connect 0 0 7 0;
#X connect 1 0 5 0;
#X connect 2 0 3 1;
#X connect 3 0 4 0;
#X connect 5 0 8 0;
#X connect 6 0 7 1;
#X connect 7 0 8 0;
#X connect 8 0 3 0;
#X restore 181 344 pd sel;
#N canvas 67 150 773 599 sel 0;
#X obj 111 30 inlet;
#X obj 226 31 inlet;
#X obj 148 281 r vel;
#X obj 127 318 pack;
#X obj 127 359 outlet;
#X obj 212 209 spigot;
#X obj 127 156 == 0;
#X obj 108 206 spigot;
#X floatatom 127 242 5 0 0 0 - - -, f 5;
#X connect 0 0 5 1;
#X connect 0 0 6 0;
#X connect 0 0 7 0;
#X connect 1 0 5 0;
#X connect 2 0 3 1;
#X connect 3 0 4 0;
#X connect 5 0 8 0;
#X connect 6 0 7 1;
#X connect 7 0 8 0;
#X connect 8 0 3 0;
#X restore 238 369 pd sel;
#N canvas 65 151 773 599 sel 0;
#X obj 111 30 inlet;
#X obj 226 31 inlet;
#X obj 148 281 r vel;
#X obj 127 318 pack;
#X obj 127 359 outlet;
#X obj 212 209 spigot;
#X obj 127 156 == 0;
#X obj 108 206 spigot;
#X floatatom 127 242 5 0 0 0 - - -, f 5;
#X connect 0 0 5 1;
#X connect 0 0 6 0;
#X connect 0 0 7 0;
#X connect 1 0 5 0;
#X connect 2 0 3 1;
#X connect 3 0 4 0;
#X connect 5 0 8 0;
#X connect 6 0 7 1;
#X connect 7 0 8 0;
#X connect 8 0 3 0;
#X restore 124 307 pd sel;
#X obj 72 316 outlet;
#X obj 238 408 outlet;
#X obj 181 381 outlet;
#X obj 124 346 outlet;
#X obj 297 267 s cheb_open;
#X connect 0 0 5 0;
#X connect 1 0 2 0;
#X connect 1 0 4 0;
#X connect 2 0 6 1;
#X connect 2 0 9 1;
#X connect 2 0 7 1;
#X connect 2 0 8 1;
#X connect 2 1 3 0;
#X connect 5 0 6 0;
#X connect 5 1 9 0;
#X connect 5 2 7 0;
#X connect 5 2 14 0;
#X connect 5 3 8 0;
#X connect 6 0 10 0;
#X connect 7 0 12 0;
#X connect 8 0 11 0;
#X connect 9 0 13 0;
#X coords 0 -1 1 1 60 17 2 100 100;
#X restore 175 104 pd synth_selector;
#X text 121 121 VCO;
#N canvas 818 250 926 725 fourier 0;
#N canvas 447 235 1142 584 oscbank 0;
#X obj 463 48 loadbang;
#X obj 463 133 s poll-table;
#N canvas 1 58 986 553 parcial 0;
#X obj 365 419 osc~;
#X obj 431 204 r poll-table;
#X obj 466 344 + 50;
#X obj 466 370 dbtorms;
#X msg 415 346 0;
#X obj 415 399 pack 0 30;
#X obj 415 429 line~;
#X obj 365 478 throw~ sum-bus;
#X obj 365 449 *~;
#X obj 415 237 f;
#X obj 374 175 ftom;
#X obj 416 263 -;
#X obj 458 262 r whammybar;
#X obj 415 291 tabread4 spectrum-tab;
#X obj 415 318 moses 1;
#X text 364 60 Adaptado da abstração spectrum-partial do Pure Data
;
#X obj 365 94 r fourier_freq;
#X obj 296 94 inlet;
#X floatatom 265 147 5 0 0 0 - - -, f 5;
#X obj 365 149 *;
#X connect 0 0 8 0;
#X connect 1 0 9 0;
#X connect 2 0 3 0;
#X connect 3 0 5 0;
#X connect 4 0 5 0;
#X connect 5 0 6 0;
#X connect 6 0 8 1;
#X connect 8 0 7 0;
#X connect 9 0 11 0;
#X connect 10 0 9 1;
#X connect 11 0 13 0;
#X connect 12 0 11 1;
#X connect 13 0 14 0;
#X connect 14 0 4 0;
#X connect 14 1 2 0;
#X connect 16 0 19 0;
#X connect 17 0 18 0;
#X connect 17 0 19 1;
#X connect 19 0 10 0;
#X connect 19 0 0 0;
#X restore 106 71 pd parcial;
#X msg 106 49 1;
#X obj 146 49 r load;
#N canvas 1 56 986 553 parcial 0;
#X obj 365 419 osc~;
#X obj 431 204 r poll-table;
#X obj 466 344 + 50;
#X obj 466 370 dbtorms;
#X msg 415 346 0;
#X obj 415 399 pack 0 30;
#X obj 415 429 line~;
#X obj 365 478 throw~ sum-bus;
#X obj 365 449 *~;
#X obj 415 237 f;
#X obj 374 175 ftom;
#X obj 416 263 -;
#X obj 458 262 r whammybar;
#X obj 415 291 tabread4 spectrum-tab;
#X obj 415 318 moses 1;
#X text 364 60 Adaptado da abstração spectrum-partial do Pure Data
;
#X obj 365 94 r fourier_freq;
#X obj 296 94 inlet;
#X floatatom 265 147 5 0 0 0 - - -, f 5;
#X obj 365 149 *;
#X connect 0 0 8 0;
#X connect 1 0 9 0;
#X connect 2 0 3 0;
#X connect 3 0 5 0;
#X connect 4 0 5 0;
#X connect 5 0 6 0;
#X connect 6 0 8 1;
#X connect 8 0 7 0;
#X connect 9 0 11 0;
#X connect 10 0 9 1;
#X connect 11 0 13 0;
#X connect 12 0 11 1;
#X connect 13 0 14 0;
#X connect 14 0 4 0;
#X connect 14 1 2 0;
#X connect 16 0 19 0;
#X connect 17 0 18 0;
#X connect 17 0 19 1;
#X connect 19 0 10 0;
#X connect 19 0 0 0;
#X restore 106 115 pd parcial;
#X obj 146 93 r load;
#N canvas 1 56 986 553 parcial 0;
#X obj 365 419 osc~;
#X obj 431 204 r poll-table;
#X obj 466 344 + 50;
#X obj 466 370 dbtorms;
#X msg 415 346 0;
#X obj 415 399 pack 0 30;
#X obj 415 429 line~;
#X obj 365 478 throw~ sum-bus;
#X obj 365 449 *~;
#X obj 415 237 f;
#X obj 374 175 ftom;
#X obj 416 263 -;
#X obj 458 262 r whammybar;
#X obj 415 291 tabread4 spectrum-tab;
#X obj 415 318 moses 1;
#X text 364 60 Adaptado da abstração spectrum-partial do Pure Data
;
#X obj 365 94 r fourier_freq;
#X obj 296 94 inlet;
#X floatatom 265 147 5 0 0 0 - - -, f 5;
#X obj 365 149 *;
#X connect 0 0 8 0;
#X connect 1 0 9 0;
#X connect 2 0 3 0;
#X connect 3 0 5 0;
#X connect 4 0 5 0;
#X connect 5 0 6 0;
#X connect 6 0 8 1;
#X connect 8 0 7 0;
#X connect 9 0 11 0;
#X connect 10 0 9 1;
#X connect 11 0 13 0;
#X connect 12 0 11 1;
#X connect 13 0 14 0;
#X connect 14 0 4 0;
#X connect 14 1 2 0;
#X connect 16 0 19 0;
#X connect 17 0 18 0;
#X connect 17 0 19 1;
#X connect 19 0 10 0;
#X connect 19 0 0 0;
#X restore 106 160 pd parcial;
#X obj 146 138 r load;
#N canvas 1 56 986 553 parcial 0;
#X obj 365 419 osc~;
#X obj 431 204 r poll-table;
#X obj 466 344 + 50;
#X obj 466 370 dbtorms;
#X msg 415 346 0;
#X obj 415 399 pack 0 30;
#X obj 415 429 line~;
#X obj 365 478 throw~ sum-bus;
#X obj 365 449 *~;
#X obj 415 237 f;
#X obj 374 175 ftom;
#X obj 416 263 -;
#X obj 458 262 r whammybar;
#X obj 415 291 tabread4 spectrum-tab;
#X obj 415 318 moses 1;
#X text 364 60 Adaptado da abstração spectrum-partial do Pure Data
;
#X obj 365 94 r fourier_freq;
#X obj 296 94 inlet;
#X floatatom 265 147 5 0 0 0 - - -, f 5;
#X obj 365 149 *;
#X connect 0 0 8 0;
#X connect 1 0 9 0;
#X connect 2 0 3 0;
#X connect 3 0 5 0;
#X connect 4 0 5 0;
#X connect 5 0 6 0;
#X connect 6 0 8 1;
#X connect 8 0 7 0;
#X connect 9 0 11 0;
#X connect 10 0 9 1;
#X connect 11 0 13 0;
#X connect 12 0 11 1;
#X connect 13 0 14 0;
#X connect 14 0 4 0;
#X connect 14 1 2 0;
#X connect 16 0 19 0;
#X connect 17 0 18 0;
#X connect 17 0 19 1;
#X connect 19 0 10 0;
#X connect 19 0 0 0;
#X restore 106 204 pd parcial;
#X obj 146 182 r load;
#N canvas 1 56 986 553 parcial 0;
#X obj 365 419 osc~;
#X obj 431 204 r poll-table;
#X obj 466 344 + 50;
#X obj 466 370 dbtorms;
#X msg 415 346 0;
#X obj 415 399 pack 0 30;
#X obj 415 429 line~;
#X obj 365 478 throw~ sum-bus;
#X obj 365 449 *~;
#X obj 415 237 f;
#X obj 374 175 ftom;
#X obj 416 263 -;
#X obj 458 262 r whammybar;
#X obj 415 291 tabread4 spectrum-tab;
#X obj 415 318 moses 1;
#X text 364 60 Adaptado da abstração spectrum-partial do Pure Data
;
#X obj 365 94 r fourier_freq;
#X obj 296 94 inlet;
#X floatatom 265 147 5 0 0 0 - - -, f 5;
#X obj 365 149 *;
#X connect 0 0 8 0;
#X connect 1 0 9 0;
#X connect 2 0 3 0;
#X connect 3 0 5 0;
#X connect 4 0 5 0;
#X connect 5 0 6 0;
#X connect 6 0 8 1;
#X connect 8 0 7 0;
#X connect 9 0 11 0;
#X connect 10 0 9 1;
#X connect 11 0 13 0;
#X connect 12 0 11 1;
#X connect 13 0 14 0;
#X connect 14 0 4 0;
#X connect 14 1 2 0;
#X connect 16 0 19 0;
#X connect 17 0 18 0;
#X connect 17 0 19 1;
#X connect 19 0 10 0;
#X connect 19 0 0 0;
#X restore 106 248 pd parcial;
#X obj 146 226 r load;
#N canvas 1 56 986 553 parcial 0;
#X obj 365 419 osc~;
#X obj 431 204 r poll-table;
#X obj 466 344 + 50;
#X obj 466 370 dbtorms;
#X msg 415 346 0;
#X obj 415 399 pack 0 30;
#X obj 415 429 line~;
#X obj 365 478 throw~ sum-bus;
#X obj 365 449 *~;
#X obj 415 237 f;
#X obj 374 175 ftom;
#X obj 416 263 -;
#X obj 458 262 r whammybar;
#X obj 415 291 tabread4 spectrum-tab;
#X obj 415 318 moses 1;
#X text 364 60 Adaptado da abstração spectrum-partial do Pure Data
;
#X obj 365 94 r fourier_freq;
#X obj 296 94 inlet;
#X floatatom 265 147 5 0 0 0 - - -, f 5;
#X obj 365 149 *;
#X connect 0 0 8 0;
#X connect 1 0 9 0;
#X connect 2 0 3 0;
#X connect 3 0 5 0;
#X connect 4 0 5 0;
#X connect 5 0 6 0;
#X connect 6 0 8 1;
#X connect 8 0 7 0;
#X connect 9 0 11 0;
#X connect 10 0 9 1;
#X connect 11 0 13 0;
#X connect 12 0 11 1;
#X connect 13 0 14 0;
#X connect 14 0 4 0;
#X connect 14 1 2 0;
#X connect 16 0 19 0;
#X connect 17 0 18 0;
#X connect 17 0 19 1;
#X connect 19 0 10 0;
#X connect 19 0 0 0;
#X restore 106 291 pd parcial;
#X obj 146 269 r load;
#N canvas 1 56 986 553 parcial 0;
#X obj 365 419 osc~;
#X obj 431 204 r poll-table;
#X obj 466 344 + 50;
#X obj 466 370 dbtorms;
#X msg 415 346 0;
#X obj 415 399 pack 0 30;
#X obj 415 429 line~;
#X obj 365 478 throw~ sum-bus;
#X obj 365 449 *~;
#X obj 415 237 f;
#X obj 374 175 ftom;
#X obj 416 263 -;
#X obj 458 262 r whammybar;
#X obj 415 291 tabread4 spectrum-tab;
#X obj 415 318 moses 1;
#X text 364 60 Adaptado da abstração spectrum-partial do Pure Data
;
#X obj 365 94 r fourier_freq;
#X obj 296 94 inlet;
#X floatatom 265 147 5 0 0 0 - - -, f 5;
#X obj 365 149 *;
#X connect 0 0 8 0;
#X connect 1 0 9 0;
#X connect 2 0 3 0;
#X connect 3 0 5 0;
#X connect 4 0 5 0;
#X connect 5 0 6 0;
#X connect 6 0 8 1;
#X connect 8 0 7 0;
#X connect 9 0 11 0;
#X connect 10 0 9 1;
#X connect 11 0 13 0;
#X connect 12 0 11 1;
#X connect 13 0 14 0;
#X connect 14 0 4 0;
#X connect 14 1 2 0;
#X connect 16 0 19 0;
#X connect 17 0 18 0;
#X connect 17 0 19 1;
#X connect 19 0 10 0;
#X connect 19 0 0 0;
#X restore 106 335 pd parcial;
#X obj 146 313 r load;
#N canvas 1 56 986 553 parcial 0;
#X obj 365 419 osc~;
#X obj 431 204 r poll-table;
#X obj 466 344 + 50;
#X obj 466 370 dbtorms;
#X msg 415 346 0;
#X obj 415 399 pack 0 30;
#X obj 415 429 line~;
#X obj 365 478 throw~ sum-bus;
#X obj 365 449 *~;
#X obj 415 237 f;
#X obj 374 175 ftom;
#X obj 416 263 -;
#X obj 458 262 r whammybar;
#X obj 415 291 tabread4 spectrum-tab;
#X obj 415 318 moses 1;
#X text 364 60 Adaptado da abstração spectrum-partial do Pure Data
;
#X obj 365 94 r fourier_freq;
#X obj 296 94 inlet;
#X floatatom 265 147 5 0 0 0 - - -, f 5;
#X obj 365 149 *;
#X connect 0 0 8 0;
#X connect 1 0 9 0;
#X connect 2 0 3 0;
#X connect 3 0 5 0;
#X connect 4 0 5 0;
#X connect 5 0 6 0;
#X connect 6 0 8 1;
#X connect 8 0 7 0;
#X connect 9 0 11 0;
#X connect 10 0 9 1;
#X connect 11 0 13 0;
#X connect 12 0 11 1;
#X connect 13 0 14 0;
#X connect 14 0 4 0;
#X connect 14 1 2 0;
#X connect 16 0 19 0;
#X connect 17 0 18 0;
#X connect 17 0 19 1;
#X connect 19 0 10 0;
#X connect 19 0 0 0;
#X restore 106 380 pd parcial;
#X obj 146 358 r load;
#N canvas 1 56 986 553 parcial 0;
#X obj 365 419 osc~;
#X obj 431 204 r poll-table;
#X obj 466 344 + 50;
#X obj 466 370 dbtorms;
#X msg 415 346 0;
#X obj 415 399 pack 0 30;
#X obj 415 429 line~;
#X obj 365 478 throw~ sum-bus;
#X obj 365 449 *~;
#X obj 415 237 f;
#X obj 374 175 ftom;
#X obj 416 263 -;
#X obj 458 262 r whammybar;
#X obj 415 291 tabread4 spectrum-tab;
#X obj 415 318 moses 1;
#X text 364 60 Adaptado da abstração spectrum-partial do Pure Data
;
#X obj 365 94 r fourier_freq;
#X obj 296 94 inlet;
#X floatatom 265 147 5 0 0 0 - - -, f 5;
#X obj 365 149 *;
#X connect 0 0 8 0;
#X connect 1 0 9 0;
#X connect 2 0 3 0;
#X connect 3 0 5 0;
#X connect 4 0 5 0;
#X connect 5 0 6 0;
#X connect 6 0 8 1;
#X connect 8 0 7 0;
#X connect 9 0 11 0;
#X connect 10 0 9 1;
#X connect 11 0 13 0;
#X connect 12 0 11 1;
#X connect 13 0 14 0;
#X connect 14 0 4 0;
#X connect 14 1 2 0;
#X connect 16 0 19 0;
#X connect 17 0 18 0;
#X connect 17 0 19 1;
#X connect 19 0 10 0;
#X connect 19 0 0 0;
#X restore 106 424 pd parcial;
#X obj 146 402 r load;
#N canvas 1 56 986 553 parcial 0;
#X obj 365 419 osc~;
#X obj 431 204 r poll-table;
#X obj 466 344 + 50;
#X obj 466 370 dbtorms;
#X msg 415 346 0;
#X obj 415 399 pack 0 30;
#X obj 415 429 line~;
#X obj 365 478 throw~ sum-bus;
#X obj 365 449 *~;
#X obj 415 237 f;
#X obj 374 175 ftom;
#X obj 416 263 -;
#X obj 458 262 r whammybar;
#X obj 415 291 tabread4 spectrum-tab;
#X obj 415 318 moses 1;
#X text 364 60 Adaptado da abstração spectrum-partial do Pure Data
;
#X obj 365 94 r fourier_freq;
#X obj 296 94 inlet;
#X floatatom 265 147 5 0 0 0 - - -, f 5;
#X obj 365 149 *;
#X connect 0 0 8 0;
#X connect 1 0 9 0;
#X connect 2 0 3 0;
#X connect 3 0 5 0;
#X connect 4 0 5 0;
#X connect 5 0 6 0;
#X connect 6 0 8 1;
#X connect 8 0 7 0;
#X connect 9 0 11 0;
#X connect 10 0 9 1;
#X connect 11 0 13 0;
#X connect 12 0 11 1;
#X connect 13 0 14 0;
#X connect 14 0 4 0;
#X connect 14 1 2 0;
#X connect 16 0 19 0;
#X connect 17 0 18 0;
#X connect 17 0 19 1;
#X connect 19 0 10 0;
#X connect 19 0 0 0;
#X restore 106 468 pd parcial;
#X obj 146 446 r load;
#N canvas 1 56 986 553 parcial 0;
#X obj 365 419 osc~;
#X obj 431 204 r poll-table;
#X obj 466 344 + 50;
#X obj 466 370 dbtorms;
#X msg 415 346 0;
#X obj 415 399 pack 0 30;
#X obj 415 429 line~;
#X obj 365 478 throw~ sum-bus;
#X obj 365 449 *~;
#X obj 415 237 f;
#X obj 374 175 ftom;
#X obj 416 263 -;
#X obj 458 262 r whammybar;
#X obj 415 291 tabread4 spectrum-tab;
#X obj 415 318 moses 1;
#X text 364 60 Adaptado da abstração spectrum-partial do Pure Data
;
#X obj 365 94 r fourier_freq;
#X obj 296 94 inlet;
#X floatatom 265 147 5 0 0 0 - - -, f 5;
#X obj 365 149 *;
#X connect 0 0 8 0;
#X connect 1 0 9 0;
#X connect 2 0 3 0;
#X connect 3 0 5 0;
#X connect 4 0 5 0;
#X connect 5 0 6 0;
#X connect 6 0 8 1;
#X connect 8 0 7 0;
#X connect 9 0 11 0;
#X connect 10 0 9 1;
#X connect 11 0 13 0;
#X connect 12 0 11 1;
#X connect 13 0 14 0;
#X connect 14 0 4 0;
#X connect 14 1 2 0;
#X connect 16 0 19 0;
#X connect 17 0 18 0;
#X connect 17 0 19 1;
#X connect 19 0 10 0;
#X connect 19 0 0 0;
#X restore 225 71 pd parcial;
#X obj 265 49 r load;
#N canvas 1 57 986 553 parcial 0;
#X obj 365 419 osc~;
#X obj 431 204 r poll-table;
#X obj 466 344 + 50;
#X obj 466 370 dbtorms;
#X msg 415 346 0;
#X obj 415 399 pack 0 30;
#X obj 415 429 line~;
#X obj 365 478 throw~ sum-bus;
#X obj 365 449 *~;
#X obj 415 237 f;
#X obj 374 175 ftom;
#X obj 416 263 -;
#X obj 458 262 r whammybar;
#X obj 415 291 tabread4 spectrum-tab;
#X obj 415 318 moses 1;
#X text 364 60 Adaptado da abstração spectrum-partial do Pure Data
;
#X obj 365 94 r fourier_freq;
#X obj 296 94 inlet;
#X floatatom 265 147 5 0 0 0 - - -, f 5;
#X obj 365 149 *;
#X connect 0 0 8 0;
#X connect 1 0 9 0;
#X connect 2 0 3 0;
#X connect 3 0 5 0;
#X connect 4 0 5 0;
#X connect 5 0 6 0;
#X connect 6 0 8 1;
#X connect 8 0 7 0;
#X connect 9 0 11 0;
#X connect 10 0 9 1;
#X connect 11 0 13 0;
#X connect 12 0 11 1;
#X connect 13 0 14 0;
#X connect 14 0 4 0;
#X connect 14 1 2 0;
#X connect 16 0 19 0;
#X connect 17 0 18 0;
#X connect 17 0 19 1;
#X connect 19 0 10 0;
#X connect 19 0 0 0;
#X restore 225 115 pd parcial;
#X obj 265 93 r load;
#N canvas 1 56 986 553 parcial 0;
#X obj 365 419 osc~;
#X obj 431 204 r poll-table;
#X obj 466 344 + 50;
#X obj 466 370 dbtorms;
#X msg 415 346 0;
#X obj 415 399 pack 0 30;
#X obj 415 429 line~;
#X obj 365 478 throw~ sum-bus;
#X obj 365 449 *~;
#X obj 415 237 f;
#X obj 374 175 ftom;
#X obj 416 263 -;
#X obj 458 262 r whammybar;
#X obj 415 291 tabread4 spectrum-tab;
#X obj 415 318 moses 1;
#X text 364 60 Adaptado da abstração spectrum-partial do Pure Data
;
#X obj 365 94 r fourier_freq;
#X obj 296 94 inlet;
#X floatatom 265 147 5 0 0 0 - - -, f 5;
#X obj 365 149 *;
#X connect 0 0 8 0;
#X connect 1 0 9 0;
#X connect 2 0 3 0;
#X connect 3 0 5 0;
#X connect 4 0 5 0;
#X connect 5 0 6 0;
#X connect 6 0 8 1;
#X connect 8 0 7 0;
#X connect 9 0 11 0;
#X connect 10 0 9 1;
#X connect 11 0 13 0;
#X connect 12 0 11 1;
#X connect 13 0 14 0;
#X connect 14 0 4 0;
#X connect 14 1 2 0;
#X connect 16 0 19 0;
#X connect 17 0 18 0;
#X connect 17 0 19 1;
#X connect 19 0 10 0;
#X connect 19 0 0 0;
#X restore 225 160 pd parcial;
#X obj 265 138 r load;
#N canvas 1 56 986 553 parcial 0;
#X obj 365 419 osc~;
#X obj 431 204 r poll-table;
#X obj 466 344 + 50;
#X obj 466 370 dbtorms;
#X msg 415 346 0;
#X obj 415 399 pack 0 30;
#X obj 415 429 line~;
#X obj 365 478 throw~ sum-bus;
#X obj 365 449 *~;
#X obj 415 237 f;
#X obj 374 175 ftom;
#X obj 416 263 -;
#X obj 458 262 r whammybar;
#X obj 415 291 tabread4 spectrum-tab;
#X obj 415 318 moses 1;
#X text 364 60 Adaptado da abstração spectrum-partial do Pure Data
;
#X obj 365 94 r fourier_freq;
#X obj 296 94 inlet;
#X floatatom 265 147 5 0 0 0 - - -, f 5;
#X obj 365 149 *;
#X connect 0 0 8 0;
#X connect 1 0 9 0;
#X connect 2 0 3 0;
#X connect 3 0 5 0;
#X connect 4 0 5 0;
#X connect 5 0 6 0;
#X connect 6 0 8 1;
#X connect 8 0 7 0;
#X connect 9 0 11 0;
#X connect 10 0 9 1;
#X connect 11 0 13 0;
#X connect 12 0 11 1;
#X connect 13 0 14 0;
#X connect 14 0 4 0;
#X connect 14 1 2 0;
#X connect 16 0 19 0;
#X connect 17 0 18 0;
#X connect 17 0 19 1;
#X connect 19 0 10 0;
#X connect 19 0 0 0;
#X restore 225 204 pd parcial;
#X obj 265 182 r load;
#N canvas 1 56 986 553 parcial 0;
#X obj 365 419 osc~;
#X obj 431 204 r poll-table;
#X obj 466 344 + 50;
#X obj 466 370 dbtorms;
#X msg 415 346 0;
#X obj 415 399 pack 0 30;
#X obj 415 429 line~;
#X obj 365 478 throw~ sum-bus;
#X obj 365 449 *~;
#X obj 415 237 f;
#X obj 374 175 ftom;
#X obj 416 263 -;
#X obj 458 262 r whammybar;
#X obj 415 291 tabread4 spectrum-tab;
#X obj 415 318 moses 1;
#X text 364 60 Adaptado da abstração spectrum-partial do Pure Data
;
#X obj 365 94 r fourier_freq;
#X obj 296 94 inlet;
#X floatatom 265 147 5 0 0 0 - - -, f 5;
#X obj 365 149 *;
#X connect 0 0 8 0;
#X connect 1 0 9 0;
#X connect 2 0 3 0;
#X connect 3 0 5 0;
#X connect 4 0 5 0;
#X connect 5 0 6 0;
#X connect 6 0 8 1;
#X connect 8 0 7 0;
#X connect 9 0 11 0;
#X connect 10 0 9 1;
#X connect 11 0 13 0;
#X connect 12 0 11 1;
#X connect 13 0 14 0;
#X connect 14 0 4 0;
#X connect 14 1 2 0;
#X connect 16 0 19 0;
#X connect 17 0 18 0;
#X connect 17 0 19 1;
#X connect 19 0 10 0;
#X connect 19 0 0 0;
#X restore 225 248 pd parcial;
#X obj 265 226 r load;
#N canvas 1 56 986 553 parcial 0;
#X obj 365 419 osc~;
#X obj 431 204 r poll-table;
#X obj 466 344 + 50;
#X obj 466 370 dbtorms;
#X msg 415 346 0;
#X obj 415 399 pack 0 30;
#X obj 415 429 line~;
#X obj 365 478 throw~ sum-bus;
#X obj 365 449 *~;
#X obj 415 237 f;
#X obj 374 175 ftom;
#X obj 416 263 -;
#X obj 458 262 r whammybar;
#X obj 415 291 tabread4 spectrum-tab;
#X obj 415 318 moses 1;
#X text 364 60 Adaptado da abstração spectrum-partial do Pure Data
;
#X obj 365 94 r fourier_freq;
#X obj 296 94 inlet;
#X floatatom 265 147 5 0 0 0 - - -, f 5;
#X obj 365 149 *;
#X connect 0 0 8 0;
#X connect 1 0 9 0;
#X connect 2 0 3 0;
#X connect 3 0 5 0;
#X connect 4 0 5 0;
#X connect 5 0 6 0;
#X connect 6 0 8 1;
#X connect 8 0 7 0;
#X connect 9 0 11 0;
#X connect 10 0 9 1;
#X connect 11 0 13 0;
#X connect 12 0 11 1;
#X connect 13 0 14 0;
#X connect 14 0 4 0;
#X connect 14 1 2 0;
#X connect 16 0 19 0;
#X connect 17 0 18 0;
#X connect 17 0 19 1;
#X connect 19 0 10 0;
#X connect 19 0 0 0;
#X restore 225 291 pd parcial;
#X obj 265 269 r load;
#N canvas 1 56 986 553 parcial 0;
#X obj 365 419 osc~;
#X obj 431 204 r poll-table;
#X obj 466 344 + 50;
#X obj 466 370 dbtorms;
#X msg 415 346 0;
#X obj 415 399 pack 0 30;
#X obj 415 429 line~;
#X obj 365 478 throw~ sum-bus;
#X obj 365 449 *~;
#X obj 415 237 f;
#X obj 374 175 ftom;
#X obj 416 263 -;
#X obj 458 262 r whammybar;
#X obj 415 291 tabread4 spectrum-tab;
#X obj 415 318 moses 1;
#X text 364 60 Adaptado da abstração spectrum-partial do Pure Data
;
#X obj 365 94 r fourier_freq;
#X obj 296 94 inlet;
#X floatatom 265 147 5 0 0 0 - - -, f 5;
#X obj 365 149 *;
#X connect 0 0 8 0;
#X connect 1 0 9 0;
#X connect 2 0 3 0;
#X connect 3 0 5 0;
#X connect 4 0 5 0;
#X connect 5 0 6 0;
#X connect 6 0 8 1;
#X connect 8 0 7 0;
#X connect 9 0 11 0;
#X connect 10 0 9 1;
#X connect 11 0 13 0;
#X connect 12 0 11 1;
#X connect 13 0 14 0;
#X connect 14 0 4 0;
#X connect 14 1 2 0;
#X connect 16 0 19 0;
#X connect 17 0 18 0;
#X connect 17 0 19 1;
#X connect 19 0 10 0;
#X connect 19 0 0 0;
#X restore 225 335 pd parcial;
#X obj 265 313 r load;
#N canvas 1 56 986 553 parcial 0;
#X obj 365 419 osc~;
#X obj 431 204 r poll-table;
#X obj 466 344 + 50;
#X obj 466 370 dbtorms;
#X msg 415 346 0;
#X obj 415 399 pack 0 30;
#X obj 415 429 line~;
#X obj 365 478 throw~ sum-bus;
#X obj 365 449 *~;
#X obj 415 237 f;
#X obj 374 175 ftom;
#X obj 416 263 -;
#X obj 458 262 r whammybar;
#X obj 415 291 tabread4 spectrum-tab;
#X obj 415 318 moses 1;
#X text 364 60 Adaptado da abstração spectrum-partial do Pure Data
;
#X obj 365 94 r fourier_freq;
#X obj 296 94 inlet;
#X floatatom 265 147 5 0 0 0 - - -, f 5;
#X obj 365 149 *;
#X connect 0 0 8 0;
#X connect 1 0 9 0;
#X connect 2 0 3 0;
#X connect 3 0 5 0;
#X connect 4 0 5 0;
#X connect 5 0 6 0;
#X connect 6 0 8 1;
#X connect 8 0 7 0;
#X connect 9 0 11 0;
#X connect 10 0 9 1;
#X connect 11 0 13 0;
#X connect 12 0 11 1;
#X connect 13 0 14 0;
#X connect 14 0 4 0;
#X connect 14 1 2 0;
#X connect 16 0 19 0;
#X connect 17 0 18 0;
#X connect 17 0 19 1;
#X connect 19 0 10 0;
#X connect 19 0 0 0;
#X restore 225 380 pd parcial;
#X obj 265 358 r load;
#N canvas 1 56 986 553 parcial 0;
#X obj 365 419 osc~;
#X obj 431 204 r poll-table;
#X obj 466 344 + 50;
#X obj 466 370 dbtorms;
#X msg 415 346 0;
#X obj 415 399 pack 0 30;
#X obj 415 429 line~;
#X obj 365 478 throw~ sum-bus;
#X obj 365 449 *~;
#X obj 415 237 f;
#X obj 374 175 ftom;
#X obj 416 263 -;
#X obj 458 262 r whammybar;
#X obj 415 291 tabread4 spectrum-tab;
#X obj 415 318 moses 1;
#X text 364 60 Adaptado da abstração spectrum-partial do Pure Data
;
#X obj 365 94 r fourier_freq;
#X obj 296 94 inlet;
#X floatatom 265 147 5 0 0 0 - - -, f 5;
#X obj 365 149 *;
#X connect 0 0 8 0;
#X connect 1 0 9 0;
#X connect 2 0 3 0;
#X connect 3 0 5 0;
#X connect 4 0 5 0;
#X connect 5 0 6 0;
#X connect 6 0 8 1;
#X connect 8 0 7 0;
#X connect 9 0 11 0;
#X connect 10 0 9 1;
#X connect 11 0 13 0;
#X connect 12 0 11 1;
#X connect 13 0 14 0;
#X connect 14 0 4 0;
#X connect 14 1 2 0;
#X connect 16 0 19 0;
#X connect 17 0 18 0;
#X connect 17 0 19 1;
#X connect 19 0 10 0;
#X connect 19 0 0 0;
#X restore 225 424 pd parcial;
#X obj 265 402 r load;
#N canvas 1 56 986 553 parcial 0;
#X obj 365 419 osc~;
#X obj 431 204 r poll-table;
#X obj 466 344 + 50;
#X obj 466 370 dbtorms;
#X msg 415 346 0;
#X obj 415 399 pack 0 30;
#X obj 415 429 line~;
#X obj 365 478 throw~ sum-bus;
#X obj 365 449 *~;
#X obj 415 237 f;
#X obj 374 175 ftom;
#X obj 416 263 -;
#X obj 458 262 r whammybar;
#X obj 415 291 tabread4 spectrum-tab;
#X obj 415 318 moses 1;
#X text 364 60 Adaptado da abstração spectrum-partial do Pure Data
;
#X obj 365 94 r fourier_freq;
#X obj 296 94 inlet;
#X floatatom 265 147 5 0 0 0 - - -, f 5;
#X obj 365 149 *;
#X connect 0 0 8 0;
#X connect 1 0 9 0;
#X connect 2 0 3 0;
#X connect 3 0 5 0;
#X connect 4 0 5 0;
#X connect 5 0 6 0;
#X connect 6 0 8 1;
#X connect 8 0 7 0;
#X connect 9 0 11 0;
#X connect 10 0 9 1;
#X connect 11 0 13 0;
#X connect 12 0 11 1;
#X connect 13 0 14 0;
#X connect 14 0 4 0;
#X connect 14 1 2 0;
#X connect 16 0 19 0;
#X connect 17 0 18 0;
#X connect 17 0 19 1;
#X connect 19 0 10 0;
#X connect 19 0 0 0;
#X restore 225 468 pd parcial;
#X obj 265 446 r load;
#N canvas 1 56 986 553 parcial 0;
#X obj 365 419 osc~;
#X obj 431 204 r poll-table;
#X obj 466 344 + 50;
#X obj 466 370 dbtorms;
#X msg 415 346 0;
#X obj 415 399 pack 0 30;
#X obj 415 429 line~;
#X obj 365 478 throw~ sum-bus;
#X obj 365 449 *~;
#X obj 415 237 f;
#X obj 374 175 ftom;
#X obj 416 263 -;
#X obj 458 262 r whammybar;
#X obj 415 291 tabread4 spectrum-tab;
#X obj 415 318 moses 1;
#X text 364 60 Adaptado da abstração spectrum-partial do Pure Data
;
#X obj 365 94 r fourier_freq;
#X obj 296 94 inlet;
#X floatatom 265 147 5 0 0 0 - - -, f 5;
#X obj 365 149 *;
#X connect 0 0 8 0;
#X connect 1 0 9 0;
#X connect 2 0 3 0;
#X connect 3 0 5 0;
#X connect 4 0 5 0;
#X connect 5 0 6 0;
#X connect 6 0 8 1;
#X connect 8 0 7 0;
#X connect 9 0 11 0;
#X connect 10 0 9 1;
#X connect 11 0 13 0;
#X connect 12 0 11 1;
#X connect 13 0 14 0;
#X connect 14 0 4 0;
#X connect 14 1 2 0;
#X connect 16 0 19 0;
#X connect 17 0 18 0;
#X connect 17 0 19 1;
#X connect 19 0 10 0;
#X connect 19 0 0 0;
#X restore 335 71 pd parcial;
#X obj 375 49 r load;
#N canvas 1 56 986 553 parcial 0;
#X obj 365 419 osc~;
#X obj 431 204 r poll-table;
#X obj 466 344 + 50;
#X obj 466 370 dbtorms;
#X msg 415 346 0;
#X obj 415 399 pack 0 30;
#X obj 415 429 line~;
#X obj 365 478 throw~ sum-bus;
#X obj 365 449 *~;
#X obj 415 237 f;
#X obj 374 175 ftom;
#X obj 416 263 -;
#X obj 458 262 r whammybar;
#X obj 415 291 tabread4 spectrum-tab;
#X obj 415 318 moses 1;
#X text 364 60 Adaptado da abstração spectrum-partial do Pure Data
;
#X obj 365 94 r fourier_freq;
#X obj 296 94 inlet;
#X floatatom 265 147 5 0 0 0 - - -, f 5;
#X obj 365 149 *;
#X connect 0 0 8 0;
#X connect 1 0 9 0;
#X connect 2 0 3 0;
#X connect 3 0 5 0;
#X connect 4 0 5 0;
#X connect 5 0 6 0;
#X connect 6 0 8 1;
#X connect 8 0 7 0;
#X connect 9 0 11 0;
#X connect 10 0 9 1;
#X connect 11 0 13 0;
#X connect 12 0 11 1;
#X connect 13 0 14 0;
#X connect 14 0 4 0;
#X connect 14 1 2 0;
#X connect 16 0 19 0;
#X connect 17 0 18 0;
#X connect 17 0 19 1;
#X connect 19 0 10 0;
#X connect 19 0 0 0;
#X restore 335 115 pd parcial;
#X obj 375 93 r load;
#N canvas 1 56 986 553 parcial 0;
#X obj 365 419 osc~;
#X obj 431 204 r poll-table;
#X obj 466 344 + 50;
#X obj 466 370 dbtorms;
#X msg 415 346 0;
#X obj 415 399 pack 0 30;
#X obj 415 429 line~;
#X obj 365 478 throw~ sum-bus;
#X obj 365 449 *~;
#X obj 415 237 f;
#X obj 374 175 ftom;
#X obj 416 263 -;
#X obj 458 262 r whammybar;
#X obj 415 291 tabread4 spectrum-tab;
#X obj 415 318 moses 1;
#X text 364 60 Adaptado da abstração spectrum-partial do Pure Data
;
#X obj 365 94 r fourier_freq;
#X obj 296 94 inlet;
#X floatatom 265 147 5 0 0 0 - - -, f 5;
#X obj 365 149 *;
#X connect 0 0 8 0;
#X connect 1 0 9 0;
#X connect 2 0 3 0;
#X connect 3 0 5 0;
#X connect 4 0 5 0;
#X connect 5 0 6 0;
#X connect 6 0 8 1;
#X connect 8 0 7 0;
#X connect 9 0 11 0;
#X connect 10 0 9 1;
#X connect 11 0 13 0;
#X connect 12 0 11 1;
#X connect 13 0 14 0;
#X connect 14 0 4 0;
#X connect 14 1 2 0;
#X connect 16 0 19 0;
#X connect 17 0 18 0;
#X connect 17 0 19 1;
#X connect 19 0 10 0;
#X connect 19 0 0 0;
#X restore 335 160 pd parcial;
#X obj 375 138 r load;
#N canvas 1 56 986 553 parcial 0;
#X obj 365 419 osc~;
#X obj 431 204 r poll-table;
#X obj 466 344 + 50;
#X obj 466 370 dbtorms;
#X msg 415 346 0;
#X obj 415 399 pack 0 30;
#X obj 415 429 line~;
#X obj 365 478 throw~ sum-bus;
#X obj 365 449 *~;
#X obj 415 237 f;
#X obj 374 175 ftom;
#X obj 416 263 -;
#X obj 458 262 r whammybar;
#X obj 415 291 tabread4 spectrum-tab;
#X obj 415 318 moses 1;
#X text 364 60 Adaptado da abstração spectrum-partial do Pure Data
;
#X obj 365 94 r fourier_freq;
#X obj 296 94 inlet;
#X floatatom 265 147 5 0 0 0 - - -, f 5;
#X obj 365 149 *;
#X connect 0 0 8 0;
#X connect 1 0 9 0;
#X connect 2 0 3 0;
#X connect 3 0 5 0;
#X connect 4 0 5 0;
#X connect 5 0 6 0;
#X connect 6 0 8 1;
#X connect 8 0 7 0;
#X connect 9 0 11 0;
#X connect 10 0 9 1;
#X connect 11 0 13 0;
#X connect 12 0 11 1;
#X connect 13 0 14 0;
#X connect 14 0 4 0;
#X connect 14 1 2 0;
#X connect 16 0 19 0;
#X connect 17 0 18 0;
#X connect 17 0 19 1;
#X connect 19 0 10 0;
#X connect 19 0 0 0;
#X restore 335 204 pd parcial;
#X obj 375 182 r load;
#N canvas 1 56 986 553 parcial 0;
#X obj 365 419 osc~;
#X obj 431 204 r poll-table;
#X obj 466 344 + 50;
#X obj 466 370 dbtorms;
#X msg 415 346 0;
#X obj 415 399 pack 0 30;
#X obj 415 429 line~;
#X obj 365 478 throw~ sum-bus;
#X obj 365 449 *~;
#X obj 415 237 f;
#X obj 374 175 ftom;
#X obj 416 263 -;
#X obj 458 262 r whammybar;
#X obj 415 291 tabread4 spectrum-tab;
#X obj 415 318 moses 1;
#X text 364 60 Adaptado da abstração spectrum-partial do Pure Data
;
#X obj 365 94 r fourier_freq;
#X obj 296 94 inlet;
#X floatatom 265 147 5 0 0 0 - - -, f 5;
#X obj 365 149 *;
#X connect 0 0 8 0;
#X connect 1 0 9 0;
#X connect 2 0 3 0;
#X connect 3 0 5 0;
#X connect 4 0 5 0;
#X connect 5 0 6 0;
#X connect 6 0 8 1;
#X connect 8 0 7 0;
#X connect 9 0 11 0;
#X connect 10 0 9 1;
#X connect 11 0 13 0;
#X connect 12 0 11 1;
#X connect 13 0 14 0;
#X connect 14 0 4 0;
#X connect 14 1 2 0;
#X connect 16 0 19 0;
#X connect 17 0 18 0;
#X connect 17 0 19 1;
#X connect 19 0 10 0;
#X connect 19 0 0 0;
#X restore 335 248 pd parcial;
#X obj 375 226 r load;
#N canvas 1 56 986 553 parcial 0;
#X obj 365 419 osc~;
#X obj 431 204 r poll-table;
#X obj 466 344 + 50;
#X obj 466 370 dbtorms;
#X msg 415 346 0;
#X obj 415 399 pack 0 30;
#X obj 415 429 line~;
#X obj 365 478 throw~ sum-bus;
#X obj 365 449 *~;
#X obj 415 237 f;
#X obj 374 175 ftom;
#X obj 416 263 -;
#X obj 458 262 r whammybar;
#X obj 415 291 tabread4 spectrum-tab;
#X obj 415 318 moses 1;
#X text 364 60 Adaptado da abstração spectrum-partial do Pure Data
;
#X obj 365 94 r fourier_freq;
#X obj 296 94 inlet;
#X floatatom 265 147 5 0 0 0 - - -, f 5;
#X obj 365 149 *;
#X connect 0 0 8 0;
#X connect 1 0 9 0;
#X connect 2 0 3 0;
#X connect 3 0 5 0;
#X connect 4 0 5 0;
#X connect 5 0 6 0;
#X connect 6 0 8 1;
#X connect 8 0 7 0;
#X connect 9 0 11 0;
#X connect 10 0 9 1;
#X connect 11 0 13 0;
#X connect 12 0 11 1;
#X connect 13 0 14 0;
#X connect 14 0 4 0;
#X connect 14 1 2 0;
#X connect 16 0 19 0;
#X connect 17 0 18 0;
#X connect 17 0 19 1;
#X connect 19 0 10 0;
#X connect 19 0 0 0;
#X restore 335 291 pd parcial;
#X obj 375 269 r load;
#N canvas 1 56 986 553 parcial 0;
#X obj 365 419 osc~;
#X obj 431 204 r poll-table;
#X obj 466 344 + 50;
#X obj 466 370 dbtorms;
#X msg 415 346 0;
#X obj 415 399 pack 0 30;
#X obj 415 429 line~;
#X obj 365 478 throw~ sum-bus;
#X obj 365 449 *~;
#X obj 415 237 f;
#X obj 374 175 ftom;
#X obj 416 263 -;
#X obj 458 262 r whammybar;
#X obj 415 291 tabread4 spectrum-tab;
#X obj 415 318 moses 1;
#X text 364 60 Adaptado da abstração spectrum-partial do Pure Data
;
#X obj 365 94 r fourier_freq;
#X obj 296 94 inlet;
#X floatatom 265 147 5 0 0 0 - - -, f 5;
#X obj 365 149 *;
#X connect 0 0 8 0;
#X connect 1 0 9 0;
#X connect 2 0 3 0;
#X connect 3 0 5 0;
#X connect 4 0 5 0;
#X connect 5 0 6 0;
#X connect 6 0 8 1;
#X connect 8 0 7 0;
#X connect 9 0 11 0;
#X connect 10 0 9 1;
#X connect 11 0 13 0;
#X connect 12 0 11 1;
#X connect 13 0 14 0;
#X connect 14 0 4 0;
#X connect 14 1 2 0;
#X connect 16 0 19 0;
#X connect 17 0 18 0;
#X connect 17 0 19 1;
#X connect 19 0 10 0;
#X connect 19 0 0 0;
#X restore 335 335 pd parcial;
#X obj 375 313 r load;
#N canvas 1 56 986 553 parcial 0;
#X obj 365 419 osc~;
#X obj 431 204 r poll-table;
#X obj 466 344 + 50;
#X obj 466 370 dbtorms;
#X msg 415 346 0;
#X obj 415 399 pack 0 30;
#X obj 415 429 line~;
#X obj 365 478 throw~ sum-bus;
#X obj 365 449 *~;
#X obj 415 237 f;
#X obj 374 175 ftom;
#X obj 416 263 -;
#X obj 458 262 r whammybar;
#X obj 415 291 tabread4 spectrum-tab;
#X obj 415 318 moses 1;
#X text 364 60 Adaptado da abstração spectrum-partial do Pure Data
;
#X obj 365 94 r fourier_freq;
#X obj 296 94 inlet;
#X floatatom 265 147 5 0 0 0 - - -, f 5;
#X obj 365 149 *;
#X connect 0 0 8 0;
#X connect 1 0 9 0;
#X connect 2 0 3 0;
#X connect 3 0 5 0;
#X connect 4 0 5 0;
#X connect 5 0 6 0;
#X connect 6 0 8 1;
#X connect 8 0 7 0;
#X connect 9 0 11 0;
#X connect 10 0 9 1;
#X connect 11 0 13 0;
#X connect 12 0 11 1;
#X connect 13 0 14 0;
#X connect 14 0 4 0;
#X connect 14 1 2 0;
#X connect 16 0 19 0;
#X connect 17 0 18 0;
#X connect 17 0 19 1;
#X connect 19 0 10 0;
#X connect 19 0 0 0;
#X restore 335 380 pd parcial;
#X obj 375 358 r load;
#N canvas 1 56 986 553 parcial 0;
#X obj 365 419 osc~;
#X obj 431 204 r poll-table;
#X obj 466 344 + 50;
#X obj 466 370 dbtorms;
#X msg 415 346 0;
#X obj 415 399 pack 0 30;
#X obj 415 429 line~;
#X obj 365 478 throw~ sum-bus;
#X obj 365 449 *~;
#X obj 415 237 f;
#X obj 374 175 ftom;
#X obj 416 263 -;
#X obj 458 262 r whammybar;
#X obj 415 291 tabread4 spectrum-tab;
#X obj 415 318 moses 1;
#X text 364 60 Adaptado da abstração spectrum-partial do Pure Data
;
#X obj 365 94 r fourier_freq;
#X obj 296 94 inlet;
#X floatatom 265 147 5 0 0 0 - - -, f 5;
#X obj 365 149 *;
#X connect 0 0 8 0;
#X connect 1 0 9 0;
#X connect 2 0 3 0;
#X connect 3 0 5 0;
#X connect 4 0 5 0;
#X connect 5 0 6 0;
#X connect 6 0 8 1;
#X connect 8 0 7 0;
#X connect 9 0 11 0;
#X connect 10 0 9 1;
#X connect 11 0 13 0;
#X connect 12 0 11 1;
#X connect 13 0 14 0;
#X connect 14 0 4 0;
#X connect 14 1 2 0;
#X connect 16 0 19 0;
#X connect 17 0 18 0;
#X connect 17 0 19 1;
#X connect 19 0 10 0;
#X connect 19 0 0 0;
#X restore 335 424 pd parcial;
#X obj 375 402 r load;
#N canvas 1 56 986 553 parcial 0;
#X obj 365 419 osc~;
#X obj 431 204 r poll-table;
#X obj 466 344 + 50;
#X obj 466 370 dbtorms;
#X msg 415 346 0;
#X obj 415 399 pack 0 30;
#X obj 415 429 line~;
#X obj 365 478 throw~ sum-bus;
#X obj 365 449 *~;
#X obj 415 237 f;
#X obj 374 175 ftom;
#X obj 416 263 -;
#X obj 458 262 r whammybar;
#X obj 415 291 tabread4 spectrum-tab;
#X obj 415 318 moses 1;
#X text 364 60 Adaptado da abstração spectrum-partial do Pure Data
;
#X obj 365 94 r fourier_freq;
#X obj 296 94 inlet;
#X floatatom 265 147 5 0 0 0 - - -, f 5;
#X obj 365 149 *;
#X connect 0 0 8 0;
#X connect 1 0 9 0;
#X connect 2 0 3 0;
#X connect 3 0 5 0;
#X connect 4 0 5 0;
#X connect 5 0 6 0;
#X connect 6 0 8 1;
#X connect 8 0 7 0;
#X connect 9 0 11 0;
#X connect 10 0 9 1;
#X connect 11 0 13 0;
#X connect 12 0 11 1;
#X connect 13 0 14 0;
#X connect 14 0 4 0;
#X connect 14 1 2 0;
#X connect 16 0 19 0;
#X connect 17 0 18 0;
#X connect 17 0 19 1;
#X connect 19 0 10 0;
#X connect 19 0 0 0;
#X restore 335 468 pd parcial;
#X obj 375 446 r load;
#X msg 106 93 2;
#X msg 106 138 3;
#X msg 106 182 4;
#X msg 106 226 5;
#X msg 106 269 6;
#X msg 106 313 7;
#X msg 106 358 8;
#X msg 106 402 9;
#X msg 106 446 10;
#X msg 225 49 11;
#X msg 225 93 12;
#X msg 225 138 13;
#X msg 225 182 14;
#X msg 225 226 15;
#X msg 225 269 16;
#X msg 225 313 17;
#X msg 225 358 18;
#X msg 223 400 19;
#X msg 225 446 20;
#X msg 335 49 21;
#X msg 335 93 22;
#X msg 335 138 23;
#X msg 335 182 24;
#X msg 335 226 25;
#X msg 335 268 26;
#X msg 335 313 27;
#X msg 335 358 28;
#X msg 335 402 29;
#X msg 335 446 30;
#X obj 482 76 s load;
#X obj 463 103 bang~;
#X connect 0 0 92 0;
#X connect 3 0 2 0;
#X connect 4 0 3 0;
#X connect 6 0 63 0;
#X connect 8 0 64 0;
#X connect 10 0 65 0;
#X connect 12 0 66 0;
#X connect 14 0 67 0;
#X connect 16 0 68 0;
#X connect 18 0 69 0;
#X connect 20 0 70 0;
#X connect 22 0 71 0;
#X connect 24 0 72 0;
#X connect 26 0 73 0;
#X connect 28 0 74 0;
#X connect 30 0 75 0;
#X connect 32 0 76 0;
#X connect 34 0 77 0;
#X connect 36 0 78 0;
#X connect 38 0 79 0;
#X connect 40 0 80 0;
#X connect 42 0 81 0;
#X connect 44 0 82 0;
#X connect 46 0 83 0;
#X connect 48 0 84 0;
#X connect 50 0 85 0;
#X connect 52 0 86 0;
#X connect 54 0 87 0;
#X connect 56 0 88 0;
#X connect 58 0 89 0;
#X connect 60 0 90 0;
#X connect 62 0 91 0;
#X connect 63 0 5 0;
#X connect 64 0 7 0;
#X connect 65 0 9 0;
#X connect 66 0 11 0;
#X connect 67 0 13 0;
#X connect 68 0 15 0;
#X connect 69 0 17 0;
#X connect 70 0 19 0;
#X connect 71 0 21 0;
#X connect 72 0 23 0;
#X connect 73 0 25 0;
#X connect 74 0 27 0;
#X connect 75 0 29 0;
#X connect 76 0 31 0;
#X connect 77 0 33 0;
#X connect 78 0 35 0;
#X connect 79 0 37 0;
#X connect 80 0 39 0;
#X connect 81 0 41 0;
#X connect 82 0 43 0;
#X connect 83 0 45 0;
#X connect 84 0 47 0;
#X connect 85 0 49 0;
#X connect 86 0 51 0;
#X connect 87 0 53 0;
#X connect 88 0 55 0;
#X connect 89 0 57 0;
#X connect 90 0 59 0;
#X connect 91 0 61 0;
#X connect 93 0 1 0;
#X restore 99 335 pd oscbank;
#X obj 101 405 catch~ sum-bus;
#X obj 524 382 s whammybar;
#X msg 410 239 \; spectrum-tab const 0;
#X text 476 218 CLEAR;
#X obj 100 536 outlet~;
#X obj 434 45 inlet;
#X text 116 563 SÍNTESE DE FOURIER;
#X text 107 594 Método de síntese adaptado do exemplo do Pure Data
3.audio.examples/D08.table.spectrum.pd;
#X msg 524 347 0;
#X obj 524 312 loadbang;
#X obj 101 101 cnv 15 268 168 empty fourier_b empty 20 12 0 14 -262131
-66577 0;
#X obj 113 119 cnv 15 220 120 empty empty empty 20 12 0 14 -262144
-66577 0;
#N canvas 1 58 450 300 (subpatch) 0;
#X array spectrum-tab 127 float 1;
#A 0 27.4998 30.8332 31.2499 32.0832 32.9166 33.5416 33.7499 34.5832
34.5832 34.9999 34.9999 35.2082 35.4166 35.4166 35.8333 36.6666 36.6666
36.6666 37.0833 37.0833 37.0833 37.0833 37.0833 37.4999 37.4999 37.7083
37.9166 37.9166 38.0555 38.1944 38.3333 38.3333 38.3333 38.3333 38.3333
38.3333 38.3333 38.3333 38.3333 38.3333 38.3333 38.3333 38.3333 38.3333
38.3333 38.3333 38.3333 38.3333 38.3333 38.3333 38.3333 38.3333 38.3333
38.3333 38.3333 38.3333 38.3333 38.3333 38.3333 38.3333 38.125 37.9166
37.9166 37.9166 37.9166 37.9166 37.9166 37.0833 36.9444 36.8055 36.6666
36.5277 36.3888 36.2499 36.2499 36.2499 35.8333 35.4166 34.9999 34.9999
34.7916 34.5832 34.1666 33.7499 33.3332 32.9166 32.7082 32.4999 32.0832
31.2499 30.8332 30.4165 29.9999 29.1665 28.3332 27.0831 26.2498 25.4165
24.9998 23.3331 22.7081 22.0831 21.2497 20.8331 20.4164 19.5831 19.5831
19.1664 18.7497 18.333 18.1247 17.9164 17.708 17.4997 17.4997 17.083
16.6664 16.458 16.2497 16.0413 15.833 15.833 15.833 15.833 15.833 15.4163
15.4163;
#X coords 0 50 126 0 220 120 1 0 0;
#X restore 113 119 graph;
#X obj 337 224 bng 15 250 50 0 empty empty empty 17 7 0 10 -204786
-1 -1;
#X text 334 208 Limpa;
#X obj 372 405 loadbang;
#X msg 372 439 \; spectrum-tab xlabel -5 0 12 24 36 48 60 72 84 96
108 120;
#X obj 434 152 s fourier_freq;
#X obj 100 502 *~;
#X text 536 152 <-- Recebe freq. em vez de número midi;
#X obj 434 77 unpack;
#X obj 481 106 s fourier_vel;
#X obj 132 476 r fourier_vel;
#X floatatom 393 118 5 0 0 0 - - -, f 5;
#X connect 1 0 19 0;
#X connect 6 0 21 0;
#X connect 9 0 2 0;
#X connect 10 0 9 0;
#X connect 10 0 17 0;
#X connect 14 0 3 0;
#X connect 16 0 17 0;
#X connect 19 0 5 0;
#X connect 21 0 18 0;
#X connect 21 0 24 0;
#X connect 21 1 22 0;
#X connect 23 0 19 1;
#X coords 0 593 1 592 270 170 2 100 100;
#X restore 297 141 pd fourier;
#X obj 345 535 outlet~;
#X text 295 123 Fourier;
#X obj 175 50 inlet;
#X obj 672 58 inlet;
#X obj 672 527 outlet;
#X obj 513 529 r freq_ampl;
#X obj 519 574 outlet;
#N canvas 413 284 957 632 chebychev 0;
#X obj 101 101 cnv 15 248 148 empty cheb_b empty 2 12 0 14 -260818
-66577 0;
#X obj 560 130 / 100;
#X floatatom 560 110 5 0 100 0 - - -, f 5;
#X obj 538 200 *~;
#X obj 560 153 pack 0 50;
#X obj 560 177 line~;
#X obj 538 225 *~ 128;
#N canvas 381 327 1327 587 make-table 0;
#X obj 141 304 t b b;
#X obj 213 329 f;
#X obj 251 329 + 1;
#X msg 235 306 0;
#X obj 141 327 until;
#X obj 213 359 t f f;
#X obj 140 355 sel 258;
#X text 203 172 normalize from -1 to 1;
#X obj 141 285 bng 15 250 50 0 empty empty empty 0 -6 0 8 -262144 -1
-1;
#X obj 88 386 expr ($f1-129)/128;
#X obj 141 262 inlet;
#X obj 171 534 t b b;
#X obj 243 559 f;
#X obj 281 559 + 1;
#X msg 265 536 0;
#X obj 171 557 until;
#X obj 243 589 t f f;
#X obj 170 585 sel 258;
#X obj 171 515 bng 15 250 50 0 empty empty empty 0 -6 0 8 -262144 -1
-1;
#X obj 118 616 expr ($f1-129)/128;
#X obj 171 492 inlet;
#X obj 444 228 t b b;
#X obj 516 253 f;
#X obj 554 253 + 1;
#X msg 538 230 0;
#X obj 444 251 until;
#X obj 516 283 t f f;
#X obj 443 279 sel 258;
#X obj 391 334 expr 16*$f1*$f1*$f1*$f1*$f1-20*$f1*$f1*$f1+5*$f1;
#X obj 444 209 bng 15 250 50 0 empty empty empty 0 -6 0 8 -262144 -1
-1;
#X obj 391 310 expr ($f1-129)/128;
#X obj 444 186 inlet;
#X obj 504 476 t b b;
#X obj 576 501 f;
#X obj 614 501 + 1;
#X msg 598 478 0;
#X obj 504 499 until;
#X obj 576 531 t f f;
#X obj 503 527 sel 258;
#X obj 504 457 bng 15 250 50 0 empty empty empty 0 -6 0 8 -262144 -1
-1;
#X obj 448 558 expr ($f1-129)/128;
#X obj 504 434 inlet;
#X obj 87 412 expr 4*$f1*$f1*$f1-3*$f1;
#X obj 112 643 expr 8*$f1*$f1*$f1*$f1-8*$f1*$f1+1;
#X obj 448 582 expr 32*$f1*$f1*$f1*$f1*$f1*$f1 -48*$f1*$f1*$f1*$f1+18*$f1*$f1-1
;
#X text 641 622 6th C.P. and basta.;
#X obj 83 92 t b b;
#X obj 155 117 f;
#X obj 193 117 + 1;
#X msg 177 94 0;
#X obj 83 115 until;
#X obj 155 147 t f f;
#X obj 82 143 sel 258;
#X obj 83 73 bng 15 250 50 0 empty empty empty 0 -6 0 8 -262144 -1
-1;
#X obj 30 174 expr ($f1-129)/128;
#X obj 83 50 inlet;
#X obj 44 201 expr 2*$f1*$f1-1;
#X text 203 198 2nd C.P.;
#X text 309 410 3rd C.P.;
#X text 331 660 4th C.P.;
#X text 613 357 5th C.P.;
#X text 259 51 This patch computes Chebychev polynomials and stores
them in a wavetable for use later.;
#X obj 1172 115 t b b;
#X obj 1244 140 f;
#X obj 1282 140 + 1;
#X msg 1266 117 0;
#X obj 1172 138 until;
#X obj 1244 170 t f f;
#X obj 1171 166 sel 258;
#X obj 1172 96 bng 15 250 50 0 empty empty empty 0 -6 0 8 -262144 -1
-1;
#X obj 1183 224 expr ($f1-129)/128;
#X obj 1060 265 expr 2*$f1*$f1-1;
#X obj 1099 298 expr 4*$f1*$f1*$f1-3*$f1;
#X obj 1151 332 expr 8*$f1*$f1*$f1*$f1-8*$f1*$f1+1;
#X obj 1191 369 expr 16*$f1*$f1*$f1*$f1*$f1-20*$f1*$f1*$f1+5*$f1;
#X obj 1230 407 expr 32*$f1*$f1*$f1*$f1*$f1*$f1 -48*$f1*$f1*$f1*$f1+18*$f1*$f1-1
;
#X obj 1293 196 s index;
#X obj 1086 328 *;
#X obj 1068 300 r w3;
#X obj 1129 363 *;
#X obj 1044 294 *;
#X obj 1175 397 *;
#X obj 1213 451 *;
#X obj 1081 394 +;
#X obj 1146 461 +;
#X obj 1213 525 +;
#X obj 1039 350 +;
#X obj 1213 581 tabwrite cheb-shape;
#X obj 1324 544 r index;
#X obj 1172 67 r calcula_pesos;
#X obj 477 624 tabwrite cheb-shape;
#X obj 115 436 tabwrite cheb-shape;
#X obj 417 360 tabwrite cheb-shape;
#X obj 144 666 tabwrite cheb-shape;
#X obj 58 224 tabwrite cheb-shape;
#X obj 1029 267 r w2;
#X obj 1120 332 r w4;
#X obj 1158 369 r w5;
#X obj 1193 420 r w6;
#X connect 0 0 4 0;
#X connect 0 1 3 0;
#X connect 1 0 2 0;
#X connect 1 0 5 0;
#X connect 1 0 6 0;
#X connect 2 0 1 1;
#X connect 3 0 1 1;
#X connect 4 0 1 0;
#X connect 5 0 9 0;
#X connect 5 1 91 1;
#X connect 6 0 4 1;
#X connect 8 0 0 0;
#X connect 9 0 42 0;
#X connect 10 0 8 0;
#X connect 11 0 15 0;
#X connect 11 1 14 0;
#X connect 12 0 13 0;
#X connect 12 0 16 0;
#X connect 12 0 17 0;
#X connect 13 0 12 1;
#X connect 14 0 12 1;
#X connect 15 0 12 0;
#X connect 16 0 19 0;
#X connect 16 1 93 1;
#X connect 17 0 15 1;
#X connect 18 0 11 0;
#X connect 19 0 43 0;
#X connect 20 0 18 0;
#X connect 21 0 25 0;
#X connect 21 1 24 0;
#X connect 22 0 23 0;
#X connect 22 0 26 0;
#X connect 22 0 27 0;
#X connect 23 0 22 1;
#X connect 24 0 22 1;
#X connect 25 0 22 0;
#X connect 26 0 30 0;
#X connect 26 1 92 1;
#X connect 27 0 25 1;
#X connect 28 0 92 0;
#X connect 29 0 21 0;
#X connect 30 0 28 0;
#X connect 31 0 29 0;
#X connect 32 0 36 0;
#X connect 32 1 35 0;
#X connect 33 0 34 0;
#X connect 33 0 37 0;
#X connect 33 0 38 0;
#X connect 34 0 33 1;
#X connect 35 0 33 1;
#X connect 36 0 33 0;
#X connect 37 0 40 0;
#X connect 37 1 90 1;
#X connect 38 0 36 1;
#X connect 39 0 32 0;
#X connect 40 0 44 0;
#X connect 41 0 39 0;
#X connect 42 0 91 0;
#X connect 43 0 93 0;
#X connect 44 0 90 0;
#X connect 46 0 50 0;
#X connect 46 1 49 0;
#X connect 47 0 48 0;
#X connect 47 0 51 0;
#X connect 47 0 52 0;
#X connect 48 0 47 1;
#X connect 49 0 47 1;
#X connect 50 0 47 0;
#X connect 51 0 54 0;
#X connect 51 1 94 1;
#X connect 52 0 50 1;
#X connect 53 0 46 0;
#X connect 54 0 56 0;
#X connect 55 0 53 0;
#X connect 56 0 94 0;
#X connect 62 0 66 0;
#X connect 62 1 65 0;
#X connect 63 0 64 0;
#X connect 63 0 67 0;
#X connect 63 0 68 0;
#X connect 64 0 63 1;
#X connect 65 0 63 1;
#X connect 66 0 63 0;
#X connect 67 0 70 0;
#X connect 67 1 76 0;
#X connect 68 0 66 1;
#X connect 69 0 62 0;
#X connect 70 0 71 0;
#X connect 70 0 72 0;
#X connect 70 0 73 0;
#X connect 70 0 74 0;
#X connect 70 0 75 0;
#X connect 71 0 80 0;
#X connect 72 0 77 0;
#X connect 73 0 79 0;
#X connect 74 0 81 0;
#X connect 75 0 82 0;
#X connect 77 0 86 1;
#X connect 78 0 77 1;
#X connect 79 0 83 1;
#X connect 80 0 86 0;
#X connect 81 0 84 1;
#X connect 82 0 85 1;
#X connect 83 0 84 0;
#X connect 84 0 85 0;
#X connect 85 0 87 0;
#X connect 86 0 83 0;
#X connect 88 0 87 1;
#X connect 89 0 69 0;
#X connect 95 0 80 1;
#X connect 96 0 79 1;
#X connect 97 0 81 1;
#X connect 98 0 82 1;
#X restore 344 295 pd make-table;
#X obj 243 229 bng 15 250 50 0 empty empty empty 0 -6 0 8 -203904 -1
-1;
#X obj 265 229 bng 15 250 50 0 empty empty empty 0 -6 0 8 -203904 -1
-1;
#X obj 287 229 bng 15 250 50 0 empty empty empty 0 -6 0 8 -203904 -1
-1;
#X obj 308 229 bng 15 250 50 0 empty empty empty 0 -6 0 8 -203904 -1
-1;
#X obj 330 229 bng 15 250 50 0 empty empty empty 0 -6 0 8 -203904 -1
-1;
#X obj 538 249 +~ 129;
#X obj 538 298 hip~ 5;
#X obj 537 85 osc~ 0;
#X obj 539 407 outlet~;
#X obj 265 141 vsl 15 80 0 2 0 0 empty empty 3º 0 -9 0 10 -262144
-1 -1 3950 1;
#X obj 243 141 vsl 15 80 0 2 0 0 empty empty 2º 0 -9 0 10 -262144
-1 -1 3950 1;
#X obj 308 141 vsl 15 80 0 2 0 0 empty empty 5º 0 -9 0 10 -262144
-1 -1 3950 1;
#X obj 287 141 vsl 15 80 0 2 0 0 empty empty 4º 0 -9 0 10 -262144
-1 -1 3950 1;
#X obj 330 141 vsl 15 80 0 2 0 0 empty empty 6º 0 -9 0 10 -262144
-1 -1 3950 1;
#X obj 193 22 loadbang;
#X msg 186 59 1;
#X obj 286 107 bng 15 250 50 0 empty empty empty 17 7 0 10 -204786
-1 -1;
#X text 302 107 Limpa;
#X text 241 107 Pesos;
#X floatatom 168 376 5 0 0 0 - - -, f 5;
#X floatatom 206 376 5 0 0 0 - - -, f 5;
#X floatatom 246 376 5 0 0 0 - - -, f 5;
#X floatatom 287 377 5 0 0 0 - - -, f 5;
#X floatatom 128 376 5 0 0 0 - - -, f 5;
#X obj 246 433 expr $f1 + $f2 + $f3 + $f4 + $f5;
#X obj 180 292 bng 15 250 50 0 empty empty empty 17 7 0 10 -262144
-1 -1;
#X obj 59 318 s calcula_pesos;
#X floatatom 300 458 5 0 0 0 - - -, f 5;
#X obj 136 488 /;
#X obj 136 510 s w2;
#X obj 173 494 /;
#X obj 212 503 /;
#X obj 250 517 /;
#X obj 286 524 /;
#X floatatom 164 576 5 0 0 0 - - -, f 5;
#X floatatom 205 576 5 0 0 0 - - -, f 5;
#X floatatom 246 576 5 0 0 0 - - -, f 5;
#X floatatom 285 576 5 0 0 0 - - -, f 5;
#X floatatom 128 573 5 0 0 0 - - -, f 5;
#X obj 173 516 s w3;
#X obj 212 525 s w4;
#X obj 250 539 s w5;
#X obj 286 546 s w6;
#X obj 106 142 cnv 15 130 100 empty empty empty 20 12 0 14 -262144
-66577 0;
#N canvas 0 122 450 300 (subpatch) 0;
#X array cheb-shape 259 float 1;
#A 0 1.39117 0.287302 0.242218 0.201407 0.164632 0.131666 0.102288
0.0762843 0.0534486 0.0335839 0.016499 0.00200844 -0.010064 -0.0198892
-0.0276322 -0.0334495 -0.0374933 -0.0399077 -0.0408325 -0.040401 -0.0387411
-0.0359739 -0.032216 -0.0275787 -0.0221677 -0.0160834 -0.00942183 -0.0022738
0.0052743 0.0131418 0.0212511 0.0295297 0.0379092 0.0463254 0.054718
0.063031 0.0712115 0.0792109 0.0869843 0.0944895 0.101688 0.108545
0.115029 0.12111 0.126763 0.131964 0.136693 0.140933 0.144668 0.147884
0.150574 0.152727 0.154338 0.155404 0.155922 0.155892 0.155317 0.1542
0.152546 0.150363 0.147659 0.144443 0.140727 0.136523 0.131844 0.126706
0.121124 0.115115 0.108697 0.101887 0.094705 0.0871711 0.0793056 0.0711295
0.0626645 0.0539324 0.0449557 0.035757 0.0263594 0.0167858 0.00705978
-0.00279546 -0.0127563 -0.0227995 -0.0329016 -0.0430392 -0.0531893
-0.063329 -0.0734354 -0.0834864 -0.0934596 -0.103333 -0.113087 -0.122698
-0.132148 -0.141416 -0.150483 -0.159329 -0.167938 -0.176291 -0.184372
-0.192165 -0.199653 -0.206823 -0.213661 -0.220153 -0.226287 -0.232052
-0.237438 -0.242433 -0.247031 -0.251222 -0.255 -0.258358 -0.261292
-0.263796 -0.265869 -0.267507 -0.26871 -0.269476 -0.269807 -0.269703
-0.269168 -0.268205 -0.266818 -0.265013 -0.262797 -0.260175 -0.257157
-0.253752 -0.249969 -0.245821 -0.241318 -0.236474 -0.231302 -0.225817
-0.220033 -0.213968 -0.207637 -0.201059 -0.194253 -0.187236 -0.180029
-0.172652 -0.165127 -0.157476 -0.149719 -0.141881 -0.133985 -0.126054
-0.118112 -0.110184 -0.102296 -0.0944722 -0.0867381 -0.0791197 -0.0716429
-0.0643338 -0.0572186 -0.0503233 -0.0436743 -0.0372977 -0.0312195 -0.0254655
-0.0200613 -0.0150324 -0.0104036 -0.00619969 -0.0024447 0.000837699
0.00362444 0.00589316 0.00762214 0.00879049 0.00937814 0.00936595 0.00873578
0.00747052 0.0055542 0.00297207 -0.000289291 -0.00424203 -0.00889677
-0.0142627 -0.0203473 -0.0271564 -0.0346942 -0.0429628 -0.0519626 -0.0616917
-0.0721463 -0.0833204 -0.0952054 -0.107791 -0.121063 -0.135007 -0.149603
-0.164831 -0.180665 -0.19708 -0.214044 -0.231525 -0.249485 -0.267884
-0.286679 -0.305823 -0.325264 -0.344947 -0.364815 -0.384804 -0.404846
-0.424872 -0.444804 -0.464563 -0.484064 -0.503217 -0.521927 -0.540095
-0.557617 -0.574381 -0.590273 -0.605172 -0.61895 -0.631477 -0.642612
-0.652212 -0.660126 -0.666197 -0.670261 -0.672149 -0.671683 -0.66868
-0.662948 -0.65429 -0.642501 -0.627368 -0.60867 -0.586178 -0.559656
-0.528861 -0.49354 -0.45343 -0.408264 -0.357763 -0.301639 -0.239596
-0.171329 -0.0965222 -0.0148534 0.0740132 0.170422 0.274725 0.387288
0.508487 0.638703 0.778334 0.927788 1.08748 1.25784;
#X coords 0 1 258 -1 130 100 1 0 0;
#X restore 106 142 graph;
#X obj 108 107 hsl 128 15 -100 100 0 0 cheb_index empty empty -2 -8
0 10 -262144 -1 -1 10795 1;
#X obj 616 108 r cheb_index;
#X obj 538 273 tabread4~ cheb-shape;
#X obj 537 32 inlet;
#X obj 537 54 unpack;
#X msg 101 64 70;
#X obj 553 353 r cheb_open;
#X obj 538 376 *~;
#X text 105 108 Índice;
#X connect 1 0 4 0;
#X connect 2 0 1 0;
#X connect 3 0 6 0;
#X connect 4 0 5 0;
#X connect 5 0 3 1;
#X connect 6 0 13 0;
#X connect 8 0 7 0;
#X connect 9 0 7 1;
#X connect 10 0 7 2;
#X connect 11 0 7 3;
#X connect 12 0 7 4;
#X connect 13 0 55 0;
#X connect 14 0 60 0;
#X connect 15 0 3 0;
#X connect 17 0 27 0;
#X connect 17 0 33 0;
#X connect 18 0 31 0;
#X connect 18 0 33 0;
#X connect 19 0 29 0;
#X connect 19 0 33 0;
#X connect 20 0 28 0;
#X connect 20 0 33 0;
#X connect 21 0 30 0;
#X connect 21 0 33 0;
#X connect 22 0 23 0;
#X connect 22 0 58 0;
#X connect 23 0 18 0;
#X connect 23 0 17 0;
#X connect 23 0 20 0;
#X connect 23 0 19 0;
#X connect 23 0 21 0;
#X connect 24 0 23 0;
#X connect 27 0 32 1;
#X connect 27 0 38 0;
#X connect 28 0 32 2;
#X connect 28 0 39 0;
#X connect 29 0 32 3;
#X connect 29 0 40 0;
#X connect 30 0 32 4;
#X connect 30 0 41 0;
#X connect 31 0 32 0;
#X connect 31 0 36 0;
#X connect 32 0 35 0;
#X connect 33 0 34 0;
#X connect 33 0 31 0;
#X connect 33 0 27 0;
#X connect 33 0 28 0;
#X connect 33 0 29 0;
#X connect 33 0 30 0;
#X connect 35 0 36 1;
#X connect 35 0 38 1;
#X connect 35 0 39 1;
#X connect 35 0 40 1;
#X connect 35 0 41 1;
#X connect 36 0 37 0;
#X connect 36 0 46 0;
#X connect 38 0 47 0;
#X connect 38 0 42 0;
#X connect 39 0 48 0;
#X connect 39 0 43 0;
#X connect 40 0 49 0;
#X connect 40 0 44 0;
#X connect 41 0 50 0;
#X connect 41 0 45 0;
#X connect 54 0 2 0;
#X connect 55 0 14 0;
#X connect 56 0 57 0;
#X connect 57 0 15 0;
#X connect 58 0 53 0;
#X connect 59 0 60 1;
#X connect 60 0 16 0;
#X coords 0 -1 1 1 250 150 1 100 100;
#X restore 122 333 pd chebychev;
#X text 121 316 Chebychev;
#X connect 1 0 5 0;
#X connect 2 0 1 0;
#X connect 2 1 4 0;
#X connect 2 2 12 0;
#X connect 4 0 5 0;
#X connect 7 0 2 0;
#X connect 8 0 9 0;
#X connect 10 0 11 0;
#X connect 12 0 5 0;
#X coords 0 -1 1 1 500 400 2 100 100;
#X restore 178 26 pd sintese;
#N canvas 0 94 1920 986 controle 0;
#X obj 100 100 cnv 15 500 200 empty empty Controle 5 12 0 14 -204800
-66577 0;
#N canvas 830 309 576 646 Abre_MIDI 0;
#X obj 82 2 bng 15 250 50 0 empty empty empty 17 7 0 10 -4034 -1 -1
;
#X obj 290 278 bng 15 250 50 0 empty empty empty 17 7 0 10 -262144
-1 -1;
#X obj 216 87 openpanel;
#X msg 248 223 read \$1;
#X obj 216 253 cyclone/seq;
#X text 309 277 Final do sequenciamento.;
#X obj 216 333 cyclone/midiparse;
#X msg 82 191 stop;
#X obj 216 429 outlet;
#X obj 301 254 s end;
#X obj 82 22 bng 15 250 50 0 empty empty empty 17 7 0 10 -258113 -1
-1;
#X text 99 19 Stop;
#X obj 216 192 t b s b;
#X msg 289 177 \; pd dsp 1;
#X msg 351 327 \; pd dsp 0;
#X obj 216 17 t b b;
#X connect 0 0 15 0;
#X connect 1 0 14 0;
#X connect 2 0 12 0;
#X connect 3 0 4 0;
#X connect 4 0 6 0;
#X connect 4 1 1 0;
#X connect 4 1 9 0;
#X connect 6 0 8 0;
#X connect 7 0 4 0;
#X connect 7 0 1 0;
#X connect 7 0 9 0;
#X connect 10 0 7 0;
#X connect 12 0 4 0;
#X connect 12 1 3 0;
#X connect 12 2 13 0;
#X connect 15 0 2 0;
#X connect 15 1 7 0;
#X coords 0 -1 1 1 50 40 1 80 0;
#X restore 113 210 pd Abre_MIDI;
#N canvas 342 288 788 447 Ouve_MIDI 0;
#X obj 47 196 notein;
#X obj 47 326 outlet;
#X obj 47 298 spigot;
#X obj 102 102 tgl 15 0 empty empty empty 17 7 0 10 -101120 -1 -1 0
1;
#X obj 47 268 pack;
#X obj 225 250 spigot;
#X obj 258 215 == 0;
#X obj 229 289 bng 15 250 50 0 empty empty empty 17 7 0 10 -262144
-1 -1;
#X floatatom 102 224 5 0 0 0 - - -, f 5;
#X obj 229 323 s end;
#X msg 220 155 \; pd dsp 1;
#X msg 294 304 \; pd dsp 0;
#X obj 101 138 t b b b b;
#X connect 0 0 4 0;
#X connect 0 1 4 1;
#X connect 2 0 1 0;
#X connect 3 0 12 0;
#X connect 4 0 2 0;
#X connect 5 0 7 0;
#X connect 6 0 5 1;
#X connect 7 0 9 0;
#X connect 7 0 11 0;
#X connect 8 0 2 1;
#X connect 12 0 8 0;
#X connect 12 1 5 0;
#X connect 12 1 6 0;
#X connect 12 2 10 0;
#X connect 12 3 9 0;
#X coords 0 -1 1 1 19 19 1 100 100;
#X restore 237 218 pd Ouve_MIDI;
#N canvas 1100 449 450 300 volume_slider 0;
#X obj 105 102 hsl 191 15 0.01 1 0 0 volume v_slider empty -2 -8 0
10 -204786 -1 -1 15700 1;
#X msg 117 159 \; v_slider 0.5;
#X obj 53 159 loadbang;
#X text 105 102 Volume;
#X connect 2 0 1 0;
#X coords 0 -1 1 1 200 19 1 100 100;
#X restore 113 171 pd volume_slider;
#X text 559 181 64;
#X text 559 227 512;
#X text 560 242 1024;
#X text 560 257 2048;
#X obj 542 182 vradio 15 1 0 6 b_size b_init empty 0 -8 0 10 -262144
-1 -1 5;
#X obj 330 132 cnv 15 200 140 empty empty empty 20 12 0 14 -262144
-66577 0;
#X text 559 212 256;
#X text 559 197 128;
#N canvas 0 94 450 300 (subpatch) 0;
#X array onda 2048 float 1;
#A 0 0 0 0 0 0 0 0 0 0 0 0 0 0 0 0 0 0 0 0 0 0 0 0 0 0 0 0 0 0 0 0
0 0 0 0 0 0 0 0 0 0 0 0 0 0 0 0 0 0 0 0 0 0 0 0 0 0 0 0 0 0 0 0 0 0
0 0 0 0 0 0 0 0 0 0 0 0 0 0 0 0 0 0 0 0 0 0 0 0 0 0 0 0 0 0 0 0 0 0
0 0 0 0 0 0 0 0 0 0 0 0 0 0 0 0 0 0 0 0 0 0 0 0 0 0 0 0 0 0 0 0 0 0
0 0 0 0 0 0 0 0 0 0 0 0 0 0 0 0 0 0 0 0 0 0 0 0 0 0 0 0 0 0 0 0 0 0
0 0 0 0 0 0 0 0 0 0 0 0 0 0 0 0 0 0 0 0 0 0 0 0 0 0 0 0 0 0 0 0 0 0
0 0 0 0 0 0 0 0 0 0 0 0 0 0 0 0 0 0 0 0 0 0 0 0 0 0 0 0 0 0 0 0 0 0
0 0 0 0 0 0 0 0 0 0 0 0 0 0 0 0 0 0 0 0 0 0 0 0 0 0 0 0 0 0 0 0 0 0
0 0 0 0 0 0 0 0 0 0 0 0 0 0 0 0 0 0 0 0 0 0 0 0 0 0 0 0 0 0 0 0 0 0
0 0 0 0 0 0 0 0 0 0 0 0 0 0 0 0 0 0 0 0 0 0 0 0 0 0 0 0 0 0 0 0 0 0
0 0 0 0 0 0 0 0 0 0 0 0 0 0 0 0 0 0 0 0 0 0 0 0 0 0 0 0 0 0 0 0 0 0
0 0 0 0 0 0 0 0 0 0 0 0 0 0 0 0 0 0 0 0 0 0 0 0 0 0 0 0 0 0 0 0 0 0
0 0 0 0 0 0 0 0 0 0 0 0 0 0 0 0 0 0 0 0 0 0 0 0 0 0 0 0 0 0 0 0 0 0
0 0 0 0 0 0 0 0 0 0 0 0 0 0 0 0 0 0 0 0 0 0 0 0 0 0 0 0 0 0 0 0 0 0
0 0 0 0 0 0 0 0 0 0 0 0 0 0 0 0 0 0 0 0 0 0 0 0 0 0 0 0 0 0 0 0 0 0
0 0 0 0 0 0 0 0 0 0 0 0 0 0 0 0 0 0 0 0 0 0 0 0 0 0 0 0 0 0 0 0 0 0
0 0 0 0 0 0 0 0 0 0 0 0 0 0 0 0 0 0 0 0 0 0 0 0 0 0 0 0 0 0 0 0 0 0
0 0 0 0 0 0 0 0 0 0 0 0 0 0 0 0 0 0 0 0 0 0 0 0 0 0 0 0 0 0 0 0 0 0
0 0 0 0 0 0 0 0 0 0 0 0 0 0 0 0 0 0 0 0 0 0 0 0 0 0 0 0 0 0 0 0 0 0
0 0 0 0 0 0 0 0 0 0 0 0 0 0 0 0 0 0 0 0 0 0 0 0 0 0 0 0 0 0 0 0 0 0
0 0 0 0 0 0 0 0 0 0 0 0 0 0 0 0 0 0 0 0 0 0 0 0 0 0 0 0 0 0 0 0 0 0
0 0 0 0 0 0 0 0 0 0 0 0 0 0 0 0 0 0 0 0 0 0 0 0 0 0 0 0 0 0 0 0 0 0
0 0 0 0 0 0 0 0 0 0 0 0 0 0 0 0 0 0 0 0 0 0 0 0 0 0 0 0 0 0 0 0 0 0
0 0 0 0 0 0 0 0 0 0 0 0 0 0 0 0 0 0 0 0 0 0 0 0 0 0 0 0 0 0 0 0 0 0
0 0 0 0 0 0 0 0 0 0 0 0 0 0 0 0 0 0 0 0 0 0 0 0 0 0 0 0 0 0 0 0 0 0
0 0 0 0 0 0 0 0 0 0 0 0 0 0 0 0 0 0 0 0 0 0 0 0 0 0 0 0 0 0 0 0 0 0
0 0 0 0 0 0 0 0 0 0 0 0 0 0 0 0 0 0 0 0 0 0 0 0 0 0 0 0 0 0 0 0 0 0
0 0 0 0 0 0 0 0 0 0 0 0 0 0 0 0 0 0 0 0 0 0 0 0 0 0 0 0 0 0 0 0 0 0
0 0 0 0 0 0 0 0 0 0 0 0 0 0 0 0 0 0 0 0 0 0 0 0 0 0 0 0 0 0 0 0 0 0
0 0 0 0 0 0 0 0 0 0 0 0 0 0 0 0 0;
#A 1000 0 0 0 0 0 0 0 0 0 0 0 0 0 0 0 0 0 0 0 0 0 0 0 0 0 0 0 0 0 0
0 0 0 0 0 0 0 0 0 0 0 0 0 0 0 0 0 0 0 0 0 0 0 0 0 0 0 0 0 0 0 0 0 0
0 0 0 0 0 0 0 0 0 0 0 0 0 0 0 0 0 0 0 0 0 0 0 0 0 0 0 0 0 0 0 0 0 0
0 0 0 0 0 0 0 0 0 0 0 0 0 0 0 0 0 0 0 0 0 0 0 0 0 0 0 0 0 0 0 0 0 0
0 0 0 0 0 0 0 0 0 0 0 0 0 0 0 0 0 0 0 0 0 0 0 0 0 0 0 0 0 0 0 0 0 0
0 0 0 0 0 0 0 0 0 0 0 0 0 0 0 0 0 0 0 0 0 0 0 0 0 0 0 0 0 0 0 0 0 0
0 0 0 0 0 0 0 0 0 0 0 0 0 0 0 0 0 0 0 0 0 0 0 0 0 0 0 0 0 0 0 0 0 0
0 0 0 0 0 0 0 0 0 0 0 0 0 0 0 0 0 0 0 0 0 0 0 0 0 0 0 0 0 0 0 0 0 0
0 0 0 0 0 0 0 0 0 0 0 0 0 0 0 0 0 0 0 0 0 0 0 0 0 0 0 0 0 0 0 0 0 0
0 0 0 0 0 0 0 0 0 0 0 0 0 0 0 0 0 0 0 0 0 0 0 0 0 0 0 0 0 0 0 0 0 0
0 0 0 0 0 0 0 0 0 0 0 0 0 0 0 0 0 0 0 0 0 0 0 0 0 0 0 0 0 0 0 0 0 0
0 0 0 0 0 0 0 0 0 0 0 0 0 0 0 0 0 0 0 0 0 0 0 0 0 0 0 0 0 0 0 0 0 0
0 0 0 0 0 0 0 0 0 0 0 0 0 0 0 0 0 0 0 0 0 0 0 0 0 0 0 0 0 0 0 0 0 0
0 0 0 0 0 0 0 0 0 0 0 0 0 0 0 0 0 0 0 0 0 0 0 0 0 0 0 0 0 0 0 0 0 0
0 0 0 0 0 0 0 0 0 0 0 0 0 0 0 0 0 0 0 0 0 0 0 0 0 0 0 0 0 0 0 0 0 0
0 0 0 0 0 0 0 0 0 0 0 0 0 0 0 0 0 0 0 0 0 0 0 0 0 0 0 0 0 0 0 0 0 0
0 0 0 0 0 0 0 0 0 0 0 0 0 0 0 0 0 0 0 0 0 0 0 0 0 0 0 0 0 0 0 0 0 0
0 0 0 0 0 0 0 0 0 0 0 0 0 0 0 0 0 0 0 0 0 0 0 0 0 0 0 0 0 0 0 0 0 0
0 0 0 0 0 0 0 0 0 0 0 0 0 0 0 0 0 0 0 0 0 0 0 0 0 0 0 0 0 0 0 0 0 0
0 0 0 0 0 0 0 0 0 0 0 0 0 0 0 0 0 0 0 0 0 0 0 0 0 0 0 0 0 0 0 0 0 0
0 0 0 0 0 0 0 0 0 0 0 0 0 0 0 0 0 0 0 0 0 0 0 0 0 0 0 0 0 0 0 0 0 0
0 0 0 0 0 0 0 0 0 0 0 0 0 0 0 0 0 0 0 0 0 0 0 0 0 0 0 0 0 0 0 0 0 0
0 0 0 0 0 0 0 0 0 0 0 0 0 0 0 0 0 0 0 0 0 0 0 0 0 0 0 0 0 0 0 0 0 0
0 0 0 0 0 0 0 0 0 0 0 0 0 0 0 0 0 0 0 0 0 0 0 0 0 0 0 0 0 0 0 0 0 0
0 0 0 0 0 0 0 0 0 0 0 0 0 0 0 0 0 0 0 0 0 0 0 0 0 0 0 0 0 0 0 0 0 0
0 0 0 0 0 0 0 0 0 0 0 0 0 0 0 0 0 0 0 0 0 0 0 0 0 0 0 0 0 0 0 0 0 0
0 0 0 0 0 0 0 0 0 0 0 0 0 0 0 0 0 0 0 0 0 0 0 0 0 0 0 0 0 0 0 0 0 0
0 0 0 0 0 0 0 0 0 0 0 0 0 0 0 0 0 0 0 0 0 0 0 0 0 0 0 0 0 0 0 0 0 0
0 0 0 0 0 0 0 0 0 0 0 0 0 0 0 0 0 0 0 0 0 0 0 0 0 0 0 0 0 0 0 0 0 0
0 0 0 0 0 0 0 0 0 0 0 0 0 0 0 0 0 0;
#A 2000 0 0 0 0 0 0 0 0 0 0 0 0 0 0 0 0 0 0 0 0 0 0 0 0 0 0 0 0 0 0
0 0 0 0 0 0 0 0 0 0 0 0 0 0 0 0 0 0;
#X coords 0 1 2047 -1 200 140 1 0 0;
#X restore 330 132 graph;
#X text 539 138 Tamanho de bloco, f 9;
#X obj 304 489 outlet;
#X obj 304 314 unpack;
#X obj 337 350 / 127;
#X obj 304 385 pack;
#X obj 290 349 mtof;
#X obj 247 491 s freq;
#X floatatom 408 415 5 0 0 0 - - -, f 5;
#X obj 390 450 spigot;
#X obj 391 490 bng 15 250 50 0 empty empty empty 17 7 0 10 -262144
-1 -1;
#X obj 407 388 <= 0;
#X obj 391 513 outlet;
#X connect 1 0 15 0;
#X connect 2 0 15 0;
#X connect 15 0 18 0;
#X connect 15 1 16 0;
#X connect 16 0 17 1;
#X connect 16 0 23 0;
#X connect 17 0 14 0;
#X connect 18 0 17 0;
#X connect 18 0 19 0;
#X connect 20 0 21 1;
#X connect 20 0 21 0;
#X connect 21 0 22 0;
#X connect 22 0 24 0;
#X connect 23 0 20 0;
#X coords 0 -1 1 1 500 200 2 100 100;
#X restore 178 -194 pd controle;
#N canvas 111 412 892 453 envelopamento 0;
#X obj 100 100 cnv 15 500 200 empty envelopamento Envelopamento 5 12
0 14 -261228 -66577 0;
#N canvas 245 247 1389 657 env_selector 0;
#X obj 100 101 hradio 15 1 0 2 empty empty empty 0 -8 0 10 -261234
-258113 -1 0;
#X floatatom 659 477 5 0 0 0 - - -, f 5;
#X obj 287 501 outlet;
#X obj 659 503 outlet;
#X obj 190 33 inlet~;
#X obj 190 499 outlet~;
#X obj 399 112 cyclone/peakamp~;
#X obj 442 63 bang~;
#X obj 567 114 r freq;
#N canvas 347 266 868 605 select_env 0;
#X obj 196 406 bng 15 250 50 0 empty empty empty 17 7 0 10 -262144
-1 -1;
#X obj 393 406 bng 15 250 50 0 empty empty empty 17 7 0 10 -262144
-1 -1;
#X obj 579 402 bng 15 250 50 0 empty empty empty 17 7 0 10 -262144
-1 -1;
#X obj 725 402 bng 15 250 50 0 empty empty empty 17 7 0 10 -262144
-1 -1;
#X obj 377 238 inlet;
#X obj 367 494 outlet;
#X obj 698 498 outlet;
#X msg 367 429 0;
#X msg 698 425 0;
#X obj 152 330 loadbang;
#X obj 377 310 s eb1;
#X obj 417 309 s eb2;
#X obj 377 276 route 0;
#X obj 579 366 r eb2;
#X obj 728 369 r eb1;
#X obj 392 373 r eb2;
#X obj 196 370 r eb1;
#X msg 579 450 \; 2_b color 13;
#X msg 725 446 \; 2_b color 4;
#X msg 196 451 \; adsr_b color 13;
#X msg 325 429 1;
#X msg 657 426 1;
#X obj 215 119 cnv 15 100 60 empty teste empty 20 12 0 14 -250685 -66577
0;
#X msg 393 451 \; adsr_b color -1.67628e+07;
#X connect 0 0 19 0;
#X connect 0 0 20 0;
#X connect 1 0 23 0;
#X connect 1 0 7 0;
#X connect 2 0 17 0;
#X connect 2 0 21 0;
#X connect 3 0 18 0;
#X connect 3 0 8 0;
#X connect 4 0 12 0;
#X connect 7 0 5 0;
#X connect 8 0 6 0;
#X connect 9 0 0 0;
#X connect 12 0 10 0;
#X connect 12 1 11 0;
#X connect 13 0 2 0;
#X connect 14 0 3 0;
#X connect 15 0 1 0;
#X connect 16 0 0 0;
#X connect 20 0 5 0;
#X connect 21 0 6 0;
#X restore 287 353 pd select_env;
#X obj 542 352 zexy/demultiplex 1 2;
#X floatatom 287 471 5 0 0 0 - - -, f 5;
#X obj 542 202 pack;
#X obj 100 35 loadbang;
#X msg 100 63 0;
#X obj 190 462 *~;
#X obj 512 475 *~;
#X obj 512 497 outlet~;
#X connect 0 0 9 0;
#X connect 1 0 3 0;
#X connect 4 0 6 0;
#X connect 4 0 15 0;
#X connect 4 0 16 0;
#X connect 6 0 12 0;
#X connect 7 0 6 0;
#X connect 8 0 12 1;
#X connect 9 0 11 0;
#X connect 9 0 15 1;
#X connect 9 0 16 1;
#X connect 9 1 1 0;
#X connect 10 0 2 0;
#X connect 10 1 1 0;
#X connect 11 0 2 0;
#X connect 12 0 10 0;
#X connect 13 0 14 0;
#X connect 14 0 0 0;
#X connect 15 0 5 0;
#X connect 16 0 17 0;
#X coords 0 -1 1 1 30 17 2 100 100;
#X restore 215 105 pd env_selector;
#N canvas 534 127 1063 771 adsr 0;
#X obj 101 101 cnv 15 258 148 empty adsr_b empty 20 12 0 14 -258699
-66577 0;
#X obj 171 265 r trigger;
#X obj 220 369 r graphit;
#X msg 652 226 bang;
#X text 696 227 <-- attack and delayed release;
#X obj 663 250 del 500;
#X text 767 333 <-- attack only;
#X msg 652 314 \; pd dsp 1 \; trigger 1 \; graphit bang;
#X text 768 410 <-- release only;
#X msg 651 384 \; pd dsp 1 \; trigger 0 \; graphit bang;
#X msg 663 275 \; trigger 0;
#X obj 183 509 outlet~;
#X obj 105 127 cnv 15 120 90 empty empty empty 20 12 0 14 -262144 -66577
0;
#N canvas 1 56 450 300 (subpatch) 0;
#X array adsr-format 44100 float 0;
#X coords 0 1.02 44100 -1.02 120 90 1 0 0;
#X restore 105 127 graph;
#X obj 615 128 r note_on;
#X obj 182 457 *~;
#X obj 554 421 bng 15 250 50 0 empty empty empty 17 7 0 10 -262144
-1 -1;
#X floatatom 188 296 5 0 0 0 - - -, f 5;
#X obj 106 263 inlet~;
#X obj 283 -11 loadbang;
#N canvas 1 54 804 997 sub_adsr 0;
#X obj 105 111 inlet;
#X obj 435 151 inlet;
#X text 101 86 trigger;
#X obj 105 139 sel 0;
#X obj 244 155 t b;
#X obj 166 264 f \$1;
#X obj 166 289 pack 0 \$2;
#X obj 492 151 inlet;
#X obj 438 281 del \$2;
#X obj 458 429 line~;
#X obj 462 304 f \$4;
#X obj 501 379 pack 0 \$3;
#X obj 554 151 inlet;
#X obj 616 151 inlet;
#X obj 689 150 inlet;
#X msg 105 170 stop;
#X obj 612 306 pack 0 \$5;
#X text 435 129 level;
#X obj 501 355 * \$1;
#X obj 458 454 outlet~;
#X text 102 378 and pack with;
#X text 103 398 attack time;
#X text 31 126 if zero;
#X text 32 143 release;
#X text 12 160 and cancel;
#X text 43 177 decay;
#X text 284 272 on attack \, set a;
#X text 278 305 recall sustain value;
#X text 315 378 pack with decay time;
#X text 605 332 on release ramp;
#X text 606 349 back to zero;
#X obj 462 329 * 0.01;
#X text 47 567 Objects such as "f" and "pack" can be given dollar sign
arguments to initialize their contents from adsr's creation arguments.
Inlets are supplied to change them on the fly.;
#X text 13 2 ADSR ENVELOPE;
#X text 488 129 attack;
#X text 555 128 decay;
#X text 609 129 sustain;
#X text 686 129 release;
#X text 202 71 attack;
#X obj 204 92 moses;
#X obj 194 122 t b b;
#X msg 128 290 0;
#X text 20 273 optionally;
#X text 10 291 bash to zero;
#X text 25 246 ATTACK:;
#X text 49 477 When you send this patch a positive trigger it schedules
a line~ to do an attack and decay \, and if zero \, it starts the release
ramp.;
#X text 495 629 Updated for Pd version 0.37;
#X text 255 89 test for negative trigger;
#X text 253 113 if so \, zero;
#X text 254 129 the output;
#X text 278 165 in any case;
#X text 303 355 multiply by peak level;
#X text 280 286 delay for sustain;
#X text 276 328 convert from percent;
#X text 155 340 ... then;
#X text 103 359 recall peak level;
#X text 439 113 peak;
#X text 281 149 ... do this;
#X text 47 529 Negative triggers cause the output to jump to zero and
then attack (instead of attacking from the current location).;
#X text 208 1 Arguments: level \, attack time \, decay time \, sustain
level \, release time. A \, D \, and R are in msec and S is in percent.
This patch is used as an abstraction in various examples.;
#X obj 476 193 * 1000;
#X obj 557 193 * 1000;
#X obj 672 195 * 1000;
#X connect 0 0 3 0;
#X connect 1 0 5 1;
#X connect 1 0 18 1;
#X connect 3 0 15 0;
#X connect 3 0 16 0;
#X connect 3 1 39 0;
#X connect 4 0 5 0;
#X connect 4 0 8 0;
#X connect 5 0 6 0;
#X connect 6 0 9 0;
#X connect 7 0 60 0;
#X connect 8 0 10 0;
#X connect 9 0 19 0;
#X connect 10 0 31 0;
#X connect 11 0 9 0;
#X connect 12 0 61 0;
#X connect 13 0 10 1;
#X connect 14 0 62 0;
#X connect 15 0 8 0;
#X connect 16 0 9 0;
#X connect 18 0 11 0;
#X connect 31 0 18 0;
#X connect 39 0 40 0;
#X connect 39 1 4 0;
#X connect 40 0 4 0;
#X connect 40 1 41 0;
#X connect 41 0 9 0;
#X connect 60 0 8 1;
#X connect 60 0 6 1;
#X connect 61 0 11 1;
#X connect 62 0 16 1;
#X restore 182 344 pd sub_adsr;
#X obj 575 387 r note_off;
#X obj 580 422 bng 15 250 50 0 empty empty empty 17 7 0 10 -262144
-1 -1;
#X obj 198 394 tabwrite~ adsr-format;
#X obj 266 117 vsl 15 110 0 1 0 0 decay empty D 0 -9 0 10 -203904 -1
-1 2180 1;
#X obj 246 233 nbx 3 14 0 4 0 0 empty empty empty 0 -8 0 10 -262144
-1 -1 0.2 256;
#X msg 301 42 50;
#X obj 402 267 r sustain;
#X obj 232 117 vsl 15 110 0 1 0 0 att empty A 0 -9 0 10 -203904 -1
-1 1090 1;
#X obj 338 117 vsl 15 110 0 1 0 0 release empty R 0 -9 0 10 -203904
-1 -1 3270 1;
#X obj 301 117 vsl 15 110 0 100 0 0 sustain empty S_% 0 -9 0 10 -204786
-1 -1 5450 1;
#X obj 322 233 nbx 3 14 0 4 0 0 empty empty empty 0 -8 0 10 -262144
-1 -1 0.3 256;
#X obj 208 233 nbx 3 14 0 4 0 0 empty empty empty 0 -8 0 10 -262144
-1 -1 0.1 256;
#X obj 284 233 nbx 3 14 0 100 0 0 empty empty empty 0 -8 0 10 -262144
-1 -1 50 256;
#X obj 293 266 r att;
#X obj 340 266 r decay;
#X obj 479 268 r release;
#X msg 232 42 0.1;
#X msg 266 42 0.2;
#X msg 338 42 0.3;
#X obj 416 -4 inlet;
#X obj 416 43 unpack;
#X obj 416 80 s peak;
#X obj 242 265 r peak;
#X connect 1 0 20 0;
#X connect 1 0 17 0;
#X connect 2 0 23 0;
#X connect 3 0 7 0;
#X connect 3 0 5 0;
#X connect 5 0 10 0;
#X connect 14 0 16 0;
#X connect 14 0 7 0;
#X connect 15 0 11 0;
#X connect 18 0 15 1;
#X connect 19 0 26 0;
#X connect 19 0 38 0;
#X connect 19 0 37 0;
#X connect 19 0 39 0;
#X connect 20 0 15 0;
#X connect 20 0 23 0;
#X connect 21 0 9 0;
#X connect 21 0 22 0;
#X connect 24 0 25 0;
#X connect 26 0 30 0;
#X connect 27 0 20 4;
#X connect 28 0 32 0;
#X connect 29 0 31 0;
#X connect 30 0 33 0;
#X connect 34 0 20 2;
#X connect 35 0 20 3;
#X connect 36 0 20 5;
#X connect 37 0 28 0;
#X connect 38 0 24 0;
#X connect 39 0 29 0;
#X connect 40 0 41 0;
#X connect 41 0 42 0;
#X connect 43 0 20 1;
#X coords 0 -1 1 1 260 150 1 100 100;
#X restore 117 135 pd adsr;
#X obj 242 45 inlet~;
#X obj 163 341 outlet~;
#X obj 331 315 loadbang;
#X msg 339 346 \; envelopamento color -1.67628e+07;
#X obj 639 50 inlet;
#X obj 761 67 inlet;
#X obj 761 117 s note_off;
#X obj 639 116 unpack;
#X obj 682 151 sel 0;
#X obj 682 186 s note_on;
#X obj 639 247 pack;
#X obj 639 331 outlet;
#X connect 1 0 2 0;
#X connect 1 1 2 1;
#X connect 2 0 4 0;
#X connect 3 0 1 0;
#X connect 5 0 6 0;
#X connect 7 0 10 0;
#X connect 8 0 9 0;
#X connect 10 0 13 0;
#X connect 10 1 11 0;
#X connect 10 1 13 1;
#X connect 11 0 12 0;
#X connect 13 0 14 0;
#X coords 0 -1 1 1 500 200 2 100 100;
#X restore 178 453 pd envelopamento;
#N canvas 687 257 1062 584 efeitos 0;
#X obj 100 100 cnv 15 500 200 empty empty Efeitos 5 12 0 14 -232576
-66577 0;
#X obj 306 63 inlet~;
#N canvas 0 122 1200 639 post_processing 0;
#X obj 116 68 inlet~;
#X obj 158 104 r volume;
#X obj 120 133 *~;
#X msg 542 141 \; onda const 0;
#X obj 542 103 r end;
#X obj 345 126 expr pow(2 \, $f1) * 64;
#X obj 240 101 loadbang;
#X msg 240 133 0;
#X obj 345 98 r b_size;
#X obj 240 164 s b_init;
#X msg 403 203 \; onda resize \$1;
#X floatatom 403 164 5 0 0 0 - - -, f 5;
#X obj 345 203 block~;
#X msg 345 163 set \$1;
#X obj -4 142 bang~;
#X obj -4 171 tabwrite~ onda;
#X obj 118 235 outlet~;
#X connect 0 0 2 0;
#X connect 1 0 2 1;
#X connect 2 0 15 0;
#X connect 2 0 16 0;
#X connect 4 0 3 0;
#X connect 5 0 11 0;
#X connect 5 0 13 0;
#X connect 6 0 7 0;
#X connect 7 0 9 0;
#X connect 8 0 5 0;
#X connect 11 0 10 0;
#X connect 13 0 12 0;
#X connect 14 0 15 0;
#X restore 306 316 pd post_processing;
#X obj 304 366 dac~;
#X obj 380 62 inlet;
#N canvas 0 50 1920 997 toggle_fx 0;
#X obj 101 101 tgl 15 0 empty fx_tog1 empty 17 7 0 10 -257472 -45076
-1 0 1;
#X obj 117 101 tgl 15 0 empty fx_tog2 empty 17 7 0 10 -257472 -45076
-1 0 1;
#X obj 133 101 tgl 15 0 empty fx_tog3 empty 17 7 0 10 -257472 -45076
-1 0 1;
#X obj 149 101 tgl 15 0 empty fx_tog4 empty 17 7 0 10 -257472 -45076
-1 0 1;
#X obj 103 103 cnv 11 11 11 empty fx1 empty 20 12 0 12 -257472 -66577
0;
#X obj 119 103 cnv 11 11 11 empty fx2 empty 20 12 0 12 -257472 -66577
0;
#X obj 135 103 cnv 11 11 11 empty fx3 empty 20 12 0 12 -257472 -66577
0;
#X obj 151 103 cnv 11 11 11 empty fx4 empty 20 12 0 12 -257472 -66577
0;
#X obj 443 214 sel 1;
#X obj 750 51 loadbang;
#X obj 346 209 sel 0;
#X floatatom 417 154 5 0 0 0 - - -, f 5;
#X obj 143 218 sel 1;
#X obj 55 218 sel 0;
#X floatatom 101 184 5 0 0 0 - - -, f 5;
#X obj 198 491 sel 1;
#X obj 110 491 sel 0;
#X floatatom 156 457 5 0 0 0 - - -, f 5;
#X msg 110 513 \; fx3 color 39;
#X obj 520 439 sel 1;
#X obj 432 439 sel 0;
#X floatatom 478 405 5 0 0 0 - - -, f 5;
#X msg 432 460 \; fx4 color 39;
#X obj 26 181 s fir_gate;
#X obj 72 455 s fx3_gate;
#X obj 393 406 s fx4_gate;
#X msg 52 240 \; fx1 color 39 \; fir_b color 39;
#X msg 108 570 \; fx3 color 19;
#X msg 50 282 \; fx1 color 19 \; fir_b color 19;
#X msg 432 515 \; fx4 color 19;
#X obj 301 161 s phaser_gate;
#X msg 750 80 \; fx_tog1 color 39 \; fx_tog2 color 39 \; fx_tog3 color
39 \; fx_tog4 color 39 \; fx1 color 39 \; fx2 color 39 \; fx3 color
39 \; fx4 color 39 \; fir_b color 39 \; phaser_b color 39;
#X msg 345 242 \; fx2 color 39 \; phaser_b color 39;
#X msg 345 298 \; fx2 color 19 \; phaser_b color 19;
#X connect 0 0 14 0;
#X connect 1 0 11 0;
#X connect 2 0 17 0;
#X connect 3 0 21 0;
#X connect 8 0 33 0;
#X connect 9 0 31 0;
#X connect 10 0 32 0;
#X connect 11 0 10 0;
#X connect 11 0 8 0;
#X connect 11 0 30 0;
#X connect 12 0 28 0;
#X connect 13 0 26 0;
#X connect 14 0 13 0;
#X connect 14 0 12 0;
#X connect 14 0 23 0;
#X connect 15 0 27 0;
#X connect 16 0 18 0;
#X connect 17 0 16 0;
#X connect 17 0 15 0;
#X connect 19 0 29 0;
#X connect 20 0 22 0;
#X connect 21 0 20 0;
#X connect 21 0 19 0;
#X coords 0 -1 1 1 65 17 2 100 100;
#X restore 168 104 pd toggle_fx;
#N canvas 558 377 874 495 fir 0;
#X obj 254 31 inlet~;
#X obj 439 22 inlet;
#X obj 256 289 outlet~;
#X obj 255 142 *~;
#X obj 526 10 r fir_gate;
#X obj 334 97 == 0;
#X obj 394 45 *~;
#N canvas 799 387 700 426 sub_fir 0;
#X obj 421 42 inlet~;
#X obj 598 37 inlet;
#X obj 470 352 outlet~;
#X obj 598 309 outlet;
#X obj 101 101 cnv 15 198 138 empty fir_b empty 2 12 0 14 -257472 -66577
0;
#X obj 98 253 openpanel;
#X obj 106 133 cnv 15 130 100 empty empty empty 20 12 0 14 -262144
-66577 0;
#N canvas 1 54 450 250 (subpatch) 0;
#X array fir_array 64 float 1;
#A 0 0 -0.12 -0.12 -0.12 -0.12 -0.12 -0.12 -0.14 -0.14 -0.16 -0.16
-0.16 -0.16 -0.16 -0.16 -0.16 -0.16 -0.16 -0.16 -0.16 -0.14 -0.12 -0.0800001
-0.0700001 -0.0400001 -0.0200002 -2.08616e-07 0.0199998 0.0599997 0.0799996
0.0999996 0.0999996 0.0999996 0.0599997 0.0199998 -2.08616e-07 -0.0200002
-0.0200002 -0.0600001 -0.0600001 -0.1 -0.1 -0.1 -0.12 -0.12 -0.12 -0.12
-0.12 -0.12 -0.12 -0.12 -0.12 -0.12 -0.12 -0.12 -0.12 -0.12 -0.12 -0.12
-0.12 -0.12 -0.12 -0.12 -0.12;
#X coords 0 1 63 -1 130 100 1 0 0;
#X restore 106 133 graph;
#X obj 241 187 bng 15 250 50 0 empty empty empty 17 7 0 10 -204800
-1 -1;
#X text 239 170 Abrir;
#X text 239 201 Salvar;
#X obj 241 218 bng 15 250 50 0 empty empty empty 17 7 0 10 -204786
-1 -1;
#X msg 98 298 \; fir_array read \$1;
#X msg 236 296 \; fir_array write \$1;
#X obj 236 258 savepanel;
#X obj 421 164 iemlib/FIR~ fir_array 64;
#X obj 190 109 hsl 100 15 0 1 0 0 empty empty empty -2 -8 0 10 -204800
-258113 -1 0 1;
#X text 191 108 dry;
#X text 267 108 wet;
#X obj 422 249 *~;
#X obj 282 40 expr 1 - $f1;
#X obj 385 249 *~;
#X obj 397 283 +~;
#X obj 181 45 loadbang;
#X msg 179 71 0;
#X connect 0 0 15 0;
#X connect 0 0 21 0;
#X connect 1 0 3 0;
#X connect 5 0 12 0;
#X connect 8 0 5 0;
#X connect 11 0 14 0;
#X connect 14 0 13 0;
#X connect 15 0 19 0;
#X connect 16 0 19 1;
#X connect 16 0 20 0;
#X connect 19 0 22 1;
#X connect 20 0 21 1;
#X connect 21 0 22 0;
#X connect 22 0 2 0;
#X connect 23 0 24 0;
#X connect 24 0 16 0;
#X coords 0 -1 1 1 200 137 1 100 100;
#X restore 400 100 pd sub_fir;
#X obj 560 73 spigot;
#X connect 0 0 3 0;
#X connect 0 0 6 0;
#X connect 1 0 8 0;
#X connect 3 0 2 0;
#X connect 4 0 6 1;
#X connect 4 0 5 0;
#X connect 4 0 8 1;
#X connect 5 0 3 1;
#X connect 6 0 7 0;
#X connect 7 0 2 0;
#X connect 8 0 7 1;
#X coords 0 -1 1 1 200 140 2 400 100;
#X restore 120 138 pd fir;
#N canvas 1 61 1135 679 phaser 0;
#X obj 88 121 inlet~;
#X obj 397 129 inlet;
#X obj 90 379 outlet~;
#X obj 89 232 *~;
#X obj 108 189 == 0;
#X obj 226 156 *~;
#N canvas 459 207 1023 533 sub_phaser 0;
#X obj 540 486 outlet~;
#X obj 101 101 cnv 15 198 78 empty phaser_b empty 2 12 0 14 -257472
-66577 0;
#X obj 112 109 hsl 180 15 0 1 0 0 dry-wet_phaser empty empty -2 -8
0 10 -204800 -258113 -1 16000 1;
#X text 111 109 dry;
#X text 267 109 wet;
#X obj 492 383 *~;
#X obj 359 348 expr 1 - $f1;
#X obj 455 383 *~;
#X obj 467 417 +~;
#X obj 181 45 loadbang;
#X obj 524 115 rpole~;
#X obj 524 90 rzero_rev~;
#X obj 524 164 rpole~;
#X obj 524 139 rzero_rev~;
#X obj 524 212 rpole~;
#X obj 524 187 rzero_rev~;
#X obj 524 261 rpole~;
#X obj 524 236 rzero_rev~;
#X obj 501 291 +~;
#X obj 679 239 expr~ 1 - 0.03 - 0.6*abs($v1-0.5)*abs($v1-0.5);
#X obj 495 40 inlet~;
#X obj 678 173 *~;
#X obj 257 139 flatgui/knob 32 32 0 127 0 0 empty empty empty 0 -8
0 8 3.60161e+07 0 3.60161e+07 1500 1;
#X text 107 133 Ampl.;
#X text 213 132 Freq.;
#X obj 163 138 flatgui/knob 32 32 0 127 0 0 empty empty empty 0 -8
0 8 3.60161e+07 0 3.60161e+07 2400 1;
#X obj 163 213 / 127;
#X obj 163 235 nbx 5 14 -1e+37 1e+37 0 0 empty empty empty 0 -8 0 10
-262144 -1 -1 0.774194 256;
#X msg 179 71 0;
#X obj 256 212 / 127;
#X obj 163 270 s sub_ampl;
#X obj 256 270 s sub_freq;
#X obj 373 136 loadbang;
#X msg 341 168 38;
#X obj 693 142 r sub_ampl;
#X obj 359 295 r dry-wet_phaser;
#X obj 679 105 phasor~ 0.3;
#X obj 256 235 * 20;
#X obj 679 72 r sub_freq;
#X connect 5 0 8 1;
#X connect 6 0 7 1;
#X connect 7 0 8 0;
#X connect 8 0 0 0;
#X connect 9 0 28 0;
#X connect 10 0 13 0;
#X connect 11 0 10 0;
#X connect 12 0 15 0;
#X connect 13 0 12 0;
#X connect 14 0 17 0;
#X connect 15 0 14 0;
#X connect 16 0 18 1;
#X connect 17 0 16 0;
#X connect 18 0 5 0;
#X connect 19 0 11 1;
#X connect 19 0 10 1;
#X connect 19 0 13 1;
#X connect 19 0 12 1;
#X connect 19 0 15 1;
#X connect 19 0 14 1;
#X connect 19 0 17 1;
#X connect 19 0 16 1;
#X connect 20 0 11 0;
#X connect 20 0 18 0;
#X connect 20 0 7 0;
#X connect 21 0 19 0;
#X connect 22 0 29 0;
#X connect 25 0 26 0;
#X connect 26 0 27 0;
#X connect 27 0 30 0;
#X connect 28 0 2 0;
#X connect 29 0 37 0;
#X connect 32 0 33 0;
#X connect 33 0 22 0;
#X connect 34 0 21 1;
#X connect 35 0 6 0;
#X connect 35 0 5 1;
#X connect 36 0 21 0;
#X connect 37 0 31 0;
#X connect 38 0 36 0;
#X coords 0 -1 1 1 200 80 2 100 100;
#X restore 200 200 pd sub_phaser;
#X obj 188 100 r phaser_gate;
#X connect 0 0 3 0;
#X connect 0 0 5 0;
#X connect 3 0 2 0;
#X connect 4 0 3 1;
#X connect 5 0 6 0;
#X connect 6 0 2 0;
#X connect 7 0 5 1;
#X connect 7 0 4 0;
#X coords 0 -1 1 1 200 80 2 200 200;
#X restore 361 150 pd phaser;
#X connect 1 0 6 0;
#X connect 2 0 3 0;
#X connect 2 0 3 1;
#X connect 6 0 7 0;
#X connect 7 0 2 0;
#X coords 0 -1 1 1 500 200 2 100 100;
#X restore 695 456 pd efeitos;
#X connect 0 0 2 0;
#X connect 0 1 2 1;
#X connect 0 2 2 2;
#X connect 1 0 0 0;
#X connect 1 1 0 1;
#X connect 2 0 3 0;
#X connect 2 1 3 1;
#X coords 0 735 1 734 100 120 0;
