#N canvas 0 108 1442 808 10;
#X obj 153 67 controle;
#X obj 147 334 sintese;
#X obj 798 131 envelopamento;
#X obj 804 359 efeitos;
#X connect 0 0 1 0;
#X connect 1 0 2 0;
#X connect 1 1 2 1;
#X connect 1 2 2 2;
#X connect 2 0 3 0;
#X connect 2 1 3 1;
