#N canvas 596 115 1267 865 10;
#X obj 256 61 cnv 15 540 200 empty empty Controle 20 12 0 14 -204800
-66577 0;
#X obj 224 263 cnv 15 600 150 empty empty Síntese 20 12 0 14 -262130
-66577 0;
#N canvas 834 307 576 646 Abre_MIDI 0;
#X obj 82 2 bng 15 250 50 0 empty empty empty 17 7 0 10 -4034 -1 -1
;
#X obj 247 279 bng 15 250 50 0 empty empty empty 17 7 0 10 -262144
-1 -1;
#X obj 173 88 openpanel;
#X msg 205 224 read \$1;
#X obj 173 254 cyclone/seq;
#X text 266 278 Final do sequenciamento.;
#X obj 173 334 cyclone/midiparse;
#X msg 82 191 stop;
#X obj 173 430 outlet;
#X obj 258 255 s end;
#X obj 82 22 bng 15 250 50 0 empty empty empty 17 7 0 10 -258113 -1
-1;
#X text 99 19 Stop;
#X obj 173 193 t b s b;
#X msg 246 178 \; pd dsp 1;
#X msg 308 328 \; pd dsp 0;
#X obj 173 18 t b b;
#X connect 0 0 2 0;
#X connect 0 0 15 0;
#X connect 1 0 14 0;
#X connect 2 0 12 0;
#X connect 3 0 4 0;
#X connect 4 0 6 0;
#X connect 4 1 1 0;
#X connect 4 1 9 0;
#X connect 6 0 8 0;
#X connect 7 0 4 0;
#X connect 7 0 1 0;
#X connect 7 0 9 0;
#X connect 10 0 7 0;
#X connect 12 0 4 0;
#X connect 12 1 3 0;
#X connect 12 2 13 0;
#X connect 15 0 2 0;
#X connect 15 1 7 0;
#X coords 0 -1 1 1 50 40 1 80 0;
#X restore 287 173 pd Abre_MIDI;
#N canvas 342 288 788 447 Ouve_MIDI 0;
#X obj 47 196 notein;
#X obj 47 326 outlet;
#X obj 47 298 spigot;
#X obj 102 102 tgl 15 0 empty empty empty 17 7 0 10 -101120 -1 -1 0
1;
#X obj 47 268 pack;
#X obj 225 250 spigot;
#X obj 258 215 == 0;
#X obj 229 289 bng 15 250 50 0 empty empty empty 17 7 0 10 -262144
-1 -1;
#X floatatom 102 224 5 0 0 0 - - -, f 5;
#X obj 229 323 s end;
#X msg 220 155 \; pd dsp 1;
#X msg 294 304 \; pd dsp 0;
#X obj 101 138 t b b b b;
#X connect 0 0 4 0;
#X connect 0 1 4 1;
#X connect 2 0 1 0;
#X connect 3 0 12 0;
#X connect 4 0 2 0;
#X connect 5 0 7 0;
#X connect 6 0 5 1;
#X connect 7 0 9 0;
#X connect 7 0 11 0;
#X connect 8 0 2 1;
#X connect 12 0 8 0;
#X connect 12 1 5 0;
#X connect 12 1 6 0;
#X connect 12 2 10 0;
#X connect 12 3 9 0;
#X coords 0 -1 1 1 19 19 1 100 100;
#X restore 408 182 pd Ouve_MIDI;
#N canvas 877 365 839 546 ctrl_to_synth 0;
#X obj 100 100 cnv 15 19 19 empty empty empty 20 12 0 14 -233017 -66577
0;
#X obj 178 101 inlet;
#X obj 178 332 outlet;
#X obj 232 298 r end;
#X obj 232 331 outlet;
#X obj 178 157 unpack;
#X obj 211 193 / 127;
#X obj 178 228 pack;
#X obj 164 192 mtof;
#X obj 121 334 s freq;
#X connect 1 0 5 0;
#X connect 3 0 4 0;
#X connect 5 0 8 0;
#X connect 5 1 6 0;
#X connect 6 0 7 1;
#X connect 7 0 2 0;
#X connect 8 0 7 0;
#X connect 8 0 9 0;
#X coords 0 -1 1 1 19 19 2 100 100;
#X restore 508 249 pd ctrl_to_synth;
#X obj 224 414 cnv 15 600 150 empty empty Envelopamento 20 12 0 14
-261682 -66577 0;
#X obj 224 564 cnv 15 600 150 empty empty Efeitos 20 12 0 14 -232576
-66577 0;
#N canvas 1107 433 450 300 volume_slider 0;
#X obj 105 102 hsl 155 15 0.01 1 0 0 volume v_slider empty -2 -8 0
10 -204786 -1 -1 7622 1;
#X msg 117 159 \; v_slider 0.5;
#X obj 53 159 loadbang;
#X text 113 100 Volume;
#X connect 2 0 1 0;
#X coords 0 -1 1 1 164 19 1 100 100;
#X restore 302 122 pd volume_slider;
#N canvas 209 147 735 792 VCO 0;
#X obj 101 101 cnv 15 98 78 empty vco_b empty 20 12 0 14 -260818 -262144
0;
#X obj 103 102 vradio 15 1 0 5 vco_select empty empty 0 -8 0 10 -262130
-260097 -1 0;
#X text 138 131 Dentada;
#X text 134 146 Quadrada;
#X text 144 161 Pulso;
#X text 138 99 Senoide;
#X text 130 115 Triangular;
#X obj 280 103 inlet;
#X obj 230 346 phasor~ 0;
#X obj 280 148 unpack;
#X obj 103 43 loadbang;
#X msg 103 69 0;
#N canvas 1 65 1905 986 triangle 0;
#X obj 299 149 inlet;
#X floatatom 299 211 5 0 0 0 - - -, f 5;
#X obj 347 275 * -1;
#X obj 229 326 phasor~;
#X msg 418 284 0;
#X obj 228 350 *~ 2;
#X obj 228 375 -~ 1;
#X obj 227 399 clip~ 0 1;
#X obj 347 326 phasor~;
#X obj 346 350 *~ 2;
#X obj 346 375 -~ 1;
#X obj 345 399 clip~ 0 1;
#X obj 297 441 +~;
#X obj 298 480 outlet~;
#X connect 0 0 1 0;
#X connect 1 0 2 0;
#X connect 1 0 3 0;
#X connect 2 0 8 0;
#X connect 3 0 5 0;
#X connect 4 0 3 1;
#X connect 4 0 8 1;
#X connect 5 0 6 0;
#X connect 6 0 7 0;
#X connect 7 0 12 0;
#X connect 8 0 9 0;
#X connect 9 0 10 0;
#X connect 10 0 11 0;
#X connect 11 0 12 1;
#X connect 12 0 13 0;
#X restore 152 345 pd triangle;
#N canvas 895 154 794 637 square 0;
#X obj 141 26 inlet;
#X floatatom 141 61 5 0 0 0 - - -, f 5;
#X obj 177 108 * -1;
#X obj 104 190 phasor~;
#X obj 177 190 phasor~;
#X obj 136 237 +~;
#X obj 137 269 -~ 1;
#X msg 202 147 0;
#X msg 243 148 0.5;
#X obj 230 108 loadbang;
#X obj 137 306 outlet~;
#X connect 0 0 1 0;
#X connect 1 0 2 0;
#X connect 1 0 3 0;
#X connect 2 0 4 0;
#X connect 3 0 5 0;
#X connect 4 0 5 1;
#X connect 5 0 6 0;
#X connect 6 0 10 0;
#X connect 7 0 3 1;
#X connect 8 0 4 1;
#X connect 9 0 8 0;
#X connect 9 0 7 0;
#X restore 306 345 pd square;
#N canvas 933 380 450 300 pulse 0;
#X obj 134 57 inlet;
#X obj 134 86 phasor~;
#X obj 135 115 -~ 0.99;
#X obj 135 179 *~ 100;
#X obj 135 147 clip~ 0 1;
#X obj 136 209 outlet~;
#X connect 0 0 1 0;
#X connect 1 0 2 0;
#X connect 2 0 4 0;
#X connect 3 0 5 0;
#X connect 4 0 3 0;
#X restore 378 345 pd pulse;
#X obj 98 346 osc~ 0;
#N canvas 185 233 1051 722 multiplexer 0;
#X obj 327 402 outlet~;
#X obj 139 157 inlet~;
#X obj 165 208 r vco_select;
#X obj 165 245 == 0;
#X obj 138 300 *~;
#X obj 303 161 inlet~;
#X obj 329 212 r vco_select;
#X obj 302 304 *~;
#X obj 448 159 inlet~;
#X obj 474 210 r vco_select;
#X obj 447 302 *~;
#X obj 590 163 inlet~;
#X obj 616 214 r vco_select;
#X obj 589 306 *~;
#X obj 728 156 inlet~;
#X obj 754 207 r vco_select;
#X obj 727 299 *~;
#X obj 329 249 == 1;
#X obj 474 247 == 2;
#X obj 616 251 == 3;
#X obj 754 244 == 4;
#X floatatom 204 315 5 0 0 0 - - -, f 5;
#X connect 1 0 4 0;
#X connect 2 0 3 0;
#X connect 3 0 4 1;
#X connect 3 0 21 0;
#X connect 4 0 0 0;
#X connect 5 0 7 0;
#X connect 6 0 17 0;
#X connect 7 0 0 0;
#X connect 8 0 10 0;
#X connect 9 0 18 0;
#X connect 10 0 0 0;
#X connect 11 0 13 0;
#X connect 12 0 19 0;
#X connect 13 0 0 0;
#X connect 14 0 16 0;
#X connect 15 0 20 0;
#X connect 16 0 0 0;
#X connect 17 0 7 1;
#X connect 18 0 10 1;
#X connect 19 0 13 1;
#X connect 20 0 16 1;
#X restore 220 413 pd multiplexer;
#X obj 220 519 outlet~;
#X msg 475 232 0;
#X obj 348 192 s vco_vel;
#X obj 221 477 *~;
#X obj 236 452 r vco_vel;
#X obj 475 193 r end;
#X obj 205 244 zexy/demultiplex 1 2 3 4 5;
#X connect 1 0 23 1;
#X connect 7 0 9 0;
#X connect 8 0 16 2;
#X connect 9 0 23 0;
#X connect 9 1 19 0;
#X connect 10 0 11 0;
#X connect 11 0 1 0;
#X connect 12 0 16 1;
#X connect 13 0 16 3;
#X connect 14 0 16 4;
#X connect 15 0 16 0;
#X connect 16 0 20 0;
#X connect 18 0 15 0;
#X connect 18 0 12 0;
#X connect 18 0 8 0;
#X connect 18 0 13 0;
#X connect 18 0 14 0;
#X connect 20 0 17 0;
#X connect 21 0 20 1;
#X connect 22 0 18 0;
#X connect 23 0 15 0;
#X connect 23 1 12 0;
#X connect 23 2 8 0;
#X connect 23 3 13 0;
#X connect 23 4 14 0;
#X coords 0 -1 1 1 100 80 2 100 100;
#X restore 264 304 pd VCO;
#N canvas 923 158 889 893 synth_selector 0;
#X obj 100 101 hradio 15 1 0 4 empty empty empty 0 -8 0 10 -262130
-260097 -1 0;
#N canvas 1 65 1905 986 select_synth 0;
#X obj 377 276 route 0 1 2;
#X obj 196 406 bng 15 250 50 0 empty empty empty 17 7 0 10 -262144
-1 -1;
#X obj 323 406 bng 15 250 50 0 empty empty empty 17 7 0 10 -262144
-1 -1;
#X msg 323 450 \; vco_b color 5;
#X obj 377 310 s sb1;
#X obj 414 310 s sb2;
#X obj 451 310 s sb3;
#X obj 488 310 s sb4;
#X obj 196 370 r sb1;
#X obj 283 370 r sb2;
#X obj 323 370 r sb3;
#X obj 364 370 r sb4;
#X obj 445 402 bng 15 250 50 0 empty empty empty 17 7 0 10 -262144
-1 -1;
#X obj 565 402 bng 15 250 50 0 empty empty empty 17 7 0 10 -262144
-1 -1;
#X obj 565 366 r sb3;
#X obj 606 366 r sb4;
#X obj 689 404 bng 15 250 50 0 empty empty empty 17 7 0 10 -262144
-1 -1;
#X obj 809 404 bng 15 250 50 0 empty empty empty 17 7 0 10 -262144
-1 -1;
#X obj 769 368 r sb2;
#X obj 850 368 r sb4;
#X obj 934 404 bng 15 250 50 0 empty empty empty 17 7 0 10 -262144
-1 -1;
#X obj 1054 404 bng 15 250 50 0 empty empty empty 17 7 0 10 -262144
-1 -1;
#X obj 1054 368 r sb3;
#X obj 1095 368 r sb4;
#X obj 377 238 inlet;
#X obj 445 366 r sb2;
#X obj 525 366 r sb1;
#X obj 689 368 r sb3;
#X obj 809 368 r sb1;
#X obj 934 368 r sb4;
#X obj 1014 368 r sb1;
#X msg 445 447 \; 2_b color 104;
#X msg 565 446 \; 2_b color 5;
#X msg 689 449 \; 3_b color 104;
#X msg 809 448 \; 3_b color 5;
#X msg 934 449 \; 4_b color 104;
#X msg 1054 448 \; 4_b color 5;
#X msg 196 451 \; vco_b color 104;
#X obj 297 494 outlet;
#X obj 1026 503 outlet;
#X obj 538 498 outlet;
#X obj 782 502 outlet;
#X msg 297 429 0;
#X msg 538 425 0;
#X obj 152 330 loadbang;
#X msg 782 426 0;
#X msg 1026 429 0;
#X connect 0 0 4 0;
#X connect 0 1 5 0;
#X connect 0 2 6 0;
#X connect 0 3 7 0;
#X connect 1 0 37 0;
#X connect 2 0 3 0;
#X connect 2 0 42 0;
#X connect 8 0 1 0;
#X connect 9 0 2 0;
#X connect 10 0 2 0;
#X connect 11 0 2 0;
#X connect 12 0 31 0;
#X connect 13 0 32 0;
#X connect 13 0 43 0;
#X connect 14 0 13 0;
#X connect 15 0 13 0;
#X connect 16 0 33 0;
#X connect 17 0 34 0;
#X connect 17 0 45 0;
#X connect 18 0 17 0;
#X connect 19 0 17 0;
#X connect 20 0 35 0;
#X connect 21 0 36 0;
#X connect 21 0 46 0;
#X connect 22 0 21 0;
#X connect 23 0 21 0;
#X connect 24 0 0 0;
#X connect 25 0 12 0;
#X connect 26 0 13 0;
#X connect 27 0 16 0;
#X connect 28 0 17 0;
#X connect 29 0 20 0;
#X connect 30 0 21 0;
#X connect 42 0 38 0;
#X connect 43 0 40 0;
#X connect 44 0 1 0;
#X connect 45 0 41 0;
#X connect 46 0 39 0;
#X restore 99 241 pd select_synth;
#X obj 291 135 inlet;
#X obj 291 178 unpack;
#X floatatom 99 369 5 0 0 0 - - -, f 5;
#X floatatom 217 369 5 0 0 0 - - -, f 5;
#X floatatom 331 370 5 0 0 0 - - -, f 5;
#X floatatom 426 371 5 0 0 0 - - -, f 5;
#X obj 402 247 s vel;
#X obj 120 412 r vel;
#X obj 99 449 pack;
#X obj 238 412 r vel;
#X obj 217 449 pack;
#X obj 352 412 r vel;
#X obj 331 448 pack;
#X obj 447 413 r vel;
#X obj 426 450 pack;
#X obj 99 490 outlet;
#X obj 217 489 outlet;
#X obj 331 489 outlet;
#X obj 426 491 outlet;
#X obj 358 179 s freq_ampl;
#X obj 223 246 zexy/demultiplex 1 2 3 4;
#X connect 0 0 1 0;
#X connect 0 0 22 1;
#X connect 1 0 4 0;
#X connect 1 1 5 0;
#X connect 1 2 6 0;
#X connect 1 3 7 0;
#X connect 2 0 3 0;
#X connect 2 0 21 0;
#X connect 3 0 22 0;
#X connect 3 1 8 0;
#X connect 4 0 10 0;
#X connect 5 0 12 0;
#X connect 6 0 14 0;
#X connect 7 0 16 0;
#X connect 9 0 10 1;
#X connect 10 0 17 0;
#X connect 11 0 12 1;
#X connect 12 0 18 0;
#X connect 13 0 14 1;
#X connect 14 0 19 0;
#X connect 15 0 16 1;
#X connect 16 0 20 0;
#X connect 22 0 4 0;
#X connect 22 1 5 0;
#X connect 22 2 6 0;
#X connect 22 3 7 0;
#X coords 0 -1 1 1 60 17 2 100 100;
#X restore 489 263 pd synth_selector;
#N canvas 511 345 450 300 env_fx 0;
#X obj 178 99 inlet~;
#X obj 178 239 outlet~;
#X connect 0 0 1 0;
#X coords 0 -1 1 1 19 19 2 100 100;
#X restore 507 554 pd env_fx;
#N canvas 358 304 450 297 toca 0;
#X obj 212 74 inlet~;
#X obj 213 224 dac~;
#X obj 95 154 bang~;
#X obj 95 224 tabwrite~ onda;
#X obj 251 141 r volume;
#X obj 213 170 *~;
#X msg 280 216 \; onda const 0;
#X obj 281 178 r end;
#X connect 0 0 5 0;
#X connect 2 0 3 0;
#X connect 4 0 5 1;
#X connect 5 0 3 0;
#X connect 5 0 1 0;
#X connect 5 0 1 1;
#X connect 7 0 6 0;
#X coords 0 -1 1 1 19 19 2 100 100;
#X restore 506 708 pd toca;
#X text 747 141 64;
#X text 747 187 512;
#X text 748 202 1024;
#X text 748 217 2048;
#X obj 730 142 vradio 15 1 0 6 b_size b_init empty 0 -8 0 10 -262144
-1 -1 0;
#X obj 953 152 expr pow(2 \, $f1) * 64;
#X obj 886 125 loadbang;
#X msg 886 157 0;
#X obj 953 124 r b_size;
#X obj 512 93 cnv 15 200 140 empty empty empty 20 12 0 14 -262144 -66577
0;
#X obj 886 188 s b_init;
#X msg 1011 229 \; onda resize \$1;
#X floatatom 1011 190 5 0 0 0 - - -, f 5;
#X obj 953 229 block~;
#X msg 953 189 set \$1;
#X text 872 54 Pseudo subpatch para alterar corretamente o tamanho
do vetor onda (usando dentro de um subpatch por algum motivo não funciona
direito). Somente o tamanho 64 funciona para ouvir por conta de bugs
com o dac~.;
#X text 725 101 Tamanho de bloco;
#X text 747 172 256;
#X text 747 157 128;
#X text 263 288 VCO;
#N canvas 1 63 902 657 env_selector 0;
#X obj 100 101 hradio 15 1 0 2 empty empty empty 0 -8 0 10 -261682
-258113 -1 0;
#X floatatom 591 479 5 0 0 0 - - -, f 5;
#X obj 349 498 outlet;
#X obj 591 505 outlet;
#X obj 222 82 inlet~;
#X obj 222 548 outlet~;
#X obj 641 151 == 0;
#X obj 608 188 spigot;
#X obj 555 150 bang;
#X obj 608 212 bng 15 250 50 0 empty empty empty 17 7 0 10 -262144
-1 -1;
#X obj 255 130 cyclone/peakamp~;
#X obj 298 81 bang~;
#X obj 480 74 r freq;
#X floatatom 603 117 5 0 0 0 - - -, f 5;
#N canvas 1 68 851 605 select_env 0;
#X obj 196 406 bng 15 250 50 0 empty empty empty 17 7 0 10 -262144
-1 -1;
#X obj 323 406 bng 15 250 50 0 empty empty empty 17 7 0 10 -262144
-1 -1;
#X obj 445 402 bng 15 250 50 0 empty empty empty 17 7 0 10 -262144
-1 -1;
#X obj 565 402 bng 15 250 50 0 empty empty empty 17 7 0 10 -262144
-1 -1;
#X obj 377 238 inlet;
#X obj 297 494 outlet;
#X obj 538 498 outlet;
#X msg 297 429 0;
#X msg 538 425 0;
#X obj 152 330 loadbang;
#X obj 377 310 s eb1;
#X obj 417 309 s eb2;
#X obj 377 276 route 0;
#X obj 445 366 r eb2;
#X obj 568 369 r eb1;
#X obj 322 373 r eb2;
#X obj 196 370 r eb1;
#X msg 445 447 \; 2_b color 13;
#X msg 565 446 \; 2_b color 4;
#X msg 196 451 \; adsr_b color 13;
#X msg 323 450 \; adsr_b color 4;
#X connect 0 0 19 0;
#X connect 1 0 20 0;
#X connect 1 0 7 0;
#X connect 2 0 17 0;
#X connect 3 0 18 0;
#X connect 3 0 8 0;
#X connect 4 0 12 0;
#X connect 7 0 5 0;
#X connect 8 0 6 0;
#X connect 9 0 0 0;
#X connect 12 0 10 0;
#X connect 12 1 11 0;
#X connect 13 0 2 0;
#X connect 14 0 3 0;
#X connect 15 0 1 0;
#X connect 16 0 0 0;
#X restore 349 350 pd select_env;
#X obj 474 354 zexy/demultiplex 1 2;
#X floatatom 349 468 5 0 0 0 - - -, f 5;
#X floatatom 268 186 5 0 0 0 - - -, f 5;
#X obj 474 251 pack;
#X obj 608 235 s note_off;
#X obj 100 35 loadbang;
#X msg 100 63 0;
#X connect 0 0 14 0;
#X connect 1 0 3 0;
#X connect 4 0 5 0;
#X connect 4 0 10 0;
#X connect 6 0 7 1;
#X connect 7 0 9 0;
#X connect 8 0 7 0;
#X connect 9 0 19 0;
#X connect 10 0 17 0;
#X connect 10 0 18 0;
#X connect 11 0 10 0;
#X connect 12 0 13 0;
#X connect 12 0 18 1;
#X connect 13 0 8 0;
#X connect 13 0 6 0;
#X connect 14 0 16 0;
#X connect 14 1 1 0;
#X connect 15 0 2 0;
#X connect 15 1 1 0;
#X connect 16 0 2 0;
#X connect 18 0 15 0;
#X connect 20 0 21 0;
#X connect 21 0 0 0;
#X coords 0 -1 1 1 30 17 2 100 100;
#X restore 500 409 pd env_selector;
#N canvas 1 69 1063 576 adsr 0;
#X obj 101 101 cnv 15 108 98 empty adsr_b empty 20 12 0 14 -258699
-66577 0;
#X obj 429 74 inlet;
#X obj 367 73 inlet~;
#X obj 627 138 loadbang;
#X obj 107 119 cnv 15 99 70 empty empty empty 20 12 0 14 -262144 -66577
0;
#N canvas 538 386 450 250 (subpatch) 0;
#X array adsr_shape 60 float 1;
#A 0 0 1 2 3 4 5 6 7 8 9 10 11 12 13 14 15 14 13 12 11 10 10 10 10
10 10 10 10 10 10 10 10 10 10 10 10 10 10 10 10 9.5 9 8.5 8 7.5 7 6.5
6 5.5 5 4.5 4 3.5 3 2.5 2 1.5 1 0.5 0;
#X coords 0 20 59 0 100 70 2 0 0;
#X restore 106 119 graph;
#X msg 627 184 \; adsr_shape read asdr.txt;
#X connect 3 0 6 0;
#X coords 0 -1 1 1 110 100 1 100 100;
#X restore 337 445 pd adsr;
#X text 41 76 1 Controle - Abrir Midi - Ouvir instrumento MIDI;
#N canvas 1 70 450 300 (subpatch) 0;
#X array onda 64 float 1;
#A 0 0 0 0 0 0 0 0 0 0 0 0 0 0 0 0 0 0 0 0 0 0 0 0 0 0 0 0 0 0 0 0
0 0 0 0 0 0 0 0 0 0 0 0 0 0 0 0 0 0 0 0 0 0 0 0 0 0 0 0 0 0 0 0 0;
#X coords 0 1 63 -1 200 140 1 0 0;
#X restore 512 93 graph;
#X connect 2 0 4 0;
#X connect 3 0 4 0;
#X connect 4 0 9 0;
#X connect 8 0 32 0;
#X connect 9 0 8 0;
#X connect 10 0 11 0;
#X connect 17 0 24 0;
#X connect 17 0 26 0;
#X connect 18 0 19 0;
#X connect 19 0 22 0;
#X connect 20 0 17 0;
#X connect 24 0 23 0;
#X connect 26 0 25 0;
#X connect 32 0 33 0;
#X connect 32 1 33 1;
#X coords 0 865 1 864 85 60 0;
