#N canvas 0 94 1307 865 10;
#X obj 407 184 cnv 15 210 150 empty empty Controle 20 12 0 14 -204800
-66577 0;
#X obj 224 263 cnv 15 600 150 empty empty Síntese 20 12 0 14 -262130
-66577 0;
#N canvas 813 176 576 646 Abre_MIDI 0;
#X obj 82 2 bng 15 250 50 0 empty empty empty 17 7 0 10 -4034 -1 -1
;
#X obj 82 230 unpack;
#X obj 156 146 bng 15 250 50 0 empty empty empty 17 7 0 10 -262144
-1 -1;
#X obj 82 33 openpanel;
#X msg 114 90 read \$1;
#X obj 82 59 t b s;
#X obj 82 120 cyclone/seq;
#X msg 156 166 0;
#X text 175 145 Final do sequenciamento.;
#X obj 82 200 cyclone/midiparse;
#X floatatom 82 252 5 0 0 0 - - -;
#X floatatom 142 252 5 0 0 0 - - -;
#X text 39 251 pitch;
#X text 182 250 velocity;
#X msg 37 91 stop;
#X obj 82 341 outlet;
#X obj 82 310 pack;
#X obj 82 277 mtof;
#X connect 0 0 3 0;
#X connect 1 0 10 0;
#X connect 1 1 11 0;
#X connect 2 0 7 0;
#X connect 3 0 5 0;
#X connect 4 0 6 0;
#X connect 5 0 6 0;
#X connect 5 1 4 0;
#X connect 6 0 9 0;
#X connect 6 1 2 0;
#X connect 9 0 1 0;
#X connect 10 0 17 0;
#X connect 11 0 16 1;
#X connect 14 0 6 0;
#X connect 14 0 2 0;
#X connect 16 0 15 0;
#X connect 17 0 16 0;
#X coords 0 -1 1 1 19 19 1 80 0;
#X restore 427 216 pd Abre_MIDI;
#N canvas 367 238 788 447 Ouve_MIDI 0;
#X obj 128 103 notein;
#X obj 128 227 mtof;
#X floatatom 128 200 5 0 0 0 - - -;
#X text 168 199 Número MIDI;
#X floatatom 128 132 5 0 0 0 - - -;
#X floatatom 188 132 5 0 0 0 - - -;
#X text 85 131 pitch;
#X text 228 130 velocity;
#X obj 128 313 outlet;
#X obj 128 285 spigot;
#X obj 102 102 tgl 15 0 empty empty empty 17 7 0 10 -101120 -1 -1 0
1;
#X obj 128 255 pack;
#X connect 0 0 4 0;
#X connect 0 1 5 0;
#X connect 1 0 11 0;
#X connect 2 0 1 0;
#X connect 4 0 2 0;
#X connect 5 0 11 1;
#X connect 9 0 8 0;
#X connect 10 0 9 1;
#X connect 11 0 9 0;
#X coords 0 -1 1 1 19 19 1 100 100;
#X restore 515 216 pd Ouve_MIDI;
#N canvas 800 273 839 546 ctrl_to_synth 0;
#X obj 100 100 cnv 15 19 19 empty empty empty 20 12 0 14 -233017 -66577
0;
#N canvas 305 210 1189 723 decide_input 0;
#X obj 111 72 inlet;
#X obj 204 72 inlet;
#X obj 156 272 outlet;
#X obj 145 123 unpack;
#X obj 144 171 == 0;
#X obj 111 205 spigot;
#X obj 237 171 > 0;
#X obj 204 205 spigot;
#X connect 0 0 5 0;
#X connect 1 0 3 0;
#X connect 1 0 7 0;
#X connect 3 1 4 0;
#X connect 3 1 6 0;
#X connect 4 0 5 1;
#X connect 5 0 2 0;
#X connect 6 0 7 1;
#X connect 7 0 2 0;
#X restore 169 152 pd decide_input;
#X obj 169 101 inlet;
#X obj 256 102 inlet;
#X obj 249 213 unpack;
#X obj 169 435 outlet;
#X obj 309 344 == 0;
#X obj 282 264 t f f;
#X obj 259 303 f 0;
#X obj 259 344 > 0;
#X obj 280 376 *;
#X obj 247 404 spigot;
#X obj 231 376 bang;
#X obj 247 436 outlet;
#X connect 1 0 4 0;
#X connect 1 0 5 0;
#X connect 2 0 1 0;
#X connect 3 0 1 1;
#X connect 4 1 7 0;
#X connect 6 0 10 1;
#X connect 7 0 8 0;
#X connect 7 1 6 0;
#X connect 8 0 9 0;
#X connect 9 0 10 0;
#X connect 10 0 11 1;
#X connect 11 0 13 0;
#X connect 12 0 11 0;
#X coords 0 -1 1 1 19 19 2 100 100;
#X restore 503 253 pd ctrl_to_synth;
#X connect 2 0 4 0;
#X connect 3 0 4 1;
#X coords 0 865 1 864 85 60 0;
