#N canvas 204 84 1134 865 10;
#X obj 274 71 cnv 15 500 200 empty empty Controle 20 12 0 14 -204800
-66577 0;
#X obj 224 263 cnv 15 600 150 empty empty Síntese 20 12 0 14 -262130
-66577 0;
#N canvas 842 303 576 646 Abre_MIDI 0;
#X obj 82 2 bng 15 250 50 0 empty empty empty 17 7 0 10 -4034 -1 -1
;
#X obj 249 208 bng 15 250 50 0 empty empty empty 17 7 0 10 -262144
-1 -1;
#X obj 175 17 openpanel;
#X msg 207 153 read \$1;
#X obj 175 183 cyclone/seq;
#X text 268 207 Final do sequenciamento.;
#X obj 175 263 cyclone/midiparse;
#X msg 82 191 stop;
#X obj 175 359 outlet;
#X obj 260 184 s end;
#X obj 82 22 bng 15 250 50 0 empty empty empty 17 7 0 10 -258113 -1
-1;
#X text 99 19 Stop;
#X obj 175 122 t b s b;
#X msg 248 107 \; pd dsp 1;
#X msg 310 257 \; pd dsp 0;
#X connect 0 0 2 0;
#X connect 1 0 14 0;
#X connect 2 0 12 0;
#X connect 3 0 4 0;
#X connect 4 0 6 0;
#X connect 4 1 1 0;
#X connect 4 1 9 0;
#X connect 6 0 8 0;
#X connect 7 0 4 0;
#X connect 7 0 1 0;
#X connect 7 0 9 0;
#X connect 10 0 7 0;
#X connect 12 0 4 0;
#X connect 12 1 3 0;
#X connect 12 2 13 0;
#X coords 0 -1 1 1 50 40 1 80 0;
#X restore 291 167 pd Abre_MIDI;
#N canvas 348 285 788 447 Ouve_MIDI 0;
#X obj 47 196 notein;
#X obj 47 326 outlet;
#X obj 47 298 spigot;
#X obj 102 102 tgl 15 0 empty empty empty 17 7 0 10 -101120 -1 -1 0
1;
#X obj 47 268 pack;
#X obj 185 255 spigot;
#X obj 218 220 == 0;
#X obj 189 294 bng 15 250 50 0 empty empty empty 17 7 0 10 -262144
-1 -1;
#X floatatom 102 224 5 0 0 0 - - -;
#X obj 189 328 s end;
#X obj 102 137 t b b b;
#X msg 161 124 \; pd dsp 1;
#X msg 247 293 \; pd dsp 0;
#X connect 0 0 4 0;
#X connect 0 1 4 1;
#X connect 2 0 1 0;
#X connect 3 0 10 0;
#X connect 4 0 2 0;
#X connect 5 0 7 0;
#X connect 6 0 5 1;
#X connect 7 0 9 0;
#X connect 7 0 12 0;
#X connect 8 0 2 1;
#X connect 10 0 8 0;
#X connect 10 1 5 0;
#X connect 10 1 6 0;
#X connect 10 2 11 0;
#X coords 0 -1 1 1 19 19 1 100 100;
#X restore 388 180 pd Ouve_MIDI;
#N canvas 881 363 839 546 ctrl_to_synth 0;
#X obj 100 100 cnv 15 19 19 empty empty empty 20 12 0 14 -233017 -66577
0;
#X obj 178 101 inlet;
#X obj 178 332 outlet;
#X obj 232 298 r end;
#X obj 232 331 outlet;
#X obj 178 157 unpack;
#X obj 211 193 / 127;
#X obj 178 228 pack;
#X obj 164 192 mtof;
#X connect 1 0 5 0;
#X connect 3 0 4 0;
#X connect 5 0 8 0;
#X connect 5 1 6 0;
#X connect 6 0 7 1;
#X connect 7 0 2 0;
#X connect 8 0 7 0;
#X coords 0 -1 1 1 19 19 2 100 100;
#X restore 508 249 pd ctrl_to_synth;
#X obj 224 414 cnv 15 600 150 empty empty Envelopamento 20 12 0 14
-261682 -66577 0;
#X obj 224 564 cnv 15 600 150 empty empty Efeitos 20 12 0 14 -232576
-66577 0;
#N canvas 1107 433 450 300 volume_slider 0;
#X obj 105 102 hsl 155 15 0.01 1 0 0 volume v_slider empty -2 -8 0
10 -204786 -1 -1 7622 1;
#X msg 117 159 \; v_slider 0.5;
#X obj 53 159 loadbang;
#X text 113 100 Volume;
#X connect 2 0 1 0;
#X coords 0 -1 1 1 164 19 1 100 100;
#X restore 292 120 pd volume_slider;
#N canvas 881 200 735 792 VCO 0;
#X obj 101 101 cnv 15 98 78 empty vco_b empty 20 12 0 14 -260818 -262144
0;
#X obj 103 102 vradio 15 1 0 5 vco_select empty empty 0 -8 0 10 -262130
-260097 -1 0;
#X text 138 131 Dentada;
#X text 134 146 Quadrada;
#X text 144 161 Pulso;
#X text 138 99 Senoide;
#X text 130 115 Triangular;
#X obj 280 103 inlet;
#X obj 222 246 demux 1 2 3 4 5;
#X obj 230 346 phasor~ 0;
#X obj 280 148 unpack;
#X obj 103 43 loadbang;
#X msg 103 69 0;
#N canvas 1 65 1905 986 triangle 0;
#X obj 299 149 inlet;
#X floatatom 299 211 5 0 0 0 - - -;
#X obj 347 275 * -1;
#X obj 229 326 phasor~;
#X msg 418 284 0;
#X obj 228 350 *~ 2;
#X obj 228 375 -~ 1;
#X obj 227 399 clip~ 0 1;
#X obj 347 326 phasor~;
#X obj 346 350 *~ 2;
#X obj 346 375 -~ 1;
#X obj 345 399 clip~ 0 1;
#X obj 297 441 +~;
#X obj 298 480 outlet~;
#X connect 0 0 1 0;
#X connect 1 0 2 0;
#X connect 1 0 3 0;
#X connect 2 0 8 0;
#X connect 3 0 5 0;
#X connect 4 0 3 1;
#X connect 4 0 8 1;
#X connect 5 0 6 0;
#X connect 6 0 7 0;
#X connect 7 0 12 0;
#X connect 8 0 9 0;
#X connect 9 0 10 0;
#X connect 10 0 11 0;
#X connect 11 0 12 1;
#X connect 12 0 13 0;
#X restore 152 345 pd triangle;
#N canvas 895 154 794 637 square 0;
#X obj 141 26 inlet;
#X floatatom 141 61 5 0 0 0 - - -;
#X obj 177 108 * -1;
#X obj 104 190 phasor~;
#X obj 177 190 phasor~;
#X obj 136 237 +~;
#X obj 137 269 -~ 1;
#X msg 202 147 0;
#X msg 243 148 0.5;
#X obj 230 108 loadbang;
#X obj 137 306 outlet~;
#X connect 0 0 1 0;
#X connect 1 0 2 0;
#X connect 1 0 3 0;
#X connect 2 0 4 0;
#X connect 3 0 5 0;
#X connect 4 0 5 1;
#X connect 5 0 6 0;
#X connect 6 0 10 0;
#X connect 7 0 3 1;
#X connect 8 0 4 1;
#X connect 9 0 8 0;
#X connect 9 0 7 0;
#X restore 306 345 pd square;
#N canvas 933 380 450 300 pulse 0;
#X obj 134 57 inlet;
#X obj 134 86 phasor~;
#X obj 135 115 -~ 0.99;
#X obj 135 179 *~ 100;
#X obj 135 147 clip~ 0 1;
#X obj 136 209 outlet~;
#X connect 0 0 1 0;
#X connect 1 0 2 0;
#X connect 2 0 4 0;
#X connect 3 0 5 0;
#X connect 4 0 3 0;
#X restore 378 345 pd pulse;
#X floatatom 298 192 5 0 0 0 - - -;
#X obj 98 346 osc~ 0;
#N canvas 191 230 1051 722 multiplexer 0;
#X obj 208 342 spigot~;
#X obj 247 276 r vco_select;
#X obj 350 344 spigot~;
#X obj 389 278 r vco_select;
#X obj 488 348 spigot~;
#X obj 527 282 r vco_select;
#X obj 620 347 spigot~;
#X obj 659 281 r vco_select;
#X obj 751 348 spigot~;
#X obj 790 282 r vco_select;
#X obj 488 475 outlet~;
#X obj 208 228 inlet~;
#X obj 350 230 inlet~;
#X obj 488 234 inlet~;
#X obj 620 233 inlet~;
#X obj 751 234 inlet~;
#X obj 247 303 == 0;
#X obj 389 305 == 1;
#X obj 527 309 == 2;
#X obj 659 308 == 3;
#X obj 790 309 == 4;
#X connect 0 1 10 0;
#X connect 1 0 16 0;
#X connect 2 1 10 0;
#X connect 3 0 17 0;
#X connect 4 1 10 0;
#X connect 5 0 18 0;
#X connect 6 1 10 0;
#X connect 7 0 19 0;
#X connect 8 1 10 0;
#X connect 9 0 20 0;
#X connect 11 0 0 0;
#X connect 12 0 2 0;
#X connect 13 0 4 0;
#X connect 14 0 6 0;
#X connect 15 0 8 0;
#X connect 16 0 0 1;
#X connect 17 0 2 1;
#X connect 18 0 4 1;
#X connect 19 0 6 1;
#X connect 20 0 8 1;
#X restore 220 413 pd multiplexer;
#X obj 220 519 outlet~;
#X msg 475 232 0;
#X obj 348 192 s vco_vel;
#X obj 221 477 *~;
#X obj 236 452 r vco_vel;
#X obj 475 193 r end;
#X connect 1 0 8 1;
#X connect 7 0 10 0;
#X connect 8 0 17 0;
#X connect 8 1 13 0;
#X connect 8 2 9 0;
#X connect 8 3 14 0;
#X connect 8 4 15 0;
#X connect 9 0 18 2;
#X connect 10 0 8 0;
#X connect 10 0 16 0;
#X connect 10 1 21 0;
#X connect 11 0 12 0;
#X connect 12 0 1 0;
#X connect 13 0 18 1;
#X connect 14 0 18 3;
#X connect 15 0 18 4;
#X connect 17 0 18 0;
#X connect 18 0 22 0;
#X connect 20 0 17 0;
#X connect 20 0 13 0;
#X connect 20 0 9 0;
#X connect 20 0 14 0;
#X connect 20 0 15 0;
#X connect 22 0 19 0;
#X connect 23 0 22 1;
#X connect 24 0 20 0;
#X coords 0 -1 1 1 100 80 2 100 100;
#X restore 264 304 pd VCO;
#N canvas 927 158 889 893 synth_selector 0;
#X obj 100 101 hradio 15 1 0 4 empty empty empty 0 -8 0 10 -262130
-260097 -1 0;
#X obj 259 243 demux 1 2 3 4;
#N canvas 1 65 1905 986 select_synth 0;
#X obj 377 276 route 0 1 2;
#X obj 196 406 bng 15 250 50 0 empty empty empty 17 7 0 10 -262144
-1 -1;
#X obj 323 406 bng 15 250 50 0 empty empty empty 17 7 0 10 -262144
-1 -1;
#X msg 323 450 \; vco_b color 5;
#X obj 377 310 s sb1;
#X obj 414 310 s sb2;
#X obj 451 310 s sb3;
#X obj 488 310 s sb4;
#X obj 196 370 r sb1;
#X obj 283 370 r sb2;
#X obj 323 370 r sb3;
#X obj 364 370 r sb4;
#X obj 445 402 bng 15 250 50 0 empty empty empty 17 7 0 10 -262144
-1 -1;
#X obj 565 402 bng 15 250 50 0 empty empty empty 17 7 0 10 -262144
-1 -1;
#X obj 565 366 r sb3;
#X obj 606 366 r sb4;
#X obj 689 404 bng 15 250 50 0 empty empty empty 17 7 0 10 -262144
-1 -1;
#X obj 809 404 bng 15 250 50 0 empty empty empty 17 7 0 10 -262144
-1 -1;
#X obj 769 368 r sb2;
#X obj 850 368 r sb4;
#X obj 934 404 bng 15 250 50 0 empty empty empty 17 7 0 10 -262144
-1 -1;
#X obj 1054 404 bng 15 250 50 0 empty empty empty 17 7 0 10 -262144
-1 -1;
#X obj 1054 368 r sb3;
#X obj 1095 368 r sb4;
#X obj 377 238 inlet;
#X obj 445 366 r sb2;
#X obj 525 366 r sb1;
#X obj 689 368 r sb3;
#X obj 809 368 r sb1;
#X obj 934 368 r sb4;
#X obj 1014 368 r sb1;
#X msg 445 447 \; 2_b color 104;
#X msg 565 446 \; 2_b color 5;
#X msg 689 449 \; 3_b color 104;
#X msg 809 448 \; 3_b color 5;
#X msg 934 449 \; 4_b color 104;
#X msg 1054 448 \; 4_b color 5;
#X msg 196 451 \; vco_b color 104;
#X obj 297 494 outlet;
#X obj 1026 503 outlet;
#X obj 538 498 outlet;
#X obj 782 502 outlet;
#X msg 297 429 0;
#X msg 538 425 0;
#X obj 152 330 loadbang;
#X msg 782 426 0;
#X msg 1026 429 0;
#X connect 0 0 4 0;
#X connect 0 1 5 0;
#X connect 0 2 6 0;
#X connect 0 3 7 0;
#X connect 1 0 37 0;
#X connect 2 0 3 0;
#X connect 2 0 42 0;
#X connect 8 0 1 0;
#X connect 9 0 2 0;
#X connect 10 0 2 0;
#X connect 11 0 2 0;
#X connect 12 0 31 0;
#X connect 13 0 32 0;
#X connect 13 0 43 0;
#X connect 14 0 13 0;
#X connect 15 0 13 0;
#X connect 16 0 33 0;
#X connect 17 0 34 0;
#X connect 17 0 45 0;
#X connect 18 0 17 0;
#X connect 19 0 17 0;
#X connect 20 0 35 0;
#X connect 21 0 36 0;
#X connect 21 0 46 0;
#X connect 22 0 21 0;
#X connect 23 0 21 0;
#X connect 24 0 0 0;
#X connect 25 0 12 0;
#X connect 26 0 13 0;
#X connect 27 0 16 0;
#X connect 28 0 17 0;
#X connect 29 0 20 0;
#X connect 30 0 21 0;
#X connect 42 0 38 0;
#X connect 43 0 40 0;
#X connect 44 0 1 0;
#X connect 45 0 41 0;
#X connect 46 0 39 0;
#X restore 99 241 pd select_synth;
#X obj 291 135 inlet;
#X obj 291 178 unpack;
#X floatatom 99 369 5 0 0 0 - - -;
#X floatatom 217 369 5 0 0 0 - - -;
#X floatatom 331 370 5 0 0 0 - - -;
#X floatatom 426 371 5 0 0 0 - - -;
#X obj 362 245 s vel;
#X obj 120 412 r vel;
#X obj 99 449 pack;
#X obj 238 412 r vel;
#X obj 217 449 pack;
#X obj 352 412 r vel;
#X obj 331 448 pack;
#X obj 447 413 r vel;
#X obj 426 450 pack;
#X obj 99 490 outlet;
#X obj 217 489 outlet;
#X obj 331 489 outlet;
#X obj 426 491 outlet;
#X obj 358 179 s freq_ampl;
#X connect 0 0 1 1;
#X connect 0 0 2 0;
#X connect 1 0 5 0;
#X connect 1 1 6 0;
#X connect 1 2 7 0;
#X connect 1 3 8 0;
#X connect 2 0 5 0;
#X connect 2 1 6 0;
#X connect 2 2 7 0;
#X connect 2 3 8 0;
#X connect 3 0 4 0;
#X connect 3 0 22 0;
#X connect 4 0 1 0;
#X connect 4 1 9 0;
#X connect 5 0 11 0;
#X connect 6 0 13 0;
#X connect 7 0 15 0;
#X connect 8 0 17 0;
#X connect 10 0 11 1;
#X connect 11 0 18 0;
#X connect 12 0 13 1;
#X connect 13 0 19 0;
#X connect 14 0 15 1;
#X connect 15 0 20 0;
#X connect 16 0 17 1;
#X connect 17 0 21 0;
#X coords 0 -1 1 1 60 17 2 100 100;
#X restore 486 260 pd synth_selector;
#N canvas 886 261 864 562 synth_env 0;
#X obj 220 80 inlet~;
#X obj 221 228 outlet~;
#X obj 350 227 outlet;
#X obj 350 83 r freq_ampl;
#X obj 460 135 unpack;
#X obj 524 230 == 0;
#X obj 491 267 spigot;
#X obj 438 229 bang;
#X obj 491 305 bng 15 250 50 0 empty empty empty 17 7 0 10 -262144
-1 -1;
#X floatatom 417 178 5 0 0 0 - - -;
#X floatatom 524 184 5 0 0 0 - - -;
#X obj 491 335 outlet;
#X connect 0 0 1 0;
#X connect 3 0 2 0;
#X connect 3 0 4 0;
#X connect 4 0 9 0;
#X connect 4 1 5 0;
#X connect 4 1 10 0;
#X connect 4 1 7 0;
#X connect 5 0 6 1;
#X connect 6 0 8 0;
#X connect 7 0 6 0;
#X connect 8 0 11 0;
#X coords 0 -1 1 1 19 19 2 100 100;
#X restore 506 405 pd synth_env;
#N canvas 511 345 450 300 env_fx 0;
#X obj 178 99 inlet~;
#X obj 178 239 outlet~;
#X connect 0 0 1 0;
#X coords 0 -1 1 1 19 19 2 100 100;
#X restore 507 554 pd env_fx;
#N canvas 1128 326 450 300 toca 0;
#X obj 212 74 inlet~;
#X obj 211 223 dac~;
#X obj 211 169 *~;
#X obj 249 140 r volume;
#X obj 93 223 tabwrite~ Onda;
#X obj 93 153 bang~;
#X connect 0 0 2 0;
#X connect 2 0 1 0;
#X connect 2 0 1 1;
#X connect 2 0 4 0;
#X connect 3 0 2 1;
#X connect 5 0 4 0;
#X coords 0 -1 1 1 19 19 2 100 100;
#X restore 506 708 pd toca;
#N canvas 1 61 450 300 (subpatch) 0;
#X array Onda 512 float 3;
#A 0 -0.240331 -0.233385 -0.226278 -0.219014 -0.211599 -0.204038 -0.196331
-0.188488 -0.180515 -0.172418 -0.164201 -0.15587 -0.147431 -0.138888
-0.130248 -0.121518 -0.112705 -0.103813 -0.09485 -0.08582 -0.0767297
-0.0675864 -0.0583965 -0.0491661 -0.0399018 -0.0306097 -0.0212959 -0.0119674
-0.00263069 0.0067078 0.0160417 0.0253645 0.03467 0.0439508 0.0532009
0.0624143 0.0715844 0.0807051 0.08977 0.0987728 0.107705 0.116563 0.125341
0.134031 0.142629 0.151129 0.159522 0.167804 0.175969 0.184012 0.191928
0.199712 0.207357 0.214857 0.222206 0.229401 0.236437 0.24331 0.250015
0.256547 0.262897 0.269065 0.275046 0.280837 0 0 0 0 0 0 0 0 0 0 0
0 0 0 0 0 0 0 0 0 0 0 0 0 0 0 0 0 0 0 0 0 0 0 0 0 0 0 0 0 0 0 0 0 0
0 0 0 0 0 0 0 0 0 0 0 0 0 0 0 0 0 0 0 0 0 0 0 0 0 0 0 0 0 0 0 0 0 0
0 0 0 0 0 0 0 0 0 0 0 0 0 0 0 0 0 0 0 0 0 0 0 0 0 0 0 0 0 0 0 0 0 0
0 0 0 0 0 0 0 0 0 0 0 0 0 0 0 0 0 0 0 0 0 0 0 0 0 0 0 0 0 0 0 0 0 0
0 0 0 0 0 0 0 0 0 0 0 0 0 0 0 0 0 0 0 0 0 0 0 0 0 0 0 0 0 0 0 0 0 0
0 0 0 0 0 0 0 0 0 0 0 0 0 0 0 0 0 0 0 0 0 0 0 0 0 0 0 0 0 0 0 0 0 0
0 0 0 0 0 0 0 0 0 0 0 0 0 0 0 0 0 0 0 0 0 0 0 0 0 0 0 0 0 0 0 0 0 0
0 0 0 0 0 0 0 0 0 0 0 0 0 0 0 0 0 0 0 0 0 0 0 0 0 0 0 0 0 0 0 0 0 0
0 0 0 0 0 0 0 0 0 0 0 0 0 0 0 0 0 0 0 0 0 0 0 0 0 0 0 0 0 0 0 0 0 0
0 0 0 0 0 0 0 0 0 0 0 0 0 0 0 0 0 0 0 0 0 0 0 0 0 0 0 0 0 0 0 0 0 0
0 0 0 0 0 0 0 0 0 0 0 0 0 0 0 0 0 0 0 0 0 0 0 0 0 0 0 0 0 0 0 0 0 0
0 0 0 0 0 0 0 0 0 0 0 0 0 0 0 0 0 0 0 0 0 0 0 0 0 0 0 0 0 0 0 0 0 0
0 0 0 0 0 0 0 0 0 0 0 0 0 0 0 0 0 0 0 0 0 0 0 0 0 0 0 0 0;
#X coords 0 1 512 -1 200 140 1 0 0;
#X restore 499 92 graph;
#N canvas 1250 278 450 304 array_control 0;
#X obj 102 101 vradio 15 1 0 6 empty empty empty 0 -8 0 10 -262144
-1 -1 3;
#X obj 140 124 expr pow(2 \, $f1) * 64;
#X obj 66 36 loadbang;
#X msg 66 65 0;
#X obj 184 154 t f f;
#X msg 184 220 set \$1;
#X obj 190 263 block~;
#X msg 267 190 \; Onda resize \$1;
#X floatatom 262 159 5 0 0 0 - - -;
#X connect 0 0 1 0;
#X connect 1 0 4 0;
#X connect 1 0 8 0;
#X connect 2 0 3 0;
#X connect 3 0 0 0;
#X connect 4 0 7 0;
#X connect 4 1 5 0;
#X connect 5 0 6 0;
#X coords 0 -1 1 1 19 93 2 100 100;
#X restore 703 122 pd array_control;
#X text 728 121 64;
#X text 728 137 128;
#X text 728 152 256;
#X text 728 167 512;
#X text 729 182 1024;
#X text 729 197 2048;
#X connect 2 0 4 0;
#X connect 3 0 4 0;
#X connect 4 0 9 0;
#X connect 8 0 10 0;
#X connect 9 0 8 0;
#X connect 10 0 11 0;
#X connect 11 0 12 0;
#X coords 0 865 1 864 85 60 0;
