#N canvas 497 80 1280 635 10;
#X obj 101 101 cnv 15 498 398 empty empty Síntese 5 12 0 14 -262130
-86853 0;
#N canvas 551 61 736 635 VCO 0;
#X obj 101 101 cnv 15 98 168 empty vco_b empty 20 12 0 14 -262131 -262144
0;
#X obj 103 102 vradio 15 1 0 5 vco_select empty empty 0 -8 0 10 -262130
-260097 -1 4;
#X text 138 131 Dentada;
#X text 134 146 Quadrada;
#X text 136 101 Senoide;
#X text 125 115 Triangular;
#X obj 392 71 inlet;
#X obj 392 116 unpack;
#X obj 103 43 loadbang;
#X msg 103 69 0;
#N canvas 96 214 1280 635 triangle 0;
#X obj 401 173 t b b;
#X obj 428 208 f 30;
#X floatatom 463 172 5 0 0 0 - - -, f 5;
#X text 505 173 number of harmonics;
#X obj 428 274 until;
#X obj 428 324 f 1;
#X obj 458 324 + 1;
#X msg 443 297 1;
#X obj 428 240 t f b b;
#X obj 447 453 list prepend;
#X obj 536 454 t l;
#X obj 401 489 list;
#X obj 401 521 list prepend sinesum 1024;
#X obj 657 583 list prepend set;
#X obj 657 605 list trim;
#X text 555 633 message sent -->;
#X msg 657 633 sinesum 1024 1 0 -0.111111 0 0.04 0 -0.0204082 0 0.0123457
0 -0.00826446 0 0.00591716 0 -0.00444444 0 0.00346021 0 -0.00277008
0 0.00226757 0 -0.00189036 0 0.0016 0 -0.00137174 0 0.00118906 0 -0.00104058
0 0.000918274 0 -0.000816327 0 0.00073046 0 -0.000657462 0 0.000594884
0 -0.000540833 0 0.000493827 0 -0.000452694 0 0.000416493 0 -0.000384468
0 0.000355999 0 -0.000330579 0 0.000307787 0 -0.000287274 0 0.000268745
0 -0.000251953 0 0.000236686 0 -0.000222767 0 0.00021004 0 -0.000198373
0 0.000187652 0 -0.000177778 0 0.000168663 0 -0.000160231 0 0.000152416
0 -0.000145159 0;
#X obj 428 425 expr 1/(pow($f1 \, 2))*$f2;
#X obj 470 402 tabread factor;
#X obj 470 358 - 1;
#X obj 470 379 mod 4;
#X obj 428 351 t f f;
#X msg 661 456 1 0 -1 0;
#X obj 665 425 loadbang;
#X obj 584 483 array set factor;
#N canvas 0 50 450 278 (subpatch) 0;
#X array factor 4 float 1;
#A 0 1 0 -1 0;
#X coords 0 1 3 -1 200 140 1 0 0;
#X restore 771 388 graph;
#X obj 401 589 list trim;
#X msg 401 649 normalize;
#X obj 412 688 s forma_vco;
#X obj 331 690 phasor~;
#X obj 331 716 *~ 1024;
#X obj 331 745 tabread4~ forma_vco;
#X obj 331 773 outlet~;
#X obj 388 18 inlet;
#X obj 401 137 expr 22050/$f1;
#X obj 464 61 != 0;
#X obj 429 103 spigot;
#X obj 401 616 t b a;
#X text 517 367 lê o fator correto para multiplicar a expressão;
#X text 164 744 forma a onda lendo a tabela;
#X connect 0 0 11 0;
#X connect 0 1 1 0;
#X connect 1 0 8 0;
#X connect 2 0 1 1;
#X connect 4 0 5 0;
#X connect 5 0 6 0;
#X connect 5 0 21 0;
#X connect 6 0 5 1;
#X connect 7 0 5 1;
#X connect 8 0 4 0;
#X connect 8 1 7 0;
#X connect 8 2 9 1;
#X connect 9 0 10 0;
#X connect 9 0 11 1;
#X connect 10 0 9 1;
#X connect 11 0 12 0;
#X connect 12 0 13 0;
#X connect 12 0 26 0;
#X connect 13 0 14 0;
#X connect 14 0 16 0;
#X connect 17 0 9 0;
#X connect 18 0 17 1;
#X connect 19 0 20 0;
#X connect 20 0 18 0;
#X connect 21 0 17 0;
#X connect 21 1 19 0;
#X connect 22 0 24 0;
#X connect 23 0 22 0;
#X connect 26 0 37 0;
#X connect 27 0 28 0;
#X connect 29 0 30 0;
#X connect 30 0 31 0;
#X connect 31 0 32 0;
#X connect 33 0 35 0;
#X connect 33 0 35 1;
#X connect 33 0 36 0;
#X connect 33 0 29 0;
#X connect 34 0 2 0;
#X connect 34 0 0 0;
#X connect 35 0 36 1;
#X connect 36 0 34 0;
#X connect 37 0 27 0;
#X connect 37 1 28 0;
#X restore 299 324 pd triangle;
#N canvas 181 235 1051 722 multiplexer 0;
#X obj 327 402 outlet~;
#X obj 139 157 inlet~;
#X obj 165 208 r vco_select;
#X obj 165 245 == 0;
#X obj 138 300 *~;
#X obj 303 161 inlet~;
#X obj 329 212 r vco_select;
#X obj 302 304 *~;
#X obj 448 159 inlet~;
#X obj 474 210 r vco_select;
#X obj 447 302 *~;
#X obj 590 163 inlet~;
#X obj 616 214 r vco_select;
#X obj 589 306 *~;
#X obj 728 156 inlet~;
#X obj 754 207 r vco_select;
#X obj 727 299 *~;
#X obj 329 249 == 1;
#X obj 474 247 == 2;
#X obj 616 251 == 3;
#X obj 754 244 == 4;
#X floatatom 204 315 5 0 0 0 - - -, f 5;
#X obj 182 267 sel 0;
#X msg 182 295 0;
#X obj 341 277 sel 0;
#X msg 341 305 0;
#X obj 487 274 sel 0;
#X msg 487 302 0;
#X obj 629 279 sel 0;
#X msg 629 307 0;
#X obj 767 270 sel 0;
#X msg 767 298 0;
#X connect 1 0 4 0;
#X connect 2 0 3 0;
#X connect 3 0 4 1;
#X connect 3 0 21 0;
#X connect 3 0 22 0;
#X connect 4 0 0 0;
#X connect 5 0 7 0;
#X connect 6 0 17 0;
#X connect 7 0 0 0;
#X connect 8 0 10 0;
#X connect 9 0 18 0;
#X connect 10 0 0 0;
#X connect 11 0 13 0;
#X connect 12 0 19 0;
#X connect 13 0 0 0;
#X connect 14 0 16 0;
#X connect 15 0 20 0;
#X connect 16 0 0 0;
#X connect 17 0 7 1;
#X connect 17 0 24 0;
#X connect 18 0 10 1;
#X connect 18 0 26 0;
#X connect 19 0 13 1;
#X connect 19 0 28 0;
#X connect 20 0 16 1;
#X connect 20 0 30 0;
#X connect 22 0 23 0;
#X connect 23 0 4 1;
#X connect 24 0 25 0;
#X connect 25 0 7 1;
#X connect 26 0 27 0;
#X connect 27 0 10 1;
#X connect 28 0 29 0;
#X connect 29 0 13 1;
#X connect 30 0 31 0;
#X connect 31 0 16 1;
#X restore 359 484 pd multiplexer;
#X obj 359 590 outlet~;
#X obj 620 185 r end;
#X obj 352 223 zexy/demultiplex 1 2 3 4 5;
#X obj 109 196 cnv 15 80 60 empty empty empty 20 12 0 14 -262144 -66577
0;
#N canvas 1 123 450 250 (subpatch) 0;
#X array forma_vco 1027 float 1;
#A 0 -0.00613588 0 0.00613588 0.0122715 0.0184067 0.0245412 0.0306748
0.0368072 0.0429382 0.0490676 0.0551952 0.0613207 0.0674439 0.0735645
0.0796824 0.0857972 0.0919089 0.0980171 0.104122 0.110222 0.116319
0.122411 0.128498 0.134581 0.140658 0.14673 0.152797 0.158858 0.164913
0.170962 0.177004 0.18304 0.189069 0.19509 0.201104 0.207111 0.21311
0.219101 0.225084 0.231058 0.237023 0.24298 0.248927 0.254865 0.260794
0.266713 0.272621 0.278519 0.284407 0.290284 0.296151 0.302006 0.307849
0.313681 0.319502 0.32531 0.331106 0.33689 0.34266 0.348418 0.354163
0.359895 0.365613 0.371317 0.377007 0.382683 0.388345 0.393992 0.399624
0.405241 0.410843 0.416429 0.422 0.427555 0.433093 0.438616 0.444122
0.449611 0.455083 0.460538 0.465976 0.471396 0.476799 0.482183 0.48755
0.492898 0.498227 0.503538 0.50883 0.514102 0.519356 0.524589 0.529803
0.534997 0.540171 0.545325 0.550458 0.55557 0.560661 0.565731 0.57078
0.575808 0.580814 0.585797 0.590759 0.595699 0.600616 0.605511 0.610382
0.615231 0.620057 0.624859 0.629638 0.634393 0.639124 0.643831 0.648514
0.653172 0.657806 0.662415 0.666999 0.671558 0.676092 0.680601 0.685083
0.68954 0.693971 0.698376 0.702754 0.707106 0.711432 0.71573 0.720002
0.724247 0.728464 0.732654 0.736816 0.740951 0.745057 0.749136 0.753186
0.757208 0.761202 0.765167 0.769103 0.77301 0.776888 0.780737 0.784556
0.788346 0.792106 0.795836 0.799537 0.803207 0.806847 0.810457 0.814036
0.817584 0.821102 0.824589 0.828045 0.831469 0.834862 0.838224 0.841555
0.844853 0.84812 0.851355 0.854558 0.857728 0.860866 0.863972 0.867046
0.870087 0.873095 0.87607 0.879012 0.881921 0.884797 0.887639 0.890448
0.893224 0.895966 0.898674 0.901348 0.903989 0.906595 0.909168 0.911706
0.914209 0.916679 0.919113 0.921514 0.923879 0.92621 0.928506 0.930767
0.932992 0.935183 0.937339 0.939459 0.941544 0.943593 0.945607 0.947585
0.949528 0.951435 0.953306 0.955141 0.95694 0.958703 0.96043 0.962121
0.963776 0.965394 0.966976 0.968522 0.970031 0.971504 0.97294 0.974339
0.975702 0.977028 0.978317 0.97957 0.980785 0.981964 0.983105 0.98421
0.985277 0.986308 0.987301 0.988257 0.989176 0.990058 0.990902 0.99171
0.992479 0.993212 0.993907 0.994564 0.995185 0.995767 0.996312 0.99682
0.99729 0.997723 0.998118 0.998475 0.998795 0.999078 0.999322 0.999529
0.999699 0.999831 0.999925 0.999981 1 0.999981 0.999925 0.999831 0.999699
0.999529 0.999322 0.999078 0.998796 0.998476 0.998118 0.997723 0.997291
0.99682 0.996313 0.995768 0.995185 0.994565 0.993907 0.993212 0.99248
0.99171 0.990903 0.990058 0.989177 0.988258 0.987302 0.986308 0.985278
0.98421 0.983106 0.981964 0.980786 0.97957 0.978318 0.977028 0.975702
0.97434 0.97294 0.971504 0.970032 0.968522 0.966977 0.965395 0.963776
0.962122 0.960431 0.958704 0.956941 0.955142 0.953306 0.951436 0.949529
0.947586 0.945608 0.943594 0.941545 0.93946 0.93734 0.935184 0.932993
0.930768 0.928507 0.926211 0.92388 0.921515 0.919115 0.91668 0.91421
0.911707 0.909169 0.906596 0.90399 0.90135 0.898675 0.895967 0.893225
0.89045 0.88764 0.884798 0.881922 0.879013 0.876071 0.873096 0.870088
0.867047 0.863974 0.860868 0.85773 0.854559 0.851356 0.848121 0.844855
0.841556 0.838226 0.834864 0.831471 0.828046 0.82459 0.821104 0.817586
0.814037 0.810458 0.806849 0.803209 0.799538 0.795838 0.792108 0.788348
0.784558 0.780738 0.77689 0.773012 0.769105 0.765168 0.761204 0.75721
0.753188 0.749138 0.745059 0.740952 0.736818 0.732656 0.728466 0.724248
0.720004 0.715732 0.711434 0.707108 0.702756 0.698378 0.693973 0.689542
0.685085 0.680602 0.676094 0.67156 0.667001 0.662417 0.657808 0.653174
0.648516 0.643833 0.639126 0.634395 0.62964 0.624861 0.620059 0.615233
0.610384 0.605513 0.600618 0.595701 0.590761 0.5858 0.580816 0.57581
0.570782 0.565734 0.560663 0.555572 0.55046 0.545327 0.540173 0.534999
0.529805 0.524592 0.519358 0.514105 0.508832 0.50354 0.49823 0.4929
0.487552 0.482186 0.476801 0.471399 0.465978 0.460541 0.455086 0.449613
0.444124 0.438618 0.433096 0.427557 0.422002 0.416432 0.410845 0.405243
0.399626 0.393994 0.388347 0.382686 0.37701 0.371319 0.365615 0.359897
0.354166 0.348421 0.342663 0.336892 0.331109 0.325313 0.319504 0.313684
0.307852 0.302008 0.296153 0.290287 0.28441 0.278522 0.272624 0.266715
0.260796 0.254868 0.24893 0.242983 0.237026 0.231061 0.225086 0.219104
0.213113 0.207114 0.201107 0.195093 0.189071 0.183042 0.177007 0.170964
0.164916 0.158861 0.1528 0.146733 0.140661 0.134583 0.128501 0.122413
0.116321 0.110225 0.104124 0.0980197 0.0919115 0.0857999 0.079685 0.0735671
0.0674465 0.0613233 0.0551978 0.0490703 0.0429409 0.0368098 0.0306774
0.0245439 0.0184094 0.0122742 0.00613853 2.65359e-06 -0.00613323 -0.0122689
-0.0184041 -0.0245386 -0.0306721 -0.0368045 -0.0429356 -0.049065 -0.0551925
-0.061318 -0.0674412 -0.0735619 -0.0796797 -0.0857946 -0.0919062 -0.0980144
-0.104119 -0.110219 -0.116316 -0.122408 -0.128495 -0.134578 -0.140655
-0.146728 -0.152794 -0.158855 -0.16491 -0.170959 -0.177001 -0.183037
-0.189066 -0.195088 -0.201102 -0.207109 -0.213108 -0.219098 -0.225081
-0.231055 -0.237021 -0.242977 -0.248925 -0.254863 -0.260791 -0.26671
-0.272619 -0.278517 -0.284405 -0.290282 -0.296148 -0.302003 -0.307847
-0.313679 -0.319499 -0.325308 -0.331104 -0.336887 -0.342658 -0.348416
-0.354161 -0.359892 -0.36561 -0.371314 -0.377005 -0.382681 -0.388342
-0.393989 -0.399621 -0.405239 -0.41084 -0.416427 -0.421998 -0.427552
-0.433091 -0.438614 -0.444119 -0.449609 -0.455081 -0.460536 -0.465974
-0.471394 -0.476797 -0.482181 -0.487547 -0.492896 -0.498225 -0.503536
-0.508827 -0.5141 -0.519353 -0.524587 -0.529801 -0.534995 -0.540169
-0.545322 -0.550455 -0.555568 -0.560659 -0.565729 -0.570778 -0.575806
-0.580811 -0.585795 -0.590757 -0.595697 -0.600614 -0.605509 -0.61038
-0.615229 -0.620055 -0.624857 -0.629636 -0.634391 -0.639122 -0.643829
-0.648512 -0.65317 -0.657804 -0.662413 -0.666997 -0.671557 -0.67609
-0.680599 -0.685081 -0.689538 -0.693969 -0.698374 -0.702752 -0.707104
-0.71143 -0.715729 -0.72 -0.724245 -0.728462 -0.732652 -0.736814 -0.740949
-0.745056 -0.749134 -0.753185 -0.757207 -0.7612 -0.765165 -0.769101
-0.773008 -0.776886 -0.780735 -0.784554 -0.788344 -0.792104 -0.795835
-0.799535 -0.803205 -0.806846 -0.810455 -0.814034 -0.817583 -0.821101
-0.824587 -0.828043 -0.831468 -0.834861 -0.838223 -0.841553 -0.844852
-0.848118 -0.851353 -0.854556 -0.857727 -0.860865 -0.863971 -0.867045
-0.870085 -0.873093 -0.876068 -0.879011 -0.88192 -0.884795 -0.887638
-0.890447 -0.893223 -0.895965 -0.898673 -0.901347 -0.903988 -0.906594
-0.909166 -0.911705 -0.914208 -0.916678 -0.919112 -0.921513 -0.923878
-0.926209 -0.928505 -0.930766 -0.932992 -0.935182 -0.937338 -0.939458
-0.941543 -0.943592 -0.945606 -0.947584 -0.949527 -0.951434 -0.953305
-0.95514 -0.956939 -0.958702 -0.960429 -0.96212 -0.963775 -0.965393
-0.966976 -0.968521 -0.97003 -0.971503 -0.972939 -0.974339 -0.975701
-0.977027 -0.978317 -0.979569 -0.980785 -0.981963 -0.983105 -0.984209
-0.985277 -0.986307 -0.987301 -0.988257 -0.989176 -0.990058 -0.990902
-0.991709 -0.992479 -0.993212 -0.993907 -0.994564 -0.995184 -0.995767
-0.996312 -0.99682 -0.99729 -0.997723 -0.998118 -0.998475 -0.998795
-0.999078 -0.999322 -0.999529 -0.999699 -0.99983 -0.999925 -0.999981
-1 -0.999981 -0.999925 -0.999831 -0.999699 -0.99953 -0.999323 -0.999078
-0.998796 -0.998476 -0.998118 -0.997723 -0.997291 -0.996821 -0.996313
-0.995768 -0.995185 -0.994565 -0.993907 -0.993212 -0.99248 -0.99171
-0.990903 -0.990059 -0.989177 -0.988258 -0.987302 -0.986309 -0.985278
-0.984211 -0.983106 -0.981965 -0.980786 -0.979571 -0.978318 -0.977029
-0.975703 -0.97434 -0.972941 -0.971505 -0.970032 -0.968523 -0.966978
-0.965396 -0.963777 -0.962123 -0.960432 -0.958705 -0.956942 -0.955142
-0.953307 -0.951436 -0.94953 -0.947587 -0.945609 -0.943595 -0.941545
-0.939461 -0.93734 -0.935185 -0.932994 -0.930769 -0.928508 -0.926212
-0.923881 -0.921516 -0.919116 -0.916681 -0.914212 -0.911708 -0.90917
-0.906598 -0.903991 -0.901351 -0.898676 -0.895968 -0.893226 -0.890451
-0.887642 -0.884799 -0.881923 -0.879014 -0.876072 -0.873097 -0.870089
-0.867048 -0.863975 -0.860869 -0.857731 -0.85456 -0.851358 -0.848123
-0.844856 -0.841557 -0.838227 -0.834865 -0.831472 -0.828048 -0.824592
-0.821105 -0.817587 -0.814039 -0.81046 -0.80685 -0.80321 -0.79954 -0.79584
-0.792109 -0.788349 -0.784559 -0.78074 -0.776891 -0.773013 -0.769106
-0.76517 -0.761205 -0.757212 -0.75319 -0.749139 -0.745061 -0.740954
-0.73682 -0.732657 -0.728468 -0.72425 -0.720006 -0.715734 -0.711435
-0.70711 -0.702758 -0.69838 -0.693975 -0.689544 -0.685087 -0.680604
-0.676096 -0.671562 -0.667003 -0.662419 -0.65781 -0.653176 -0.648518
-0.643835 -0.639128 -0.634397 -0.629642 -0.624863 -0.620061 -0.615235
-0.610387 -0.605515 -0.60062 -0.595703 -0.590764 -0.585802 -0.580818
-0.575812 -0.570785 -0.565736 -0.560666 -0.555574 -0.550462 -0.545329
-0.540176 -0.535002 -0.529808 -0.524594 -0.51936 -0.514107 -0.508834
-0.503543 -0.498232 -0.492902 -0.487554 -0.482188 -0.476804 -0.471401
-0.465981 -0.460543 -0.455088 -0.449616 -0.444127 -0.438621 -0.433098
-0.42756 -0.422005 -0.416434 -0.410848 -0.405246 -0.399629 -0.393997
-0.38835 -0.382688 -0.377012 -0.371322 -0.365618 -0.3599 -0.354168
-0.348423 -0.342665 -0.336895 -0.331111 -0.325315 -0.319507 -0.313687
-0.307854 -0.302011 -0.296156 -0.29029 -0.284412 -0.278525 -0.272626
-0.266718 -0.260799 -0.254871 -0.248933 -0.242985 -0.237029 -0.231063
-0.225089 -0.219106 -0.213115 -0.207116 -0.20111 -0.195095 -0.189074
-0.183045 -0.177009 -0.170967 -0.164918 -0.158863;
#A 1000 -0.152802 -0.146736 -0.140663 -0.134586 -0.128503 -0.122416
-0.116324 -0.110227 -0.104127 -0.0980223 -0.0919142 -0.0858025 -0.0796877
-0.0735698 -0.0674492 -0.061326 -0.0552005 -0.0490729 -0.0429435 -0.0368125
-0.0306801 -0.0245465 -0.018412 -0.0122768 -0.00614119 -5.30718e-06
0.00613057;
#X coords 0 1 1026 -1 80 60 1 0 0;
#X restore 109 196 graph;
#X floatatom 392 173 5 0 0 0 - - -, f 5;
#N canvas 1 58 656 464 sinusoid 0;
#X obj 289 68 inlet;
#X obj 290 149 osc~;
#X obj 311 281 outlet~;
#X msg 398 157 \; forma_vco sinesum 1024 1;
#X msg 411 85 loadbang;
#X connect 0 0 1 0;
#X connect 0 0 3 0;
#X connect 1 0 2 0;
#X connect 4 0 3 0;
#X restore 211 324 pd sinusoid;
#N canvas 1 57 1009 619 sawtooth 0;
#X obj 106 161 t b b;
#X floatatom 168 160 5 0 0 0 - - -, f 5;
#X text 210 161 number of harmonics;
#X obj 133 262 until;
#X obj 133 312 f 1;
#X obj 163 312 + 1;
#X msg 148 285 1;
#X obj 133 228 t f b b;
#X obj 133 380 list prepend;
#X obj 229 380 t l;
#X obj 106 417 list;
#X obj 106 449 list prepend sinesum 1024;
#X obj 106 497 list trim;
#X msg 106 557 normalize;
#X obj 362 511 list prepend set;
#X obj 362 533 list trim;
#X msg 362 561 sinesum 1024 1 0.5 0.333333 0.25 0.2 0.166667 0.142857
0.125 0.111111 0.1 0.0909091 0.0833333 0.0769231 0.0714286 0.0666667
0.0625 0.0588235 0.0555556 0.0526316 0.05 0.047619 0.0454545 0.0434783
0.0416667 0.04 0.0384615 0.037037 0.0357143 0.0344828 0.0333333 0.0322581
0.03125 0.030303 0.0294118 0.0285714 0.0277778 0.027027 0.0263158 0.025641
0.025 0.0243902 0.0238095 0.0232558 0.0227273 0.0222222 0.0217391 0.0212766
0.0208333 0.0204082 0.02 0.0196078 0.0192308 0.0188679 0.0185185 0.0181818
0.0178571 0.0175439 0.0172414 0.0169492 0.0166667 0.0163934 0.016129
0.015873 0.015625 0.0153846 0.0151515 0.0149254 0.0147059 0.0144928
0.0142857 0.0140845 0.0138889 0.0136986 0.0135135 0.0133333 0.0131579
0.012987 0.0128205 0.0126582 0.0125 0.0123457 0.0121951 0.0120482 0.0119048
0.0117647 0.0116279 0.0114943 0.0113636 0.011236 0.0111111 0.010989
0.0108696 0.0107527 0.0106383 0.0105263 0.0104167 0.0103093 0.0102041
0.010101 0.01 0.00990099 0.00980392 0.00970874 0.00961538 0.00952381
0.00943396 0.00934579 0.00925926 0.00917431 0.00909091 0.00900901 0.00892857
0.00884956 0.00877193 0.00869565 0.00862069 0.00854701 0.00847458 0.00840336
0.00833333 0.00826446 0.00819672 0.00813008 0.00806452 0.008 0.00793651
;
#X text 260 561 message sent -->;
#X obj 106 122 expr 22050/$f1;
#X obj 117 596 s forma_vco;
#X obj 36 598 phasor~;
#X obj 36 624 *~ 1024;
#X obj 36 653 tabread4~ forma_vco;
#X obj 36 681 outlet~;
#X obj 133 196 f 0;
#X obj 133 342 expr 1/$f1;
#X obj 69 -2 inlet;
#X obj 145 41 != 0;
#X obj 110 83 spigot;
#X obj 106 524 t b a;
#X connect 0 0 10 0;
#X connect 0 1 24 0;
#X connect 1 0 24 1;
#X connect 3 0 4 0;
#X connect 4 0 5 0;
#X connect 4 0 25 0;
#X connect 5 0 4 1;
#X connect 6 0 4 1;
#X connect 7 0 3 0;
#X connect 7 1 6 0;
#X connect 7 2 8 1;
#X connect 8 0 9 0;
#X connect 8 0 10 1;
#X connect 9 0 8 1;
#X connect 10 0 11 0;
#X connect 11 0 12 0;
#X connect 11 0 14 0;
#X connect 12 0 29 0;
#X connect 13 0 19 0;
#X connect 14 0 15 0;
#X connect 15 0 16 0;
#X connect 18 0 1 0;
#X connect 18 0 0 0;
#X connect 20 0 21 0;
#X connect 21 0 22 0;
#X connect 22 0 23 0;
#X connect 24 0 7 0;
#X connect 25 0 8 0;
#X connect 26 0 27 0;
#X connect 26 0 27 1;
#X connect 26 0 28 0;
#X connect 26 0 20 0;
#X connect 27 0 28 1;
#X connect 28 0 18 0;
#X connect 29 0 13 0;
#X connect 29 1 19 0;
#X restore 376 324 pd sawtooth;
#N canvas 599 117 1012 687 square 0;
#X obj 106 161 t b b;
#X floatatom 168 160 5 0 0 0 - - -, f 5;
#X text 210 161 number of harmonics;
#X obj 133 262 until;
#X obj 133 312 f 1;
#X obj 163 312 + 1;
#X msg 148 285 1;
#X obj 133 228 t f b b;
#X obj 133 380 list prepend;
#X obj 229 380 t l;
#X obj 106 417 list;
#X obj 106 449 list prepend sinesum 1024;
#X obj 106 497 list trim;
#X msg 106 557 normalize;
#X obj 362 511 list prepend set;
#X obj 362 533 list trim;
#X msg 362 561 sinesum 1024 2 0 0.666667 0 0.4 0 0.285714 0 0.222222
0 0.181818 0 0.153846 0 0.133333 0 0.117647 0 0.105263 0 0.0952381
0 0.0869565 0 0.08 0 0.0740741 0 0.0689655 0 0.0645161 0 0.0606061
0 0.0571429 0 0.0540541 0 0.0512821 0 0.0487805 0 0.0465116 0 0.0444444
0 0.0425532 0 0.0408163 0 0.0392157 0 0.0377358 0 0.0363636 0 0.0350877
0 0.0338983 0 0.0327869 0 0.031746 0 0.0307692 0 0.0298507 0 0.0289855
0 0.028169 0 0.0273973 0 0.0266667 0 0.025974 0 0.0253165 0 0.0246914
0 0.0240964 0 0.0235294 0 0.0229885 0 0.0224719;
#X text 260 561 message sent -->;
#X obj 117 596 s forma_vco;
#X obj 36 598 phasor~;
#X obj 36 624 *~ 1024;
#X obj 36 653 tabread4~ forma_vco;
#X obj 36 681 outlet~;
#X obj 133 196 f 0;
#X obj 52 10 inlet;
#X obj 102 113 expr 22050/$f1;
#X obj 165 37 != 0;
#X obj 130 79 spigot;
#X obj 106 524 t b a;
#X obj 133 342 expr 1/$f1*(1 - pow(-1 \, $f1));
#X connect 0 0 10 0;
#X connect 0 1 23 0;
#X connect 1 0 23 1;
#X connect 3 0 4 0;
#X connect 4 0 5 0;
#X connect 4 0 29 0;
#X connect 5 0 4 1;
#X connect 6 0 4 1;
#X connect 7 0 3 0;
#X connect 7 1 6 0;
#X connect 7 2 8 1;
#X connect 8 0 9 0;
#X connect 8 0 10 1;
#X connect 9 0 8 1;
#X connect 10 0 11 0;
#X connect 11 0 12 0;
#X connect 11 0 14 0;
#X connect 12 0 28 0;
#X connect 13 0 18 0;
#X connect 14 0 15 0;
#X connect 15 0 16 0;
#X connect 19 0 20 0;
#X connect 20 0 21 0;
#X connect 21 0 22 0;
#X connect 23 0 7 0;
#X connect 24 0 26 0;
#X connect 24 0 26 1;
#X connect 24 0 27 0;
#X connect 24 0 19 0;
#X connect 25 0 1 0;
#X connect 25 0 0 0;
#X connect 26 0 27 1;
#X connect 27 0 25 0;
#X connect 28 0 13 0;
#X connect 28 1 18 0;
#X connect 29 0 8 0;
#X restore 453 324 pd square;
#X msg 620 220 0;
#N canvas 1 59 1280 635 pincers 0;
#X obj 106 81 t b b;
#X obj 133 116 f 30;
#X floatatom 168 80 5 0 0 0 - - -, f 5;
#X text 210 81 number of harmonics;
#X obj 133 182 until;
#X obj 133 232 f 1;
#X obj 163 232 + 1;
#X msg 148 205 1;
#X obj 133 148 t f b b;
#X obj 152 361 list prepend;
#X obj 241 362 t l;
#X obj 106 397 list;
#X obj 106 429 list prepend sinesum 1024;
#X obj 362 491 list prepend set;
#X obj 362 513 list trim;
#X text 260 541 message sent -->;
#X msg 362 541 sinesum 1024 1 0 -0.333333 0 0.2 0 -0.142857 0 0.111111
0 -0.0909091 0 0.0769231 0 -0.0666667 0 0.0588235 0 -0.0526316 0 0.047619
0 -0.0434783 0 0.04 0 -0.037037 0 0.0344828 0 -0.0322581 0 0.030303
0 -0.0285714 0 0.027027 0 -0.025641 0 0.0243902 0 -0.0232558 0 0.0222222
0 -0.0212766 0 0.0204082 0 -0.0196078 0 0.0188679 0 -0.0181818 0 0.0175439
0 -0.0169492 0 0.0163934 0 -0.015873 0 0.0153846 0 -0.0149254 0 0.0144928
0 -0.0140845 0 0.0136986 0 -0.0133333;
#X obj 175 266 - 1;
#X obj 175 287 mod 4;
#X obj 133 259 t f f;
#X obj 370 333 loadbang;
#N canvas 0 50 450 278 (subpatch) 0;
#X array p_factor 4 float 1;
#A 0 1 0 -1 0;
#X coords 0 1 3 -1 200 140 1 0 0;
#X restore 476 296 graph;
#X obj 106 497 list trim;
#X msg 106 557 normalize;
#X obj 117 596 s forma_vco;
#X obj 36 598 phasor~;
#X obj 36 624 *~ 1024;
#X obj 36 653 tabread4~ forma_vco;
#X obj 36 681 outlet~;
#X obj 106 45 expr 22050/$f1;
#X msg 366 364 1 0 -1 0;
#X obj 133 333 expr 1/$f1*$f2;
#X obj 289 391 array set p_factor;
#X obj 175 310 tabread p_factor;
#X obj 75 -74 inlet;
#X obj 151 -31 != 0;
#X obj 116 11 spigot;
#X obj 106 524 t b a;
#X connect 0 0 11 0;
#X connect 0 1 1 0;
#X connect 1 0 8 0;
#X connect 2 0 1 1;
#X connect 4 0 5 0;
#X connect 5 0 6 0;
#X connect 5 0 19 0;
#X connect 6 0 5 1;
#X connect 7 0 5 1;
#X connect 8 0 4 0;
#X connect 8 1 7 0;
#X connect 8 2 9 1;
#X connect 9 0 10 0;
#X connect 9 0 11 1;
#X connect 10 0 9 1;
#X connect 11 0 12 0;
#X connect 12 0 13 0;
#X connect 12 0 22 0;
#X connect 13 0 14 0;
#X connect 14 0 16 0;
#X connect 17 0 18 0;
#X connect 18 0 33 0;
#X connect 19 0 31 0;
#X connect 19 1 17 0;
#X connect 20 0 30 0;
#X connect 22 0 37 0;
#X connect 23 0 24 0;
#X connect 25 0 26 0;
#X connect 26 0 27 0;
#X connect 27 0 28 0;
#X connect 29 0 2 0;
#X connect 29 0 0 0;
#X connect 30 0 32 0;
#X connect 31 0 9 0;
#X connect 33 0 31 1;
#X connect 34 0 35 0;
#X connect 34 0 35 1;
#X connect 34 0 36 0;
#X connect 34 0 25 0;
#X connect 35 0 36 1;
#X connect 36 0 29 0;
#X connect 37 0 23 0;
#X connect 37 1 24 0;
#X restore 519 324 pd pincers;
#X text 144 161 Pinça;
#X connect 1 0 14 1;
#X connect 6 0 7 0;
#X connect 7 0 14 0;
#X connect 7 0 17 0;
#X connect 8 0 9 0;
#X connect 9 0 1 0;
#X connect 10 0 11 1;
#X connect 11 0 12 0;
#X connect 13 0 21 0;
#X connect 14 0 18 0;
#X connect 14 1 10 0;
#X connect 14 2 19 0;
#X connect 14 3 20 0;
#X connect 14 4 22 0;
#X connect 18 0 11 0;
#X connect 19 0 11 2;
#X connect 20 0 11 3;
#X connect 21 0 10 0;
#X connect 21 0 18 0;
#X connect 21 0 19 0;
#X connect 21 0 20 0;
#X connect 21 0 22 0;
#X connect 22 0 11 4;
#X coords 0 -1 1 1 100 170 2 100 100;
#X restore 122 140 pd VCO;
#N canvas 680 197 889 806 synth_selector 0;
#X obj 100 101 hradio 15 1 0 4 empty empty empty 0 -8 0 10 -262130
-260097 -1 2;
#X obj 266 111 inlet;
#X obj 266 154 unpack;
#X obj 377 223 s vel;
#X obj 333 155 s freq_ampl;
#N canvas 1 177 1600 781 select_synth 0;
#X obj 377 276 route 0 1 2;
#X obj 196 406 bng 15 250 50 0 empty empty empty 17 7 0 10 -262144
-1 -1;
#X obj 323 406 bng 15 250 50 0 empty empty empty 17 7 0 10 -262144
-1 -1;
#X msg 323 450 \; vco_b color 5;
#X obj 377 310 s sb1;
#X obj 414 310 s sb2;
#X obj 451 310 s sb3;
#X obj 488 310 s sb4;
#X obj 196 370 r sb1;
#X obj 283 370 r sb2;
#X obj 323 370 r sb3;
#X obj 364 370 r sb4;
#X obj 445 402 bng 15 250 50 0 empty empty empty 17 7 0 10 -262144
-1 -1;
#X obj 565 402 bng 15 250 50 0 empty empty empty 17 7 0 10 -262144
-1 -1;
#X obj 565 366 r sb3;
#X obj 606 366 r sb4;
#X obj 689 404 bng 15 250 50 0 empty empty empty 17 7 0 10 -262144
-1 -1;
#X obj 809 404 bng 15 250 50 0 empty empty empty 17 7 0 10 -262144
-1 -1;
#X obj 769 368 r sb2;
#X obj 850 368 r sb4;
#X obj 934 404 bng 15 250 50 0 empty empty empty 17 7 0 10 -262144
-1 -1;
#X obj 1054 404 bng 15 250 50 0 empty empty empty 17 7 0 10 -262144
-1 -1;
#X obj 1054 368 r sb3;
#X obj 377 238 inlet;
#X obj 445 366 r sb2;
#X obj 525 366 r sb1;
#X obj 689 368 r sb3;
#X obj 809 368 r sb1;
#X obj 934 368 r sb4;
#X obj 1014 368 r sb1;
#X msg 196 451 \; vco_b color 104;
#X obj 297 494 outlet;
#X obj 1026 503 outlet;
#X obj 538 498 outlet;
#X obj 782 502 outlet;
#X msg 297 429 0;
#X msg 538 425 0;
#X obj 543 70 loadbang;
#X msg 782 426 0;
#X msg 1026 429 0;
#X msg 445 447 \; fourier_b color 104;
#X msg 565 446 \; fourier_b color 5;
#X msg 719 428 1;
#X msg 970 427 1;
#X msg 229 429 1;
#X msg 483 422 1;
#X msg 689 449 \; cheb_b color 104;
#X msg 809 448 \; cheb_b color 5;
#X msg 934 449 \; fm_b color 104;
#X msg 1054 448 \; fm_b color 5;
#X obj 1096 368 r sb2;
#X connect 0 0 4 0;
#X connect 0 1 5 0;
#X connect 0 2 6 0;
#X connect 0 3 7 0;
#X connect 1 0 30 0;
#X connect 1 0 44 0;
#X connect 2 0 3 0;
#X connect 2 0 35 0;
#X connect 8 0 1 0;
#X connect 9 0 2 0;
#X connect 10 0 2 0;
#X connect 11 0 2 0;
#X connect 12 0 40 0;
#X connect 12 0 45 0;
#X connect 13 0 41 0;
#X connect 13 0 36 0;
#X connect 14 0 13 0;
#X connect 15 0 13 0;
#X connect 16 0 46 0;
#X connect 16 0 42 0;
#X connect 17 0 47 0;
#X connect 17 0 38 0;
#X connect 18 0 17 0;
#X connect 19 0 17 0;
#X connect 20 0 48 0;
#X connect 20 0 43 0;
#X connect 21 0 49 0;
#X connect 21 0 39 0;
#X connect 22 0 21 0;
#X connect 23 0 0 0;
#X connect 24 0 12 0;
#X connect 25 0 13 0;
#X connect 26 0 16 0;
#X connect 27 0 17 0;
#X connect 28 0 20 0;
#X connect 29 0 21 0;
#X connect 35 0 31 0;
#X connect 36 0 33 0;
#X connect 37 0 1 0;
#X connect 37 0 13 0;
#X connect 37 0 17 0;
#X connect 37 0 21 0;
#X connect 38 0 34 0;
#X connect 39 0 32 0;
#X connect 42 0 34 0;
#X connect 43 0 32 0;
#X connect 44 0 31 0;
#X connect 45 0 33 0;
#X connect 50 0 21 0;
#X restore 114 198 pd select_synth;
#N canvas 69 149 773 599 sel 0;
#X obj 111 30 inlet;
#X obj 226 31 inlet;
#X obj 148 281 r vel;
#X obj 127 318 pack;
#X obj 127 359 outlet;
#X obj 212 209 spigot;
#X obj 127 156 == 0;
#X obj 108 206 spigot;
#X floatatom 127 242 5 0 0 0 - - -, f 5;
#X connect 0 0 5 1;
#X connect 0 0 6 0;
#X connect 0 0 7 0;
#X connect 1 0 5 0;
#X connect 2 0 3 1;
#X connect 3 0 4 0;
#X connect 5 0 8 0;
#X connect 6 0 7 1;
#X connect 7 0 8 0;
#X connect 8 0 3 0;
#X restore 72 272 pd sel;
#N canvas 67 150 773 599 sel 0;
#X obj 111 30 inlet;
#X obj 226 31 inlet;
#X obj 148 281 r vel;
#X obj 127 318 pack;
#X obj 127 359 outlet;
#X obj 212 209 spigot;
#X obj 127 156 == 0;
#X obj 108 206 spigot;
#X floatatom 127 242 5 0 0 0 - - -, f 5;
#X connect 0 0 5 1;
#X connect 0 0 6 0;
#X connect 0 0 7 0;
#X connect 1 0 5 0;
#X connect 2 0 3 1;
#X connect 3 0 4 0;
#X connect 5 0 8 0;
#X connect 6 0 7 1;
#X connect 7 0 8 0;
#X connect 8 0 3 0;
#X restore 181 344 pd sel;
#N canvas 64 164 773 599 sel 0;
#X obj 111 30 inlet;
#X obj 226 31 inlet;
#X obj 148 281 r vel;
#X obj 127 318 pack;
#X obj 127 359 outlet;
#X obj 212 209 spigot;
#X obj 127 156 == 0;
#X obj 108 206 spigot;
#X floatatom 127 242 5 0 0 0 - - -, f 5;
#X connect 0 0 5 1;
#X connect 0 0 6 0;
#X connect 0 0 7 0;
#X connect 1 0 5 0;
#X connect 2 0 3 1;
#X connect 3 0 4 0;
#X connect 5 0 8 0;
#X connect 6 0 7 1;
#X connect 7 0 8 0;
#X connect 8 0 3 0;
#X restore 238 369 pd sel;
#N canvas 65 151 773 599 sel 0;
#X obj 111 30 inlet;
#X obj 226 31 inlet;
#X obj 148 281 r vel;
#X obj 127 318 pack;
#X obj 127 359 outlet;
#X obj 212 209 spigot;
#X obj 127 156 == 0;
#X obj 108 206 spigot;
#X floatatom 127 242 5 0 0 0 - - -, f 5;
#X connect 0 0 5 1;
#X connect 0 0 6 0;
#X connect 0 0 7 0;
#X connect 1 0 5 0;
#X connect 2 0 3 1;
#X connect 3 0 4 0;
#X connect 5 0 8 0;
#X connect 6 0 7 1;
#X connect 7 0 8 0;
#X connect 8 0 3 0;
#X restore 124 307 pd sel;
#X obj 72 316 outlet;
#X obj 238 408 outlet;
#X obj 181 381 outlet;
#X obj 124 346 outlet;
#X obj 295 279 s cheb_open;
#X obj 298 311 s fou_open;
#X obj 296 344 s vco_open;
#X obj 296 249 s fm_open;
#X text 36 177 troca cores e controla trocas de técnicas;
#X connect 0 0 5 0;
#X connect 1 0 2 0;
#X connect 1 0 4 0;
#X connect 2 0 6 1;
#X connect 2 0 9 1;
#X connect 2 0 7 1;
#X connect 2 0 8 1;
#X connect 2 1 3 0;
#X connect 5 0 6 0;
#X connect 5 0 16 0;
#X connect 5 1 9 0;
#X connect 5 1 15 0;
#X connect 5 2 7 0;
#X connect 5 2 14 0;
#X connect 5 3 8 0;
#X connect 5 3 17 0;
#X connect 6 0 10 0;
#X connect 7 0 12 0;
#X connect 8 0 11 0;
#X connect 9 0 13 0;
#X coords 0 -1 1 1 60 17 2 100 100;
#X restore 175 104 pd synth_selector;
#X text 121 121 VCO;
#N canvas 810 57 926 635 fourier 0;
#N canvas 445 236 1142 584 oscbank 0;
#X obj 463 48 loadbang;
#X obj 463 133 s poll-table;
#N canvas 1 58 986 553 parcial 0;
#X obj 365 419 osc~;
#X obj 431 204 r poll-table;
#X obj 466 344 + 50;
#X obj 466 370 dbtorms;
#X msg 415 346 0;
#X obj 415 399 pack 0 30;
#X obj 415 429 line~;
#X obj 365 478 throw~ sum-bus;
#X obj 365 449 *~;
#X obj 415 237 f;
#X obj 374 175 ftom;
#X obj 416 263 -;
#X obj 458 262 r whammybar;
#X obj 415 291 tabread4 spectrum-tab;
#X obj 415 318 moses 1;
#X text 364 60 Adaptado da abstração spectrum-partial do Pure Data
;
#X obj 365 94 r fourier_freq;
#X obj 296 94 inlet;
#X floatatom 265 147 5 0 0 0 - - -, f 5;
#X obj 365 149 *;
#X connect 0 0 8 0;
#X connect 1 0 9 0;
#X connect 2 0 3 0;
#X connect 3 0 5 0;
#X connect 4 0 5 0;
#X connect 5 0 6 0;
#X connect 6 0 8 1;
#X connect 8 0 7 0;
#X connect 9 0 11 0;
#X connect 10 0 9 1;
#X connect 11 0 13 0;
#X connect 12 0 11 1;
#X connect 13 0 14 0;
#X connect 14 0 4 0;
#X connect 14 1 2 0;
#X connect 16 0 19 0;
#X connect 17 0 18 0;
#X connect 17 0 19 1;
#X connect 19 0 10 0;
#X connect 19 0 0 0;
#X restore 106 71 pd parcial;
#X msg 106 49 1;
#X obj 146 49 r load;
#N canvas 1 56 986 553 parcial 0;
#X obj 365 419 osc~;
#X obj 431 204 r poll-table;
#X obj 466 344 + 50;
#X obj 466 370 dbtorms;
#X msg 415 346 0;
#X obj 415 399 pack 0 30;
#X obj 415 429 line~;
#X obj 365 478 throw~ sum-bus;
#X obj 365 449 *~;
#X obj 415 237 f;
#X obj 374 175 ftom;
#X obj 416 263 -;
#X obj 458 262 r whammybar;
#X obj 415 291 tabread4 spectrum-tab;
#X obj 415 318 moses 1;
#X text 364 60 Adaptado da abstração spectrum-partial do Pure Data
;
#X obj 365 94 r fourier_freq;
#X obj 296 94 inlet;
#X floatatom 265 147 5 0 0 0 - - -, f 5;
#X obj 365 149 *;
#X connect 0 0 8 0;
#X connect 1 0 9 0;
#X connect 2 0 3 0;
#X connect 3 0 5 0;
#X connect 4 0 5 0;
#X connect 5 0 6 0;
#X connect 6 0 8 1;
#X connect 8 0 7 0;
#X connect 9 0 11 0;
#X connect 10 0 9 1;
#X connect 11 0 13 0;
#X connect 12 0 11 1;
#X connect 13 0 14 0;
#X connect 14 0 4 0;
#X connect 14 1 2 0;
#X connect 16 0 19 0;
#X connect 17 0 18 0;
#X connect 17 0 19 1;
#X connect 19 0 10 0;
#X connect 19 0 0 0;
#X restore 106 115 pd parcial;
#X obj 146 93 r load;
#N canvas 1 56 986 553 parcial 0;
#X obj 365 419 osc~;
#X obj 431 204 r poll-table;
#X obj 466 344 + 50;
#X obj 466 370 dbtorms;
#X msg 415 346 0;
#X obj 415 399 pack 0 30;
#X obj 415 429 line~;
#X obj 365 478 throw~ sum-bus;
#X obj 365 449 *~;
#X obj 415 237 f;
#X obj 374 175 ftom;
#X obj 416 263 -;
#X obj 458 262 r whammybar;
#X obj 415 291 tabread4 spectrum-tab;
#X obj 415 318 moses 1;
#X text 364 60 Adaptado da abstração spectrum-partial do Pure Data
;
#X obj 365 94 r fourier_freq;
#X obj 296 94 inlet;
#X floatatom 265 147 5 0 0 0 - - -, f 5;
#X obj 365 149 *;
#X connect 0 0 8 0;
#X connect 1 0 9 0;
#X connect 2 0 3 0;
#X connect 3 0 5 0;
#X connect 4 0 5 0;
#X connect 5 0 6 0;
#X connect 6 0 8 1;
#X connect 8 0 7 0;
#X connect 9 0 11 0;
#X connect 10 0 9 1;
#X connect 11 0 13 0;
#X connect 12 0 11 1;
#X connect 13 0 14 0;
#X connect 14 0 4 0;
#X connect 14 1 2 0;
#X connect 16 0 19 0;
#X connect 17 0 18 0;
#X connect 17 0 19 1;
#X connect 19 0 10 0;
#X connect 19 0 0 0;
#X restore 106 160 pd parcial;
#X obj 146 138 r load;
#N canvas 1 56 986 553 parcial 0;
#X obj 365 419 osc~;
#X obj 431 204 r poll-table;
#X obj 466 344 + 50;
#X obj 466 370 dbtorms;
#X msg 415 346 0;
#X obj 415 399 pack 0 30;
#X obj 415 429 line~;
#X obj 365 478 throw~ sum-bus;
#X obj 365 449 *~;
#X obj 415 237 f;
#X obj 374 175 ftom;
#X obj 416 263 -;
#X obj 458 262 r whammybar;
#X obj 415 291 tabread4 spectrum-tab;
#X obj 415 318 moses 1;
#X text 364 60 Adaptado da abstração spectrum-partial do Pure Data
;
#X obj 365 94 r fourier_freq;
#X obj 296 94 inlet;
#X floatatom 265 147 5 0 0 0 - - -, f 5;
#X obj 365 149 *;
#X connect 0 0 8 0;
#X connect 1 0 9 0;
#X connect 2 0 3 0;
#X connect 3 0 5 0;
#X connect 4 0 5 0;
#X connect 5 0 6 0;
#X connect 6 0 8 1;
#X connect 8 0 7 0;
#X connect 9 0 11 0;
#X connect 10 0 9 1;
#X connect 11 0 13 0;
#X connect 12 0 11 1;
#X connect 13 0 14 0;
#X connect 14 0 4 0;
#X connect 14 1 2 0;
#X connect 16 0 19 0;
#X connect 17 0 18 0;
#X connect 17 0 19 1;
#X connect 19 0 10 0;
#X connect 19 0 0 0;
#X restore 106 204 pd parcial;
#X obj 146 182 r load;
#N canvas 1 56 986 553 parcial 0;
#X obj 365 419 osc~;
#X obj 431 204 r poll-table;
#X obj 466 344 + 50;
#X obj 466 370 dbtorms;
#X msg 415 346 0;
#X obj 415 399 pack 0 30;
#X obj 415 429 line~;
#X obj 365 478 throw~ sum-bus;
#X obj 365 449 *~;
#X obj 415 237 f;
#X obj 374 175 ftom;
#X obj 416 263 -;
#X obj 458 262 r whammybar;
#X obj 415 291 tabread4 spectrum-tab;
#X obj 415 318 moses 1;
#X text 364 60 Adaptado da abstração spectrum-partial do Pure Data
;
#X obj 365 94 r fourier_freq;
#X obj 296 94 inlet;
#X floatatom 265 147 5 0 0 0 - - -, f 5;
#X obj 365 149 *;
#X connect 0 0 8 0;
#X connect 1 0 9 0;
#X connect 2 0 3 0;
#X connect 3 0 5 0;
#X connect 4 0 5 0;
#X connect 5 0 6 0;
#X connect 6 0 8 1;
#X connect 8 0 7 0;
#X connect 9 0 11 0;
#X connect 10 0 9 1;
#X connect 11 0 13 0;
#X connect 12 0 11 1;
#X connect 13 0 14 0;
#X connect 14 0 4 0;
#X connect 14 1 2 0;
#X connect 16 0 19 0;
#X connect 17 0 18 0;
#X connect 17 0 19 1;
#X connect 19 0 10 0;
#X connect 19 0 0 0;
#X restore 106 248 pd parcial;
#X obj 146 226 r load;
#N canvas 1 56 986 553 parcial 0;
#X obj 365 419 osc~;
#X obj 431 204 r poll-table;
#X obj 466 344 + 50;
#X obj 466 370 dbtorms;
#X msg 415 346 0;
#X obj 415 399 pack 0 30;
#X obj 415 429 line~;
#X obj 365 478 throw~ sum-bus;
#X obj 365 449 *~;
#X obj 415 237 f;
#X obj 374 175 ftom;
#X obj 416 263 -;
#X obj 458 262 r whammybar;
#X obj 415 291 tabread4 spectrum-tab;
#X obj 415 318 moses 1;
#X text 364 60 Adaptado da abstração spectrum-partial do Pure Data
;
#X obj 365 94 r fourier_freq;
#X obj 296 94 inlet;
#X floatatom 265 147 5 0 0 0 - - -, f 5;
#X obj 365 149 *;
#X connect 0 0 8 0;
#X connect 1 0 9 0;
#X connect 2 0 3 0;
#X connect 3 0 5 0;
#X connect 4 0 5 0;
#X connect 5 0 6 0;
#X connect 6 0 8 1;
#X connect 8 0 7 0;
#X connect 9 0 11 0;
#X connect 10 0 9 1;
#X connect 11 0 13 0;
#X connect 12 0 11 1;
#X connect 13 0 14 0;
#X connect 14 0 4 0;
#X connect 14 1 2 0;
#X connect 16 0 19 0;
#X connect 17 0 18 0;
#X connect 17 0 19 1;
#X connect 19 0 10 0;
#X connect 19 0 0 0;
#X restore 106 291 pd parcial;
#X obj 146 269 r load;
#N canvas 1 56 986 553 parcial 0;
#X obj 365 419 osc~;
#X obj 431 204 r poll-table;
#X obj 466 344 + 50;
#X obj 466 370 dbtorms;
#X msg 415 346 0;
#X obj 415 399 pack 0 30;
#X obj 415 429 line~;
#X obj 365 478 throw~ sum-bus;
#X obj 365 449 *~;
#X obj 415 237 f;
#X obj 374 175 ftom;
#X obj 416 263 -;
#X obj 458 262 r whammybar;
#X obj 415 291 tabread4 spectrum-tab;
#X obj 415 318 moses 1;
#X text 364 60 Adaptado da abstração spectrum-partial do Pure Data
;
#X obj 365 94 r fourier_freq;
#X obj 296 94 inlet;
#X floatatom 265 147 5 0 0 0 - - -, f 5;
#X obj 365 149 *;
#X connect 0 0 8 0;
#X connect 1 0 9 0;
#X connect 2 0 3 0;
#X connect 3 0 5 0;
#X connect 4 0 5 0;
#X connect 5 0 6 0;
#X connect 6 0 8 1;
#X connect 8 0 7 0;
#X connect 9 0 11 0;
#X connect 10 0 9 1;
#X connect 11 0 13 0;
#X connect 12 0 11 1;
#X connect 13 0 14 0;
#X connect 14 0 4 0;
#X connect 14 1 2 0;
#X connect 16 0 19 0;
#X connect 17 0 18 0;
#X connect 17 0 19 1;
#X connect 19 0 10 0;
#X connect 19 0 0 0;
#X restore 106 335 pd parcial;
#X obj 146 313 r load;
#N canvas 1 56 986 553 parcial 0;
#X obj 365 419 osc~;
#X obj 431 204 r poll-table;
#X obj 466 344 + 50;
#X obj 466 370 dbtorms;
#X msg 415 346 0;
#X obj 415 399 pack 0 30;
#X obj 415 429 line~;
#X obj 365 478 throw~ sum-bus;
#X obj 365 449 *~;
#X obj 415 237 f;
#X obj 374 175 ftom;
#X obj 416 263 -;
#X obj 458 262 r whammybar;
#X obj 415 291 tabread4 spectrum-tab;
#X obj 415 318 moses 1;
#X text 364 60 Adaptado da abstração spectrum-partial do Pure Data
;
#X obj 365 94 r fourier_freq;
#X obj 296 94 inlet;
#X floatatom 265 147 5 0 0 0 - - -, f 5;
#X obj 365 149 *;
#X connect 0 0 8 0;
#X connect 1 0 9 0;
#X connect 2 0 3 0;
#X connect 3 0 5 0;
#X connect 4 0 5 0;
#X connect 5 0 6 0;
#X connect 6 0 8 1;
#X connect 8 0 7 0;
#X connect 9 0 11 0;
#X connect 10 0 9 1;
#X connect 11 0 13 0;
#X connect 12 0 11 1;
#X connect 13 0 14 0;
#X connect 14 0 4 0;
#X connect 14 1 2 0;
#X connect 16 0 19 0;
#X connect 17 0 18 0;
#X connect 17 0 19 1;
#X connect 19 0 10 0;
#X connect 19 0 0 0;
#X restore 106 380 pd parcial;
#X obj 146 358 r load;
#N canvas 1 56 986 553 parcial 0;
#X obj 365 419 osc~;
#X obj 431 204 r poll-table;
#X obj 466 344 + 50;
#X obj 466 370 dbtorms;
#X msg 415 346 0;
#X obj 415 399 pack 0 30;
#X obj 415 429 line~;
#X obj 365 478 throw~ sum-bus;
#X obj 365 449 *~;
#X obj 415 237 f;
#X obj 374 175 ftom;
#X obj 416 263 -;
#X obj 458 262 r whammybar;
#X obj 415 291 tabread4 spectrum-tab;
#X obj 415 318 moses 1;
#X text 364 60 Adaptado da abstração spectrum-partial do Pure Data
;
#X obj 365 94 r fourier_freq;
#X obj 296 94 inlet;
#X floatatom 265 147 5 0 0 0 - - -, f 5;
#X obj 365 149 *;
#X connect 0 0 8 0;
#X connect 1 0 9 0;
#X connect 2 0 3 0;
#X connect 3 0 5 0;
#X connect 4 0 5 0;
#X connect 5 0 6 0;
#X connect 6 0 8 1;
#X connect 8 0 7 0;
#X connect 9 0 11 0;
#X connect 10 0 9 1;
#X connect 11 0 13 0;
#X connect 12 0 11 1;
#X connect 13 0 14 0;
#X connect 14 0 4 0;
#X connect 14 1 2 0;
#X connect 16 0 19 0;
#X connect 17 0 18 0;
#X connect 17 0 19 1;
#X connect 19 0 10 0;
#X connect 19 0 0 0;
#X restore 106 424 pd parcial;
#X obj 146 402 r load;
#N canvas 1 56 986 553 parcial 0;
#X obj 365 419 osc~;
#X obj 431 204 r poll-table;
#X obj 466 344 + 50;
#X obj 466 370 dbtorms;
#X msg 415 346 0;
#X obj 415 399 pack 0 30;
#X obj 415 429 line~;
#X obj 365 478 throw~ sum-bus;
#X obj 365 449 *~;
#X obj 415 237 f;
#X obj 374 175 ftom;
#X obj 416 263 -;
#X obj 458 262 r whammybar;
#X obj 415 291 tabread4 spectrum-tab;
#X obj 415 318 moses 1;
#X text 364 60 Adaptado da abstração spectrum-partial do Pure Data
;
#X obj 365 94 r fourier_freq;
#X obj 296 94 inlet;
#X floatatom 265 147 5 0 0 0 - - -, f 5;
#X obj 365 149 *;
#X connect 0 0 8 0;
#X connect 1 0 9 0;
#X connect 2 0 3 0;
#X connect 3 0 5 0;
#X connect 4 0 5 0;
#X connect 5 0 6 0;
#X connect 6 0 8 1;
#X connect 8 0 7 0;
#X connect 9 0 11 0;
#X connect 10 0 9 1;
#X connect 11 0 13 0;
#X connect 12 0 11 1;
#X connect 13 0 14 0;
#X connect 14 0 4 0;
#X connect 14 1 2 0;
#X connect 16 0 19 0;
#X connect 17 0 18 0;
#X connect 17 0 19 1;
#X connect 19 0 10 0;
#X connect 19 0 0 0;
#X restore 106 468 pd parcial;
#X obj 146 446 r load;
#N canvas 1 56 986 553 parcial 0;
#X obj 365 419 osc~;
#X obj 431 204 r poll-table;
#X obj 466 344 + 50;
#X obj 466 370 dbtorms;
#X msg 415 346 0;
#X obj 415 399 pack 0 30;
#X obj 415 429 line~;
#X obj 365 478 throw~ sum-bus;
#X obj 365 449 *~;
#X obj 415 237 f;
#X obj 374 175 ftom;
#X obj 416 263 -;
#X obj 458 262 r whammybar;
#X obj 415 291 tabread4 spectrum-tab;
#X obj 415 318 moses 1;
#X text 364 60 Adaptado da abstração spectrum-partial do Pure Data
;
#X obj 365 94 r fourier_freq;
#X obj 296 94 inlet;
#X floatatom 265 147 5 0 0 0 - - -, f 5;
#X obj 365 149 *;
#X connect 0 0 8 0;
#X connect 1 0 9 0;
#X connect 2 0 3 0;
#X connect 3 0 5 0;
#X connect 4 0 5 0;
#X connect 5 0 6 0;
#X connect 6 0 8 1;
#X connect 8 0 7 0;
#X connect 9 0 11 0;
#X connect 10 0 9 1;
#X connect 11 0 13 0;
#X connect 12 0 11 1;
#X connect 13 0 14 0;
#X connect 14 0 4 0;
#X connect 14 1 2 0;
#X connect 16 0 19 0;
#X connect 17 0 18 0;
#X connect 17 0 19 1;
#X connect 19 0 10 0;
#X connect 19 0 0 0;
#X restore 225 71 pd parcial;
#X obj 265 49 r load;
#N canvas 1 57 986 553 parcial 0;
#X obj 365 419 osc~;
#X obj 431 204 r poll-table;
#X obj 466 344 + 50;
#X obj 466 370 dbtorms;
#X msg 415 346 0;
#X obj 415 399 pack 0 30;
#X obj 415 429 line~;
#X obj 365 478 throw~ sum-bus;
#X obj 365 449 *~;
#X obj 415 237 f;
#X obj 374 175 ftom;
#X obj 416 263 -;
#X obj 458 262 r whammybar;
#X obj 415 291 tabread4 spectrum-tab;
#X obj 415 318 moses 1;
#X text 364 60 Adaptado da abstração spectrum-partial do Pure Data
;
#X obj 365 94 r fourier_freq;
#X obj 296 94 inlet;
#X floatatom 265 147 5 0 0 0 - - -, f 5;
#X obj 365 149 *;
#X connect 0 0 8 0;
#X connect 1 0 9 0;
#X connect 2 0 3 0;
#X connect 3 0 5 0;
#X connect 4 0 5 0;
#X connect 5 0 6 0;
#X connect 6 0 8 1;
#X connect 8 0 7 0;
#X connect 9 0 11 0;
#X connect 10 0 9 1;
#X connect 11 0 13 0;
#X connect 12 0 11 1;
#X connect 13 0 14 0;
#X connect 14 0 4 0;
#X connect 14 1 2 0;
#X connect 16 0 19 0;
#X connect 17 0 18 0;
#X connect 17 0 19 1;
#X connect 19 0 10 0;
#X connect 19 0 0 0;
#X restore 225 115 pd parcial;
#X obj 265 93 r load;
#N canvas 1 56 986 553 parcial 0;
#X obj 365 419 osc~;
#X obj 431 204 r poll-table;
#X obj 466 344 + 50;
#X obj 466 370 dbtorms;
#X msg 415 346 0;
#X obj 415 399 pack 0 30;
#X obj 415 429 line~;
#X obj 365 478 throw~ sum-bus;
#X obj 365 449 *~;
#X obj 415 237 f;
#X obj 374 175 ftom;
#X obj 416 263 -;
#X obj 458 262 r whammybar;
#X obj 415 291 tabread4 spectrum-tab;
#X obj 415 318 moses 1;
#X text 364 60 Adaptado da abstração spectrum-partial do Pure Data
;
#X obj 365 94 r fourier_freq;
#X obj 296 94 inlet;
#X floatatom 265 147 5 0 0 0 - - -, f 5;
#X obj 365 149 *;
#X connect 0 0 8 0;
#X connect 1 0 9 0;
#X connect 2 0 3 0;
#X connect 3 0 5 0;
#X connect 4 0 5 0;
#X connect 5 0 6 0;
#X connect 6 0 8 1;
#X connect 8 0 7 0;
#X connect 9 0 11 0;
#X connect 10 0 9 1;
#X connect 11 0 13 0;
#X connect 12 0 11 1;
#X connect 13 0 14 0;
#X connect 14 0 4 0;
#X connect 14 1 2 0;
#X connect 16 0 19 0;
#X connect 17 0 18 0;
#X connect 17 0 19 1;
#X connect 19 0 10 0;
#X connect 19 0 0 0;
#X restore 225 160 pd parcial;
#X obj 265 138 r load;
#N canvas 1 56 986 553 parcial 0;
#X obj 365 419 osc~;
#X obj 431 204 r poll-table;
#X obj 466 344 + 50;
#X obj 466 370 dbtorms;
#X msg 415 346 0;
#X obj 415 399 pack 0 30;
#X obj 415 429 line~;
#X obj 365 478 throw~ sum-bus;
#X obj 365 449 *~;
#X obj 415 237 f;
#X obj 374 175 ftom;
#X obj 416 263 -;
#X obj 458 262 r whammybar;
#X obj 415 291 tabread4 spectrum-tab;
#X obj 415 318 moses 1;
#X text 364 60 Adaptado da abstração spectrum-partial do Pure Data
;
#X obj 365 94 r fourier_freq;
#X obj 296 94 inlet;
#X floatatom 265 147 5 0 0 0 - - -, f 5;
#X obj 365 149 *;
#X connect 0 0 8 0;
#X connect 1 0 9 0;
#X connect 2 0 3 0;
#X connect 3 0 5 0;
#X connect 4 0 5 0;
#X connect 5 0 6 0;
#X connect 6 0 8 1;
#X connect 8 0 7 0;
#X connect 9 0 11 0;
#X connect 10 0 9 1;
#X connect 11 0 13 0;
#X connect 12 0 11 1;
#X connect 13 0 14 0;
#X connect 14 0 4 0;
#X connect 14 1 2 0;
#X connect 16 0 19 0;
#X connect 17 0 18 0;
#X connect 17 0 19 1;
#X connect 19 0 10 0;
#X connect 19 0 0 0;
#X restore 225 204 pd parcial;
#X obj 265 182 r load;
#N canvas 1 56 986 553 parcial 0;
#X obj 365 419 osc~;
#X obj 431 204 r poll-table;
#X obj 466 344 + 50;
#X obj 466 370 dbtorms;
#X msg 415 346 0;
#X obj 415 399 pack 0 30;
#X obj 415 429 line~;
#X obj 365 478 throw~ sum-bus;
#X obj 365 449 *~;
#X obj 415 237 f;
#X obj 374 175 ftom;
#X obj 416 263 -;
#X obj 458 262 r whammybar;
#X obj 415 291 tabread4 spectrum-tab;
#X obj 415 318 moses 1;
#X text 364 60 Adaptado da abstração spectrum-partial do Pure Data
;
#X obj 365 94 r fourier_freq;
#X obj 296 94 inlet;
#X floatatom 265 147 5 0 0 0 - - -, f 5;
#X obj 365 149 *;
#X connect 0 0 8 0;
#X connect 1 0 9 0;
#X connect 2 0 3 0;
#X connect 3 0 5 0;
#X connect 4 0 5 0;
#X connect 5 0 6 0;
#X connect 6 0 8 1;
#X connect 8 0 7 0;
#X connect 9 0 11 0;
#X connect 10 0 9 1;
#X connect 11 0 13 0;
#X connect 12 0 11 1;
#X connect 13 0 14 0;
#X connect 14 0 4 0;
#X connect 14 1 2 0;
#X connect 16 0 19 0;
#X connect 17 0 18 0;
#X connect 17 0 19 1;
#X connect 19 0 10 0;
#X connect 19 0 0 0;
#X restore 225 248 pd parcial;
#X obj 265 226 r load;
#N canvas 1 56 986 553 parcial 0;
#X obj 365 419 osc~;
#X obj 431 204 r poll-table;
#X obj 466 344 + 50;
#X obj 466 370 dbtorms;
#X msg 415 346 0;
#X obj 415 399 pack 0 30;
#X obj 415 429 line~;
#X obj 365 478 throw~ sum-bus;
#X obj 365 449 *~;
#X obj 415 237 f;
#X obj 374 175 ftom;
#X obj 416 263 -;
#X obj 458 262 r whammybar;
#X obj 415 291 tabread4 spectrum-tab;
#X obj 415 318 moses 1;
#X text 364 60 Adaptado da abstração spectrum-partial do Pure Data
;
#X obj 365 94 r fourier_freq;
#X obj 296 94 inlet;
#X floatatom 265 147 5 0 0 0 - - -, f 5;
#X obj 365 149 *;
#X connect 0 0 8 0;
#X connect 1 0 9 0;
#X connect 2 0 3 0;
#X connect 3 0 5 0;
#X connect 4 0 5 0;
#X connect 5 0 6 0;
#X connect 6 0 8 1;
#X connect 8 0 7 0;
#X connect 9 0 11 0;
#X connect 10 0 9 1;
#X connect 11 0 13 0;
#X connect 12 0 11 1;
#X connect 13 0 14 0;
#X connect 14 0 4 0;
#X connect 14 1 2 0;
#X connect 16 0 19 0;
#X connect 17 0 18 0;
#X connect 17 0 19 1;
#X connect 19 0 10 0;
#X connect 19 0 0 0;
#X restore 225 291 pd parcial;
#X obj 265 269 r load;
#N canvas 1 56 986 553 parcial 0;
#X obj 365 419 osc~;
#X obj 431 204 r poll-table;
#X obj 466 344 + 50;
#X obj 466 370 dbtorms;
#X msg 415 346 0;
#X obj 415 399 pack 0 30;
#X obj 415 429 line~;
#X obj 365 478 throw~ sum-bus;
#X obj 365 449 *~;
#X obj 415 237 f;
#X obj 374 175 ftom;
#X obj 416 263 -;
#X obj 458 262 r whammybar;
#X obj 415 291 tabread4 spectrum-tab;
#X obj 415 318 moses 1;
#X text 364 60 Adaptado da abstração spectrum-partial do Pure Data
;
#X obj 365 94 r fourier_freq;
#X obj 296 94 inlet;
#X floatatom 265 147 5 0 0 0 - - -, f 5;
#X obj 365 149 *;
#X connect 0 0 8 0;
#X connect 1 0 9 0;
#X connect 2 0 3 0;
#X connect 3 0 5 0;
#X connect 4 0 5 0;
#X connect 5 0 6 0;
#X connect 6 0 8 1;
#X connect 8 0 7 0;
#X connect 9 0 11 0;
#X connect 10 0 9 1;
#X connect 11 0 13 0;
#X connect 12 0 11 1;
#X connect 13 0 14 0;
#X connect 14 0 4 0;
#X connect 14 1 2 0;
#X connect 16 0 19 0;
#X connect 17 0 18 0;
#X connect 17 0 19 1;
#X connect 19 0 10 0;
#X connect 19 0 0 0;
#X restore 225 335 pd parcial;
#X obj 265 313 r load;
#N canvas 1 56 986 553 parcial 0;
#X obj 365 419 osc~;
#X obj 431 204 r poll-table;
#X obj 466 344 + 50;
#X obj 466 370 dbtorms;
#X msg 415 346 0;
#X obj 415 399 pack 0 30;
#X obj 415 429 line~;
#X obj 365 478 throw~ sum-bus;
#X obj 365 449 *~;
#X obj 415 237 f;
#X obj 374 175 ftom;
#X obj 416 263 -;
#X obj 458 262 r whammybar;
#X obj 415 291 tabread4 spectrum-tab;
#X obj 415 318 moses 1;
#X text 364 60 Adaptado da abstração spectrum-partial do Pure Data
;
#X obj 365 94 r fourier_freq;
#X obj 296 94 inlet;
#X floatatom 265 147 5 0 0 0 - - -, f 5;
#X obj 365 149 *;
#X connect 0 0 8 0;
#X connect 1 0 9 0;
#X connect 2 0 3 0;
#X connect 3 0 5 0;
#X connect 4 0 5 0;
#X connect 5 0 6 0;
#X connect 6 0 8 1;
#X connect 8 0 7 0;
#X connect 9 0 11 0;
#X connect 10 0 9 1;
#X connect 11 0 13 0;
#X connect 12 0 11 1;
#X connect 13 0 14 0;
#X connect 14 0 4 0;
#X connect 14 1 2 0;
#X connect 16 0 19 0;
#X connect 17 0 18 0;
#X connect 17 0 19 1;
#X connect 19 0 10 0;
#X connect 19 0 0 0;
#X restore 225 380 pd parcial;
#X obj 265 358 r load;
#N canvas 1 56 986 553 parcial 0;
#X obj 365 419 osc~;
#X obj 431 204 r poll-table;
#X obj 466 344 + 50;
#X obj 466 370 dbtorms;
#X msg 415 346 0;
#X obj 415 399 pack 0 30;
#X obj 415 429 line~;
#X obj 365 478 throw~ sum-bus;
#X obj 365 449 *~;
#X obj 415 237 f;
#X obj 374 175 ftom;
#X obj 416 263 -;
#X obj 458 262 r whammybar;
#X obj 415 291 tabread4 spectrum-tab;
#X obj 415 318 moses 1;
#X text 364 60 Adaptado da abstração spectrum-partial do Pure Data
;
#X obj 365 94 r fourier_freq;
#X obj 296 94 inlet;
#X floatatom 265 147 5 0 0 0 - - -, f 5;
#X obj 365 149 *;
#X connect 0 0 8 0;
#X connect 1 0 9 0;
#X connect 2 0 3 0;
#X connect 3 0 5 0;
#X connect 4 0 5 0;
#X connect 5 0 6 0;
#X connect 6 0 8 1;
#X connect 8 0 7 0;
#X connect 9 0 11 0;
#X connect 10 0 9 1;
#X connect 11 0 13 0;
#X connect 12 0 11 1;
#X connect 13 0 14 0;
#X connect 14 0 4 0;
#X connect 14 1 2 0;
#X connect 16 0 19 0;
#X connect 17 0 18 0;
#X connect 17 0 19 1;
#X connect 19 0 10 0;
#X connect 19 0 0 0;
#X restore 225 424 pd parcial;
#X obj 265 402 r load;
#N canvas 1 56 986 553 parcial 0;
#X obj 365 419 osc~;
#X obj 431 204 r poll-table;
#X obj 466 344 + 50;
#X obj 466 370 dbtorms;
#X msg 415 346 0;
#X obj 415 399 pack 0 30;
#X obj 415 429 line~;
#X obj 365 478 throw~ sum-bus;
#X obj 365 449 *~;
#X obj 415 237 f;
#X obj 374 175 ftom;
#X obj 416 263 -;
#X obj 458 262 r whammybar;
#X obj 415 291 tabread4 spectrum-tab;
#X obj 415 318 moses 1;
#X text 364 60 Adaptado da abstração spectrum-partial do Pure Data
;
#X obj 365 94 r fourier_freq;
#X obj 296 94 inlet;
#X floatatom 265 147 5 0 0 0 - - -, f 5;
#X obj 365 149 *;
#X connect 0 0 8 0;
#X connect 1 0 9 0;
#X connect 2 0 3 0;
#X connect 3 0 5 0;
#X connect 4 0 5 0;
#X connect 5 0 6 0;
#X connect 6 0 8 1;
#X connect 8 0 7 0;
#X connect 9 0 11 0;
#X connect 10 0 9 1;
#X connect 11 0 13 0;
#X connect 12 0 11 1;
#X connect 13 0 14 0;
#X connect 14 0 4 0;
#X connect 14 1 2 0;
#X connect 16 0 19 0;
#X connect 17 0 18 0;
#X connect 17 0 19 1;
#X connect 19 0 10 0;
#X connect 19 0 0 0;
#X restore 225 468 pd parcial;
#X obj 265 446 r load;
#N canvas 1 56 986 553 parcial 0;
#X obj 365 419 osc~;
#X obj 431 204 r poll-table;
#X obj 466 344 + 50;
#X obj 466 370 dbtorms;
#X msg 415 346 0;
#X obj 415 399 pack 0 30;
#X obj 415 429 line~;
#X obj 365 478 throw~ sum-bus;
#X obj 365 449 *~;
#X obj 415 237 f;
#X obj 374 175 ftom;
#X obj 416 263 -;
#X obj 458 262 r whammybar;
#X obj 415 291 tabread4 spectrum-tab;
#X obj 415 318 moses 1;
#X text 364 60 Adaptado da abstração spectrum-partial do Pure Data
;
#X obj 365 94 r fourier_freq;
#X obj 296 94 inlet;
#X floatatom 265 147 5 0 0 0 - - -, f 5;
#X obj 365 149 *;
#X connect 0 0 8 0;
#X connect 1 0 9 0;
#X connect 2 0 3 0;
#X connect 3 0 5 0;
#X connect 4 0 5 0;
#X connect 5 0 6 0;
#X connect 6 0 8 1;
#X connect 8 0 7 0;
#X connect 9 0 11 0;
#X connect 10 0 9 1;
#X connect 11 0 13 0;
#X connect 12 0 11 1;
#X connect 13 0 14 0;
#X connect 14 0 4 0;
#X connect 14 1 2 0;
#X connect 16 0 19 0;
#X connect 17 0 18 0;
#X connect 17 0 19 1;
#X connect 19 0 10 0;
#X connect 19 0 0 0;
#X restore 335 71 pd parcial;
#X obj 375 49 r load;
#N canvas 1 56 986 553 parcial 0;
#X obj 365 419 osc~;
#X obj 431 204 r poll-table;
#X obj 466 344 + 50;
#X obj 466 370 dbtorms;
#X msg 415 346 0;
#X obj 415 399 pack 0 30;
#X obj 415 429 line~;
#X obj 365 478 throw~ sum-bus;
#X obj 365 449 *~;
#X obj 415 237 f;
#X obj 374 175 ftom;
#X obj 416 263 -;
#X obj 458 262 r whammybar;
#X obj 415 291 tabread4 spectrum-tab;
#X obj 415 318 moses 1;
#X text 364 60 Adaptado da abstração spectrum-partial do Pure Data
;
#X obj 365 94 r fourier_freq;
#X obj 296 94 inlet;
#X floatatom 265 147 5 0 0 0 - - -, f 5;
#X obj 365 149 *;
#X connect 0 0 8 0;
#X connect 1 0 9 0;
#X connect 2 0 3 0;
#X connect 3 0 5 0;
#X connect 4 0 5 0;
#X connect 5 0 6 0;
#X connect 6 0 8 1;
#X connect 8 0 7 0;
#X connect 9 0 11 0;
#X connect 10 0 9 1;
#X connect 11 0 13 0;
#X connect 12 0 11 1;
#X connect 13 0 14 0;
#X connect 14 0 4 0;
#X connect 14 1 2 0;
#X connect 16 0 19 0;
#X connect 17 0 18 0;
#X connect 17 0 19 1;
#X connect 19 0 10 0;
#X connect 19 0 0 0;
#X restore 335 115 pd parcial;
#X obj 375 93 r load;
#N canvas 1 56 986 553 parcial 0;
#X obj 365 419 osc~;
#X obj 431 204 r poll-table;
#X obj 466 344 + 50;
#X obj 466 370 dbtorms;
#X msg 415 346 0;
#X obj 415 399 pack 0 30;
#X obj 415 429 line~;
#X obj 365 478 throw~ sum-bus;
#X obj 365 449 *~;
#X obj 415 237 f;
#X obj 374 175 ftom;
#X obj 416 263 -;
#X obj 458 262 r whammybar;
#X obj 415 291 tabread4 spectrum-tab;
#X obj 415 318 moses 1;
#X text 364 60 Adaptado da abstração spectrum-partial do Pure Data
;
#X obj 365 94 r fourier_freq;
#X obj 296 94 inlet;
#X floatatom 265 147 5 0 0 0 - - -, f 5;
#X obj 365 149 *;
#X connect 0 0 8 0;
#X connect 1 0 9 0;
#X connect 2 0 3 0;
#X connect 3 0 5 0;
#X connect 4 0 5 0;
#X connect 5 0 6 0;
#X connect 6 0 8 1;
#X connect 8 0 7 0;
#X connect 9 0 11 0;
#X connect 10 0 9 1;
#X connect 11 0 13 0;
#X connect 12 0 11 1;
#X connect 13 0 14 0;
#X connect 14 0 4 0;
#X connect 14 1 2 0;
#X connect 16 0 19 0;
#X connect 17 0 18 0;
#X connect 17 0 19 1;
#X connect 19 0 10 0;
#X connect 19 0 0 0;
#X restore 335 160 pd parcial;
#X obj 375 138 r load;
#N canvas 1 56 986 553 parcial 0;
#X obj 365 419 osc~;
#X obj 431 204 r poll-table;
#X obj 466 344 + 50;
#X obj 466 370 dbtorms;
#X msg 415 346 0;
#X obj 415 399 pack 0 30;
#X obj 415 429 line~;
#X obj 365 478 throw~ sum-bus;
#X obj 365 449 *~;
#X obj 415 237 f;
#X obj 374 175 ftom;
#X obj 416 263 -;
#X obj 458 262 r whammybar;
#X obj 415 291 tabread4 spectrum-tab;
#X obj 415 318 moses 1;
#X text 364 60 Adaptado da abstração spectrum-partial do Pure Data
;
#X obj 365 94 r fourier_freq;
#X obj 296 94 inlet;
#X floatatom 265 147 5 0 0 0 - - -, f 5;
#X obj 365 149 *;
#X connect 0 0 8 0;
#X connect 1 0 9 0;
#X connect 2 0 3 0;
#X connect 3 0 5 0;
#X connect 4 0 5 0;
#X connect 5 0 6 0;
#X connect 6 0 8 1;
#X connect 8 0 7 0;
#X connect 9 0 11 0;
#X connect 10 0 9 1;
#X connect 11 0 13 0;
#X connect 12 0 11 1;
#X connect 13 0 14 0;
#X connect 14 0 4 0;
#X connect 14 1 2 0;
#X connect 16 0 19 0;
#X connect 17 0 18 0;
#X connect 17 0 19 1;
#X connect 19 0 10 0;
#X connect 19 0 0 0;
#X restore 335 204 pd parcial;
#X obj 375 182 r load;
#N canvas 1 56 986 553 parcial 0;
#X obj 365 419 osc~;
#X obj 431 204 r poll-table;
#X obj 466 344 + 50;
#X obj 466 370 dbtorms;
#X msg 415 346 0;
#X obj 415 399 pack 0 30;
#X obj 415 429 line~;
#X obj 365 478 throw~ sum-bus;
#X obj 365 449 *~;
#X obj 415 237 f;
#X obj 374 175 ftom;
#X obj 416 263 -;
#X obj 458 262 r whammybar;
#X obj 415 291 tabread4 spectrum-tab;
#X obj 415 318 moses 1;
#X text 364 60 Adaptado da abstração spectrum-partial do Pure Data
;
#X obj 365 94 r fourier_freq;
#X obj 296 94 inlet;
#X floatatom 265 147 5 0 0 0 - - -, f 5;
#X obj 365 149 *;
#X connect 0 0 8 0;
#X connect 1 0 9 0;
#X connect 2 0 3 0;
#X connect 3 0 5 0;
#X connect 4 0 5 0;
#X connect 5 0 6 0;
#X connect 6 0 8 1;
#X connect 8 0 7 0;
#X connect 9 0 11 0;
#X connect 10 0 9 1;
#X connect 11 0 13 0;
#X connect 12 0 11 1;
#X connect 13 0 14 0;
#X connect 14 0 4 0;
#X connect 14 1 2 0;
#X connect 16 0 19 0;
#X connect 17 0 18 0;
#X connect 17 0 19 1;
#X connect 19 0 10 0;
#X connect 19 0 0 0;
#X restore 335 248 pd parcial;
#X obj 375 226 r load;
#N canvas 1 56 986 553 parcial 0;
#X obj 365 419 osc~;
#X obj 431 204 r poll-table;
#X obj 466 344 + 50;
#X obj 466 370 dbtorms;
#X msg 415 346 0;
#X obj 415 399 pack 0 30;
#X obj 415 429 line~;
#X obj 365 478 throw~ sum-bus;
#X obj 365 449 *~;
#X obj 415 237 f;
#X obj 374 175 ftom;
#X obj 416 263 -;
#X obj 458 262 r whammybar;
#X obj 415 291 tabread4 spectrum-tab;
#X obj 415 318 moses 1;
#X text 364 60 Adaptado da abstração spectrum-partial do Pure Data
;
#X obj 365 94 r fourier_freq;
#X obj 296 94 inlet;
#X floatatom 265 147 5 0 0 0 - - -, f 5;
#X obj 365 149 *;
#X connect 0 0 8 0;
#X connect 1 0 9 0;
#X connect 2 0 3 0;
#X connect 3 0 5 0;
#X connect 4 0 5 0;
#X connect 5 0 6 0;
#X connect 6 0 8 1;
#X connect 8 0 7 0;
#X connect 9 0 11 0;
#X connect 10 0 9 1;
#X connect 11 0 13 0;
#X connect 12 0 11 1;
#X connect 13 0 14 0;
#X connect 14 0 4 0;
#X connect 14 1 2 0;
#X connect 16 0 19 0;
#X connect 17 0 18 0;
#X connect 17 0 19 1;
#X connect 19 0 10 0;
#X connect 19 0 0 0;
#X restore 335 291 pd parcial;
#X obj 375 269 r load;
#N canvas 1 56 986 553 parcial 0;
#X obj 365 419 osc~;
#X obj 431 204 r poll-table;
#X obj 466 344 + 50;
#X obj 466 370 dbtorms;
#X msg 415 346 0;
#X obj 415 399 pack 0 30;
#X obj 415 429 line~;
#X obj 365 478 throw~ sum-bus;
#X obj 365 449 *~;
#X obj 415 237 f;
#X obj 374 175 ftom;
#X obj 416 263 -;
#X obj 458 262 r whammybar;
#X obj 415 291 tabread4 spectrum-tab;
#X obj 415 318 moses 1;
#X text 364 60 Adaptado da abstração spectrum-partial do Pure Data
;
#X obj 365 94 r fourier_freq;
#X obj 296 94 inlet;
#X floatatom 265 147 5 0 0 0 - - -, f 5;
#X obj 365 149 *;
#X connect 0 0 8 0;
#X connect 1 0 9 0;
#X connect 2 0 3 0;
#X connect 3 0 5 0;
#X connect 4 0 5 0;
#X connect 5 0 6 0;
#X connect 6 0 8 1;
#X connect 8 0 7 0;
#X connect 9 0 11 0;
#X connect 10 0 9 1;
#X connect 11 0 13 0;
#X connect 12 0 11 1;
#X connect 13 0 14 0;
#X connect 14 0 4 0;
#X connect 14 1 2 0;
#X connect 16 0 19 0;
#X connect 17 0 18 0;
#X connect 17 0 19 1;
#X connect 19 0 10 0;
#X connect 19 0 0 0;
#X restore 335 335 pd parcial;
#X obj 375 313 r load;
#N canvas 1 56 986 553 parcial 0;
#X obj 365 419 osc~;
#X obj 431 204 r poll-table;
#X obj 466 344 + 50;
#X obj 466 370 dbtorms;
#X msg 415 346 0;
#X obj 415 399 pack 0 30;
#X obj 415 429 line~;
#X obj 365 478 throw~ sum-bus;
#X obj 365 449 *~;
#X obj 415 237 f;
#X obj 374 175 ftom;
#X obj 416 263 -;
#X obj 458 262 r whammybar;
#X obj 415 291 tabread4 spectrum-tab;
#X obj 415 318 moses 1;
#X text 364 60 Adaptado da abstração spectrum-partial do Pure Data
;
#X obj 365 94 r fourier_freq;
#X obj 296 94 inlet;
#X floatatom 265 147 5 0 0 0 - - -, f 5;
#X obj 365 149 *;
#X connect 0 0 8 0;
#X connect 1 0 9 0;
#X connect 2 0 3 0;
#X connect 3 0 5 0;
#X connect 4 0 5 0;
#X connect 5 0 6 0;
#X connect 6 0 8 1;
#X connect 8 0 7 0;
#X connect 9 0 11 0;
#X connect 10 0 9 1;
#X connect 11 0 13 0;
#X connect 12 0 11 1;
#X connect 13 0 14 0;
#X connect 14 0 4 0;
#X connect 14 1 2 0;
#X connect 16 0 19 0;
#X connect 17 0 18 0;
#X connect 17 0 19 1;
#X connect 19 0 10 0;
#X connect 19 0 0 0;
#X restore 335 380 pd parcial;
#X obj 375 358 r load;
#N canvas 1 56 986 553 parcial 0;
#X obj 365 419 osc~;
#X obj 431 204 r poll-table;
#X obj 466 344 + 50;
#X obj 466 370 dbtorms;
#X msg 415 346 0;
#X obj 415 399 pack 0 30;
#X obj 415 429 line~;
#X obj 365 478 throw~ sum-bus;
#X obj 365 449 *~;
#X obj 415 237 f;
#X obj 374 175 ftom;
#X obj 416 263 -;
#X obj 458 262 r whammybar;
#X obj 415 291 tabread4 spectrum-tab;
#X obj 415 318 moses 1;
#X text 364 60 Adaptado da abstração spectrum-partial do Pure Data
;
#X obj 365 94 r fourier_freq;
#X obj 296 94 inlet;
#X floatatom 265 147 5 0 0 0 - - -, f 5;
#X obj 365 149 *;
#X connect 0 0 8 0;
#X connect 1 0 9 0;
#X connect 2 0 3 0;
#X connect 3 0 5 0;
#X connect 4 0 5 0;
#X connect 5 0 6 0;
#X connect 6 0 8 1;
#X connect 8 0 7 0;
#X connect 9 0 11 0;
#X connect 10 0 9 1;
#X connect 11 0 13 0;
#X connect 12 0 11 1;
#X connect 13 0 14 0;
#X connect 14 0 4 0;
#X connect 14 1 2 0;
#X connect 16 0 19 0;
#X connect 17 0 18 0;
#X connect 17 0 19 1;
#X connect 19 0 10 0;
#X connect 19 0 0 0;
#X restore 335 424 pd parcial;
#X obj 375 402 r load;
#N canvas 1 56 986 553 parcial 0;
#X obj 365 419 osc~;
#X obj 431 204 r poll-table;
#X obj 466 344 + 50;
#X obj 466 370 dbtorms;
#X msg 415 346 0;
#X obj 415 399 pack 0 30;
#X obj 415 429 line~;
#X obj 365 478 throw~ sum-bus;
#X obj 365 449 *~;
#X obj 415 237 f;
#X obj 374 175 ftom;
#X obj 416 263 -;
#X obj 458 262 r whammybar;
#X obj 415 291 tabread4 spectrum-tab;
#X obj 415 318 moses 1;
#X text 364 60 Adaptado da abstração spectrum-partial do Pure Data
;
#X obj 365 94 r fourier_freq;
#X obj 296 94 inlet;
#X floatatom 265 147 5 0 0 0 - - -, f 5;
#X obj 365 149 *;
#X connect 0 0 8 0;
#X connect 1 0 9 0;
#X connect 2 0 3 0;
#X connect 3 0 5 0;
#X connect 4 0 5 0;
#X connect 5 0 6 0;
#X connect 6 0 8 1;
#X connect 8 0 7 0;
#X connect 9 0 11 0;
#X connect 10 0 9 1;
#X connect 11 0 13 0;
#X connect 12 0 11 1;
#X connect 13 0 14 0;
#X connect 14 0 4 0;
#X connect 14 1 2 0;
#X connect 16 0 19 0;
#X connect 17 0 18 0;
#X connect 17 0 19 1;
#X connect 19 0 10 0;
#X connect 19 0 0 0;
#X restore 335 468 pd parcial;
#X obj 375 446 r load;
#X msg 106 93 2;
#X msg 106 138 3;
#X msg 106 182 4;
#X msg 106 226 5;
#X msg 106 269 6;
#X msg 106 313 7;
#X msg 106 358 8;
#X msg 106 402 9;
#X msg 106 446 10;
#X msg 225 49 11;
#X msg 225 93 12;
#X msg 225 138 13;
#X msg 225 182 14;
#X msg 225 226 15;
#X msg 225 269 16;
#X msg 225 313 17;
#X msg 225 358 18;
#X msg 223 400 19;
#X msg 225 446 20;
#X msg 335 49 21;
#X msg 335 93 22;
#X msg 335 138 23;
#X msg 335 182 24;
#X msg 335 226 25;
#X msg 335 268 26;
#X msg 335 313 27;
#X msg 335 358 28;
#X msg 335 402 29;
#X msg 335 446 30;
#X obj 482 76 s load;
#X obj 463 103 bang~;
#X connect 0 0 92 0;
#X connect 3 0 2 0;
#X connect 4 0 3 0;
#X connect 6 0 63 0;
#X connect 8 0 64 0;
#X connect 10 0 65 0;
#X connect 12 0 66 0;
#X connect 14 0 67 0;
#X connect 16 0 68 0;
#X connect 18 0 69 0;
#X connect 20 0 70 0;
#X connect 22 0 71 0;
#X connect 24 0 72 0;
#X connect 26 0 73 0;
#X connect 28 0 74 0;
#X connect 30 0 75 0;
#X connect 32 0 76 0;
#X connect 34 0 77 0;
#X connect 36 0 78 0;
#X connect 38 0 79 0;
#X connect 40 0 80 0;
#X connect 42 0 81 0;
#X connect 44 0 82 0;
#X connect 46 0 83 0;
#X connect 48 0 84 0;
#X connect 50 0 85 0;
#X connect 52 0 86 0;
#X connect 54 0 87 0;
#X connect 56 0 88 0;
#X connect 58 0 89 0;
#X connect 60 0 90 0;
#X connect 62 0 91 0;
#X connect 63 0 5 0;
#X connect 64 0 7 0;
#X connect 65 0 9 0;
#X connect 66 0 11 0;
#X connect 67 0 13 0;
#X connect 68 0 15 0;
#X connect 69 0 17 0;
#X connect 70 0 19 0;
#X connect 71 0 21 0;
#X connect 72 0 23 0;
#X connect 73 0 25 0;
#X connect 74 0 27 0;
#X connect 75 0 29 0;
#X connect 76 0 31 0;
#X connect 77 0 33 0;
#X connect 78 0 35 0;
#X connect 79 0 37 0;
#X connect 80 0 39 0;
#X connect 81 0 41 0;
#X connect 82 0 43 0;
#X connect 83 0 45 0;
#X connect 84 0 47 0;
#X connect 85 0 49 0;
#X connect 86 0 51 0;
#X connect 87 0 53 0;
#X connect 88 0 55 0;
#X connect 89 0 57 0;
#X connect 90 0 59 0;
#X connect 91 0 61 0;
#X connect 93 0 1 0;
#X restore 99 335 pd oscbank;
#X obj 101 405 catch~ sum-bus;
#X obj 522 432 s whammybar;
#X msg 410 239 \; spectrum-tab const 0;
#X text 476 218 CLEAR;
#X obj 100 536 outlet~;
#X obj 434 45 inlet;
#X msg 522 397 0;
#X obj 522 362 loadbang;
#X obj 101 101 cnv 15 268 168 empty fourier_b empty 20 12 0 14 -262131
-262144 0;
#X obj 113 119 cnv 15 220 120 empty empty empty 20 12 0 14 -262144
-66577 0;
#N canvas 1 58 450 300 (subpatch) 0;
#X array spectrum-tab 127 float 1;
#A 0 37.4995 36.6662 36.4578 36.2495 14.5833 15.4166 18.3332 19.5832
20.8331 22.9164 24.5831 26.6663 27.9163 28.958 29.9996 32.0829 32.9162
34.5828 36.2494 38.3327 38.7494 39.5827 39.5827 39.5827 39.5827 39.5827
39.5827 39.5827 39.5827 39.5827 39.5827 39.166 38.3327 37.9161 36.2494
34.9995 33.3328 32.2912 31.2496 29.7913 27.083 25.6247 24.1664 22.9164
21.6665 20.8331 18.3332 17.7082 16.2499 15 15 15.4166 16.2499 17.4999
19.1665 19.5832 19.9998 22.4998 24.1664 25.4164 28.333 30.8329 32.9162
33.7495 34.5828 35.8328 36.6661 36.6661 36.6661 36.0411 35.4161 34.5828
33.7495 31.6662 29.9996 29.1663 28.333 24.9997 23.9581 22.9164 22.2914
21.6665 19.9998 19.5832 19.1665 19.1665 19.1665 19.1665 19.5832 21.2498
22.0831 22.9164 23.7497 25.833 27.4997 28.7496 30.4162 31.0412 32.9162
33.5412 34.1662 35.4161 35.4161 34.5828 32.9162 32.2912 31.6662 29.5829
26.6663 25.833 23.3331 22.4998 21.6665 21.6665 21.6665 21.6665 21.6665
21.6665 21.6665 21.6665 21.6665 21.6665 21.6665 21.8053 21.9442 22.0831
23.7497;
#X coords 0 50 126 0 220 120 1 0 0;
#X restore 113 119 graph;
#X obj 337 224 bng 15 250 50 0 empty empty empty 17 7 0 10 -204786
-1 -1;
#X text 334 208 Limpa;
#X obj 370 455 loadbang;
#X msg 370 489 \; spectrum-tab xlabel -5 0 12 24 36 48 60 72 84 96
108 120;
#X obj 434 152 s fourier_freq;
#X obj 100 502 *~;
#X text 536 152 <-- Recebe freq. em vez de número midi;
#X obj 434 77 unpack;
#X obj 481 106 s fourier_vel;
#X obj 132 476 r fourier_vel;
#X floatatom 393 118 5 0 0 0 - - -, f 5;
#X connect 1 0 17 0;
#X connect 6 0 19 0;
#X connect 7 0 2 0;
#X connect 8 0 7 0;
#X connect 8 0 15 0;
#X connect 12 0 3 0;
#X connect 14 0 15 0;
#X connect 17 0 5 0;
#X connect 19 0 16 0;
#X connect 19 0 22 0;
#X connect 19 1 20 0;
#X connect 21 0 17 1;
#X coords 0 593 1 592 270 170 2 100 100;
#X restore 297 141 pd fourier;
#X obj 157 685 outlet~;
#X text 295 123 Fourier;
#X obj 258 -2 inlet;
#X obj 713 58 inlet;
#X obj 713 527 outlet;
#X obj 540 539 r freq_ampl;
#X obj 540 572 outlet;
#N canvas 341 331 957 632 chebychev 0;
#X obj 101 101 cnv 15 248 148 empty cheb_b empty 2 12 0 14 -260818
-262144 0;
#X obj 560 130 / 100;
#X floatatom 560 110 5 0 100 0 - - -, f 5;
#X obj 538 200 *~;
#X obj 560 153 pack 0 50;
#X obj 560 177 line~;
#X obj 538 225 *~ 128;
#N canvas 367 334 1327 654 make-table 0;
#X obj 155 116 t b b;
#X obj 227 141 f;
#X obj 265 141 + 1;
#X msg 249 118 0;
#X obj 155 139 until;
#X obj 227 171 t f f;
#X obj 154 167 sel 258;
#X obj 155 97 bng 15 250 50 0 empty empty empty 0 -6 0 8 -262144 -1
-1;
#X obj 166 225 expr ($f1-129)/128;
#X obj 43 266 expr 2*$f1*$f1-1;
#X obj 82 299 expr 4*$f1*$f1*$f1-3*$f1;
#X obj 134 333 expr 8*$f1*$f1*$f1*$f1-8*$f1*$f1+1;
#X obj 174 370 expr 16*$f1*$f1*$f1*$f1*$f1-20*$f1*$f1*$f1+5*$f1;
#X obj 213 408 expr 32*$f1*$f1*$f1*$f1*$f1*$f1 -48*$f1*$f1*$f1*$f1+18*$f1*$f1-1
;
#X obj 276 197 s index;
#X obj 69 329 *;
#X obj 51 301 r w3;
#X obj 112 364 *;
#X obj 27 295 *;
#X obj 158 398 *;
#X obj 196 452 *;
#X obj 64 395 +;
#X obj 129 462 +;
#X obj 196 526 +;
#X obj 22 351 +;
#X obj 307 545 r index;
#X obj 155 68 r calcula_pesos;
#X obj 12 268 r w2;
#X obj 103 333 r w4;
#X obj 141 370 r w5;
#X obj 176 421 r w6;
#X obj 196 582 tabwrite forma_cheb;
#X text 78 17 Faz a combinação linear de cada polinômio por seu
peso respectivo;
#X obj 702 355 t b b;
#X obj 774 380 f;
#X obj 812 380 + 1;
#X msg 796 357 0;
#X obj 702 378 until;
#X obj 774 410 t f f;
#X obj 701 406 sel 258;
#X text 764 223 normalize from -1 to 1;
#X obj 702 336 bng 15 250 50 0 empty empty empty 0 -6 0 8 -262144 -1
-1;
#X obj 649 437 expr ($f1-129)/128;
#X obj 702 313 inlet;
#X obj 732 585 t b b;
#X obj 804 610 f;
#X obj 842 610 + 1;
#X msg 826 587 0;
#X obj 732 608 until;
#X obj 804 640 t f f;
#X obj 731 636 sel 258;
#X obj 732 566 bng 15 250 50 0 empty empty empty 0 -6 0 8 -262144 -1
-1;
#X obj 679 667 expr ($f1-129)/128;
#X obj 732 543 inlet;
#X obj 1005 279 t b b;
#X obj 1077 304 f;
#X obj 1115 304 + 1;
#X msg 1099 281 0;
#X obj 1005 302 until;
#X obj 1077 334 t f f;
#X obj 1004 330 sel 258;
#X obj 952 385 expr 16*$f1*$f1*$f1*$f1*$f1-20*$f1*$f1*$f1+5*$f1;
#X obj 1005 260 bng 15 250 50 0 empty empty empty 0 -6 0 8 -262144
-1 -1;
#X obj 952 361 expr ($f1-129)/128;
#X obj 1005 237 inlet;
#X obj 1065 527 t b b;
#X obj 1137 552 f;
#X obj 1175 552 + 1;
#X msg 1159 529 0;
#X obj 1065 550 until;
#X obj 1137 582 t f f;
#X obj 1064 578 sel 258;
#X obj 1065 508 bng 15 250 50 0 empty empty empty 0 -6 0 8 -262144
-1 -1;
#X obj 1009 609 expr ($f1-129)/128;
#X obj 1065 485 inlet;
#X obj 648 463 expr 4*$f1*$f1*$f1-3*$f1;
#X obj 673 694 expr 8*$f1*$f1*$f1*$f1-8*$f1*$f1+1;
#X obj 1009 633 expr 32*$f1*$f1*$f1*$f1*$f1*$f1 -48*$f1*$f1*$f1*$f1+18*$f1*$f1-1
;
#X text 1202 673 6th C.P. and basta.;
#X obj 644 143 t b b;
#X obj 716 168 f;
#X obj 754 168 + 1;
#X msg 738 145 0;
#X obj 644 166 until;
#X obj 716 198 t f f;
#X obj 643 194 sel 258;
#X obj 644 124 bng 15 250 50 0 empty empty empty 0 -6 0 8 -262144 -1
-1;
#X obj 591 225 expr ($f1-129)/128;
#X obj 644 101 inlet;
#X obj 605 252 expr 2*$f1*$f1-1;
#X text 764 249 2nd C.P.;
#X text 870 461 3rd C.P.;
#X text 892 711 4th C.P.;
#X text 1174 408 5th C.P.;
#X text 820 102 This patch computes Chebychev polynomials and stores
them in a wavetable for use later.;
#X obj 620 274 tabwrite forma_cheb;
#X obj 978 411 tabwrite forma_cheb;
#X obj 676 487 tabwrite forma_cheb;
#X obj 705 717 tabwrite forma_cheb;
#X obj 1038 675 tabwrite forma_cheb;
#X text 616 20 Ondas compostas de um só polinômio (presente no exemplo)
;
#X connect 0 0 4 0;
#X connect 0 1 3 0;
#X connect 1 0 2 0;
#X connect 1 0 5 0;
#X connect 1 0 6 0;
#X connect 2 0 1 1;
#X connect 3 0 1 1;
#X connect 4 0 1 0;
#X connect 5 0 8 0;
#X connect 5 1 14 0;
#X connect 6 0 4 1;
#X connect 7 0 0 0;
#X connect 8 0 9 0;
#X connect 8 0 10 0;
#X connect 8 0 11 0;
#X connect 8 0 12 0;
#X connect 8 0 13 0;
#X connect 9 0 18 0;
#X connect 10 0 15 0;
#X connect 11 0 17 0;
#X connect 12 0 19 0;
#X connect 13 0 20 0;
#X connect 15 0 24 1;
#X connect 16 0 15 1;
#X connect 17 0 21 1;
#X connect 18 0 24 0;
#X connect 19 0 22 1;
#X connect 20 0 23 1;
#X connect 21 0 22 0;
#X connect 22 0 23 0;
#X connect 23 0 31 0;
#X connect 24 0 21 0;
#X connect 25 0 31 1;
#X connect 26 0 7 0;
#X connect 27 0 18 1;
#X connect 28 0 17 1;
#X connect 29 0 19 1;
#X connect 30 0 20 1;
#X connect 33 0 37 0;
#X connect 33 1 36 0;
#X connect 34 0 35 0;
#X connect 34 0 38 0;
#X connect 34 0 39 0;
#X connect 35 0 34 1;
#X connect 36 0 34 1;
#X connect 37 0 34 0;
#X connect 38 0 42 0;
#X connect 38 1 97 1;
#X connect 39 0 37 1;
#X connect 41 0 33 0;
#X connect 42 0 75 0;
#X connect 43 0 41 0;
#X connect 44 0 48 0;
#X connect 44 1 47 0;
#X connect 45 0 46 0;
#X connect 45 0 49 0;
#X connect 45 0 50 0;
#X connect 46 0 45 1;
#X connect 47 0 45 1;
#X connect 48 0 45 0;
#X connect 49 0 52 0;
#X connect 49 1 98 1;
#X connect 50 0 48 1;
#X connect 51 0 44 0;
#X connect 52 0 76 0;
#X connect 53 0 51 0;
#X connect 54 0 58 0;
#X connect 54 1 57 0;
#X connect 55 0 56 0;
#X connect 55 0 59 0;
#X connect 55 0 60 0;
#X connect 56 0 55 1;
#X connect 57 0 55 1;
#X connect 58 0 55 0;
#X connect 59 0 63 0;
#X connect 59 1 96 1;
#X connect 60 0 58 1;
#X connect 61 0 96 0;
#X connect 62 0 54 0;
#X connect 63 0 61 0;
#X connect 64 0 62 0;
#X connect 65 0 69 0;
#X connect 65 1 68 0;
#X connect 66 0 67 0;
#X connect 66 0 70 0;
#X connect 66 0 71 0;
#X connect 67 0 66 1;
#X connect 68 0 66 1;
#X connect 69 0 66 0;
#X connect 70 0 73 0;
#X connect 70 1 99 1;
#X connect 71 0 69 1;
#X connect 72 0 65 0;
#X connect 73 0 77 0;
#X connect 74 0 72 0;
#X connect 75 0 97 0;
#X connect 76 0 98 0;
#X connect 77 0 99 0;
#X connect 79 0 83 0;
#X connect 79 1 82 0;
#X connect 80 0 81 0;
#X connect 80 0 84 0;
#X connect 80 0 85 0;
#X connect 81 0 80 1;
#X connect 82 0 80 1;
#X connect 83 0 80 0;
#X connect 84 0 87 0;
#X connect 84 1 95 1;
#X connect 85 0 83 1;
#X connect 86 0 79 0;
#X connect 87 0 89 0;
#X connect 88 0 86 0;
#X connect 89 0 95 0;
#X restore 344 295 pd make-table;
#X obj 243 229 bng 15 250 50 0 empty empty empty 0 -6 0 8 -203904 -1
-1;
#X obj 265 229 bng 15 250 50 0 empty empty empty 0 -6 0 8 -203904 -1
-1;
#X obj 287 229 bng 15 250 50 0 empty empty empty 0 -6 0 8 -203904 -1
-1;
#X obj 308 229 bng 15 250 50 0 empty empty empty 0 -6 0 8 -203904 -1
-1;
#X obj 330 229 bng 15 250 50 0 empty empty empty 0 -6 0 8 -203904 -1
-1;
#X obj 538 249 +~ 129;
#X obj 538 298 hip~ 5;
#X obj 537 85 osc~ 0;
#X obj 539 407 outlet~;
#X obj 265 141 vsl 15 80 0 2 0 0 empty empty 3º 0 -9 0 10 -228856
-1 -1 6300 1;
#X obj 243 141 vsl 15 80 0 2 0 0 empty empty 2º 0 -9 0 10 -228856
-1 -1 7900 1;
#X obj 308 141 vsl 15 80 0 2 0 0 empty empty 5º 0 -9 0 10 -228856
-1 -1 500 1;
#X obj 287 141 vsl 15 80 0 2 0 0 empty empty 4º 0 -9 0 10 -228856
-1 -1 300 1;
#X obj 330 141 vsl 15 80 0 2 0 0 empty empty 6º 0 -9 0 10 -228856
-1 -1 7900 1;
#X obj 193 22 loadbang;
#X msg 186 59 1;
#X obj 286 107 bng 15 250 50 0 empty empty empty 17 7 0 10 -204786
-1 -1;
#X text 302 107 Limpa;
#X text 241 107 Pesos;
#X floatatom 168 376 5 0 0 0 - - -, f 5;
#X floatatom 206 376 5 0 0 0 - - -, f 5;
#X floatatom 246 376 5 0 0 0 - - -, f 5;
#X floatatom 287 377 5 0 0 0 - - -, f 5;
#X floatatom 128 376 5 0 0 0 - - -, f 5;
#X obj 246 433 expr $f1 + $f2 + $f3 + $f4 + $f5;
#X obj 180 292 bng 15 250 50 0 empty empty empty 17 7 0 10 -262144
-1 -1;
#X obj -4 371 s calcula_pesos;
#X floatatom 300 458 5 0 0 0 - - -, f 5;
#X obj 136 488 /;
#X obj 136 510 s w2;
#X obj 173 494 /;
#X obj 212 503 /;
#X obj 250 517 /;
#X obj 286 524 /;
#X floatatom 164 576 5 0 0 0 - - -, f 5;
#X floatatom 205 576 5 0 0 0 - - -, f 5;
#X floatatom 246 576 5 0 0 0 - - -, f 5;
#X floatatom 285 576 5 0 0 0 - - -, f 5;
#X floatatom 128 573 5 0 0 0 - - -, f 5;
#X obj 173 516 s w3;
#X obj 212 525 s w4;
#X obj 250 539 s w5;
#X obj 286 546 s w6;
#X obj 106 142 cnv 15 130 100 empty empty empty 20 12 0 14 -262144
-66577 0;
#N canvas 1 125 450 300 (subpatch) 0;
#X array forma_cheb 259 float 1;
#A 0 1 0.423882 0.345295 0.273978 0.209558 0.151676 0.0999839 0.0541428
0.0138253 -0.0212835 -0.0514898 -0.0770917 -0.0983732 -0.115611 -0.129074
-0.139017 -0.145691 -0.149331 -0.150171 -0.148431 -0.144324 -0.138056
-0.129822 -0.119812 -0.108207 -0.095179 -0.0808947 -0.0655124 -0.0491838
-0.0320523 -0.0142561 0.00407411 0.0228139 0.0418451 0.0610559 0.0803407
0.0995994 0.118738 0.137667 0.156305 0.174573 0.192398 0.209713 0.226455
0.242566 0.257992 0.272684 0.286599 0.299694 0.311934 0.323286 0.333722
0.343216 0.351747 0.359297 0.365851 0.371397 0.375929 0.379438 0.381924
0.383386 0.383827 0.383252 0.381669 0.379087 0.375519 0.370978 0.365482
0.359047 0.351694 0.343445 0.334322 0.324349 0.313554 0.301963 0.289604
0.276508 0.262704 0.248225 0.233103 0.217372 0.201065 0.184217 0.166863
0.149038 0.13078 0.112125 0.0931082 0.0737676 0.0541401 0.0342627 0.0141725
-0.00609347 -0.0264983 -0.0470054 -0.0675781 -0.0881805 -0.108777 -0.129331
-0.149809 -0.170176 -0.190397 -0.210441 -0.230274 -0.249864 -0.269181
-0.288193 -0.306871 -0.325187 -0.343112 -0.36062 -0.377685 -0.394281
-0.410385 -0.425975 -0.441027 -0.455522 -0.469439 -0.482761 -0.49547
-0.50755 -0.518986 -0.529764 -0.539873 -0.5493 -0.558035 -0.566071
-0.5734 -0.580015 -0.585911 -0.591086 -0.595536 -0.599261 -0.602261
-0.604538 -0.606094 -0.606933 -0.607061 -0.606485 -0.605211 -0.60325
-0.600612 -0.597307 -0.593349 -0.588752 -0.58353 -0.577699 -0.571277
-0.564282 -0.556733 -0.54865 -0.540055 -0.530969 -0.521417 -0.511421
-0.501006 -0.490199 -0.479026 -0.467513 -0.455689 -0.443582 -0.431221
-0.418635 -0.405855 -0.392912 -0.379835 -0.366656 -0.353407 -0.34012
-0.326826 -0.313557 -0.300346 -0.287224 -0.274223 -0.261376 -0.248713
-0.236266 -0.224066 -0.212143 -0.200528 -0.189249 -0.178336 -0.167816
-0.157716 -0.148064 -0.138883 -0.130198 -0.122033 -0.114409 -0.107346
-0.100864 -0.0949796 -0.0897089 -0.0850662 -0.0810638 -0.077712 -0.0750193
-0.0729919 -0.0716338 -0.0709468 -0.0709304 -0.0715808 -0.0728926 -0.0748568
-0.0774621 -0.0806937 -0.0845339 -0.088962 -0.0939536 -0.0994808 -0.105513
-0.112014 -0.118945 -0.126264 -0.133923 -0.141872 -0.150054 -0.158409
-0.166874 -0.175377 -0.183845 -0.192198 -0.200351 -0.208215 -0.215693
-0.222685 -0.229083 -0.234774 -0.23964 -0.243555 -0.246388 -0.248 -0.248246
-0.246973 -0.244025 -0.239234 -0.232428 -0.223424 -0.212034 -0.198063
-0.181305 -0.161547 -0.13857 -0.112142 -0.0820251 -0.0479716 -0.00972657
0.0329775 0.0804137 0.132868 0.190636 0.254021 0.323338 0.398914 0.481083
0.57019 0.666596 0.770669 0.882788;
#X coords 0 1 258 -1 130 100 1 0 0;
#X restore 106 142 graph;
#X obj 108 107 hsl 128 15 -100 100 0 0 cheb_index empty empty -2 -8
0 10 -204800 -1 -1 10795 1;
#X obj 616 108 r cheb_index;
#X obj 537 32 inlet;
#X obj 537 54 unpack;
#X msg 101 64 70;
#X text 105 108 Índice;
#X msg 384 156 normalize;
#X obj 538 273 tabread4~ forma_cheb;
#X obj 379 193 s forma_cheb;
#X text -12 290 Cálculo dos pesos respectivos;
#X obj 539 341 *~ 2;
#X text 580 341 ajuste de amplitude;
#X text 294 74 (Normaliza sempre que há alterações);
#X connect 1 0 4 0;
#X connect 2 0 1 0;
#X connect 3 0 6 0;
#X connect 4 0 5 0;
#X connect 5 0 3 1;
#X connect 6 0 13 0;
#X connect 8 0 59 0;
#X connect 8 0 7 0;
#X connect 9 0 59 0;
#X connect 9 0 7 1;
#X connect 10 0 59 0;
#X connect 10 0 7 2;
#X connect 11 0 59 0;
#X connect 11 0 7 3;
#X connect 12 0 59 0;
#X connect 12 0 7 4;
#X connect 13 0 60 0;
#X connect 14 0 63 0;
#X connect 15 0 3 0;
#X connect 17 0 27 0;
#X connect 17 0 33 0;
#X connect 17 0 59 0;
#X connect 18 0 31 0;
#X connect 18 0 33 0;
#X connect 18 0 59 0;
#X connect 19 0 29 0;
#X connect 19 0 33 0;
#X connect 19 0 59 0;
#X connect 20 0 28 0;
#X connect 20 0 33 0;
#X connect 20 0 59 0;
#X connect 21 0 30 0;
#X connect 21 0 33 0;
#X connect 21 0 59 0;
#X connect 22 0 23 0;
#X connect 22 0 57 0;
#X connect 22 0 59 0;
#X connect 23 0 18 0;
#X connect 23 0 17 0;
#X connect 23 0 20 0;
#X connect 23 0 19 0;
#X connect 23 0 21 0;
#X connect 24 0 23 0;
#X connect 24 0 59 0;
#X connect 27 0 32 1;
#X connect 27 0 38 0;
#X connect 28 0 32 2;
#X connect 28 0 39 0;
#X connect 29 0 32 3;
#X connect 29 0 40 0;
#X connect 30 0 32 4;
#X connect 30 0 41 0;
#X connect 31 0 32 0;
#X connect 31 0 36 0;
#X connect 32 0 35 0;
#X connect 33 0 34 0;
#X connect 33 0 31 0;
#X connect 33 0 27 0;
#X connect 33 0 28 0;
#X connect 33 0 29 0;
#X connect 33 0 30 0;
#X connect 35 0 36 1;
#X connect 35 0 38 1;
#X connect 35 0 39 1;
#X connect 35 0 40 1;
#X connect 35 0 41 1;
#X connect 36 0 37 0;
#X connect 36 0 46 0;
#X connect 38 0 47 0;
#X connect 38 0 42 0;
#X connect 39 0 48 0;
#X connect 39 0 43 0;
#X connect 40 0 49 0;
#X connect 40 0 44 0;
#X connect 41 0 50 0;
#X connect 41 0 45 0;
#X connect 54 0 2 0;
#X connect 55 0 56 0;
#X connect 56 0 15 0;
#X connect 57 0 53 0;
#X connect 59 0 61 0;
#X connect 60 0 14 0;
#X connect 63 0 16 0;
#X coords 0 -1 1 1 250 150 1 100 100;
#X restore 122 333 pd chebychev;
#X text 121 316 Chebychev;
#X obj 279 31 unpack;
#X floatatom 279 53 5 0 0 0 - - -, f 5;
#X floatatom 321 53 5 0 0 0 - - -, f 5;
#X obj 266 555 r cheb_open;
#X obj 251 578 *~;
#X obj 78 573 *~;
#X obj 93 550 r vco_open;
#X obj 155 585 *~;
#X obj 170 562 r fou_open;
#N canvas 358 336 1491 669 fm 0;
#X obj 101 101 cnv 15 158 148 empty fm_b empty 20 12 0 14 -262131 -66577
0;
#X obj 416 341 osc~;
#X text 447 291 freq moduladora;
#X obj 465 318 *~;
#X text 493 317 amplitude moduladora;
#X obj 399 394 +~;
#X obj 400 422 osc~;
#X obj 415 289 *~;
#X obj 416 366 *~;
#X obj 400 502 outlet~;
#X obj 394 135 inlet;
#X obj 394 239 vline~;
#X obj 150 123 vsl 15 100 0 30 0 0 empty empty Índice 0 -9 0 10 -204800
-1 -1 5160 1;
#X obj 109 123 vsl 15 100 0 30 0 0 empty empty Harm. 0 -9 0 10 -261234
-1 -1 7860 1;
#X obj 319 327 vline~;
#X obj 693 255 vline~;
#X obj 394 171 unpack;
#X obj 176 193 tgl 15 0 empty empty empty 17 7 0 10 -204786 -13381
-1 1 1;
#X obj 738 165 sel 0;
#X obj 693 225 *;
#X msg 738 187 1;
#X obj 680 178 spigot;
#X msg 784 189 loadbang;
#X text 174 158 Controle;
#X text 174 173 por amplitude;
#X obj 296 281 s fm_toggle;
#X obj 703 126 r fm_toggle;
#X obj 109 230 nbx 3 14 -1e+37 1e+37 0 0 empty empty empty 0 -8 0 10
-261234 -1 -1 23.8182 256;
#X obj 151 230 nbx 3 14 -1e+37 1e+37 0 0 empty empty empty 0 -8 0 10
-204800 -1 -1 15.6364 256;
#X obj 400 460 *~;
#X msg 446 440 0.5;
#X text 483 440 Atenuador de amplitude;
#X obj 453 408 loadbang;
#X obj 129 53 loadbang;
#X msg 105 80 2;
#X connect 1 0 8 0;
#X connect 3 0 8 1;
#X connect 5 0 6 0;
#X connect 6 0 29 0;
#X connect 7 0 3 0;
#X connect 7 0 1 0;
#X connect 8 0 5 1;
#X connect 10 0 16 0;
#X connect 11 0 7 0;
#X connect 11 0 5 0;
#X connect 12 0 19 0;
#X connect 12 0 28 0;
#X connect 13 0 14 0;
#X connect 13 0 27 0;
#X connect 14 0 7 1;
#X connect 15 0 3 1;
#X connect 16 0 11 0;
#X connect 16 1 21 0;
#X connect 17 0 25 0;
#X connect 18 0 20 0;
#X connect 19 0 15 0;
#X connect 19 0 28 0;
#X connect 20 0 19 1;
#X connect 21 0 19 1;
#X connect 22 0 20 0;
#X connect 26 0 21 1;
#X connect 26 0 18 0;
#X connect 28 0 15 0;
#X connect 29 0 9 0;
#X connect 30 0 29 1;
#X connect 32 0 30 0;
#X connect 33 0 34 0;
#X connect 34 0 12 0;
#X connect 34 0 13 0;
#X coords 0 -1 1 1 160 150 2 100 100;
#X restore 407 334 pd fm;
#X text 406 318 Síntese FM;
#X obj 341 578 *~;
#X obj 356 555 r fm_open;
#X text 175 79 Seletor de técnica;
#X connect 1 0 19 0;
#X connect 2 0 1 0;
#X connect 2 1 4 0;
#X connect 2 2 12 0;
#X connect 2 3 23 0;
#X connect 4 0 21 0;
#X connect 7 0 2 0;
#X connect 7 0 14 0;
#X connect 8 0 9 0;
#X connect 10 0 11 0;
#X connect 12 0 18 0;
#X connect 14 0 15 0;
#X connect 14 1 16 0;
#X connect 17 0 18 1;
#X connect 18 0 5 0;
#X connect 19 0 5 0;
#X connect 20 0 19 1;
#X connect 21 0 5 0;
#X connect 22 0 21 1;
#X connect 23 0 25 0;
#X connect 25 0 5 0;
#X connect 26 0 25 1;
#X coords 0 -1 1 1 500 400 2 100 100;
