#N canvas 0 304 1645 776 10;
#X obj 101 101 cnv 15 498 398 empty empty Síntese 5 12 0 14 -262130
-86853 0;
#N canvas 441 272 736 792 VCO 0;
#X obj 101 101 cnv 15 98 168 empty vco_b empty 20 12 0 14 -262131 -262144
0;
#X obj 103 102 vradio 15 1 0 5 vco_select empty empty 0 -8 0 10 -262130
-260097 -1 1;
#X text 138 131 Dentada;
#X text 134 146 Quadrada;
#X text 144 161 Pulso;
#X text 138 100 Senoide;
#X text 125 115 Triangular;
#X obj 392 71 inlet;
#X obj 377 325 phasor~ 0;
#X obj 392 116 unpack;
#X obj 103 43 loadbang;
#X msg 103 69 0;
#N canvas 1 65 1905 986 triangle 0;
#X obj 299 149 inlet;
#X floatatom 299 211 5 0 0 0 - - -, f 5;
#X obj 347 275 * -1;
#X obj 229 326 phasor~;
#X msg 418 284 0;
#X obj 228 350 *~ 2;
#X obj 228 375 -~ 1;
#X obj 227 399 clip~ 0 1;
#X obj 347 326 phasor~;
#X obj 346 350 *~ 2;
#X obj 346 375 -~ 1;
#X obj 345 399 clip~ 0 1;
#X obj 297 441 +~;
#X obj 298 480 outlet~;
#X connect 0 0 1 0;
#X connect 1 0 2 0;
#X connect 1 0 3 0;
#X connect 2 0 8 0;
#X connect 3 0 5 0;
#X connect 4 0 3 1;
#X connect 4 0 8 1;
#X connect 5 0 6 0;
#X connect 6 0 7 0;
#X connect 7 0 12 0;
#X connect 8 0 9 0;
#X connect 9 0 10 0;
#X connect 10 0 11 0;
#X connect 11 0 12 1;
#X connect 12 0 13 0;
#X restore 299 324 pd triangle;
#N canvas 895 154 794 637 square 0;
#X obj 141 26 inlet;
#X floatatom 141 61 5 0 0 0 - - -, f 5;
#X obj 177 108 * -1;
#X obj 104 190 phasor~;
#X obj 177 190 phasor~;
#X obj 136 237 +~;
#X obj 137 269 -~ 1;
#X msg 202 147 0;
#X msg 243 148 0.5;
#X obj 230 108 loadbang;
#X obj 137 306 outlet~;
#X connect 0 0 1 0;
#X connect 1 0 2 0;
#X connect 1 0 3 0;
#X connect 2 0 4 0;
#X connect 3 0 5 0;
#X connect 4 0 5 1;
#X connect 5 0 6 0;
#X connect 6 0 10 0;
#X connect 7 0 3 1;
#X connect 8 0 4 1;
#X connect 9 0 8 0;
#X connect 9 0 7 0;
#X restore 453 324 pd square;
#N canvas 933 380 450 300 pulse 0;
#X obj 134 57 inlet;
#X obj 134 86 phasor~;
#X obj 135 115 -~ 0.99;
#X obj 135 179 *~ 100;
#X obj 135 147 clip~ 0 1;
#X obj 136 209 outlet~;
#X connect 0 0 1 0;
#X connect 1 0 2 0;
#X connect 2 0 4 0;
#X connect 3 0 5 0;
#X connect 4 0 3 0;
#X restore 525 324 pd pulse;
#X obj 245 325 osc~ 0;
#N canvas 181 235 1051 722 multiplexer 0;
#X obj 327 402 outlet~;
#X obj 139 157 inlet~;
#X obj 165 208 r vco_select;
#X obj 165 245 == 0;
#X obj 138 300 *~;
#X obj 303 161 inlet~;
#X obj 329 212 r vco_select;
#X obj 302 304 *~;
#X obj 448 159 inlet~;
#X obj 474 210 r vco_select;
#X obj 447 302 *~;
#X obj 590 163 inlet~;
#X obj 616 214 r vco_select;
#X obj 589 306 *~;
#X obj 728 156 inlet~;
#X obj 754 207 r vco_select;
#X obj 727 299 *~;
#X obj 329 249 == 1;
#X obj 474 247 == 2;
#X obj 616 251 == 3;
#X obj 754 244 == 4;
#X floatatom 204 315 5 0 0 0 - - -, f 5;
#X obj 182 267 sel 0;
#X msg 182 295 0;
#X obj 341 277 sel 0;
#X msg 341 305 0;
#X obj 487 274 sel 0;
#X msg 487 302 0;
#X obj 629 279 sel 0;
#X msg 629 307 0;
#X obj 767 270 sel 0;
#X msg 767 298 0;
#X connect 1 0 4 0;
#X connect 2 0 3 0;
#X connect 3 0 4 1;
#X connect 3 0 21 0;
#X connect 3 0 22 0;
#X connect 4 0 0 0;
#X connect 5 0 7 0;
#X connect 6 0 17 0;
#X connect 7 0 0 0;
#X connect 8 0 10 0;
#X connect 9 0 18 0;
#X connect 10 0 0 0;
#X connect 11 0 13 0;
#X connect 12 0 19 0;
#X connect 13 0 0 0;
#X connect 14 0 16 0;
#X connect 15 0 20 0;
#X connect 16 0 0 0;
#X connect 17 0 7 1;
#X connect 17 0 24 0;
#X connect 18 0 10 1;
#X connect 18 0 26 0;
#X connect 19 0 13 1;
#X connect 19 0 28 0;
#X connect 20 0 16 1;
#X connect 20 0 30 0;
#X connect 22 0 23 0;
#X connect 23 0 4 1;
#X connect 24 0 25 0;
#X connect 25 0 7 1;
#X connect 26 0 27 0;
#X connect 27 0 10 1;
#X connect 28 0 29 0;
#X connect 29 0 13 1;
#X connect 30 0 31 0;
#X connect 31 0 16 1;
#X restore 359 484 pd multiplexer;
#X obj 359 590 outlet~;
#X msg 620 224 0;
#X obj 620 185 r end;
#X obj 352 223 zexy/demultiplex 1 2 3 4 5;
#N canvas 995 246 820 656 escreve_forma 0;
#X obj 246 273 bng 15 250 50 0 empty empty empty 17 7 0 10 -262144
-1 -1;
#X obj 284 305 bng 15 250 50 0 empty empty empty 17 7 0 10 -262144
-1 -1;
#X obj 322 333 bng 15 250 50 0 empty empty empty 17 7 0 10 -262144
-1 -1;
#X obj 360 363 bng 15 250 50 0 empty empty empty 17 7 0 10 -262144
-1 -1;
#X obj 400 393 bng 15 250 50 0 empty empty empty 17 7 0 10 -262144
-1 -1;
#X obj 246 91 inlet;
#X obj 246 161 zexy/demultiplex 1 2 3 4 5;
#X obj 246 115 t b f;
#X msg 181 391 \; forma_vco read sin.txt;
#X msg 209 439 \; forma_vco read triangle.txt;
#X msg 273 542 \; forma_vco read square.txt;
#X msg 232 489 \; forma_vco read sawtooth.txt;
#X msg 302 586 \; forma_vco read pulse.txt;
#X connect 0 0 8 0;
#X connect 1 0 9 0;
#X connect 2 0 11 0;
#X connect 3 0 10 0;
#X connect 4 0 12 0;
#X connect 5 0 7 0;
#X connect 6 0 0 0;
#X connect 6 1 1 0;
#X connect 6 2 2 0;
#X connect 6 3 3 0;
#X connect 6 4 4 0;
#X connect 7 0 6 0;
#X connect 7 1 6 1;
#X restore 103 328 pd escreve_forma;
#X obj 109 196 cnv 15 80 60 empty empty empty 20 12 0 14 -262144 -66577
0;
#N canvas 0 122 450 250 (subpatch) 0;
#X array forma_vco 64 float 1;
#A 0 0.0671864 0.112538 0.157889 0.203241 0.248592 0.293944 0.339295
0.384647 0.429998 0.47535 0.520701 0.566053 0.611404 0.656755 0.702107
0.747458 0.79281 0.838161 0.883513 0.928864 0.974216 0.980433 0.935081
0.88973 0.844378 0.799027 0.753675 0.708324 0.662972 0.617621 0.572269
0.526918 0.481567 0.436215 0.390864 0.345512 0.300161 0.254809 0.209458
0.164106 0.118755 0.0734034 0.0280519 0.0172997 0.0626512 0.108003
0.153354 0.198706 0.244057 0.289408 0.33476 0.380111 0.425463 0.470814
0.516166 0.561517 0.606869 0.65222 0.697572 0.742923 0.788275 0.833626
0.878978 0.924329;
#X coords 0 1 63 -1 80 60 1 0 0;
#X restore 109 196 graph;
#X floatatom 392 173 5 0 0 0 - - -, f 5;
#X connect 1 0 20 1;
#X connect 1 0 21 0;
#X connect 7 0 9 0;
#X connect 8 0 16 2;
#X connect 9 0 20 0;
#X connect 9 0 24 0;
#X connect 10 0 11 0;
#X connect 11 0 1 0;
#X connect 12 0 16 1;
#X connect 13 0 16 3;
#X connect 14 0 16 4;
#X connect 15 0 16 0;
#X connect 16 0 17 0;
#X connect 18 0 15 0;
#X connect 18 0 12 0;
#X connect 18 0 8 0;
#X connect 18 0 13 0;
#X connect 18 0 14 0;
#X connect 19 0 18 0;
#X connect 20 0 15 0;
#X connect 20 1 12 0;
#X connect 20 2 8 0;
#X connect 20 3 13 0;
#X connect 20 4 14 0;
#X coords 0 -1 1 1 100 170 2 100 100;
#X restore 122 140 pd VCO;
#N canvas 688 193 889 806 synth_selector 0;
#X obj 100 101 hradio 15 1 0 4 empty empty empty 0 -8 0 10 -262130
-260097 -1 1;
#X obj 266 111 inlet;
#X obj 266 154 unpack;
#X obj 377 223 s vel;
#X obj 333 155 s freq_ampl;
#N canvas 0 176 1600 781 select_synth 0;
#X obj 377 276 route 0 1 2;
#X obj 196 406 bng 15 250 50 0 empty empty empty 17 7 0 10 -262144
-1 -1;
#X obj 323 406 bng 15 250 50 0 empty empty empty 17 7 0 10 -262144
-1 -1;
#X msg 323 450 \; vco_b color 5;
#X obj 377 310 s sb1;
#X obj 414 310 s sb2;
#X obj 451 310 s sb3;
#X obj 488 310 s sb4;
#X obj 196 370 r sb1;
#X obj 283 370 r sb2;
#X obj 323 370 r sb3;
#X obj 364 370 r sb4;
#X obj 445 402 bng 15 250 50 0 empty empty empty 17 7 0 10 -262144
-1 -1;
#X obj 565 402 bng 15 250 50 0 empty empty empty 17 7 0 10 -262144
-1 -1;
#X obj 565 366 r sb3;
#X obj 606 366 r sb4;
#X obj 689 404 bng 15 250 50 0 empty empty empty 17 7 0 10 -262144
-1 -1;
#X obj 809 404 bng 15 250 50 0 empty empty empty 17 7 0 10 -262144
-1 -1;
#X obj 769 368 r sb2;
#X obj 850 368 r sb4;
#X obj 934 404 bng 15 250 50 0 empty empty empty 17 7 0 10 -262144
-1 -1;
#X obj 1054 404 bng 15 250 50 0 empty empty empty 17 7 0 10 -262144
-1 -1;
#X obj 1054 368 r sb3;
#X obj 377 238 inlet;
#X obj 445 366 r sb2;
#X obj 525 366 r sb1;
#X obj 689 368 r sb3;
#X obj 809 368 r sb1;
#X obj 934 368 r sb4;
#X obj 1014 368 r sb1;
#X msg 196 451 \; vco_b color 104;
#X obj 297 494 outlet;
#X obj 1026 503 outlet;
#X obj 538 498 outlet;
#X obj 782 502 outlet;
#X msg 297 429 0;
#X msg 538 425 0;
#X obj 543 70 loadbang;
#X msg 782 426 0;
#X msg 1026 429 0;
#X msg 445 447 \; fourier_b color 104;
#X msg 565 446 \; fourier_b color 5;
#X msg 719 428 1;
#X msg 970 427 1;
#X msg 229 429 1;
#X msg 483 422 1;
#X msg 689 449 \; cheb_b color 104;
#X msg 809 448 \; cheb_b color 5;
#X msg 934 449 \; fm_b color 104;
#X msg 1054 448 \; fm_b color 5;
#X obj 1096 368 r sb2;
#X connect 0 0 4 0;
#X connect 0 1 5 0;
#X connect 0 2 6 0;
#X connect 0 3 7 0;
#X connect 1 0 30 0;
#X connect 1 0 44 0;
#X connect 2 0 3 0;
#X connect 2 0 35 0;
#X connect 8 0 1 0;
#X connect 9 0 2 0;
#X connect 10 0 2 0;
#X connect 11 0 2 0;
#X connect 12 0 40 0;
#X connect 12 0 45 0;
#X connect 13 0 41 0;
#X connect 13 0 36 0;
#X connect 14 0 13 0;
#X connect 15 0 13 0;
#X connect 16 0 46 0;
#X connect 16 0 42 0;
#X connect 17 0 47 0;
#X connect 17 0 38 0;
#X connect 18 0 17 0;
#X connect 19 0 17 0;
#X connect 20 0 48 0;
#X connect 20 0 43 0;
#X connect 21 0 49 0;
#X connect 21 0 39 0;
#X connect 22 0 21 0;
#X connect 23 0 0 0;
#X connect 24 0 12 0;
#X connect 25 0 13 0;
#X connect 26 0 16 0;
#X connect 27 0 17 0;
#X connect 28 0 20 0;
#X connect 29 0 21 0;
#X connect 35 0 31 0;
#X connect 36 0 33 0;
#X connect 37 0 1 0;
#X connect 37 0 13 0;
#X connect 37 0 17 0;
#X connect 37 0 21 0;
#X connect 38 0 34 0;
#X connect 39 0 32 0;
#X connect 42 0 34 0;
#X connect 43 0 32 0;
#X connect 44 0 31 0;
#X connect 45 0 33 0;
#X connect 50 0 21 0;
#X restore 114 198 pd select_synth;
#N canvas 69 149 773 599 sel 0;
#X obj 111 30 inlet;
#X obj 226 31 inlet;
#X obj 148 281 r vel;
#X obj 127 318 pack;
#X obj 127 359 outlet;
#X obj 212 209 spigot;
#X obj 127 156 == 0;
#X obj 108 206 spigot;
#X floatatom 127 242 5 0 0 0 - - -, f 5;
#X connect 0 0 5 1;
#X connect 0 0 6 0;
#X connect 0 0 7 0;
#X connect 1 0 5 0;
#X connect 2 0 3 1;
#X connect 3 0 4 0;
#X connect 5 0 8 0;
#X connect 6 0 7 1;
#X connect 7 0 8 0;
#X connect 8 0 3 0;
#X restore 72 272 pd sel;
#N canvas 67 150 773 599 sel 0;
#X obj 111 30 inlet;
#X obj 226 31 inlet;
#X obj 148 281 r vel;
#X obj 127 318 pack;
#X obj 127 359 outlet;
#X obj 212 209 spigot;
#X obj 127 156 == 0;
#X obj 108 206 spigot;
#X floatatom 127 242 5 0 0 0 - - -, f 5;
#X connect 0 0 5 1;
#X connect 0 0 6 0;
#X connect 0 0 7 0;
#X connect 1 0 5 0;
#X connect 2 0 3 1;
#X connect 3 0 4 0;
#X connect 5 0 8 0;
#X connect 6 0 7 1;
#X connect 7 0 8 0;
#X connect 8 0 3 0;
#X restore 181 344 pd sel;
#N canvas 64 164 773 599 sel 0;
#X obj 111 30 inlet;
#X obj 226 31 inlet;
#X obj 148 281 r vel;
#X obj 127 318 pack;
#X obj 127 359 outlet;
#X obj 212 209 spigot;
#X obj 127 156 == 0;
#X obj 108 206 spigot;
#X floatatom 127 242 5 0 0 0 - - -, f 5;
#X connect 0 0 5 1;
#X connect 0 0 6 0;
#X connect 0 0 7 0;
#X connect 1 0 5 0;
#X connect 2 0 3 1;
#X connect 3 0 4 0;
#X connect 5 0 8 0;
#X connect 6 0 7 1;
#X connect 7 0 8 0;
#X connect 8 0 3 0;
#X restore 238 369 pd sel;
#N canvas 65 151 773 599 sel 0;
#X obj 111 30 inlet;
#X obj 226 31 inlet;
#X obj 148 281 r vel;
#X obj 127 318 pack;
#X obj 127 359 outlet;
#X obj 212 209 spigot;
#X obj 127 156 == 0;
#X obj 108 206 spigot;
#X floatatom 127 242 5 0 0 0 - - -, f 5;
#X connect 0 0 5 1;
#X connect 0 0 6 0;
#X connect 0 0 7 0;
#X connect 1 0 5 0;
#X connect 2 0 3 1;
#X connect 3 0 4 0;
#X connect 5 0 8 0;
#X connect 6 0 7 1;
#X connect 7 0 8 0;
#X connect 8 0 3 0;
#X restore 124 307 pd sel;
#X obj 72 316 outlet;
#X obj 238 408 outlet;
#X obj 181 381 outlet;
#X obj 124 346 outlet;
#X obj 295 279 s cheb_open;
#X obj 298 311 s fou_open;
#X obj 296 344 s vco_open;
#X obj 296 249 s fm_open;
#X connect 0 0 5 0;
#X connect 1 0 2 0;
#X connect 1 0 4 0;
#X connect 2 0 6 1;
#X connect 2 0 9 1;
#X connect 2 0 7 1;
#X connect 2 0 8 1;
#X connect 2 1 3 0;
#X connect 5 0 6 0;
#X connect 5 0 16 0;
#X connect 5 1 9 0;
#X connect 5 1 15 0;
#X connect 5 2 7 0;
#X connect 5 2 14 0;
#X connect 5 3 8 0;
#X connect 5 3 17 0;
#X connect 6 0 10 0;
#X connect 7 0 12 0;
#X connect 8 0 11 0;
#X connect 9 0 13 0;
#X coords 0 -1 1 1 60 17 2 100 100;
#X restore 175 104 pd synth_selector;
#X text 121 121 VCO;
#N canvas 818 250 926 725 fourier 0;
#N canvas 447 235 1142 584 oscbank 0;
#X obj 463 48 loadbang;
#X obj 463 133 s poll-table;
#N canvas 1 58 986 553 parcial 0;
#X obj 365 419 osc~;
#X obj 431 204 r poll-table;
#X obj 466 344 + 50;
#X obj 466 370 dbtorms;
#X msg 415 346 0;
#X obj 415 399 pack 0 30;
#X obj 415 429 line~;
#X obj 365 478 throw~ sum-bus;
#X obj 365 449 *~;
#X obj 415 237 f;
#X obj 374 175 ftom;
#X obj 416 263 -;
#X obj 458 262 r whammybar;
#X obj 415 291 tabread4 spectrum-tab;
#X obj 415 318 moses 1;
#X text 364 60 Adaptado da abstração spectrum-partial do Pure Data
;
#X obj 365 94 r fourier_freq;
#X obj 296 94 inlet;
#X floatatom 265 147 5 0 0 0 - - -, f 5;
#X obj 365 149 *;
#X connect 0 0 8 0;
#X connect 1 0 9 0;
#X connect 2 0 3 0;
#X connect 3 0 5 0;
#X connect 4 0 5 0;
#X connect 5 0 6 0;
#X connect 6 0 8 1;
#X connect 8 0 7 0;
#X connect 9 0 11 0;
#X connect 10 0 9 1;
#X connect 11 0 13 0;
#X connect 12 0 11 1;
#X connect 13 0 14 0;
#X connect 14 0 4 0;
#X connect 14 1 2 0;
#X connect 16 0 19 0;
#X connect 17 0 18 0;
#X connect 17 0 19 1;
#X connect 19 0 10 0;
#X connect 19 0 0 0;
#X restore 106 71 pd parcial;
#X msg 106 49 1;
#X obj 146 49 r load;
#N canvas 1 56 986 553 parcial 0;
#X obj 365 419 osc~;
#X obj 431 204 r poll-table;
#X obj 466 344 + 50;
#X obj 466 370 dbtorms;
#X msg 415 346 0;
#X obj 415 399 pack 0 30;
#X obj 415 429 line~;
#X obj 365 478 throw~ sum-bus;
#X obj 365 449 *~;
#X obj 415 237 f;
#X obj 374 175 ftom;
#X obj 416 263 -;
#X obj 458 262 r whammybar;
#X obj 415 291 tabread4 spectrum-tab;
#X obj 415 318 moses 1;
#X text 364 60 Adaptado da abstração spectrum-partial do Pure Data
;
#X obj 365 94 r fourier_freq;
#X obj 296 94 inlet;
#X floatatom 265 147 5 0 0 0 - - -, f 5;
#X obj 365 149 *;
#X connect 0 0 8 0;
#X connect 1 0 9 0;
#X connect 2 0 3 0;
#X connect 3 0 5 0;
#X connect 4 0 5 0;
#X connect 5 0 6 0;
#X connect 6 0 8 1;
#X connect 8 0 7 0;
#X connect 9 0 11 0;
#X connect 10 0 9 1;
#X connect 11 0 13 0;
#X connect 12 0 11 1;
#X connect 13 0 14 0;
#X connect 14 0 4 0;
#X connect 14 1 2 0;
#X connect 16 0 19 0;
#X connect 17 0 18 0;
#X connect 17 0 19 1;
#X connect 19 0 10 0;
#X connect 19 0 0 0;
#X restore 106 115 pd parcial;
#X obj 146 93 r load;
#N canvas 1 56 986 553 parcial 0;
#X obj 365 419 osc~;
#X obj 431 204 r poll-table;
#X obj 466 344 + 50;
#X obj 466 370 dbtorms;
#X msg 415 346 0;
#X obj 415 399 pack 0 30;
#X obj 415 429 line~;
#X obj 365 478 throw~ sum-bus;
#X obj 365 449 *~;
#X obj 415 237 f;
#X obj 374 175 ftom;
#X obj 416 263 -;
#X obj 458 262 r whammybar;
#X obj 415 291 tabread4 spectrum-tab;
#X obj 415 318 moses 1;
#X text 364 60 Adaptado da abstração spectrum-partial do Pure Data
;
#X obj 365 94 r fourier_freq;
#X obj 296 94 inlet;
#X floatatom 265 147 5 0 0 0 - - -, f 5;
#X obj 365 149 *;
#X connect 0 0 8 0;
#X connect 1 0 9 0;
#X connect 2 0 3 0;
#X connect 3 0 5 0;
#X connect 4 0 5 0;
#X connect 5 0 6 0;
#X connect 6 0 8 1;
#X connect 8 0 7 0;
#X connect 9 0 11 0;
#X connect 10 0 9 1;
#X connect 11 0 13 0;
#X connect 12 0 11 1;
#X connect 13 0 14 0;
#X connect 14 0 4 0;
#X connect 14 1 2 0;
#X connect 16 0 19 0;
#X connect 17 0 18 0;
#X connect 17 0 19 1;
#X connect 19 0 10 0;
#X connect 19 0 0 0;
#X restore 106 160 pd parcial;
#X obj 146 138 r load;
#N canvas 1 56 986 553 parcial 0;
#X obj 365 419 osc~;
#X obj 431 204 r poll-table;
#X obj 466 344 + 50;
#X obj 466 370 dbtorms;
#X msg 415 346 0;
#X obj 415 399 pack 0 30;
#X obj 415 429 line~;
#X obj 365 478 throw~ sum-bus;
#X obj 365 449 *~;
#X obj 415 237 f;
#X obj 374 175 ftom;
#X obj 416 263 -;
#X obj 458 262 r whammybar;
#X obj 415 291 tabread4 spectrum-tab;
#X obj 415 318 moses 1;
#X text 364 60 Adaptado da abstração spectrum-partial do Pure Data
;
#X obj 365 94 r fourier_freq;
#X obj 296 94 inlet;
#X floatatom 265 147 5 0 0 0 - - -, f 5;
#X obj 365 149 *;
#X connect 0 0 8 0;
#X connect 1 0 9 0;
#X connect 2 0 3 0;
#X connect 3 0 5 0;
#X connect 4 0 5 0;
#X connect 5 0 6 0;
#X connect 6 0 8 1;
#X connect 8 0 7 0;
#X connect 9 0 11 0;
#X connect 10 0 9 1;
#X connect 11 0 13 0;
#X connect 12 0 11 1;
#X connect 13 0 14 0;
#X connect 14 0 4 0;
#X connect 14 1 2 0;
#X connect 16 0 19 0;
#X connect 17 0 18 0;
#X connect 17 0 19 1;
#X connect 19 0 10 0;
#X connect 19 0 0 0;
#X restore 106 204 pd parcial;
#X obj 146 182 r load;
#N canvas 1 56 986 553 parcial 0;
#X obj 365 419 osc~;
#X obj 431 204 r poll-table;
#X obj 466 344 + 50;
#X obj 466 370 dbtorms;
#X msg 415 346 0;
#X obj 415 399 pack 0 30;
#X obj 415 429 line~;
#X obj 365 478 throw~ sum-bus;
#X obj 365 449 *~;
#X obj 415 237 f;
#X obj 374 175 ftom;
#X obj 416 263 -;
#X obj 458 262 r whammybar;
#X obj 415 291 tabread4 spectrum-tab;
#X obj 415 318 moses 1;
#X text 364 60 Adaptado da abstração spectrum-partial do Pure Data
;
#X obj 365 94 r fourier_freq;
#X obj 296 94 inlet;
#X floatatom 265 147 5 0 0 0 - - -, f 5;
#X obj 365 149 *;
#X connect 0 0 8 0;
#X connect 1 0 9 0;
#X connect 2 0 3 0;
#X connect 3 0 5 0;
#X connect 4 0 5 0;
#X connect 5 0 6 0;
#X connect 6 0 8 1;
#X connect 8 0 7 0;
#X connect 9 0 11 0;
#X connect 10 0 9 1;
#X connect 11 0 13 0;
#X connect 12 0 11 1;
#X connect 13 0 14 0;
#X connect 14 0 4 0;
#X connect 14 1 2 0;
#X connect 16 0 19 0;
#X connect 17 0 18 0;
#X connect 17 0 19 1;
#X connect 19 0 10 0;
#X connect 19 0 0 0;
#X restore 106 248 pd parcial;
#X obj 146 226 r load;
#N canvas 1 56 986 553 parcial 0;
#X obj 365 419 osc~;
#X obj 431 204 r poll-table;
#X obj 466 344 + 50;
#X obj 466 370 dbtorms;
#X msg 415 346 0;
#X obj 415 399 pack 0 30;
#X obj 415 429 line~;
#X obj 365 478 throw~ sum-bus;
#X obj 365 449 *~;
#X obj 415 237 f;
#X obj 374 175 ftom;
#X obj 416 263 -;
#X obj 458 262 r whammybar;
#X obj 415 291 tabread4 spectrum-tab;
#X obj 415 318 moses 1;
#X text 364 60 Adaptado da abstração spectrum-partial do Pure Data
;
#X obj 365 94 r fourier_freq;
#X obj 296 94 inlet;
#X floatatom 265 147 5 0 0 0 - - -, f 5;
#X obj 365 149 *;
#X connect 0 0 8 0;
#X connect 1 0 9 0;
#X connect 2 0 3 0;
#X connect 3 0 5 0;
#X connect 4 0 5 0;
#X connect 5 0 6 0;
#X connect 6 0 8 1;
#X connect 8 0 7 0;
#X connect 9 0 11 0;
#X connect 10 0 9 1;
#X connect 11 0 13 0;
#X connect 12 0 11 1;
#X connect 13 0 14 0;
#X connect 14 0 4 0;
#X connect 14 1 2 0;
#X connect 16 0 19 0;
#X connect 17 0 18 0;
#X connect 17 0 19 1;
#X connect 19 0 10 0;
#X connect 19 0 0 0;
#X restore 106 291 pd parcial;
#X obj 146 269 r load;
#N canvas 1 56 986 553 parcial 0;
#X obj 365 419 osc~;
#X obj 431 204 r poll-table;
#X obj 466 344 + 50;
#X obj 466 370 dbtorms;
#X msg 415 346 0;
#X obj 415 399 pack 0 30;
#X obj 415 429 line~;
#X obj 365 478 throw~ sum-bus;
#X obj 365 449 *~;
#X obj 415 237 f;
#X obj 374 175 ftom;
#X obj 416 263 -;
#X obj 458 262 r whammybar;
#X obj 415 291 tabread4 spectrum-tab;
#X obj 415 318 moses 1;
#X text 364 60 Adaptado da abstração spectrum-partial do Pure Data
;
#X obj 365 94 r fourier_freq;
#X obj 296 94 inlet;
#X floatatom 265 147 5 0 0 0 - - -, f 5;
#X obj 365 149 *;
#X connect 0 0 8 0;
#X connect 1 0 9 0;
#X connect 2 0 3 0;
#X connect 3 0 5 0;
#X connect 4 0 5 0;
#X connect 5 0 6 0;
#X connect 6 0 8 1;
#X connect 8 0 7 0;
#X connect 9 0 11 0;
#X connect 10 0 9 1;
#X connect 11 0 13 0;
#X connect 12 0 11 1;
#X connect 13 0 14 0;
#X connect 14 0 4 0;
#X connect 14 1 2 0;
#X connect 16 0 19 0;
#X connect 17 0 18 0;
#X connect 17 0 19 1;
#X connect 19 0 10 0;
#X connect 19 0 0 0;
#X restore 106 335 pd parcial;
#X obj 146 313 r load;
#N canvas 1 56 986 553 parcial 0;
#X obj 365 419 osc~;
#X obj 431 204 r poll-table;
#X obj 466 344 + 50;
#X obj 466 370 dbtorms;
#X msg 415 346 0;
#X obj 415 399 pack 0 30;
#X obj 415 429 line~;
#X obj 365 478 throw~ sum-bus;
#X obj 365 449 *~;
#X obj 415 237 f;
#X obj 374 175 ftom;
#X obj 416 263 -;
#X obj 458 262 r whammybar;
#X obj 415 291 tabread4 spectrum-tab;
#X obj 415 318 moses 1;
#X text 364 60 Adaptado da abstração spectrum-partial do Pure Data
;
#X obj 365 94 r fourier_freq;
#X obj 296 94 inlet;
#X floatatom 265 147 5 0 0 0 - - -, f 5;
#X obj 365 149 *;
#X connect 0 0 8 0;
#X connect 1 0 9 0;
#X connect 2 0 3 0;
#X connect 3 0 5 0;
#X connect 4 0 5 0;
#X connect 5 0 6 0;
#X connect 6 0 8 1;
#X connect 8 0 7 0;
#X connect 9 0 11 0;
#X connect 10 0 9 1;
#X connect 11 0 13 0;
#X connect 12 0 11 1;
#X connect 13 0 14 0;
#X connect 14 0 4 0;
#X connect 14 1 2 0;
#X connect 16 0 19 0;
#X connect 17 0 18 0;
#X connect 17 0 19 1;
#X connect 19 0 10 0;
#X connect 19 0 0 0;
#X restore 106 380 pd parcial;
#X obj 146 358 r load;
#N canvas 1 56 986 553 parcial 0;
#X obj 365 419 osc~;
#X obj 431 204 r poll-table;
#X obj 466 344 + 50;
#X obj 466 370 dbtorms;
#X msg 415 346 0;
#X obj 415 399 pack 0 30;
#X obj 415 429 line~;
#X obj 365 478 throw~ sum-bus;
#X obj 365 449 *~;
#X obj 415 237 f;
#X obj 374 175 ftom;
#X obj 416 263 -;
#X obj 458 262 r whammybar;
#X obj 415 291 tabread4 spectrum-tab;
#X obj 415 318 moses 1;
#X text 364 60 Adaptado da abstração spectrum-partial do Pure Data
;
#X obj 365 94 r fourier_freq;
#X obj 296 94 inlet;
#X floatatom 265 147 5 0 0 0 - - -, f 5;
#X obj 365 149 *;
#X connect 0 0 8 0;
#X connect 1 0 9 0;
#X connect 2 0 3 0;
#X connect 3 0 5 0;
#X connect 4 0 5 0;
#X connect 5 0 6 0;
#X connect 6 0 8 1;
#X connect 8 0 7 0;
#X connect 9 0 11 0;
#X connect 10 0 9 1;
#X connect 11 0 13 0;
#X connect 12 0 11 1;
#X connect 13 0 14 0;
#X connect 14 0 4 0;
#X connect 14 1 2 0;
#X connect 16 0 19 0;
#X connect 17 0 18 0;
#X connect 17 0 19 1;
#X connect 19 0 10 0;
#X connect 19 0 0 0;
#X restore 106 424 pd parcial;
#X obj 146 402 r load;
#N canvas 1 56 986 553 parcial 0;
#X obj 365 419 osc~;
#X obj 431 204 r poll-table;
#X obj 466 344 + 50;
#X obj 466 370 dbtorms;
#X msg 415 346 0;
#X obj 415 399 pack 0 30;
#X obj 415 429 line~;
#X obj 365 478 throw~ sum-bus;
#X obj 365 449 *~;
#X obj 415 237 f;
#X obj 374 175 ftom;
#X obj 416 263 -;
#X obj 458 262 r whammybar;
#X obj 415 291 tabread4 spectrum-tab;
#X obj 415 318 moses 1;
#X text 364 60 Adaptado da abstração spectrum-partial do Pure Data
;
#X obj 365 94 r fourier_freq;
#X obj 296 94 inlet;
#X floatatom 265 147 5 0 0 0 - - -, f 5;
#X obj 365 149 *;
#X connect 0 0 8 0;
#X connect 1 0 9 0;
#X connect 2 0 3 0;
#X connect 3 0 5 0;
#X connect 4 0 5 0;
#X connect 5 0 6 0;
#X connect 6 0 8 1;
#X connect 8 0 7 0;
#X connect 9 0 11 0;
#X connect 10 0 9 1;
#X connect 11 0 13 0;
#X connect 12 0 11 1;
#X connect 13 0 14 0;
#X connect 14 0 4 0;
#X connect 14 1 2 0;
#X connect 16 0 19 0;
#X connect 17 0 18 0;
#X connect 17 0 19 1;
#X connect 19 0 10 0;
#X connect 19 0 0 0;
#X restore 106 468 pd parcial;
#X obj 146 446 r load;
#N canvas 1 56 986 553 parcial 0;
#X obj 365 419 osc~;
#X obj 431 204 r poll-table;
#X obj 466 344 + 50;
#X obj 466 370 dbtorms;
#X msg 415 346 0;
#X obj 415 399 pack 0 30;
#X obj 415 429 line~;
#X obj 365 478 throw~ sum-bus;
#X obj 365 449 *~;
#X obj 415 237 f;
#X obj 374 175 ftom;
#X obj 416 263 -;
#X obj 458 262 r whammybar;
#X obj 415 291 tabread4 spectrum-tab;
#X obj 415 318 moses 1;
#X text 364 60 Adaptado da abstração spectrum-partial do Pure Data
;
#X obj 365 94 r fourier_freq;
#X obj 296 94 inlet;
#X floatatom 265 147 5 0 0 0 - - -, f 5;
#X obj 365 149 *;
#X connect 0 0 8 0;
#X connect 1 0 9 0;
#X connect 2 0 3 0;
#X connect 3 0 5 0;
#X connect 4 0 5 0;
#X connect 5 0 6 0;
#X connect 6 0 8 1;
#X connect 8 0 7 0;
#X connect 9 0 11 0;
#X connect 10 0 9 1;
#X connect 11 0 13 0;
#X connect 12 0 11 1;
#X connect 13 0 14 0;
#X connect 14 0 4 0;
#X connect 14 1 2 0;
#X connect 16 0 19 0;
#X connect 17 0 18 0;
#X connect 17 0 19 1;
#X connect 19 0 10 0;
#X connect 19 0 0 0;
#X restore 225 71 pd parcial;
#X obj 265 49 r load;
#N canvas 1 57 986 553 parcial 0;
#X obj 365 419 osc~;
#X obj 431 204 r poll-table;
#X obj 466 344 + 50;
#X obj 466 370 dbtorms;
#X msg 415 346 0;
#X obj 415 399 pack 0 30;
#X obj 415 429 line~;
#X obj 365 478 throw~ sum-bus;
#X obj 365 449 *~;
#X obj 415 237 f;
#X obj 374 175 ftom;
#X obj 416 263 -;
#X obj 458 262 r whammybar;
#X obj 415 291 tabread4 spectrum-tab;
#X obj 415 318 moses 1;
#X text 364 60 Adaptado da abstração spectrum-partial do Pure Data
;
#X obj 365 94 r fourier_freq;
#X obj 296 94 inlet;
#X floatatom 265 147 5 0 0 0 - - -, f 5;
#X obj 365 149 *;
#X connect 0 0 8 0;
#X connect 1 0 9 0;
#X connect 2 0 3 0;
#X connect 3 0 5 0;
#X connect 4 0 5 0;
#X connect 5 0 6 0;
#X connect 6 0 8 1;
#X connect 8 0 7 0;
#X connect 9 0 11 0;
#X connect 10 0 9 1;
#X connect 11 0 13 0;
#X connect 12 0 11 1;
#X connect 13 0 14 0;
#X connect 14 0 4 0;
#X connect 14 1 2 0;
#X connect 16 0 19 0;
#X connect 17 0 18 0;
#X connect 17 0 19 1;
#X connect 19 0 10 0;
#X connect 19 0 0 0;
#X restore 225 115 pd parcial;
#X obj 265 93 r load;
#N canvas 1 56 986 553 parcial 0;
#X obj 365 419 osc~;
#X obj 431 204 r poll-table;
#X obj 466 344 + 50;
#X obj 466 370 dbtorms;
#X msg 415 346 0;
#X obj 415 399 pack 0 30;
#X obj 415 429 line~;
#X obj 365 478 throw~ sum-bus;
#X obj 365 449 *~;
#X obj 415 237 f;
#X obj 374 175 ftom;
#X obj 416 263 -;
#X obj 458 262 r whammybar;
#X obj 415 291 tabread4 spectrum-tab;
#X obj 415 318 moses 1;
#X text 364 60 Adaptado da abstração spectrum-partial do Pure Data
;
#X obj 365 94 r fourier_freq;
#X obj 296 94 inlet;
#X floatatom 265 147 5 0 0 0 - - -, f 5;
#X obj 365 149 *;
#X connect 0 0 8 0;
#X connect 1 0 9 0;
#X connect 2 0 3 0;
#X connect 3 0 5 0;
#X connect 4 0 5 0;
#X connect 5 0 6 0;
#X connect 6 0 8 1;
#X connect 8 0 7 0;
#X connect 9 0 11 0;
#X connect 10 0 9 1;
#X connect 11 0 13 0;
#X connect 12 0 11 1;
#X connect 13 0 14 0;
#X connect 14 0 4 0;
#X connect 14 1 2 0;
#X connect 16 0 19 0;
#X connect 17 0 18 0;
#X connect 17 0 19 1;
#X connect 19 0 10 0;
#X connect 19 0 0 0;
#X restore 225 160 pd parcial;
#X obj 265 138 r load;
#N canvas 1 56 986 553 parcial 0;
#X obj 365 419 osc~;
#X obj 431 204 r poll-table;
#X obj 466 344 + 50;
#X obj 466 370 dbtorms;
#X msg 415 346 0;
#X obj 415 399 pack 0 30;
#X obj 415 429 line~;
#X obj 365 478 throw~ sum-bus;
#X obj 365 449 *~;
#X obj 415 237 f;
#X obj 374 175 ftom;
#X obj 416 263 -;
#X obj 458 262 r whammybar;
#X obj 415 291 tabread4 spectrum-tab;
#X obj 415 318 moses 1;
#X text 364 60 Adaptado da abstração spectrum-partial do Pure Data
;
#X obj 365 94 r fourier_freq;
#X obj 296 94 inlet;
#X floatatom 265 147 5 0 0 0 - - -, f 5;
#X obj 365 149 *;
#X connect 0 0 8 0;
#X connect 1 0 9 0;
#X connect 2 0 3 0;
#X connect 3 0 5 0;
#X connect 4 0 5 0;
#X connect 5 0 6 0;
#X connect 6 0 8 1;
#X connect 8 0 7 0;
#X connect 9 0 11 0;
#X connect 10 0 9 1;
#X connect 11 0 13 0;
#X connect 12 0 11 1;
#X connect 13 0 14 0;
#X connect 14 0 4 0;
#X connect 14 1 2 0;
#X connect 16 0 19 0;
#X connect 17 0 18 0;
#X connect 17 0 19 1;
#X connect 19 0 10 0;
#X connect 19 0 0 0;
#X restore 225 204 pd parcial;
#X obj 265 182 r load;
#N canvas 1 56 986 553 parcial 0;
#X obj 365 419 osc~;
#X obj 431 204 r poll-table;
#X obj 466 344 + 50;
#X obj 466 370 dbtorms;
#X msg 415 346 0;
#X obj 415 399 pack 0 30;
#X obj 415 429 line~;
#X obj 365 478 throw~ sum-bus;
#X obj 365 449 *~;
#X obj 415 237 f;
#X obj 374 175 ftom;
#X obj 416 263 -;
#X obj 458 262 r whammybar;
#X obj 415 291 tabread4 spectrum-tab;
#X obj 415 318 moses 1;
#X text 364 60 Adaptado da abstração spectrum-partial do Pure Data
;
#X obj 365 94 r fourier_freq;
#X obj 296 94 inlet;
#X floatatom 265 147 5 0 0 0 - - -, f 5;
#X obj 365 149 *;
#X connect 0 0 8 0;
#X connect 1 0 9 0;
#X connect 2 0 3 0;
#X connect 3 0 5 0;
#X connect 4 0 5 0;
#X connect 5 0 6 0;
#X connect 6 0 8 1;
#X connect 8 0 7 0;
#X connect 9 0 11 0;
#X connect 10 0 9 1;
#X connect 11 0 13 0;
#X connect 12 0 11 1;
#X connect 13 0 14 0;
#X connect 14 0 4 0;
#X connect 14 1 2 0;
#X connect 16 0 19 0;
#X connect 17 0 18 0;
#X connect 17 0 19 1;
#X connect 19 0 10 0;
#X connect 19 0 0 0;
#X restore 225 248 pd parcial;
#X obj 265 226 r load;
#N canvas 1 56 986 553 parcial 0;
#X obj 365 419 osc~;
#X obj 431 204 r poll-table;
#X obj 466 344 + 50;
#X obj 466 370 dbtorms;
#X msg 415 346 0;
#X obj 415 399 pack 0 30;
#X obj 415 429 line~;
#X obj 365 478 throw~ sum-bus;
#X obj 365 449 *~;
#X obj 415 237 f;
#X obj 374 175 ftom;
#X obj 416 263 -;
#X obj 458 262 r whammybar;
#X obj 415 291 tabread4 spectrum-tab;
#X obj 415 318 moses 1;
#X text 364 60 Adaptado da abstração spectrum-partial do Pure Data
;
#X obj 365 94 r fourier_freq;
#X obj 296 94 inlet;
#X floatatom 265 147 5 0 0 0 - - -, f 5;
#X obj 365 149 *;
#X connect 0 0 8 0;
#X connect 1 0 9 0;
#X connect 2 0 3 0;
#X connect 3 0 5 0;
#X connect 4 0 5 0;
#X connect 5 0 6 0;
#X connect 6 0 8 1;
#X connect 8 0 7 0;
#X connect 9 0 11 0;
#X connect 10 0 9 1;
#X connect 11 0 13 0;
#X connect 12 0 11 1;
#X connect 13 0 14 0;
#X connect 14 0 4 0;
#X connect 14 1 2 0;
#X connect 16 0 19 0;
#X connect 17 0 18 0;
#X connect 17 0 19 1;
#X connect 19 0 10 0;
#X connect 19 0 0 0;
#X restore 225 291 pd parcial;
#X obj 265 269 r load;
#N canvas 1 56 986 553 parcial 0;
#X obj 365 419 osc~;
#X obj 431 204 r poll-table;
#X obj 466 344 + 50;
#X obj 466 370 dbtorms;
#X msg 415 346 0;
#X obj 415 399 pack 0 30;
#X obj 415 429 line~;
#X obj 365 478 throw~ sum-bus;
#X obj 365 449 *~;
#X obj 415 237 f;
#X obj 374 175 ftom;
#X obj 416 263 -;
#X obj 458 262 r whammybar;
#X obj 415 291 tabread4 spectrum-tab;
#X obj 415 318 moses 1;
#X text 364 60 Adaptado da abstração spectrum-partial do Pure Data
;
#X obj 365 94 r fourier_freq;
#X obj 296 94 inlet;
#X floatatom 265 147 5 0 0 0 - - -, f 5;
#X obj 365 149 *;
#X connect 0 0 8 0;
#X connect 1 0 9 0;
#X connect 2 0 3 0;
#X connect 3 0 5 0;
#X connect 4 0 5 0;
#X connect 5 0 6 0;
#X connect 6 0 8 1;
#X connect 8 0 7 0;
#X connect 9 0 11 0;
#X connect 10 0 9 1;
#X connect 11 0 13 0;
#X connect 12 0 11 1;
#X connect 13 0 14 0;
#X connect 14 0 4 0;
#X connect 14 1 2 0;
#X connect 16 0 19 0;
#X connect 17 0 18 0;
#X connect 17 0 19 1;
#X connect 19 0 10 0;
#X connect 19 0 0 0;
#X restore 225 335 pd parcial;
#X obj 265 313 r load;
#N canvas 1 56 986 553 parcial 0;
#X obj 365 419 osc~;
#X obj 431 204 r poll-table;
#X obj 466 344 + 50;
#X obj 466 370 dbtorms;
#X msg 415 346 0;
#X obj 415 399 pack 0 30;
#X obj 415 429 line~;
#X obj 365 478 throw~ sum-bus;
#X obj 365 449 *~;
#X obj 415 237 f;
#X obj 374 175 ftom;
#X obj 416 263 -;
#X obj 458 262 r whammybar;
#X obj 415 291 tabread4 spectrum-tab;
#X obj 415 318 moses 1;
#X text 364 60 Adaptado da abstração spectrum-partial do Pure Data
;
#X obj 365 94 r fourier_freq;
#X obj 296 94 inlet;
#X floatatom 265 147 5 0 0 0 - - -, f 5;
#X obj 365 149 *;
#X connect 0 0 8 0;
#X connect 1 0 9 0;
#X connect 2 0 3 0;
#X connect 3 0 5 0;
#X connect 4 0 5 0;
#X connect 5 0 6 0;
#X connect 6 0 8 1;
#X connect 8 0 7 0;
#X connect 9 0 11 0;
#X connect 10 0 9 1;
#X connect 11 0 13 0;
#X connect 12 0 11 1;
#X connect 13 0 14 0;
#X connect 14 0 4 0;
#X connect 14 1 2 0;
#X connect 16 0 19 0;
#X connect 17 0 18 0;
#X connect 17 0 19 1;
#X connect 19 0 10 0;
#X connect 19 0 0 0;
#X restore 225 380 pd parcial;
#X obj 265 358 r load;
#N canvas 1 56 986 553 parcial 0;
#X obj 365 419 osc~;
#X obj 431 204 r poll-table;
#X obj 466 344 + 50;
#X obj 466 370 dbtorms;
#X msg 415 346 0;
#X obj 415 399 pack 0 30;
#X obj 415 429 line~;
#X obj 365 478 throw~ sum-bus;
#X obj 365 449 *~;
#X obj 415 237 f;
#X obj 374 175 ftom;
#X obj 416 263 -;
#X obj 458 262 r whammybar;
#X obj 415 291 tabread4 spectrum-tab;
#X obj 415 318 moses 1;
#X text 364 60 Adaptado da abstração spectrum-partial do Pure Data
;
#X obj 365 94 r fourier_freq;
#X obj 296 94 inlet;
#X floatatom 265 147 5 0 0 0 - - -, f 5;
#X obj 365 149 *;
#X connect 0 0 8 0;
#X connect 1 0 9 0;
#X connect 2 0 3 0;
#X connect 3 0 5 0;
#X connect 4 0 5 0;
#X connect 5 0 6 0;
#X connect 6 0 8 1;
#X connect 8 0 7 0;
#X connect 9 0 11 0;
#X connect 10 0 9 1;
#X connect 11 0 13 0;
#X connect 12 0 11 1;
#X connect 13 0 14 0;
#X connect 14 0 4 0;
#X connect 14 1 2 0;
#X connect 16 0 19 0;
#X connect 17 0 18 0;
#X connect 17 0 19 1;
#X connect 19 0 10 0;
#X connect 19 0 0 0;
#X restore 225 424 pd parcial;
#X obj 265 402 r load;
#N canvas 1 56 986 553 parcial 0;
#X obj 365 419 osc~;
#X obj 431 204 r poll-table;
#X obj 466 344 + 50;
#X obj 466 370 dbtorms;
#X msg 415 346 0;
#X obj 415 399 pack 0 30;
#X obj 415 429 line~;
#X obj 365 478 throw~ sum-bus;
#X obj 365 449 *~;
#X obj 415 237 f;
#X obj 374 175 ftom;
#X obj 416 263 -;
#X obj 458 262 r whammybar;
#X obj 415 291 tabread4 spectrum-tab;
#X obj 415 318 moses 1;
#X text 364 60 Adaptado da abstração spectrum-partial do Pure Data
;
#X obj 365 94 r fourier_freq;
#X obj 296 94 inlet;
#X floatatom 265 147 5 0 0 0 - - -, f 5;
#X obj 365 149 *;
#X connect 0 0 8 0;
#X connect 1 0 9 0;
#X connect 2 0 3 0;
#X connect 3 0 5 0;
#X connect 4 0 5 0;
#X connect 5 0 6 0;
#X connect 6 0 8 1;
#X connect 8 0 7 0;
#X connect 9 0 11 0;
#X connect 10 0 9 1;
#X connect 11 0 13 0;
#X connect 12 0 11 1;
#X connect 13 0 14 0;
#X connect 14 0 4 0;
#X connect 14 1 2 0;
#X connect 16 0 19 0;
#X connect 17 0 18 0;
#X connect 17 0 19 1;
#X connect 19 0 10 0;
#X connect 19 0 0 0;
#X restore 225 468 pd parcial;
#X obj 265 446 r load;
#N canvas 1 56 986 553 parcial 0;
#X obj 365 419 osc~;
#X obj 431 204 r poll-table;
#X obj 466 344 + 50;
#X obj 466 370 dbtorms;
#X msg 415 346 0;
#X obj 415 399 pack 0 30;
#X obj 415 429 line~;
#X obj 365 478 throw~ sum-bus;
#X obj 365 449 *~;
#X obj 415 237 f;
#X obj 374 175 ftom;
#X obj 416 263 -;
#X obj 458 262 r whammybar;
#X obj 415 291 tabread4 spectrum-tab;
#X obj 415 318 moses 1;
#X text 364 60 Adaptado da abstração spectrum-partial do Pure Data
;
#X obj 365 94 r fourier_freq;
#X obj 296 94 inlet;
#X floatatom 265 147 5 0 0 0 - - -, f 5;
#X obj 365 149 *;
#X connect 0 0 8 0;
#X connect 1 0 9 0;
#X connect 2 0 3 0;
#X connect 3 0 5 0;
#X connect 4 0 5 0;
#X connect 5 0 6 0;
#X connect 6 0 8 1;
#X connect 8 0 7 0;
#X connect 9 0 11 0;
#X connect 10 0 9 1;
#X connect 11 0 13 0;
#X connect 12 0 11 1;
#X connect 13 0 14 0;
#X connect 14 0 4 0;
#X connect 14 1 2 0;
#X connect 16 0 19 0;
#X connect 17 0 18 0;
#X connect 17 0 19 1;
#X connect 19 0 10 0;
#X connect 19 0 0 0;
#X restore 335 71 pd parcial;
#X obj 375 49 r load;
#N canvas 1 56 986 553 parcial 0;
#X obj 365 419 osc~;
#X obj 431 204 r poll-table;
#X obj 466 344 + 50;
#X obj 466 370 dbtorms;
#X msg 415 346 0;
#X obj 415 399 pack 0 30;
#X obj 415 429 line~;
#X obj 365 478 throw~ sum-bus;
#X obj 365 449 *~;
#X obj 415 237 f;
#X obj 374 175 ftom;
#X obj 416 263 -;
#X obj 458 262 r whammybar;
#X obj 415 291 tabread4 spectrum-tab;
#X obj 415 318 moses 1;
#X text 364 60 Adaptado da abstração spectrum-partial do Pure Data
;
#X obj 365 94 r fourier_freq;
#X obj 296 94 inlet;
#X floatatom 265 147 5 0 0 0 - - -, f 5;
#X obj 365 149 *;
#X connect 0 0 8 0;
#X connect 1 0 9 0;
#X connect 2 0 3 0;
#X connect 3 0 5 0;
#X connect 4 0 5 0;
#X connect 5 0 6 0;
#X connect 6 0 8 1;
#X connect 8 0 7 0;
#X connect 9 0 11 0;
#X connect 10 0 9 1;
#X connect 11 0 13 0;
#X connect 12 0 11 1;
#X connect 13 0 14 0;
#X connect 14 0 4 0;
#X connect 14 1 2 0;
#X connect 16 0 19 0;
#X connect 17 0 18 0;
#X connect 17 0 19 1;
#X connect 19 0 10 0;
#X connect 19 0 0 0;
#X restore 335 115 pd parcial;
#X obj 375 93 r load;
#N canvas 1 56 986 553 parcial 0;
#X obj 365 419 osc~;
#X obj 431 204 r poll-table;
#X obj 466 344 + 50;
#X obj 466 370 dbtorms;
#X msg 415 346 0;
#X obj 415 399 pack 0 30;
#X obj 415 429 line~;
#X obj 365 478 throw~ sum-bus;
#X obj 365 449 *~;
#X obj 415 237 f;
#X obj 374 175 ftom;
#X obj 416 263 -;
#X obj 458 262 r whammybar;
#X obj 415 291 tabread4 spectrum-tab;
#X obj 415 318 moses 1;
#X text 364 60 Adaptado da abstração spectrum-partial do Pure Data
;
#X obj 365 94 r fourier_freq;
#X obj 296 94 inlet;
#X floatatom 265 147 5 0 0 0 - - -, f 5;
#X obj 365 149 *;
#X connect 0 0 8 0;
#X connect 1 0 9 0;
#X connect 2 0 3 0;
#X connect 3 0 5 0;
#X connect 4 0 5 0;
#X connect 5 0 6 0;
#X connect 6 0 8 1;
#X connect 8 0 7 0;
#X connect 9 0 11 0;
#X connect 10 0 9 1;
#X connect 11 0 13 0;
#X connect 12 0 11 1;
#X connect 13 0 14 0;
#X connect 14 0 4 0;
#X connect 14 1 2 0;
#X connect 16 0 19 0;
#X connect 17 0 18 0;
#X connect 17 0 19 1;
#X connect 19 0 10 0;
#X connect 19 0 0 0;
#X restore 335 160 pd parcial;
#X obj 375 138 r load;
#N canvas 1 56 986 553 parcial 0;
#X obj 365 419 osc~;
#X obj 431 204 r poll-table;
#X obj 466 344 + 50;
#X obj 466 370 dbtorms;
#X msg 415 346 0;
#X obj 415 399 pack 0 30;
#X obj 415 429 line~;
#X obj 365 478 throw~ sum-bus;
#X obj 365 449 *~;
#X obj 415 237 f;
#X obj 374 175 ftom;
#X obj 416 263 -;
#X obj 458 262 r whammybar;
#X obj 415 291 tabread4 spectrum-tab;
#X obj 415 318 moses 1;
#X text 364 60 Adaptado da abstração spectrum-partial do Pure Data
;
#X obj 365 94 r fourier_freq;
#X obj 296 94 inlet;
#X floatatom 265 147 5 0 0 0 - - -, f 5;
#X obj 365 149 *;
#X connect 0 0 8 0;
#X connect 1 0 9 0;
#X connect 2 0 3 0;
#X connect 3 0 5 0;
#X connect 4 0 5 0;
#X connect 5 0 6 0;
#X connect 6 0 8 1;
#X connect 8 0 7 0;
#X connect 9 0 11 0;
#X connect 10 0 9 1;
#X connect 11 0 13 0;
#X connect 12 0 11 1;
#X connect 13 0 14 0;
#X connect 14 0 4 0;
#X connect 14 1 2 0;
#X connect 16 0 19 0;
#X connect 17 0 18 0;
#X connect 17 0 19 1;
#X connect 19 0 10 0;
#X connect 19 0 0 0;
#X restore 335 204 pd parcial;
#X obj 375 182 r load;
#N canvas 1 56 986 553 parcial 0;
#X obj 365 419 osc~;
#X obj 431 204 r poll-table;
#X obj 466 344 + 50;
#X obj 466 370 dbtorms;
#X msg 415 346 0;
#X obj 415 399 pack 0 30;
#X obj 415 429 line~;
#X obj 365 478 throw~ sum-bus;
#X obj 365 449 *~;
#X obj 415 237 f;
#X obj 374 175 ftom;
#X obj 416 263 -;
#X obj 458 262 r whammybar;
#X obj 415 291 tabread4 spectrum-tab;
#X obj 415 318 moses 1;
#X text 364 60 Adaptado da abstração spectrum-partial do Pure Data
;
#X obj 365 94 r fourier_freq;
#X obj 296 94 inlet;
#X floatatom 265 147 5 0 0 0 - - -, f 5;
#X obj 365 149 *;
#X connect 0 0 8 0;
#X connect 1 0 9 0;
#X connect 2 0 3 0;
#X connect 3 0 5 0;
#X connect 4 0 5 0;
#X connect 5 0 6 0;
#X connect 6 0 8 1;
#X connect 8 0 7 0;
#X connect 9 0 11 0;
#X connect 10 0 9 1;
#X connect 11 0 13 0;
#X connect 12 0 11 1;
#X connect 13 0 14 0;
#X connect 14 0 4 0;
#X connect 14 1 2 0;
#X connect 16 0 19 0;
#X connect 17 0 18 0;
#X connect 17 0 19 1;
#X connect 19 0 10 0;
#X connect 19 0 0 0;
#X restore 335 248 pd parcial;
#X obj 375 226 r load;
#N canvas 1 56 986 553 parcial 0;
#X obj 365 419 osc~;
#X obj 431 204 r poll-table;
#X obj 466 344 + 50;
#X obj 466 370 dbtorms;
#X msg 415 346 0;
#X obj 415 399 pack 0 30;
#X obj 415 429 line~;
#X obj 365 478 throw~ sum-bus;
#X obj 365 449 *~;
#X obj 415 237 f;
#X obj 374 175 ftom;
#X obj 416 263 -;
#X obj 458 262 r whammybar;
#X obj 415 291 tabread4 spectrum-tab;
#X obj 415 318 moses 1;
#X text 364 60 Adaptado da abstração spectrum-partial do Pure Data
;
#X obj 365 94 r fourier_freq;
#X obj 296 94 inlet;
#X floatatom 265 147 5 0 0 0 - - -, f 5;
#X obj 365 149 *;
#X connect 0 0 8 0;
#X connect 1 0 9 0;
#X connect 2 0 3 0;
#X connect 3 0 5 0;
#X connect 4 0 5 0;
#X connect 5 0 6 0;
#X connect 6 0 8 1;
#X connect 8 0 7 0;
#X connect 9 0 11 0;
#X connect 10 0 9 1;
#X connect 11 0 13 0;
#X connect 12 0 11 1;
#X connect 13 0 14 0;
#X connect 14 0 4 0;
#X connect 14 1 2 0;
#X connect 16 0 19 0;
#X connect 17 0 18 0;
#X connect 17 0 19 1;
#X connect 19 0 10 0;
#X connect 19 0 0 0;
#X restore 335 291 pd parcial;
#X obj 375 269 r load;
#N canvas 1 56 986 553 parcial 0;
#X obj 365 419 osc~;
#X obj 431 204 r poll-table;
#X obj 466 344 + 50;
#X obj 466 370 dbtorms;
#X msg 415 346 0;
#X obj 415 399 pack 0 30;
#X obj 415 429 line~;
#X obj 365 478 throw~ sum-bus;
#X obj 365 449 *~;
#X obj 415 237 f;
#X obj 374 175 ftom;
#X obj 416 263 -;
#X obj 458 262 r whammybar;
#X obj 415 291 tabread4 spectrum-tab;
#X obj 415 318 moses 1;
#X text 364 60 Adaptado da abstração spectrum-partial do Pure Data
;
#X obj 365 94 r fourier_freq;
#X obj 296 94 inlet;
#X floatatom 265 147 5 0 0 0 - - -, f 5;
#X obj 365 149 *;
#X connect 0 0 8 0;
#X connect 1 0 9 0;
#X connect 2 0 3 0;
#X connect 3 0 5 0;
#X connect 4 0 5 0;
#X connect 5 0 6 0;
#X connect 6 0 8 1;
#X connect 8 0 7 0;
#X connect 9 0 11 0;
#X connect 10 0 9 1;
#X connect 11 0 13 0;
#X connect 12 0 11 1;
#X connect 13 0 14 0;
#X connect 14 0 4 0;
#X connect 14 1 2 0;
#X connect 16 0 19 0;
#X connect 17 0 18 0;
#X connect 17 0 19 1;
#X connect 19 0 10 0;
#X connect 19 0 0 0;
#X restore 335 335 pd parcial;
#X obj 375 313 r load;
#N canvas 1 56 986 553 parcial 0;
#X obj 365 419 osc~;
#X obj 431 204 r poll-table;
#X obj 466 344 + 50;
#X obj 466 370 dbtorms;
#X msg 415 346 0;
#X obj 415 399 pack 0 30;
#X obj 415 429 line~;
#X obj 365 478 throw~ sum-bus;
#X obj 365 449 *~;
#X obj 415 237 f;
#X obj 374 175 ftom;
#X obj 416 263 -;
#X obj 458 262 r whammybar;
#X obj 415 291 tabread4 spectrum-tab;
#X obj 415 318 moses 1;
#X text 364 60 Adaptado da abstração spectrum-partial do Pure Data
;
#X obj 365 94 r fourier_freq;
#X obj 296 94 inlet;
#X floatatom 265 147 5 0 0 0 - - -, f 5;
#X obj 365 149 *;
#X connect 0 0 8 0;
#X connect 1 0 9 0;
#X connect 2 0 3 0;
#X connect 3 0 5 0;
#X connect 4 0 5 0;
#X connect 5 0 6 0;
#X connect 6 0 8 1;
#X connect 8 0 7 0;
#X connect 9 0 11 0;
#X connect 10 0 9 1;
#X connect 11 0 13 0;
#X connect 12 0 11 1;
#X connect 13 0 14 0;
#X connect 14 0 4 0;
#X connect 14 1 2 0;
#X connect 16 0 19 0;
#X connect 17 0 18 0;
#X connect 17 0 19 1;
#X connect 19 0 10 0;
#X connect 19 0 0 0;
#X restore 335 380 pd parcial;
#X obj 375 358 r load;
#N canvas 1 56 986 553 parcial 0;
#X obj 365 419 osc~;
#X obj 431 204 r poll-table;
#X obj 466 344 + 50;
#X obj 466 370 dbtorms;
#X msg 415 346 0;
#X obj 415 399 pack 0 30;
#X obj 415 429 line~;
#X obj 365 478 throw~ sum-bus;
#X obj 365 449 *~;
#X obj 415 237 f;
#X obj 374 175 ftom;
#X obj 416 263 -;
#X obj 458 262 r whammybar;
#X obj 415 291 tabread4 spectrum-tab;
#X obj 415 318 moses 1;
#X text 364 60 Adaptado da abstração spectrum-partial do Pure Data
;
#X obj 365 94 r fourier_freq;
#X obj 296 94 inlet;
#X floatatom 265 147 5 0 0 0 - - -, f 5;
#X obj 365 149 *;
#X connect 0 0 8 0;
#X connect 1 0 9 0;
#X connect 2 0 3 0;
#X connect 3 0 5 0;
#X connect 4 0 5 0;
#X connect 5 0 6 0;
#X connect 6 0 8 1;
#X connect 8 0 7 0;
#X connect 9 0 11 0;
#X connect 10 0 9 1;
#X connect 11 0 13 0;
#X connect 12 0 11 1;
#X connect 13 0 14 0;
#X connect 14 0 4 0;
#X connect 14 1 2 0;
#X connect 16 0 19 0;
#X connect 17 0 18 0;
#X connect 17 0 19 1;
#X connect 19 0 10 0;
#X connect 19 0 0 0;
#X restore 335 424 pd parcial;
#X obj 375 402 r load;
#N canvas 1 56 986 553 parcial 0;
#X obj 365 419 osc~;
#X obj 431 204 r poll-table;
#X obj 466 344 + 50;
#X obj 466 370 dbtorms;
#X msg 415 346 0;
#X obj 415 399 pack 0 30;
#X obj 415 429 line~;
#X obj 365 478 throw~ sum-bus;
#X obj 365 449 *~;
#X obj 415 237 f;
#X obj 374 175 ftom;
#X obj 416 263 -;
#X obj 458 262 r whammybar;
#X obj 415 291 tabread4 spectrum-tab;
#X obj 415 318 moses 1;
#X text 364 60 Adaptado da abstração spectrum-partial do Pure Data
;
#X obj 365 94 r fourier_freq;
#X obj 296 94 inlet;
#X floatatom 265 147 5 0 0 0 - - -, f 5;
#X obj 365 149 *;
#X connect 0 0 8 0;
#X connect 1 0 9 0;
#X connect 2 0 3 0;
#X connect 3 0 5 0;
#X connect 4 0 5 0;
#X connect 5 0 6 0;
#X connect 6 0 8 1;
#X connect 8 0 7 0;
#X connect 9 0 11 0;
#X connect 10 0 9 1;
#X connect 11 0 13 0;
#X connect 12 0 11 1;
#X connect 13 0 14 0;
#X connect 14 0 4 0;
#X connect 14 1 2 0;
#X connect 16 0 19 0;
#X connect 17 0 18 0;
#X connect 17 0 19 1;
#X connect 19 0 10 0;
#X connect 19 0 0 0;
#X restore 335 468 pd parcial;
#X obj 375 446 r load;
#X msg 106 93 2;
#X msg 106 138 3;
#X msg 106 182 4;
#X msg 106 226 5;
#X msg 106 269 6;
#X msg 106 313 7;
#X msg 106 358 8;
#X msg 106 402 9;
#X msg 106 446 10;
#X msg 225 49 11;
#X msg 225 93 12;
#X msg 225 138 13;
#X msg 225 182 14;
#X msg 225 226 15;
#X msg 225 269 16;
#X msg 225 313 17;
#X msg 225 358 18;
#X msg 223 400 19;
#X msg 225 446 20;
#X msg 335 49 21;
#X msg 335 93 22;
#X msg 335 138 23;
#X msg 335 182 24;
#X msg 335 226 25;
#X msg 335 268 26;
#X msg 335 313 27;
#X msg 335 358 28;
#X msg 335 402 29;
#X msg 335 446 30;
#X obj 482 76 s load;
#X obj 463 103 bang~;
#X connect 0 0 92 0;
#X connect 3 0 2 0;
#X connect 4 0 3 0;
#X connect 6 0 63 0;
#X connect 8 0 64 0;
#X connect 10 0 65 0;
#X connect 12 0 66 0;
#X connect 14 0 67 0;
#X connect 16 0 68 0;
#X connect 18 0 69 0;
#X connect 20 0 70 0;
#X connect 22 0 71 0;
#X connect 24 0 72 0;
#X connect 26 0 73 0;
#X connect 28 0 74 0;
#X connect 30 0 75 0;
#X connect 32 0 76 0;
#X connect 34 0 77 0;
#X connect 36 0 78 0;
#X connect 38 0 79 0;
#X connect 40 0 80 0;
#X connect 42 0 81 0;
#X connect 44 0 82 0;
#X connect 46 0 83 0;
#X connect 48 0 84 0;
#X connect 50 0 85 0;
#X connect 52 0 86 0;
#X connect 54 0 87 0;
#X connect 56 0 88 0;
#X connect 58 0 89 0;
#X connect 60 0 90 0;
#X connect 62 0 91 0;
#X connect 63 0 5 0;
#X connect 64 0 7 0;
#X connect 65 0 9 0;
#X connect 66 0 11 0;
#X connect 67 0 13 0;
#X connect 68 0 15 0;
#X connect 69 0 17 0;
#X connect 70 0 19 0;
#X connect 71 0 21 0;
#X connect 72 0 23 0;
#X connect 73 0 25 0;
#X connect 74 0 27 0;
#X connect 75 0 29 0;
#X connect 76 0 31 0;
#X connect 77 0 33 0;
#X connect 78 0 35 0;
#X connect 79 0 37 0;
#X connect 80 0 39 0;
#X connect 81 0 41 0;
#X connect 82 0 43 0;
#X connect 83 0 45 0;
#X connect 84 0 47 0;
#X connect 85 0 49 0;
#X connect 86 0 51 0;
#X connect 87 0 53 0;
#X connect 88 0 55 0;
#X connect 89 0 57 0;
#X connect 90 0 59 0;
#X connect 91 0 61 0;
#X connect 93 0 1 0;
#X restore 99 335 pd oscbank;
#X obj 101 405 catch~ sum-bus;
#X obj 524 382 s whammybar;
#X msg 410 239 \; spectrum-tab const 0;
#X text 476 218 CLEAR;
#X obj 100 536 outlet~;
#X obj 434 45 inlet;
#X text 116 563 SÍNTESE DE FOURIER;
#X text 107 594 Método de síntese adaptado do exemplo do Pure Data
3.audio.examples/D08.table.spectrum.pd;
#X msg 524 347 0;
#X obj 524 312 loadbang;
#X obj 101 101 cnv 15 268 168 empty fourier_b empty 20 12 0 14 -260818
-262144 0;
#X obj 113 119 cnv 15 220 120 empty empty empty 20 12 0 14 -262144
-66577 0;
#N canvas 1 58 450 300 (subpatch) 0;
#X array spectrum-tab 127 float 1;
#A 0 32.0833 27.9166 27.5 27.5 27.5 27.0833 26.6666 26.6666 26.25 25
24.7916 24.5833 24.5833 24.5833 24.5833 24.5833 24.5833 25 25.4166
26.25 27.0833 28.7499 29.1666 30.4166 31.6666 32.9166 34.1666 36.2499
37.4999 38.7499 39.1665 39.9999 41.111 41.3888 41.6665 41.9443 42.2221
42.4999 42.4999 42.4999 42.4999 42.4999 42.4999 42.4999 41.2499 38.5416
37.4999 35.4166 33.3333 32.2221 31.111 29.9999 29.0277 28.0555 27.0833
26.5476 26.0119 25.4762 24.9404 24.4047 23.869 23.3333 22.9861 22.6389
22.2917 21.9444 21.5972 21.25 21.0833 20.9167 20.75 20.5833 20.4167
20.4167 20.4167 20.4167 20.4167 20.4167 20.4167 20.4167 20.4167 20.4167
20.4167 20.4167 20.4167 20.4167 20.4167 20.4167 20.4167 20.4167 20.4167
20.4167 20.4167 20.4167 20.4167 20.4167 20.4167 20.4167 20.4167 20.4167
20.4167 20.4167 20.4167 20.4167 20.4167 22.9167 22.9167 22.9167 23.1944
23.4722 23.75 23.9583 24.1667 24.375 24.5833 24.6875 24.7917 24.8958
25 25.1042 25.2083 25.3125 25.4167 25.4167 25.5555 25.6944 26.25;
#X coords 0 50 126 0 220 120 1 0 0;
#X restore 113 119 graph;
#X obj 337 224 bng 15 250 50 0 empty empty empty 17 7 0 10 -204786
-1 -1;
#X text 334 208 Limpa;
#X obj 372 405 loadbang;
#X msg 372 439 \; spectrum-tab xlabel -5 0 12 24 36 48 60 72 84 96
108 120;
#X obj 434 152 s fourier_freq;
#X obj 100 502 *~;
#X text 536 152 <-- Recebe freq. em vez de número midi;
#X obj 434 77 unpack;
#X obj 481 106 s fourier_vel;
#X obj 132 476 r fourier_vel;
#X floatatom 393 118 5 0 0 0 - - -, f 5;
#X connect 1 0 19 0;
#X connect 6 0 21 0;
#X connect 9 0 2 0;
#X connect 10 0 9 0;
#X connect 10 0 17 0;
#X connect 14 0 3 0;
#X connect 16 0 17 0;
#X connect 19 0 5 0;
#X connect 21 0 18 0;
#X connect 21 0 24 0;
#X connect 21 1 22 0;
#X connect 23 0 19 1;
#X coords 0 593 1 592 270 170 2 100 100;
#X restore 297 141 pd fourier;
#X obj 157 685 outlet~;
#X text 295 123 Fourier;
#X obj 175 26 inlet;
#X obj 713 58 inlet;
#X obj 713 527 outlet;
#X obj 540 539 r freq_ampl;
#X obj 540 572 outlet;
#N canvas 399 341 957 632 chebychev 0;
#X obj 101 101 cnv 15 248 148 empty cheb_b empty 2 12 0 14 -262131
-262144 0;
#X obj 560 130 / 100;
#X floatatom 560 110 5 0 100 0 - - -, f 5;
#X obj 538 200 *~;
#X obj 560 153 pack 0 50;
#X obj 560 177 line~;
#X obj 538 225 *~ 128;
#N canvas 381 327 1327 587 make-table 0;
#X obj 141 304 t b b;
#X obj 213 329 f;
#X obj 251 329 + 1;
#X msg 235 306 0;
#X obj 141 327 until;
#X obj 213 359 t f f;
#X obj 140 355 sel 258;
#X text 203 172 normalize from -1 to 1;
#X obj 141 285 bng 15 250 50 0 empty empty empty 0 -6 0 8 -262144 -1
-1;
#X obj 88 386 expr ($f1-129)/128;
#X obj 141 262 inlet;
#X obj 171 534 t b b;
#X obj 243 559 f;
#X obj 281 559 + 1;
#X msg 265 536 0;
#X obj 171 557 until;
#X obj 243 589 t f f;
#X obj 170 585 sel 258;
#X obj 171 515 bng 15 250 50 0 empty empty empty 0 -6 0 8 -262144 -1
-1;
#X obj 118 616 expr ($f1-129)/128;
#X obj 171 492 inlet;
#X obj 444 228 t b b;
#X obj 516 253 f;
#X obj 554 253 + 1;
#X msg 538 230 0;
#X obj 444 251 until;
#X obj 516 283 t f f;
#X obj 443 279 sel 258;
#X obj 391 334 expr 16*$f1*$f1*$f1*$f1*$f1-20*$f1*$f1*$f1+5*$f1;
#X obj 444 209 bng 15 250 50 0 empty empty empty 0 -6 0 8 -262144 -1
-1;
#X obj 391 310 expr ($f1-129)/128;
#X obj 444 186 inlet;
#X obj 504 476 t b b;
#X obj 576 501 f;
#X obj 614 501 + 1;
#X msg 598 478 0;
#X obj 504 499 until;
#X obj 576 531 t f f;
#X obj 503 527 sel 258;
#X obj 504 457 bng 15 250 50 0 empty empty empty 0 -6 0 8 -262144 -1
-1;
#X obj 448 558 expr ($f1-129)/128;
#X obj 504 434 inlet;
#X obj 87 412 expr 4*$f1*$f1*$f1-3*$f1;
#X obj 112 643 expr 8*$f1*$f1*$f1*$f1-8*$f1*$f1+1;
#X obj 448 582 expr 32*$f1*$f1*$f1*$f1*$f1*$f1 -48*$f1*$f1*$f1*$f1+18*$f1*$f1-1
;
#X text 641 622 6th C.P. and basta.;
#X obj 83 92 t b b;
#X obj 155 117 f;
#X obj 193 117 + 1;
#X msg 177 94 0;
#X obj 83 115 until;
#X obj 155 147 t f f;
#X obj 82 143 sel 258;
#X obj 83 73 bng 15 250 50 0 empty empty empty 0 -6 0 8 -262144 -1
-1;
#X obj 30 174 expr ($f1-129)/128;
#X obj 83 50 inlet;
#X obj 44 201 expr 2*$f1*$f1-1;
#X text 203 198 2nd C.P.;
#X text 309 410 3rd C.P.;
#X text 331 660 4th C.P.;
#X text 613 357 5th C.P.;
#X text 259 51 This patch computes Chebychev polynomials and stores
them in a wavetable for use later.;
#X obj 1172 115 t b b;
#X obj 1244 140 f;
#X obj 1282 140 + 1;
#X msg 1266 117 0;
#X obj 1172 138 until;
#X obj 1244 170 t f f;
#X obj 1171 166 sel 258;
#X obj 1172 96 bng 15 250 50 0 empty empty empty 0 -6 0 8 -262144 -1
-1;
#X obj 1183 224 expr ($f1-129)/128;
#X obj 1060 265 expr 2*$f1*$f1-1;
#X obj 1099 298 expr 4*$f1*$f1*$f1-3*$f1;
#X obj 1151 332 expr 8*$f1*$f1*$f1*$f1-8*$f1*$f1+1;
#X obj 1191 369 expr 16*$f1*$f1*$f1*$f1*$f1-20*$f1*$f1*$f1+5*$f1;
#X obj 1230 407 expr 32*$f1*$f1*$f1*$f1*$f1*$f1 -48*$f1*$f1*$f1*$f1+18*$f1*$f1-1
;
#X obj 1293 196 s index;
#X obj 1086 328 *;
#X obj 1068 300 r w3;
#X obj 1129 363 *;
#X obj 1044 294 *;
#X obj 1175 397 *;
#X obj 1213 451 *;
#X obj 1081 394 +;
#X obj 1146 461 +;
#X obj 1213 525 +;
#X obj 1039 350 +;
#X obj 1213 581 tabwrite cheb-shape;
#X obj 1324 544 r index;
#X obj 1172 67 r calcula_pesos;
#X obj 477 624 tabwrite cheb-shape;
#X obj 115 436 tabwrite cheb-shape;
#X obj 417 360 tabwrite cheb-shape;
#X obj 144 666 tabwrite cheb-shape;
#X obj 58 224 tabwrite cheb-shape;
#X obj 1029 267 r w2;
#X obj 1120 332 r w4;
#X obj 1158 369 r w5;
#X obj 1193 420 r w6;
#X connect 0 0 4 0;
#X connect 0 1 3 0;
#X connect 1 0 2 0;
#X connect 1 0 5 0;
#X connect 1 0 6 0;
#X connect 2 0 1 1;
#X connect 3 0 1 1;
#X connect 4 0 1 0;
#X connect 5 0 9 0;
#X connect 5 1 91 1;
#X connect 6 0 4 1;
#X connect 8 0 0 0;
#X connect 9 0 42 0;
#X connect 10 0 8 0;
#X connect 11 0 15 0;
#X connect 11 1 14 0;
#X connect 12 0 13 0;
#X connect 12 0 16 0;
#X connect 12 0 17 0;
#X connect 13 0 12 1;
#X connect 14 0 12 1;
#X connect 15 0 12 0;
#X connect 16 0 19 0;
#X connect 16 1 93 1;
#X connect 17 0 15 1;
#X connect 18 0 11 0;
#X connect 19 0 43 0;
#X connect 20 0 18 0;
#X connect 21 0 25 0;
#X connect 21 1 24 0;
#X connect 22 0 23 0;
#X connect 22 0 26 0;
#X connect 22 0 27 0;
#X connect 23 0 22 1;
#X connect 24 0 22 1;
#X connect 25 0 22 0;
#X connect 26 0 30 0;
#X connect 26 1 92 1;
#X connect 27 0 25 1;
#X connect 28 0 92 0;
#X connect 29 0 21 0;
#X connect 30 0 28 0;
#X connect 31 0 29 0;
#X connect 32 0 36 0;
#X connect 32 1 35 0;
#X connect 33 0 34 0;
#X connect 33 0 37 0;
#X connect 33 0 38 0;
#X connect 34 0 33 1;
#X connect 35 0 33 1;
#X connect 36 0 33 0;
#X connect 37 0 40 0;
#X connect 37 1 90 1;
#X connect 38 0 36 1;
#X connect 39 0 32 0;
#X connect 40 0 44 0;
#X connect 41 0 39 0;
#X connect 42 0 91 0;
#X connect 43 0 93 0;
#X connect 44 0 90 0;
#X connect 46 0 50 0;
#X connect 46 1 49 0;
#X connect 47 0 48 0;
#X connect 47 0 51 0;
#X connect 47 0 52 0;
#X connect 48 0 47 1;
#X connect 49 0 47 1;
#X connect 50 0 47 0;
#X connect 51 0 54 0;
#X connect 51 1 94 1;
#X connect 52 0 50 1;
#X connect 53 0 46 0;
#X connect 54 0 56 0;
#X connect 55 0 53 0;
#X connect 56 0 94 0;
#X connect 62 0 66 0;
#X connect 62 1 65 0;
#X connect 63 0 64 0;
#X connect 63 0 67 0;
#X connect 63 0 68 0;
#X connect 64 0 63 1;
#X connect 65 0 63 1;
#X connect 66 0 63 0;
#X connect 67 0 70 0;
#X connect 67 1 76 0;
#X connect 68 0 66 1;
#X connect 69 0 62 0;
#X connect 70 0 71 0;
#X connect 70 0 72 0;
#X connect 70 0 73 0;
#X connect 70 0 74 0;
#X connect 70 0 75 0;
#X connect 71 0 80 0;
#X connect 72 0 77 0;
#X connect 73 0 79 0;
#X connect 74 0 81 0;
#X connect 75 0 82 0;
#X connect 77 0 86 1;
#X connect 78 0 77 1;
#X connect 79 0 83 1;
#X connect 80 0 86 0;
#X connect 81 0 84 1;
#X connect 82 0 85 1;
#X connect 83 0 84 0;
#X connect 84 0 85 0;
#X connect 85 0 87 0;
#X connect 86 0 83 0;
#X connect 88 0 87 1;
#X connect 89 0 69 0;
#X connect 95 0 80 1;
#X connect 96 0 79 1;
#X connect 97 0 81 1;
#X connect 98 0 82 1;
#X restore 344 295 pd make-table;
#X obj 243 229 bng 15 250 50 0 empty empty empty 0 -6 0 8 -203904 -1
-1;
#X obj 265 229 bng 15 250 50 0 empty empty empty 0 -6 0 8 -203904 -1
-1;
#X obj 287 229 bng 15 250 50 0 empty empty empty 0 -6 0 8 -203904 -1
-1;
#X obj 308 229 bng 15 250 50 0 empty empty empty 0 -6 0 8 -203904 -1
-1;
#X obj 330 229 bng 15 250 50 0 empty empty empty 0 -6 0 8 -203904 -1
-1;
#X obj 538 249 +~ 129;
#X obj 538 298 hip~ 5;
#X obj 537 85 osc~ 0;
#X obj 539 407 outlet~;
#X obj 265 141 vsl 15 80 0 2 0 0 empty empty 3º 0 -9 0 10 -228856
-1 -1 6450 1;
#X obj 243 141 vsl 15 80 0 2 0 0 empty empty 2º 0 -9 0 10 -228856
-1 -1 3950 1;
#X obj 308 141 vsl 15 80 0 2 0 0 empty empty 5º 0 -9 0 10 -228856
-1 -1 7150 1;
#X obj 287 141 vsl 15 80 0 2 0 0 empty empty 4º 0 -9 0 10 -228856
-1 -1 3950 1;
#X obj 330 141 vsl 15 80 0 2 0 0 empty empty 6º 0 -9 0 10 -228856
-1 -1 3950 1;
#X obj 193 22 loadbang;
#X msg 186 59 1;
#X obj 286 107 bng 15 250 50 0 empty empty empty 17 7 0 10 -204786
-1 -1;
#X text 302 107 Limpa;
#X text 241 107 Pesos;
#X floatatom 168 376 5 0 0 0 - - -, f 5;
#X floatatom 206 376 5 0 0 0 - - -, f 5;
#X floatatom 246 376 5 0 0 0 - - -, f 5;
#X floatatom 287 377 5 0 0 0 - - -, f 5;
#X floatatom 128 376 5 0 0 0 - - -, f 5;
#X obj 246 433 expr $f1 + $f2 + $f3 + $f4 + $f5;
#X obj 180 292 bng 15 250 50 0 empty empty empty 17 7 0 10 -262144
-1 -1;
#X obj 59 318 s calcula_pesos;
#X floatatom 300 458 5 0 0 0 - - -, f 5;
#X obj 136 488 /;
#X obj 136 510 s w2;
#X obj 173 494 /;
#X obj 212 503 /;
#X obj 250 517 /;
#X obj 286 524 /;
#X floatatom 164 576 5 0 0 0 - - -, f 5;
#X floatatom 205 576 5 0 0 0 - - -, f 5;
#X floatatom 246 576 5 0 0 0 - - -, f 5;
#X floatatom 285 576 5 0 0 0 - - -, f 5;
#X floatatom 128 573 5 0 0 0 - - -, f 5;
#X obj 173 516 s w3;
#X obj 212 525 s w4;
#X obj 250 539 s w5;
#X obj 286 546 s w6;
#X obj 106 142 cnv 15 130 100 empty empty empty 20 12 0 14 -262144
-66577 0;
#N canvas 0 122 450 300 (subpatch) 0;
#X array cheb-shape 259 float 1;
#A 0 1.1565 -0.0782245 -0.0738838 -0.0685654 -0.0623655 -0.0553756
-0.0476838 -0.0393749 -0.0305294 -0.0212235 -0.0115303 -0.0015204 0.00874062
0.0191897 0.0297669 0.040416 0.0510834 0.0617192 0.0722757 0.0827085
0.0929754 0.103038 0.11286 0.122407 0.131649 0.140555 0.149101 0.15726
0.165013 0.172338 0.179218 0.185638 0.191583 0.197042 0.202004 0.206461
0.210407 0.213836 0.216745 0.219133 0.220998 0.222341 0.223166 0.223474
0.223272 0.222564 0.221359 0.219663 0.217486 0.214838 0.21173 0.208173
0.20418 0.199765 0.194941 0.189722 0.184125 0.178164 0.171857 0.165219
0.158269 0.151023 0.143499 0.135716 0.127692 0.119446 0.110997 0.102363
0.0935634 0.0846179 0.0755455 0.0663653 0.0570965 0.0477583 0.0383695
0.0289491 0.0195159 0.0100881 0.00068441 -0.00867742 -0.0179794 -0.0272042
-0.0363346 -0.0453537 -0.0542452 -0.062993 -0.0715815 -0.0799954 -0.0882201
-0.0962414 -0.104045 -0.111619 -0.118949 -0.126024 -0.132833 -0.139363
-0.145605 -0.151549 -0.157186 -0.162508 -0.167505 -0.172172 -0.176501
-0.180487 -0.184124 -0.187408 -0.190335 -0.192902 -0.195107 -0.196947
-0.198422 -0.199531 -0.200274 -0.200654 -0.200671 -0.200328 -0.199628
-0.198575 -0.197174 -0.19543 -0.193349 -0.190938 -0.188204 -0.185155
-0.1818 -0.178147 -0.174208 -0.169992 -0.16551 -0.160775 -0.1558 -0.150595
-0.145176 -0.139557 -0.133751 -0.127775 -0.121643 -0.115371 -0.108977
-0.102476 -0.0958867 -0.0892264 -0.082513 -0.0757651 -0.0690012 -0.0622403
-0.0555018 -0.048805 -0.0421696 -0.0356154 -0.0291625 -0.0228308 -0.0166406
-0.0106121 -0.00476543 0.000879087 0.0063014 0.0114814 0.0163992 0.0210351
0.0253694 0.0293829 0.0330565 0.0363715 0.0393096 0.041853 0.0439839
0.0456857 0.0469416 0.0477359 0.0480534 0.0478795 0.0472004 0.046003
0.0442751 0.0420053 0.0391833 0.0357996 0.0318456 0.0273143 0.0221993
0.0164957 0.0101996 0.00330873 -0.00417808 -0.0122604 -0.0209364 -0.0302027
-0.0400543 -0.0504847 -0.0614852 -0.073046 -0.0851547 -0.0977975 -0.110959
-0.12462 -0.138761 -0.15336 -0.168392 -0.18383 -0.199645 -0.215805
-0.232276 -0.249021 -0.265999 -0.28317 -0.300487 -0.317902 -0.335365
-0.35282 -0.370211 -0.387477 -0.404553 -0.421373 -0.437866 -0.453957
-0.469568 -0.484617 -0.499019 -0.512685 -0.52552 -0.537428 -0.548306
-0.558049 -0.566546 -0.573682 -0.579339 -0.583391 -0.585711 -0.586166
-0.584616 -0.580918 -0.574924 -0.56648 -0.555427 -0.541602 -0.524833
-0.504946 -0.481759 -0.455085 -0.424732 -0.390501 -0.352186 -0.309577
-0.262456 -0.210598 -0.153774 -0.091746 -0.024271 0.0489028 0.128033
0.213385 0.305229 0.403847 0.509525 0.622555 0.743243 0.871896 1.00883
;
#X coords 0 1 258 -1 130 100 1 0 0;
#X restore 106 142 graph;
#X obj 108 107 hsl 128 15 -100 100 0 0 cheb_index empty empty -2 -8
0 10 -204800 -1 -1 10400 1;
#X obj 616 108 r cheb_index;
#X obj 538 273 tabread4~ cheb-shape;
#X obj 537 32 inlet;
#X obj 537 54 unpack;
#X msg 101 64 70;
#X text 105 108 Índice;
#X connect 1 0 4 0;
#X connect 2 0 1 0;
#X connect 3 0 6 0;
#X connect 4 0 5 0;
#X connect 5 0 3 1;
#X connect 6 0 13 0;
#X connect 8 0 7 0;
#X connect 9 0 7 1;
#X connect 10 0 7 2;
#X connect 11 0 7 3;
#X connect 12 0 7 4;
#X connect 13 0 55 0;
#X connect 14 0 16 0;
#X connect 15 0 3 0;
#X connect 17 0 27 0;
#X connect 17 0 33 0;
#X connect 18 0 31 0;
#X connect 18 0 33 0;
#X connect 19 0 29 0;
#X connect 19 0 33 0;
#X connect 20 0 28 0;
#X connect 20 0 33 0;
#X connect 21 0 30 0;
#X connect 21 0 33 0;
#X connect 22 0 23 0;
#X connect 22 0 58 0;
#X connect 23 0 18 0;
#X connect 23 0 17 0;
#X connect 23 0 20 0;
#X connect 23 0 19 0;
#X connect 23 0 21 0;
#X connect 24 0 23 0;
#X connect 27 0 32 1;
#X connect 27 0 38 0;
#X connect 28 0 32 2;
#X connect 28 0 39 0;
#X connect 29 0 32 3;
#X connect 29 0 40 0;
#X connect 30 0 32 4;
#X connect 30 0 41 0;
#X connect 31 0 32 0;
#X connect 31 0 36 0;
#X connect 32 0 35 0;
#X connect 33 0 34 0;
#X connect 33 0 31 0;
#X connect 33 0 27 0;
#X connect 33 0 28 0;
#X connect 33 0 29 0;
#X connect 33 0 30 0;
#X connect 35 0 36 1;
#X connect 35 0 38 1;
#X connect 35 0 39 1;
#X connect 35 0 40 1;
#X connect 35 0 41 1;
#X connect 36 0 37 0;
#X connect 36 0 46 0;
#X connect 38 0 47 0;
#X connect 38 0 42 0;
#X connect 39 0 48 0;
#X connect 39 0 43 0;
#X connect 40 0 49 0;
#X connect 40 0 44 0;
#X connect 41 0 50 0;
#X connect 41 0 45 0;
#X connect 54 0 2 0;
#X connect 55 0 14 0;
#X connect 56 0 57 0;
#X connect 57 0 15 0;
#X connect 58 0 53 0;
#X coords 0 -1 1 1 250 150 1 100 100;
#X restore 122 333 pd chebychev;
#X text 121 316 Chebychev;
#X obj 196 59 unpack;
#X floatatom 196 81 5 0 0 0 - - -, f 5;
#X floatatom 238 81 5 0 0 0 - - -, f 5;
#X obj 266 555 r cheb_open;
#X obj 251 578 *~;
#X obj 78 573 *~;
#X obj 93 550 r vco_open;
#X obj 155 585 *~;
#X obj 170 562 r fou_open;
#N canvas 370 330 1491 669 fm 0;
#X obj 101 101 cnv 15 158 148 empty fm_b empty 20 12 0 14 -262131 -66577
0;
#X obj 416 341 osc~;
#X text 447 291 freq moduladora;
#X obj 465 318 *~;
#X text 493 317 amplitude moduladora;
#X obj 399 394 +~;
#X obj 398 436 osc~;
#X obj 415 289 *~;
#X obj 416 366 *~;
#X obj 399 472 outlet~;
#X obj 394 135 inlet;
#X obj 394 239 vline~;
#X obj 150 123 vsl 15 100 0 30 0 0 empty empty Índice 0 -9 0 10 -204800
-1 -1 200 1;
#X obj 109 123 vsl 15 100 0 30 0 0 empty empty Harm. 0 -9 0 10 -261234
-1 -1 700 1;
#X obj 319 327 vline~;
#X obj 693 255 vline~;
#X obj 394 171 unpack;
#X obj 176 193 tgl 15 0 empty empty empty 17 7 0 10 -204786 -13381
-1 1 1;
#X obj 738 165 sel 0;
#X obj 693 225 *;
#X msg 738 187 1;
#X obj 680 178 spigot;
#X msg 784 189 loadbang;
#X text 174 158 Controle;
#X text 174 173 por amplitude;
#X obj 296 281 s fm_toggle;
#X obj 703 126 r fm_toggle;
#X obj 109 230 nbx 3 14 -1e+37 1e+37 0 0 empty empty empty 0 -8 0 10
-261234 -1 -1 2.12121 256;
#X obj 151 230 nbx 3 14 -1e+37 1e+37 0 0 empty empty empty 0 -8 0 10
-204800 -1 -1 0.429492 256;
#X connect 1 0 8 0;
#X connect 3 0 8 1;
#X connect 5 0 6 0;
#X connect 6 0 9 0;
#X connect 7 0 3 0;
#X connect 7 0 1 0;
#X connect 8 0 5 1;
#X connect 10 0 16 0;
#X connect 11 0 7 0;
#X connect 11 0 5 0;
#X connect 12 0 19 0;
#X connect 13 0 14 0;
#X connect 13 0 27 0;
#X connect 14 0 7 1;
#X connect 15 0 3 1;
#X connect 16 0 11 0;
#X connect 16 1 21 0;
#X connect 17 0 25 0;
#X connect 18 0 20 0;
#X connect 19 0 15 0;
#X connect 19 0 28 0;
#X connect 20 0 19 1;
#X connect 21 0 19 1;
#X connect 22 0 20 0;
#X connect 26 0 21 1;
#X connect 26 0 18 0;
#X coords 0 -1 1 1 160 150 2 100 100;
#X restore 407 334 pd fm;
#X text 412 314 Síntese FM;
#X obj 341 578 *~;
#X obj 356 555 r fm_open;
#X connect 1 0 19 0;
#X connect 2 0 1 0;
#X connect 2 1 4 0;
#X connect 2 2 12 0;
#X connect 2 3 23 0;
#X connect 4 0 21 0;
#X connect 7 0 2 0;
#X connect 7 0 14 0;
#X connect 8 0 9 0;
#X connect 10 0 11 0;
#X connect 12 0 18 0;
#X connect 14 0 15 0;
#X connect 14 1 16 0;
#X connect 17 0 18 1;
#X connect 18 0 5 0;
#X connect 19 0 5 0;
#X connect 20 0 19 1;
#X connect 21 0 5 0;
#X connect 22 0 21 1;
#X connect 23 0 25 0;
#X connect 25 0 5 0;
#X connect 26 0 25 1;
#X coords 0 -1 1 1 500 400 2 100 100;
